M48
;GenerationSoftware,Autodesk,EAGLE,9.3.2*%
;CreationDate,2019-05-18T12:06:01Z*%
FMAT,2
ICI,OFF
METRIC,TZ,000.000
T7C0.600
T6C0.813
T5C1.000
T4C1.020
T3C1.500
T2C1.520
T1C3.000
%
G90
M71
T1
X40000Y46000
X20000Y14000
T2
X5080Y25400
X5080Y22860
X5080Y20320
T3
X6350Y35560
X6350Y38100
X6350Y40640
T4
X43180Y39370
X43180Y34290
X43180Y31750
X43180Y29210
X43180Y26670
X43180Y24130
X43180Y36830
T5
X20917Y37819
X20476Y40320
X20035Y42822
X19594Y45323
X19153Y47825
X41218Y10448
X40777Y12950
X40336Y15451
X39895Y17953
X39454Y20454
X39013Y22955
X38572Y25457
X38131Y27958
X37690Y30460
X37249Y32961
X36807Y35462
X36366Y37964
X35925Y40465
X35484Y42967
X35043Y45468
X34602Y47970
X34161Y50471
X15240Y30480
X26210Y7802
X25769Y10303
X25328Y12805
X24886Y15306
X24445Y17808
X24004Y20309
X23563Y22810
X23122Y25312
X22681Y27813
X45080Y16510
X47620Y16510
X50160Y16510
X52700Y16510
X22240Y30315
X21799Y32816
X21358Y35317
T6
X15240Y33020
X15240Y27940
T7
X2540Y34290
X2540Y29210
M30