M48
;GenerationSoftware,Autodesk,EAGLE,9.3.2*%
;CreationDate,2019-05-18T05:45:21Z*%
FMAT,2
ICI,OFF
METRIC,TZ,000.000
T12C0.350
T11C0.500
T10C0.508
T9C0.600
T8C0.700
T7C0.800
T6C0.813
T5C1.000
T4C1.020
T3C1.500
T2C1.520
T1C3.000
%
G90
M71
T1
X56000Y50000
X24000Y30000
T2
X36830Y3810
X39370Y3810
X41910Y3810
T3
X66040Y59690
X66040Y64770
X66040Y62230
T4
X11430Y59690
X16510Y59690
X24130Y59690
X21590Y59690
X13970Y59690
X19050Y59690
X8890Y59690
T5
X30710Y68350
X30710Y70890
X30710Y73430
X30710Y75970
X64110Y50570
X66650Y50570
X69190Y50570
X71730Y50570
X64110Y53110
X66650Y53110
X69190Y53110
X71730Y53110
X12422Y21947
X34070Y45720
X56510Y40000
X49530Y12700
X49530Y15240
X49530Y17780
X49530Y20320
X49530Y22860
X49530Y25400
X49530Y27940
X49530Y30480
X49530Y33020
X49530Y35560
X49530Y38100
X49530Y40640
X49530Y43180
X49530Y45720
X49530Y48260
X49530Y53340
X49530Y55880
X49530Y58420
X49530Y60960
X49530Y63500
X49530Y66040
X49530Y68580
X49530Y71120
X34070Y12700
X34070Y15240
X34070Y17780
X34070Y20320
X34070Y22860
X34070Y25400
X34070Y27940
X34070Y30480
X34070Y33020
X34070Y35560
X34070Y38100
X34070Y40640
X34070Y43180
X49530Y50800
X34070Y48260
X34070Y50800
X34070Y53340
X34070Y55880
X34070Y58420
X12422Y14327
X34070Y63500
X34070Y66040
X34070Y68580
X34070Y71120
X60330Y71120
X57790Y71120
X55250Y71120
X52710Y71120
X77470Y43820
X77470Y41280
X34070Y60960
X77470Y36200
X30710Y53110
X12422Y16867
X12422Y19407
X12422Y24487
X30710Y55650
X30710Y58190
X30710Y60730
X30710Y63270
X30710Y65810
X77470Y38740
T6
X15240Y67310
X20320Y67310
X20320Y71120
X25400Y71120
X56510Y42540
X48260Y6350
X48260Y3810
X56510Y37460
X6350Y22860
X6350Y30480
X13970Y12700
X19050Y12700
X19050Y10160
X24130Y10160
X66040Y15240
X68580Y15240
X49530Y73660
X54610Y73660
X45720Y76200
X50800Y76200
T7
X60198Y17730
X60198Y30430
X60198Y27890
X60198Y25350
X60198Y22810
X60198Y20270
X60198Y10110
X60198Y15190
X60198Y12650
T8
X5510Y45680
X5510Y43680
X5510Y41680
X5510Y39680
X5510Y37680
X5510Y51680
X5510Y47680
X5510Y49680
X5510Y53680
X27510Y53680
X27510Y51680
X27510Y49680
X27510Y47680
X27510Y45680
X27510Y43680
X27510Y41680
X27510Y55680
X27510Y39680
X27510Y37680
X5510Y55680
T9
X29210Y3810
X26670Y63500
X19635Y36830
X34290Y3810
X13385Y36830
X26670Y66040
X26670Y68580
T10
X54051Y41859
X19710Y34950
X52070Y36830
X54610Y59690
X59690Y59690
X32512Y67259
X32512Y53645
X54610Y26670
X22860Y16510
X24130Y53340
X21590Y49530
X2540Y34290
X60960Y41910
X65024Y45517
X66040Y38100
X18288Y28829
X19050Y20193
X14859Y19431
X60960Y52070
X19812Y25146
T11
X66040Y21590
X68580Y21590
T12
X5080Y27940
X72390Y34290
X55880Y13970
X52070Y7620
M30