G04 EAGLE Gerber RS-274X export*
G75*
%MOMM*%
%FSLAX34Y34*%
%LPD*%
%IN*%
%IPPOS*%
%AMOC8*
5,1,8,0,0,1.08239X$1,22.5*%
G01*
%ADD10C,0.254000*%


D10*
X800000Y395091D02*
X800000Y404909D01*
X799759Y414724D01*
X799277Y424530D01*
X798555Y434322D01*
X797593Y444092D01*
X796391Y453836D01*
X794950Y463548D01*
X793272Y473221D01*
X791356Y482851D01*
X789205Y492430D01*
X786820Y501954D01*
X784201Y511416D01*
X781351Y520811D01*
X778271Y530134D01*
X774964Y539378D01*
X771430Y548538D01*
X767673Y557609D01*
X763695Y566584D01*
X759497Y575460D01*
X755083Y584229D01*
X750454Y592888D01*
X745615Y601431D01*
X740568Y609852D01*
X735315Y618146D01*
X729861Y626310D01*
X724207Y634337D01*
X718359Y642223D01*
X712318Y649963D01*
X706090Y657552D01*
X699677Y664986D01*
X693084Y672261D01*
X686314Y679372D01*
X679372Y686314D01*
X672261Y693084D01*
X664986Y699677D01*
X657552Y706090D01*
X649963Y712318D01*
X642223Y718359D01*
X634337Y724207D01*
X626310Y729861D01*
X618146Y735315D01*
X609852Y740568D01*
X601431Y745615D01*
X592888Y750454D01*
X584229Y755083D01*
X575460Y759497D01*
X566584Y763695D01*
X557609Y767673D01*
X548538Y771430D01*
X539378Y774964D01*
X530134Y778271D01*
X520811Y781351D01*
X511416Y784201D01*
X501954Y786820D01*
X492430Y789205D01*
X482851Y791356D01*
X473221Y793272D01*
X463548Y794950D01*
X453836Y796391D01*
X444092Y797593D01*
X434322Y798555D01*
X424530Y799277D01*
X414724Y799759D01*
X404909Y800000D01*
X395091Y800000D01*
X385276Y799759D01*
X375470Y799277D01*
X365679Y798555D01*
X355908Y797593D01*
X346164Y796391D01*
X336452Y794950D01*
X326779Y793272D01*
X317149Y791356D01*
X307570Y789205D01*
X298046Y786820D01*
X288584Y784201D01*
X279189Y781351D01*
X269866Y778271D01*
X260622Y774964D01*
X251462Y771430D01*
X242391Y767673D01*
X233416Y763695D01*
X224540Y759497D01*
X215771Y755083D01*
X207112Y750454D01*
X198569Y745615D01*
X190148Y740568D01*
X181854Y735315D01*
X173690Y729861D01*
X165663Y724207D01*
X157777Y718359D01*
X150037Y712318D01*
X142448Y706090D01*
X135014Y699677D01*
X127739Y693084D01*
X120628Y686314D01*
X113686Y679372D01*
X106916Y672261D01*
X100323Y664986D01*
X93910Y657552D01*
X87682Y649963D01*
X81641Y642223D01*
X75793Y634337D01*
X70139Y626310D01*
X64685Y618146D01*
X59432Y609852D01*
X54385Y601431D01*
X49546Y592888D01*
X44917Y584229D01*
X40503Y575460D01*
X36305Y566584D01*
X32327Y557609D01*
X28570Y548538D01*
X25036Y539378D01*
X21729Y530134D01*
X18649Y520811D01*
X15799Y511416D01*
X13180Y501954D01*
X10795Y492430D01*
X8644Y482851D01*
X6728Y473221D01*
X5050Y463548D01*
X3609Y453836D01*
X2407Y444092D01*
X1445Y434322D01*
X723Y424530D01*
X241Y414724D01*
X0Y404909D01*
X0Y395091D01*
X241Y385276D01*
X723Y375470D01*
X1445Y365679D01*
X2407Y355908D01*
X3609Y346164D01*
X5050Y336452D01*
X6728Y326779D01*
X8644Y317149D01*
X10795Y307570D01*
X13180Y298046D01*
X15799Y288584D01*
X18649Y279189D01*
X21729Y269866D01*
X25036Y260622D01*
X28570Y251462D01*
X32327Y242391D01*
X36305Y233416D01*
X40503Y224540D01*
X44917Y215771D01*
X49546Y207112D01*
X54385Y198569D01*
X59432Y190148D01*
X64685Y181854D01*
X70139Y173690D01*
X75793Y165663D01*
X81641Y157777D01*
X87682Y150037D01*
X93910Y142448D01*
X100323Y135014D01*
X106916Y127739D01*
X113686Y120628D01*
X120628Y113686D01*
X127739Y106916D01*
X135014Y100323D01*
X142448Y93910D01*
X150037Y87682D01*
X157777Y81641D01*
X165663Y75793D01*
X173690Y70139D01*
X181854Y64685D01*
X190148Y59432D01*
X198569Y54385D01*
X207112Y49546D01*
X215771Y44917D01*
X224540Y40503D01*
X233416Y36305D01*
X242391Y32327D01*
X251462Y28570D01*
X260622Y25036D01*
X269866Y21729D01*
X279189Y18649D01*
X288584Y15799D01*
X298046Y13180D01*
X307570Y10795D01*
X317149Y8644D01*
X326779Y6728D01*
X336452Y5050D01*
X346164Y3609D01*
X355908Y2407D01*
X365679Y1445D01*
X375470Y723D01*
X385276Y241D01*
X395091Y0D01*
X404909Y0D01*
X414724Y241D01*
X424530Y723D01*
X434322Y1445D01*
X444092Y2407D01*
X453836Y3609D01*
X463548Y5050D01*
X473221Y6728D01*
X482851Y8644D01*
X492430Y10795D01*
X501954Y13180D01*
X511416Y15799D01*
X520811Y18649D01*
X530134Y21729D01*
X539378Y25036D01*
X548538Y28570D01*
X557609Y32327D01*
X566584Y36305D01*
X575460Y40503D01*
X584229Y44917D01*
X592888Y49546D01*
X601431Y54385D01*
X609852Y59432D01*
X618146Y64685D01*
X626310Y70139D01*
X634337Y75793D01*
X642223Y81641D01*
X649963Y87682D01*
X657552Y93910D01*
X664986Y100323D01*
X672261Y106916D01*
X679372Y113686D01*
X686314Y120628D01*
X693084Y127739D01*
X699677Y135014D01*
X706090Y142448D01*
X712318Y150037D01*
X718359Y157777D01*
X724207Y165663D01*
X729861Y173690D01*
X735315Y181854D01*
X740568Y190148D01*
X745615Y198569D01*
X750454Y207112D01*
X755083Y215771D01*
X759497Y224540D01*
X763695Y233416D01*
X767673Y242391D01*
X771430Y251462D01*
X774964Y260622D01*
X778271Y269866D01*
X781351Y279189D01*
X784201Y288584D01*
X786820Y298046D01*
X789205Y307570D01*
X791356Y317149D01*
X793272Y326779D01*
X794950Y336452D01*
X796391Y346164D01*
X797593Y355908D01*
X798555Y365679D01*
X799277Y375470D01*
X799759Y385276D01*
X800000Y395091D01*
X575000Y499464D02*
X574924Y498396D01*
X574771Y497335D01*
X574543Y496288D01*
X574241Y495260D01*
X573867Y494256D01*
X573422Y493281D01*
X572908Y492341D01*
X572329Y491440D01*
X571687Y490582D01*
X570985Y489772D01*
X570228Y489015D01*
X569418Y488313D01*
X568560Y487671D01*
X567659Y487092D01*
X566719Y486578D01*
X565744Y486133D01*
X564740Y485759D01*
X563712Y485457D01*
X562665Y485229D01*
X561604Y485076D01*
X560536Y485000D01*
X559464Y485000D01*
X558396Y485076D01*
X557335Y485229D01*
X556288Y485457D01*
X555260Y485759D01*
X554256Y486133D01*
X553281Y486578D01*
X552341Y487092D01*
X551440Y487671D01*
X550582Y488313D01*
X549772Y489015D01*
X549015Y489772D01*
X548313Y490582D01*
X547671Y491440D01*
X547092Y492341D01*
X546578Y493281D01*
X546133Y494256D01*
X545759Y495260D01*
X545457Y496288D01*
X545229Y497335D01*
X545076Y498396D01*
X545000Y499464D01*
X545000Y500536D01*
X545076Y501604D01*
X545229Y502665D01*
X545457Y503712D01*
X545759Y504740D01*
X546133Y505744D01*
X546578Y506719D01*
X547092Y507659D01*
X547671Y508560D01*
X548313Y509418D01*
X549015Y510228D01*
X549772Y510985D01*
X550582Y511687D01*
X551440Y512329D01*
X552341Y512908D01*
X553281Y513422D01*
X554256Y513867D01*
X555260Y514241D01*
X556288Y514543D01*
X557335Y514771D01*
X558396Y514924D01*
X559464Y515000D01*
X560536Y515000D01*
X561604Y514924D01*
X562665Y514771D01*
X563712Y514543D01*
X564740Y514241D01*
X565744Y513867D01*
X566719Y513422D01*
X567659Y512908D01*
X568560Y512329D01*
X569418Y511687D01*
X570228Y510985D01*
X570985Y510228D01*
X571687Y509418D01*
X572329Y508560D01*
X572908Y507659D01*
X573422Y506719D01*
X573867Y505744D01*
X574241Y504740D01*
X574543Y503712D01*
X574771Y502665D01*
X574924Y501604D01*
X575000Y500536D01*
X575000Y499464D01*
X255000Y299464D02*
X254924Y298396D01*
X254771Y297335D01*
X254543Y296288D01*
X254241Y295260D01*
X253867Y294256D01*
X253422Y293281D01*
X252908Y292341D01*
X252329Y291440D01*
X251687Y290582D01*
X250985Y289772D01*
X250228Y289015D01*
X249418Y288313D01*
X248560Y287671D01*
X247659Y287092D01*
X246719Y286578D01*
X245744Y286133D01*
X244740Y285759D01*
X243712Y285457D01*
X242665Y285229D01*
X241604Y285076D01*
X240536Y285000D01*
X239464Y285000D01*
X238396Y285076D01*
X237335Y285229D01*
X236288Y285457D01*
X235260Y285759D01*
X234256Y286133D01*
X233281Y286578D01*
X232341Y287092D01*
X231440Y287671D01*
X230582Y288313D01*
X229772Y289015D01*
X229015Y289772D01*
X228313Y290582D01*
X227671Y291440D01*
X227092Y292341D01*
X226578Y293281D01*
X226133Y294256D01*
X225759Y295260D01*
X225457Y296288D01*
X225229Y297335D01*
X225076Y298396D01*
X225000Y299464D01*
X225000Y300536D01*
X225076Y301604D01*
X225229Y302665D01*
X225457Y303712D01*
X225759Y304740D01*
X226133Y305744D01*
X226578Y306719D01*
X227092Y307659D01*
X227671Y308560D01*
X228313Y309418D01*
X229015Y310228D01*
X229772Y310985D01*
X230582Y311687D01*
X231440Y312329D01*
X232341Y312908D01*
X233281Y313422D01*
X234256Y313867D01*
X235260Y314241D01*
X236288Y314543D01*
X237335Y314771D01*
X238396Y314924D01*
X239464Y315000D01*
X240536Y315000D01*
X241604Y314924D01*
X242665Y314771D01*
X243712Y314543D01*
X244740Y314241D01*
X245744Y313867D01*
X246719Y313422D01*
X247659Y312908D01*
X248560Y312329D01*
X249418Y311687D01*
X250228Y310985D01*
X250985Y310228D01*
X251687Y309418D01*
X252329Y308560D01*
X252908Y307659D01*
X253422Y306719D01*
X253867Y305744D01*
X254241Y304740D01*
X254543Y303712D01*
X254771Y302665D01*
X254924Y301604D01*
X255000Y300536D01*
X255000Y299464D01*
X570100Y399719D02*
X570037Y399161D01*
X569912Y398614D01*
X569727Y398084D01*
X569483Y397578D01*
X569184Y397102D01*
X568834Y396663D01*
X568437Y396266D01*
X567998Y395916D01*
X567522Y395617D01*
X567016Y395373D01*
X566486Y395188D01*
X565939Y395063D01*
X565381Y395000D01*
X564819Y395000D01*
X564261Y395063D01*
X563714Y395188D01*
X563184Y395373D01*
X562678Y395617D01*
X562202Y395916D01*
X561763Y396266D01*
X561366Y396663D01*
X561016Y397102D01*
X560717Y397578D01*
X560473Y398084D01*
X560288Y398614D01*
X560163Y399161D01*
X560100Y399719D01*
X560100Y400281D01*
X560163Y400839D01*
X560288Y401386D01*
X560473Y401916D01*
X560717Y402422D01*
X561016Y402898D01*
X561366Y403337D01*
X561763Y403734D01*
X562202Y404084D01*
X562678Y404383D01*
X563184Y404627D01*
X563714Y404812D01*
X564261Y404937D01*
X564819Y405000D01*
X565381Y405000D01*
X565939Y404937D01*
X566486Y404812D01*
X567016Y404627D01*
X567522Y404383D01*
X567998Y404084D01*
X568437Y403734D01*
X568834Y403337D01*
X569184Y402898D01*
X569483Y402422D01*
X569727Y401916D01*
X569912Y401386D01*
X570037Y400839D01*
X570100Y400281D01*
X570100Y399719D01*
M02*
