G04 EAGLE Gerber RS-274X export*
G75*
%MOMM*%
%FSLAX34Y34*%
%LPD*%
%INSilkscreen Bottom*%
%IPPOS*%
%AMOC8*
5,1,8,0,0,1.08239X$1,22.5*%
G01*
%ADD10C,0.203200*%
%ADD11C,0.152400*%
%ADD12C,0.076200*%
%ADD13C,0.127000*%
%ADD14C,0.101600*%
%ADD15C,0.015238*%


D10*
X254000Y621030D02*
X254000Y431800D01*
X252730Y431800D01*
X254000Y622300D02*
X76200Y622300D01*
X76200Y431800D01*
X255270Y431800D01*
X273050Y74930D02*
X622300Y74930D01*
X622300Y330200D01*
X273050Y330200D01*
X273050Y74930D01*
X622300Y546100D02*
X774700Y546100D01*
X622300Y546100D02*
X622300Y261620D01*
X621030Y261620D01*
X622300Y261620D02*
X774700Y261620D01*
X774700Y260350D01*
X774700Y261620D02*
X774700Y546100D01*
X622300Y558800D02*
X622300Y723900D01*
X506730Y723900D01*
X506730Y558800D01*
X622300Y558800D01*
X292100Y518160D02*
X292100Y774700D01*
X292100Y518160D02*
X445770Y518160D01*
X445770Y774700D01*
X292100Y774700D01*
D11*
X295543Y213086D02*
X295543Y210376D01*
X295543Y213086D02*
X286512Y213086D01*
X286512Y207667D01*
X286514Y207549D01*
X286520Y207431D01*
X286529Y207313D01*
X286543Y207196D01*
X286560Y207079D01*
X286581Y206962D01*
X286606Y206847D01*
X286635Y206732D01*
X286668Y206618D01*
X286704Y206506D01*
X286744Y206395D01*
X286787Y206285D01*
X286834Y206176D01*
X286884Y206069D01*
X286939Y205964D01*
X286996Y205861D01*
X287057Y205760D01*
X287121Y205660D01*
X287188Y205563D01*
X287258Y205468D01*
X287332Y205376D01*
X287408Y205285D01*
X287488Y205198D01*
X287570Y205113D01*
X287655Y205031D01*
X287742Y204951D01*
X287833Y204875D01*
X287925Y204801D01*
X288020Y204731D01*
X288117Y204664D01*
X288217Y204600D01*
X288318Y204539D01*
X288421Y204482D01*
X288526Y204427D01*
X288633Y204377D01*
X288742Y204330D01*
X288852Y204287D01*
X288963Y204247D01*
X289075Y204211D01*
X289189Y204178D01*
X289304Y204149D01*
X289419Y204124D01*
X289536Y204103D01*
X289653Y204086D01*
X289770Y204072D01*
X289888Y204063D01*
X290006Y204057D01*
X290124Y204055D01*
X290124Y204054D02*
X299156Y204054D01*
X299156Y204055D02*
X299274Y204057D01*
X299392Y204063D01*
X299510Y204072D01*
X299627Y204086D01*
X299744Y204103D01*
X299861Y204124D01*
X299976Y204149D01*
X300091Y204178D01*
X300205Y204211D01*
X300317Y204247D01*
X300428Y204287D01*
X300538Y204330D01*
X300647Y204377D01*
X300754Y204427D01*
X300859Y204481D01*
X300962Y204539D01*
X301063Y204600D01*
X301163Y204664D01*
X301260Y204731D01*
X301355Y204801D01*
X301447Y204875D01*
X301538Y204951D01*
X301625Y205031D01*
X301710Y205113D01*
X301792Y205198D01*
X301872Y205285D01*
X301948Y205376D01*
X302022Y205468D01*
X302092Y205563D01*
X302159Y205660D01*
X302223Y205760D01*
X302284Y205861D01*
X302341Y205964D01*
X302395Y206069D01*
X302446Y206176D01*
X302493Y206285D01*
X302536Y206395D01*
X302576Y206506D01*
X302612Y206618D01*
X302645Y206732D01*
X302674Y206847D01*
X302699Y206962D01*
X302720Y207079D01*
X302737Y207196D01*
X302751Y207313D01*
X302760Y207431D01*
X302766Y207549D01*
X302768Y207667D01*
X302768Y213086D01*
X302768Y220939D02*
X286512Y220939D01*
X302768Y220939D02*
X302768Y225454D01*
X302766Y225587D01*
X302760Y225719D01*
X302750Y225851D01*
X302737Y225983D01*
X302719Y226115D01*
X302698Y226245D01*
X302673Y226376D01*
X302644Y226505D01*
X302611Y226633D01*
X302575Y226761D01*
X302535Y226887D01*
X302491Y227012D01*
X302443Y227136D01*
X302392Y227258D01*
X302337Y227379D01*
X302279Y227498D01*
X302217Y227616D01*
X302152Y227731D01*
X302083Y227845D01*
X302012Y227956D01*
X301936Y228065D01*
X301858Y228172D01*
X301777Y228277D01*
X301692Y228379D01*
X301605Y228479D01*
X301515Y228576D01*
X301422Y228671D01*
X301326Y228762D01*
X301228Y228851D01*
X301127Y228937D01*
X301023Y229020D01*
X300917Y229100D01*
X300809Y229176D01*
X300699Y229250D01*
X300586Y229320D01*
X300472Y229387D01*
X300355Y229450D01*
X300237Y229510D01*
X300117Y229567D01*
X299995Y229620D01*
X299872Y229669D01*
X299748Y229715D01*
X299622Y229757D01*
X299495Y229795D01*
X299367Y229830D01*
X299238Y229861D01*
X299109Y229888D01*
X298978Y229911D01*
X298847Y229931D01*
X298715Y229946D01*
X298583Y229958D01*
X298451Y229966D01*
X298318Y229970D01*
X298186Y229970D01*
X298053Y229966D01*
X297921Y229958D01*
X297789Y229946D01*
X297657Y229931D01*
X297526Y229911D01*
X297395Y229888D01*
X297266Y229861D01*
X297137Y229830D01*
X297009Y229795D01*
X296882Y229757D01*
X296756Y229715D01*
X296632Y229669D01*
X296509Y229620D01*
X296387Y229567D01*
X296267Y229510D01*
X296149Y229450D01*
X296032Y229387D01*
X295918Y229320D01*
X295805Y229250D01*
X295695Y229176D01*
X295587Y229100D01*
X295481Y229020D01*
X295377Y228937D01*
X295276Y228851D01*
X295178Y228762D01*
X295082Y228671D01*
X294989Y228576D01*
X294899Y228479D01*
X294812Y228379D01*
X294727Y228277D01*
X294646Y228172D01*
X294568Y228065D01*
X294492Y227956D01*
X294421Y227845D01*
X294352Y227731D01*
X294287Y227616D01*
X294225Y227498D01*
X294167Y227379D01*
X294112Y227258D01*
X294061Y227136D01*
X294013Y227012D01*
X293969Y226887D01*
X293929Y226761D01*
X293893Y226633D01*
X293860Y226505D01*
X293831Y226376D01*
X293806Y226245D01*
X293785Y226115D01*
X293767Y225983D01*
X293754Y225851D01*
X293744Y225719D01*
X293738Y225587D01*
X293736Y225454D01*
X293737Y225454D02*
X293737Y220939D01*
X286512Y240736D02*
X286514Y240854D01*
X286520Y240972D01*
X286529Y241090D01*
X286543Y241207D01*
X286560Y241324D01*
X286581Y241441D01*
X286606Y241556D01*
X286635Y241671D01*
X286668Y241785D01*
X286704Y241897D01*
X286744Y242008D01*
X286787Y242118D01*
X286834Y242227D01*
X286884Y242334D01*
X286939Y242439D01*
X286996Y242542D01*
X287057Y242643D01*
X287121Y242743D01*
X287188Y242840D01*
X287258Y242935D01*
X287332Y243027D01*
X287408Y243118D01*
X287488Y243205D01*
X287570Y243290D01*
X287655Y243372D01*
X287742Y243452D01*
X287833Y243528D01*
X287925Y243602D01*
X288020Y243672D01*
X288117Y243739D01*
X288217Y243803D01*
X288318Y243864D01*
X288421Y243921D01*
X288526Y243976D01*
X288633Y244026D01*
X288742Y244073D01*
X288852Y244116D01*
X288963Y244156D01*
X289075Y244192D01*
X289189Y244225D01*
X289304Y244254D01*
X289419Y244279D01*
X289536Y244300D01*
X289653Y244317D01*
X289770Y244331D01*
X289888Y244340D01*
X290006Y244346D01*
X290124Y244348D01*
X286512Y240736D02*
X286514Y240553D01*
X286521Y240371D01*
X286532Y240189D01*
X286547Y240007D01*
X286567Y239825D01*
X286590Y239644D01*
X286619Y239464D01*
X286651Y239284D01*
X286688Y239105D01*
X286729Y238928D01*
X286775Y238751D01*
X286824Y238575D01*
X286878Y238401D01*
X286936Y238227D01*
X286998Y238056D01*
X287064Y237886D01*
X287135Y237717D01*
X287209Y237550D01*
X287287Y237385D01*
X287369Y237222D01*
X287455Y237061D01*
X287545Y236902D01*
X287639Y236745D01*
X287736Y236591D01*
X287837Y236439D01*
X287942Y236289D01*
X288050Y236142D01*
X288161Y235998D01*
X288276Y235856D01*
X288395Y235717D01*
X288517Y235581D01*
X288642Y235448D01*
X288770Y235318D01*
X299156Y235769D02*
X299274Y235771D01*
X299392Y235777D01*
X299510Y235786D01*
X299627Y235800D01*
X299744Y235817D01*
X299861Y235838D01*
X299976Y235863D01*
X300091Y235892D01*
X300205Y235925D01*
X300317Y235961D01*
X300428Y236001D01*
X300538Y236044D01*
X300647Y236091D01*
X300754Y236141D01*
X300859Y236196D01*
X300962Y236253D01*
X301063Y236314D01*
X301163Y236378D01*
X301260Y236445D01*
X301355Y236515D01*
X301447Y236589D01*
X301538Y236665D01*
X301625Y236745D01*
X301710Y236827D01*
X301792Y236912D01*
X301872Y236999D01*
X301948Y237090D01*
X302022Y237182D01*
X302092Y237277D01*
X302159Y237374D01*
X302223Y237474D01*
X302284Y237575D01*
X302342Y237678D01*
X302396Y237783D01*
X302446Y237890D01*
X302493Y237999D01*
X302537Y238109D01*
X302576Y238220D01*
X302612Y238333D01*
X302645Y238446D01*
X302674Y238561D01*
X302699Y238676D01*
X302720Y238793D01*
X302737Y238910D01*
X302751Y239027D01*
X302760Y239145D01*
X302766Y239263D01*
X302768Y239381D01*
X302766Y239542D01*
X302760Y239704D01*
X302751Y239865D01*
X302737Y240026D01*
X302720Y240186D01*
X302699Y240346D01*
X302674Y240506D01*
X302645Y240665D01*
X302613Y240823D01*
X302577Y240980D01*
X302537Y241136D01*
X302493Y241292D01*
X302445Y241446D01*
X302394Y241599D01*
X302340Y241751D01*
X302281Y241902D01*
X302220Y242051D01*
X302154Y242198D01*
X302085Y242344D01*
X302013Y242489D01*
X301937Y242631D01*
X301858Y242772D01*
X301776Y242911D01*
X301690Y243047D01*
X301601Y243182D01*
X301509Y243315D01*
X301413Y243445D01*
X295995Y237574D02*
X296057Y237473D01*
X296122Y237373D01*
X296191Y237276D01*
X296263Y237181D01*
X296337Y237088D01*
X296415Y236998D01*
X296496Y236910D01*
X296579Y236825D01*
X296665Y236743D01*
X296754Y236664D01*
X296845Y236587D01*
X296939Y236514D01*
X297035Y236443D01*
X297133Y236376D01*
X297233Y236312D01*
X297336Y236251D01*
X297440Y236194D01*
X297546Y236140D01*
X297654Y236090D01*
X297763Y236043D01*
X297874Y235999D01*
X297986Y235959D01*
X298100Y235923D01*
X298214Y235891D01*
X298330Y235862D01*
X298446Y235837D01*
X298563Y235816D01*
X298681Y235799D01*
X298799Y235785D01*
X298918Y235776D01*
X299037Y235770D01*
X299156Y235768D01*
X293285Y242542D02*
X293223Y242643D01*
X293158Y242743D01*
X293089Y242840D01*
X293017Y242935D01*
X292943Y243028D01*
X292865Y243118D01*
X292784Y243206D01*
X292701Y243291D01*
X292615Y243373D01*
X292526Y243452D01*
X292435Y243529D01*
X292341Y243602D01*
X292245Y243673D01*
X292147Y243740D01*
X292047Y243804D01*
X291944Y243865D01*
X291840Y243922D01*
X291734Y243976D01*
X291626Y244026D01*
X291517Y244073D01*
X291406Y244117D01*
X291294Y244157D01*
X291180Y244193D01*
X291066Y244225D01*
X290950Y244254D01*
X290834Y244279D01*
X290717Y244300D01*
X290599Y244317D01*
X290481Y244331D01*
X290362Y244340D01*
X290243Y244346D01*
X290124Y244348D01*
X293285Y242542D02*
X295995Y237575D01*
D12*
X181229Y386602D02*
X178618Y386602D01*
X178618Y386603D02*
X178517Y386601D01*
X178416Y386595D01*
X178315Y386585D01*
X178215Y386572D01*
X178115Y386554D01*
X178016Y386533D01*
X177918Y386507D01*
X177821Y386478D01*
X177725Y386446D01*
X177631Y386409D01*
X177538Y386369D01*
X177446Y386325D01*
X177357Y386278D01*
X177269Y386227D01*
X177183Y386173D01*
X177100Y386116D01*
X177018Y386056D01*
X176940Y385992D01*
X176863Y385926D01*
X176790Y385856D01*
X176719Y385784D01*
X176651Y385709D01*
X176586Y385631D01*
X176524Y385551D01*
X176465Y385469D01*
X176409Y385384D01*
X176357Y385298D01*
X176308Y385209D01*
X176262Y385118D01*
X176221Y385026D01*
X176182Y384932D01*
X176148Y384837D01*
X176117Y384741D01*
X176090Y384643D01*
X176066Y384545D01*
X176047Y384445D01*
X176031Y384345D01*
X176019Y384245D01*
X176011Y384144D01*
X176007Y384043D01*
X176007Y383941D01*
X176011Y383840D01*
X176019Y383739D01*
X176031Y383639D01*
X176047Y383539D01*
X176066Y383439D01*
X176090Y383341D01*
X176117Y383243D01*
X176148Y383147D01*
X176182Y383052D01*
X176221Y382958D01*
X176262Y382866D01*
X176308Y382775D01*
X176357Y382687D01*
X176409Y382600D01*
X176465Y382515D01*
X176524Y382433D01*
X176586Y382353D01*
X176651Y382275D01*
X176719Y382200D01*
X176790Y382128D01*
X176863Y382058D01*
X176940Y381992D01*
X177018Y381928D01*
X177100Y381868D01*
X177183Y381811D01*
X177269Y381757D01*
X177357Y381706D01*
X177446Y381659D01*
X177538Y381615D01*
X177631Y381575D01*
X177725Y381538D01*
X177821Y381506D01*
X177918Y381477D01*
X178016Y381451D01*
X178115Y381430D01*
X178215Y381412D01*
X178315Y381399D01*
X178416Y381389D01*
X178517Y381383D01*
X178618Y381381D01*
X181229Y381381D01*
X181229Y390779D01*
X178618Y390779D01*
X178528Y390777D01*
X178439Y390771D01*
X178349Y390762D01*
X178260Y390748D01*
X178172Y390731D01*
X178085Y390710D01*
X177998Y390685D01*
X177913Y390656D01*
X177829Y390624D01*
X177747Y390589D01*
X177666Y390549D01*
X177587Y390507D01*
X177510Y390461D01*
X177435Y390411D01*
X177362Y390359D01*
X177291Y390303D01*
X177223Y390245D01*
X177158Y390183D01*
X177095Y390119D01*
X177035Y390052D01*
X176978Y389983D01*
X176924Y389911D01*
X176873Y389837D01*
X176825Y389761D01*
X176781Y389683D01*
X176740Y389603D01*
X176702Y389521D01*
X176668Y389438D01*
X176638Y389353D01*
X176611Y389267D01*
X176588Y389181D01*
X176569Y389093D01*
X176554Y389004D01*
X176542Y388915D01*
X176534Y388826D01*
X176530Y388736D01*
X176530Y388646D01*
X176534Y388556D01*
X176542Y388467D01*
X176554Y388378D01*
X176569Y388289D01*
X176588Y388201D01*
X176611Y388115D01*
X176638Y388029D01*
X176668Y387944D01*
X176702Y387861D01*
X176740Y387779D01*
X176781Y387699D01*
X176825Y387621D01*
X176873Y387545D01*
X176924Y387471D01*
X176978Y387399D01*
X177035Y387330D01*
X177095Y387263D01*
X177158Y387199D01*
X177223Y387137D01*
X177291Y387079D01*
X177362Y387023D01*
X177435Y386971D01*
X177510Y386921D01*
X177587Y386875D01*
X177666Y386833D01*
X177747Y386793D01*
X177829Y386758D01*
X177913Y386726D01*
X177998Y386697D01*
X178085Y386672D01*
X178172Y386651D01*
X178260Y386634D01*
X178349Y386620D01*
X178439Y386611D01*
X178528Y386605D01*
X178618Y386603D01*
X172216Y383992D02*
X172216Y390779D01*
X172217Y383992D02*
X172215Y383891D01*
X172209Y383790D01*
X172199Y383689D01*
X172186Y383589D01*
X172168Y383489D01*
X172147Y383390D01*
X172121Y383292D01*
X172092Y383195D01*
X172060Y383099D01*
X172023Y383005D01*
X171983Y382912D01*
X171939Y382820D01*
X171892Y382731D01*
X171841Y382643D01*
X171787Y382557D01*
X171730Y382474D01*
X171670Y382392D01*
X171606Y382314D01*
X171540Y382237D01*
X171470Y382164D01*
X171398Y382093D01*
X171323Y382025D01*
X171245Y381960D01*
X171165Y381898D01*
X171083Y381839D01*
X170998Y381783D01*
X170911Y381731D01*
X170823Y381682D01*
X170732Y381636D01*
X170640Y381595D01*
X170546Y381556D01*
X170451Y381522D01*
X170355Y381491D01*
X170257Y381464D01*
X170159Y381440D01*
X170059Y381421D01*
X169959Y381405D01*
X169859Y381393D01*
X169758Y381385D01*
X169657Y381381D01*
X169555Y381381D01*
X169454Y381385D01*
X169353Y381393D01*
X169253Y381405D01*
X169153Y381421D01*
X169053Y381440D01*
X168955Y381464D01*
X168857Y381491D01*
X168761Y381522D01*
X168666Y381556D01*
X168572Y381595D01*
X168480Y381636D01*
X168389Y381682D01*
X168301Y381731D01*
X168214Y381783D01*
X168129Y381839D01*
X168047Y381898D01*
X167967Y381960D01*
X167889Y382025D01*
X167814Y382093D01*
X167742Y382164D01*
X167672Y382237D01*
X167606Y382314D01*
X167542Y382392D01*
X167482Y382474D01*
X167425Y382557D01*
X167371Y382643D01*
X167320Y382731D01*
X167273Y382820D01*
X167229Y382912D01*
X167189Y383005D01*
X167152Y383099D01*
X167120Y383195D01*
X167091Y383292D01*
X167065Y383390D01*
X167044Y383489D01*
X167026Y383589D01*
X167013Y383689D01*
X167003Y383790D01*
X166997Y383891D01*
X166995Y383992D01*
X166995Y390779D01*
X163072Y390779D02*
X157851Y390779D01*
X163072Y381381D01*
X157851Y381381D01*
X154538Y390779D02*
X149317Y390779D01*
X154538Y381381D01*
X149317Y381381D01*
D10*
X248920Y267970D02*
X248920Y128270D01*
X109220Y128270D01*
X109220Y267970D01*
X248920Y267970D01*
D11*
X270000Y330200D02*
X210000Y330000D01*
X270000Y330200D02*
X270510Y325120D01*
X210000Y330000D02*
X210000Y270000D01*
X270000Y270000D02*
X270510Y330200D01*
X270000Y270000D02*
X210000Y270000D01*
X209550Y270510D01*
D13*
X508000Y558800D02*
X622300Y558800D01*
D14*
X605772Y562708D02*
X605772Y574392D01*
X602526Y574392D01*
X602413Y574390D01*
X602300Y574384D01*
X602187Y574374D01*
X602074Y574360D01*
X601962Y574343D01*
X601851Y574321D01*
X601741Y574296D01*
X601631Y574266D01*
X601523Y574233D01*
X601416Y574196D01*
X601310Y574156D01*
X601206Y574111D01*
X601103Y574063D01*
X601002Y574012D01*
X600903Y573957D01*
X600806Y573899D01*
X600711Y573837D01*
X600618Y573772D01*
X600528Y573704D01*
X600440Y573633D01*
X600354Y573558D01*
X600271Y573481D01*
X600191Y573401D01*
X600114Y573318D01*
X600039Y573232D01*
X599968Y573144D01*
X599900Y573054D01*
X599835Y572961D01*
X599773Y572866D01*
X599715Y572769D01*
X599660Y572670D01*
X599609Y572569D01*
X599561Y572466D01*
X599516Y572362D01*
X599476Y572256D01*
X599439Y572149D01*
X599406Y572041D01*
X599376Y571931D01*
X599351Y571821D01*
X599329Y571710D01*
X599312Y571598D01*
X599298Y571485D01*
X599288Y571372D01*
X599282Y571259D01*
X599280Y571146D01*
X599282Y571033D01*
X599288Y570920D01*
X599298Y570807D01*
X599312Y570694D01*
X599329Y570582D01*
X599351Y570471D01*
X599376Y570361D01*
X599406Y570251D01*
X599439Y570143D01*
X599476Y570036D01*
X599516Y569930D01*
X599561Y569826D01*
X599609Y569723D01*
X599660Y569622D01*
X599715Y569523D01*
X599773Y569426D01*
X599835Y569331D01*
X599900Y569238D01*
X599968Y569148D01*
X600039Y569060D01*
X600114Y568974D01*
X600191Y568891D01*
X600271Y568811D01*
X600354Y568734D01*
X600440Y568659D01*
X600528Y568588D01*
X600618Y568520D01*
X600711Y568455D01*
X600806Y568393D01*
X600903Y568335D01*
X601002Y568280D01*
X601103Y568229D01*
X601206Y568181D01*
X601310Y568136D01*
X601416Y568096D01*
X601523Y568059D01*
X601631Y568026D01*
X601741Y567996D01*
X601851Y567971D01*
X601962Y567949D01*
X602074Y567932D01*
X602187Y567918D01*
X602300Y567908D01*
X602413Y567902D01*
X602526Y567900D01*
X602526Y567901D02*
X605772Y567901D01*
X601877Y567901D02*
X599281Y562708D01*
X594012Y562708D02*
X588819Y562708D01*
X594012Y562708D02*
X594012Y574392D01*
X588819Y574392D01*
X590117Y569199D02*
X594012Y569199D01*
X579585Y569199D02*
X577638Y569199D01*
X577638Y562708D01*
X581532Y562708D01*
X581631Y562710D01*
X581731Y562716D01*
X581830Y562725D01*
X581928Y562738D01*
X582026Y562755D01*
X582124Y562776D01*
X582220Y562801D01*
X582315Y562829D01*
X582409Y562861D01*
X582502Y562896D01*
X582594Y562935D01*
X582684Y562978D01*
X582772Y563023D01*
X582859Y563073D01*
X582943Y563125D01*
X583026Y563181D01*
X583106Y563239D01*
X583184Y563301D01*
X583259Y563366D01*
X583332Y563434D01*
X583402Y563504D01*
X583470Y563577D01*
X583535Y563652D01*
X583597Y563730D01*
X583655Y563810D01*
X583711Y563893D01*
X583763Y563977D01*
X583813Y564064D01*
X583858Y564152D01*
X583901Y564242D01*
X583940Y564334D01*
X583975Y564427D01*
X584007Y564521D01*
X584035Y564616D01*
X584060Y564712D01*
X584081Y564810D01*
X584098Y564908D01*
X584111Y565006D01*
X584120Y565105D01*
X584126Y565205D01*
X584128Y565304D01*
X584129Y565304D02*
X584129Y571796D01*
X584128Y571796D02*
X584126Y571895D01*
X584120Y571995D01*
X584111Y572094D01*
X584098Y572192D01*
X584081Y572290D01*
X584060Y572388D01*
X584035Y572484D01*
X584007Y572579D01*
X583975Y572673D01*
X583940Y572766D01*
X583901Y572858D01*
X583858Y572948D01*
X583813Y573036D01*
X583763Y573123D01*
X583711Y573207D01*
X583655Y573290D01*
X583597Y573370D01*
X583535Y573448D01*
X583470Y573523D01*
X583402Y573596D01*
X583332Y573666D01*
X583259Y573734D01*
X583184Y573799D01*
X583106Y573861D01*
X583026Y573919D01*
X582943Y573975D01*
X582859Y574027D01*
X582772Y574077D01*
X582684Y574122D01*
X582594Y574165D01*
X582502Y574204D01*
X582409Y574239D01*
X582315Y574271D01*
X582220Y574299D01*
X582124Y574324D01*
X582026Y574345D01*
X581928Y574362D01*
X581830Y574375D01*
X581731Y574384D01*
X581631Y574390D01*
X581532Y574392D01*
X577638Y574392D01*
X571937Y574392D02*
X571937Y565954D01*
X571935Y565841D01*
X571929Y565728D01*
X571919Y565615D01*
X571905Y565502D01*
X571888Y565390D01*
X571866Y565279D01*
X571841Y565169D01*
X571811Y565059D01*
X571778Y564951D01*
X571741Y564844D01*
X571701Y564738D01*
X571656Y564634D01*
X571608Y564531D01*
X571557Y564430D01*
X571502Y564331D01*
X571444Y564234D01*
X571382Y564139D01*
X571317Y564046D01*
X571249Y563956D01*
X571178Y563868D01*
X571103Y563782D01*
X571026Y563699D01*
X570946Y563619D01*
X570863Y563542D01*
X570777Y563467D01*
X570689Y563396D01*
X570599Y563328D01*
X570506Y563263D01*
X570411Y563201D01*
X570314Y563143D01*
X570215Y563088D01*
X570114Y563037D01*
X570011Y562989D01*
X569907Y562944D01*
X569801Y562904D01*
X569694Y562867D01*
X569586Y562834D01*
X569476Y562804D01*
X569366Y562779D01*
X569255Y562757D01*
X569143Y562740D01*
X569030Y562726D01*
X568917Y562716D01*
X568804Y562710D01*
X568691Y562708D01*
X568578Y562710D01*
X568465Y562716D01*
X568352Y562726D01*
X568239Y562740D01*
X568127Y562757D01*
X568016Y562779D01*
X567906Y562804D01*
X567796Y562834D01*
X567688Y562867D01*
X567581Y562904D01*
X567475Y562944D01*
X567371Y562989D01*
X567268Y563037D01*
X567167Y563088D01*
X567068Y563143D01*
X566971Y563201D01*
X566876Y563263D01*
X566783Y563328D01*
X566693Y563396D01*
X566605Y563467D01*
X566519Y563542D01*
X566436Y563619D01*
X566356Y563699D01*
X566279Y563782D01*
X566204Y563868D01*
X566133Y563956D01*
X566065Y564046D01*
X566000Y564139D01*
X565938Y564234D01*
X565880Y564331D01*
X565825Y564430D01*
X565774Y564531D01*
X565726Y564634D01*
X565681Y564738D01*
X565641Y564844D01*
X565604Y564951D01*
X565571Y565059D01*
X565541Y565169D01*
X565516Y565279D01*
X565494Y565390D01*
X565477Y565502D01*
X565463Y565615D01*
X565453Y565728D01*
X565447Y565841D01*
X565445Y565954D01*
X565446Y565954D02*
X565446Y574392D01*
X559722Y574392D02*
X559722Y562708D01*
X554529Y562708D01*
X550869Y562708D02*
X546974Y574392D01*
X543079Y562708D01*
X544053Y565629D02*
X549895Y565629D01*
X536306Y562708D02*
X536306Y574392D01*
X533061Y574392D02*
X539552Y574392D01*
X528884Y571146D02*
X528884Y565954D01*
X528884Y571146D02*
X528882Y571259D01*
X528876Y571372D01*
X528866Y571485D01*
X528852Y571598D01*
X528835Y571710D01*
X528813Y571821D01*
X528788Y571931D01*
X528758Y572041D01*
X528725Y572149D01*
X528688Y572256D01*
X528648Y572362D01*
X528603Y572466D01*
X528555Y572569D01*
X528504Y572670D01*
X528449Y572769D01*
X528391Y572866D01*
X528329Y572961D01*
X528264Y573054D01*
X528196Y573144D01*
X528125Y573232D01*
X528050Y573318D01*
X527973Y573401D01*
X527893Y573481D01*
X527810Y573558D01*
X527724Y573633D01*
X527636Y573704D01*
X527546Y573772D01*
X527453Y573837D01*
X527358Y573899D01*
X527261Y573957D01*
X527162Y574012D01*
X527061Y574063D01*
X526958Y574111D01*
X526854Y574156D01*
X526748Y574196D01*
X526641Y574233D01*
X526533Y574266D01*
X526423Y574296D01*
X526313Y574321D01*
X526202Y574343D01*
X526090Y574360D01*
X525977Y574374D01*
X525864Y574384D01*
X525751Y574390D01*
X525638Y574392D01*
X525525Y574390D01*
X525412Y574384D01*
X525299Y574374D01*
X525186Y574360D01*
X525074Y574343D01*
X524963Y574321D01*
X524853Y574296D01*
X524743Y574266D01*
X524635Y574233D01*
X524528Y574196D01*
X524422Y574156D01*
X524318Y574111D01*
X524215Y574063D01*
X524114Y574012D01*
X524015Y573957D01*
X523918Y573899D01*
X523823Y573837D01*
X523730Y573772D01*
X523640Y573704D01*
X523552Y573633D01*
X523466Y573558D01*
X523383Y573481D01*
X523303Y573401D01*
X523226Y573318D01*
X523151Y573232D01*
X523080Y573144D01*
X523012Y573054D01*
X522947Y572961D01*
X522885Y572866D01*
X522827Y572769D01*
X522772Y572670D01*
X522721Y572569D01*
X522673Y572466D01*
X522628Y572362D01*
X522588Y572256D01*
X522551Y572149D01*
X522518Y572041D01*
X522488Y571931D01*
X522463Y571821D01*
X522441Y571710D01*
X522424Y571598D01*
X522410Y571485D01*
X522400Y571372D01*
X522394Y571259D01*
X522392Y571146D01*
X522393Y571146D02*
X522393Y565954D01*
X522392Y565954D02*
X522394Y565841D01*
X522400Y565728D01*
X522410Y565615D01*
X522424Y565502D01*
X522441Y565390D01*
X522463Y565279D01*
X522488Y565169D01*
X522518Y565059D01*
X522551Y564951D01*
X522588Y564844D01*
X522628Y564738D01*
X522673Y564634D01*
X522721Y564531D01*
X522772Y564430D01*
X522827Y564331D01*
X522885Y564234D01*
X522947Y564139D01*
X523012Y564046D01*
X523080Y563956D01*
X523151Y563868D01*
X523226Y563782D01*
X523303Y563699D01*
X523383Y563619D01*
X523466Y563542D01*
X523552Y563467D01*
X523640Y563396D01*
X523730Y563328D01*
X523823Y563263D01*
X523918Y563201D01*
X524015Y563143D01*
X524114Y563088D01*
X524215Y563037D01*
X524318Y562989D01*
X524422Y562944D01*
X524528Y562904D01*
X524635Y562867D01*
X524743Y562834D01*
X524853Y562804D01*
X524963Y562779D01*
X525074Y562757D01*
X525186Y562740D01*
X525299Y562726D01*
X525412Y562716D01*
X525525Y562710D01*
X525638Y562708D01*
X525751Y562710D01*
X525864Y562716D01*
X525977Y562726D01*
X526090Y562740D01*
X526202Y562757D01*
X526313Y562779D01*
X526423Y562804D01*
X526533Y562834D01*
X526641Y562867D01*
X526748Y562904D01*
X526854Y562944D01*
X526958Y562989D01*
X527061Y563037D01*
X527162Y563088D01*
X527261Y563143D01*
X527358Y563201D01*
X527453Y563263D01*
X527546Y563328D01*
X527636Y563396D01*
X527724Y563467D01*
X527810Y563542D01*
X527893Y563619D01*
X527973Y563699D01*
X528050Y563782D01*
X528125Y563868D01*
X528196Y563956D01*
X528264Y564046D01*
X528329Y564139D01*
X528391Y564234D01*
X528449Y564331D01*
X528504Y564430D01*
X528555Y564531D01*
X528603Y564634D01*
X528648Y564738D01*
X528688Y564844D01*
X528725Y564951D01*
X528758Y565059D01*
X528788Y565169D01*
X528813Y565279D01*
X528835Y565390D01*
X528852Y565502D01*
X528866Y565615D01*
X528876Y565728D01*
X528882Y565841D01*
X528884Y565954D01*
X516999Y562708D02*
X516999Y574392D01*
X513754Y574392D01*
X513641Y574390D01*
X513528Y574384D01*
X513415Y574374D01*
X513302Y574360D01*
X513190Y574343D01*
X513079Y574321D01*
X512969Y574296D01*
X512859Y574266D01*
X512751Y574233D01*
X512644Y574196D01*
X512538Y574156D01*
X512434Y574111D01*
X512331Y574063D01*
X512230Y574012D01*
X512131Y573957D01*
X512034Y573899D01*
X511939Y573837D01*
X511846Y573772D01*
X511756Y573704D01*
X511668Y573633D01*
X511582Y573558D01*
X511499Y573481D01*
X511419Y573401D01*
X511342Y573318D01*
X511267Y573232D01*
X511196Y573144D01*
X511128Y573054D01*
X511063Y572961D01*
X511001Y572866D01*
X510943Y572769D01*
X510888Y572670D01*
X510837Y572569D01*
X510789Y572466D01*
X510744Y572362D01*
X510704Y572256D01*
X510667Y572149D01*
X510634Y572041D01*
X510604Y571931D01*
X510579Y571821D01*
X510557Y571710D01*
X510540Y571598D01*
X510526Y571485D01*
X510516Y571372D01*
X510510Y571259D01*
X510508Y571146D01*
X510510Y571033D01*
X510516Y570920D01*
X510526Y570807D01*
X510540Y570694D01*
X510557Y570582D01*
X510579Y570471D01*
X510604Y570361D01*
X510634Y570251D01*
X510667Y570143D01*
X510704Y570036D01*
X510744Y569930D01*
X510789Y569826D01*
X510837Y569723D01*
X510888Y569622D01*
X510943Y569523D01*
X511001Y569426D01*
X511063Y569331D01*
X511128Y569238D01*
X511196Y569148D01*
X511267Y569060D01*
X511342Y568974D01*
X511419Y568891D01*
X511499Y568811D01*
X511582Y568734D01*
X511668Y568659D01*
X511756Y568588D01*
X511846Y568520D01*
X511939Y568455D01*
X512034Y568393D01*
X512131Y568335D01*
X512230Y568280D01*
X512331Y568229D01*
X512434Y568181D01*
X512538Y568136D01*
X512644Y568096D01*
X512751Y568059D01*
X512859Y568026D01*
X512969Y567996D01*
X513079Y567971D01*
X513190Y567949D01*
X513302Y567932D01*
X513415Y567918D01*
X513528Y567908D01*
X513641Y567902D01*
X513754Y567900D01*
X513754Y567901D02*
X516999Y567901D01*
X513104Y567901D02*
X510508Y562708D01*
D12*
X97259Y583819D02*
X94127Y574421D01*
X90994Y583819D01*
X86812Y583819D02*
X86812Y574421D01*
X87856Y574421D02*
X85767Y574421D01*
X85767Y583819D02*
X87856Y583819D01*
X81802Y583819D02*
X81802Y574421D01*
X76581Y574421D02*
X81802Y583819D01*
X76581Y583819D02*
X76581Y574421D01*
X124288Y607441D02*
X126898Y607441D01*
X124288Y607441D02*
X124187Y607443D01*
X124086Y607449D01*
X123985Y607459D01*
X123885Y607472D01*
X123785Y607490D01*
X123686Y607511D01*
X123588Y607537D01*
X123491Y607566D01*
X123395Y607598D01*
X123301Y607635D01*
X123208Y607675D01*
X123116Y607719D01*
X123027Y607766D01*
X122939Y607817D01*
X122853Y607871D01*
X122770Y607928D01*
X122688Y607988D01*
X122610Y608052D01*
X122533Y608118D01*
X122460Y608188D01*
X122389Y608260D01*
X122321Y608335D01*
X122256Y608413D01*
X122194Y608493D01*
X122135Y608575D01*
X122079Y608660D01*
X122027Y608747D01*
X121978Y608835D01*
X121932Y608926D01*
X121891Y609018D01*
X121852Y609112D01*
X121818Y609207D01*
X121787Y609303D01*
X121760Y609401D01*
X121736Y609499D01*
X121717Y609599D01*
X121701Y609699D01*
X121689Y609799D01*
X121681Y609900D01*
X121677Y610001D01*
X121677Y610103D01*
X121681Y610204D01*
X121689Y610305D01*
X121701Y610405D01*
X121717Y610505D01*
X121736Y610605D01*
X121760Y610703D01*
X121787Y610801D01*
X121818Y610897D01*
X121852Y610992D01*
X121891Y611086D01*
X121932Y611178D01*
X121978Y611269D01*
X122027Y611358D01*
X122079Y611444D01*
X122135Y611529D01*
X122194Y611611D01*
X122256Y611691D01*
X122321Y611769D01*
X122389Y611844D01*
X122460Y611916D01*
X122533Y611986D01*
X122610Y612052D01*
X122688Y612116D01*
X122770Y612176D01*
X122853Y612233D01*
X122939Y612287D01*
X123027Y612338D01*
X123116Y612385D01*
X123208Y612429D01*
X123301Y612469D01*
X123395Y612506D01*
X123491Y612538D01*
X123588Y612567D01*
X123686Y612593D01*
X123785Y612614D01*
X123885Y612632D01*
X123985Y612645D01*
X124086Y612655D01*
X124187Y612661D01*
X124288Y612663D01*
X123766Y616839D02*
X126898Y616839D01*
X123766Y616839D02*
X123676Y616837D01*
X123587Y616831D01*
X123497Y616822D01*
X123408Y616808D01*
X123320Y616791D01*
X123233Y616770D01*
X123146Y616745D01*
X123061Y616716D01*
X122977Y616684D01*
X122895Y616649D01*
X122814Y616609D01*
X122735Y616567D01*
X122658Y616521D01*
X122583Y616471D01*
X122510Y616419D01*
X122439Y616363D01*
X122371Y616305D01*
X122306Y616243D01*
X122243Y616179D01*
X122183Y616112D01*
X122126Y616043D01*
X122072Y615971D01*
X122021Y615897D01*
X121973Y615821D01*
X121929Y615743D01*
X121888Y615663D01*
X121850Y615581D01*
X121816Y615498D01*
X121786Y615413D01*
X121759Y615327D01*
X121736Y615241D01*
X121717Y615153D01*
X121702Y615064D01*
X121690Y614975D01*
X121682Y614886D01*
X121678Y614796D01*
X121678Y614706D01*
X121682Y614616D01*
X121690Y614527D01*
X121702Y614438D01*
X121717Y614349D01*
X121736Y614261D01*
X121759Y614175D01*
X121786Y614089D01*
X121816Y614004D01*
X121850Y613921D01*
X121888Y613839D01*
X121929Y613759D01*
X121973Y613681D01*
X122021Y613605D01*
X122072Y613531D01*
X122126Y613459D01*
X122183Y613390D01*
X122243Y613323D01*
X122306Y613259D01*
X122371Y613197D01*
X122439Y613139D01*
X122510Y613083D01*
X122583Y613031D01*
X122658Y612981D01*
X122735Y612935D01*
X122814Y612893D01*
X122895Y612853D01*
X122977Y612818D01*
X123061Y612786D01*
X123146Y612757D01*
X123233Y612732D01*
X123320Y612711D01*
X123408Y612694D01*
X123497Y612680D01*
X123587Y612671D01*
X123676Y612665D01*
X123766Y612663D01*
X123766Y612662D02*
X125854Y612662D01*
X118276Y616839D02*
X115144Y607441D01*
X112011Y616839D01*
X108698Y611618D02*
X108698Y609529D01*
X108697Y611618D02*
X108695Y611708D01*
X108689Y611797D01*
X108680Y611887D01*
X108666Y611976D01*
X108649Y612064D01*
X108628Y612151D01*
X108603Y612238D01*
X108574Y612323D01*
X108542Y612407D01*
X108507Y612489D01*
X108467Y612570D01*
X108425Y612649D01*
X108379Y612726D01*
X108329Y612801D01*
X108277Y612874D01*
X108221Y612945D01*
X108163Y613013D01*
X108101Y613078D01*
X108037Y613141D01*
X107970Y613201D01*
X107901Y613258D01*
X107829Y613312D01*
X107755Y613363D01*
X107679Y613411D01*
X107601Y613455D01*
X107521Y613496D01*
X107439Y613534D01*
X107356Y613568D01*
X107271Y613598D01*
X107185Y613625D01*
X107099Y613648D01*
X107011Y613667D01*
X106922Y613682D01*
X106833Y613694D01*
X106744Y613702D01*
X106654Y613706D01*
X106564Y613706D01*
X106474Y613702D01*
X106385Y613694D01*
X106296Y613682D01*
X106207Y613667D01*
X106119Y613648D01*
X106033Y613625D01*
X105947Y613598D01*
X105862Y613568D01*
X105779Y613534D01*
X105697Y613496D01*
X105617Y613455D01*
X105539Y613411D01*
X105463Y613363D01*
X105389Y613312D01*
X105317Y613258D01*
X105248Y613201D01*
X105181Y613141D01*
X105117Y613078D01*
X105055Y613013D01*
X104997Y612945D01*
X104941Y612874D01*
X104889Y612801D01*
X104839Y612726D01*
X104793Y612649D01*
X104751Y612570D01*
X104711Y612489D01*
X104676Y612407D01*
X104644Y612323D01*
X104615Y612238D01*
X104590Y612151D01*
X104569Y612064D01*
X104552Y611976D01*
X104538Y611887D01*
X104529Y611797D01*
X104523Y611708D01*
X104521Y611618D01*
X104521Y609529D01*
X104523Y609439D01*
X104529Y609350D01*
X104538Y609260D01*
X104552Y609171D01*
X104569Y609083D01*
X104590Y608996D01*
X104615Y608909D01*
X104644Y608824D01*
X104676Y608740D01*
X104711Y608658D01*
X104751Y608577D01*
X104793Y608498D01*
X104839Y608421D01*
X104889Y608346D01*
X104941Y608273D01*
X104997Y608202D01*
X105055Y608134D01*
X105117Y608069D01*
X105181Y608006D01*
X105248Y607946D01*
X105317Y607889D01*
X105389Y607835D01*
X105463Y607784D01*
X105539Y607736D01*
X105617Y607692D01*
X105697Y607651D01*
X105779Y607613D01*
X105862Y607579D01*
X105947Y607549D01*
X106033Y607522D01*
X106119Y607499D01*
X106207Y607480D01*
X106296Y607465D01*
X106385Y607453D01*
X106474Y607445D01*
X106564Y607441D01*
X106654Y607441D01*
X106744Y607445D01*
X106833Y607453D01*
X106922Y607465D01*
X107011Y607480D01*
X107099Y607499D01*
X107185Y607522D01*
X107271Y607549D01*
X107356Y607579D01*
X107439Y607613D01*
X107521Y607651D01*
X107601Y607692D01*
X107679Y607736D01*
X107755Y607784D01*
X107829Y607835D01*
X107901Y607889D01*
X107970Y607946D01*
X108037Y608006D01*
X108101Y608069D01*
X108163Y608134D01*
X108221Y608202D01*
X108277Y608273D01*
X108329Y608346D01*
X108379Y608421D01*
X108425Y608498D01*
X108467Y608577D01*
X108507Y608658D01*
X108542Y608740D01*
X108574Y608824D01*
X108603Y608909D01*
X108628Y608996D01*
X108649Y609083D01*
X108666Y609171D01*
X108680Y609260D01*
X108689Y609350D01*
X108695Y609439D01*
X108697Y609529D01*
X149428Y579642D02*
X150995Y579642D01*
X149428Y579642D02*
X149428Y574421D01*
X152561Y574421D01*
X152650Y574423D01*
X152738Y574429D01*
X152826Y574438D01*
X152914Y574451D01*
X153001Y574468D01*
X153087Y574488D01*
X153172Y574513D01*
X153257Y574540D01*
X153340Y574572D01*
X153421Y574606D01*
X153501Y574645D01*
X153579Y574686D01*
X153656Y574731D01*
X153730Y574779D01*
X153803Y574830D01*
X153873Y574884D01*
X153940Y574942D01*
X154006Y575002D01*
X154068Y575064D01*
X154128Y575130D01*
X154186Y575197D01*
X154240Y575267D01*
X154291Y575340D01*
X154339Y575414D01*
X154384Y575491D01*
X154425Y575569D01*
X154464Y575649D01*
X154498Y575730D01*
X154530Y575813D01*
X154557Y575898D01*
X154582Y575983D01*
X154602Y576069D01*
X154619Y576156D01*
X154632Y576244D01*
X154641Y576332D01*
X154647Y576420D01*
X154649Y576509D01*
X154649Y581731D01*
X154647Y581820D01*
X154641Y581908D01*
X154632Y581996D01*
X154619Y582084D01*
X154602Y582171D01*
X154582Y582257D01*
X154557Y582342D01*
X154530Y582427D01*
X154498Y582510D01*
X154464Y582591D01*
X154425Y582671D01*
X154384Y582749D01*
X154339Y582826D01*
X154291Y582900D01*
X154240Y582973D01*
X154186Y583043D01*
X154128Y583110D01*
X154068Y583176D01*
X154006Y583238D01*
X153940Y583298D01*
X153873Y583356D01*
X153803Y583410D01*
X153730Y583461D01*
X153656Y583509D01*
X153579Y583554D01*
X153501Y583595D01*
X153421Y583634D01*
X153340Y583668D01*
X153257Y583700D01*
X153172Y583727D01*
X153087Y583752D01*
X153001Y583772D01*
X152914Y583789D01*
X152826Y583802D01*
X152738Y583811D01*
X152650Y583817D01*
X152561Y583819D01*
X149428Y583819D01*
X144896Y583819D02*
X144896Y574421D01*
X139675Y574421D02*
X144896Y583819D01*
X139675Y583819D02*
X139675Y574421D01*
X135142Y574421D02*
X135142Y583819D01*
X132532Y583819D01*
X132432Y583817D01*
X132332Y583811D01*
X132233Y583802D01*
X132133Y583788D01*
X132035Y583771D01*
X131937Y583750D01*
X131840Y583726D01*
X131744Y583697D01*
X131649Y583665D01*
X131556Y583630D01*
X131464Y583591D01*
X131373Y583548D01*
X131285Y583502D01*
X131198Y583452D01*
X131113Y583400D01*
X131030Y583344D01*
X130949Y583285D01*
X130871Y583222D01*
X130795Y583157D01*
X130721Y583089D01*
X130651Y583019D01*
X130583Y582945D01*
X130518Y582869D01*
X130455Y582791D01*
X130396Y582710D01*
X130340Y582627D01*
X130288Y582542D01*
X130238Y582455D01*
X130192Y582367D01*
X130149Y582276D01*
X130110Y582184D01*
X130075Y582091D01*
X130043Y581996D01*
X130014Y581900D01*
X129990Y581803D01*
X129969Y581705D01*
X129952Y581607D01*
X129938Y581507D01*
X129929Y581408D01*
X129923Y581308D01*
X129921Y581208D01*
X129921Y577032D01*
X129923Y576932D01*
X129929Y576832D01*
X129938Y576733D01*
X129952Y576633D01*
X129969Y576535D01*
X129990Y576437D01*
X130014Y576340D01*
X130043Y576244D01*
X130075Y576149D01*
X130110Y576056D01*
X130149Y575964D01*
X130192Y575873D01*
X130238Y575785D01*
X130288Y575698D01*
X130340Y575613D01*
X130396Y575530D01*
X130455Y575449D01*
X130518Y575371D01*
X130583Y575295D01*
X130651Y575221D01*
X130721Y575151D01*
X130795Y575083D01*
X130871Y575018D01*
X130949Y574955D01*
X131030Y574896D01*
X131113Y574840D01*
X131198Y574788D01*
X131285Y574738D01*
X131373Y574692D01*
X131464Y574649D01*
X131556Y574610D01*
X131649Y574575D01*
X131744Y574543D01*
X131840Y574514D01*
X131937Y574490D01*
X132035Y574469D01*
X132133Y574452D01*
X132233Y574438D01*
X132332Y574429D01*
X132432Y574423D01*
X132532Y574421D01*
X135142Y574421D01*
X172217Y609529D02*
X172219Y609440D01*
X172225Y609352D01*
X172234Y609264D01*
X172247Y609176D01*
X172264Y609089D01*
X172284Y609003D01*
X172309Y608918D01*
X172336Y608833D01*
X172368Y608750D01*
X172402Y608669D01*
X172441Y608589D01*
X172482Y608511D01*
X172527Y608434D01*
X172575Y608360D01*
X172626Y608287D01*
X172680Y608217D01*
X172738Y608150D01*
X172798Y608084D01*
X172860Y608022D01*
X172926Y607962D01*
X172993Y607904D01*
X173063Y607850D01*
X173136Y607799D01*
X173210Y607751D01*
X173287Y607706D01*
X173365Y607665D01*
X173445Y607626D01*
X173526Y607592D01*
X173609Y607560D01*
X173694Y607533D01*
X173779Y607508D01*
X173865Y607488D01*
X173952Y607471D01*
X174040Y607458D01*
X174128Y607449D01*
X174216Y607443D01*
X174305Y607441D01*
X174434Y607443D01*
X174563Y607449D01*
X174692Y607458D01*
X174820Y607471D01*
X174948Y607488D01*
X175075Y607509D01*
X175202Y607533D01*
X175328Y607561D01*
X175453Y607593D01*
X175577Y607628D01*
X175700Y607667D01*
X175822Y607710D01*
X175942Y607756D01*
X176061Y607806D01*
X176179Y607859D01*
X176295Y607915D01*
X176409Y607975D01*
X176522Y608038D01*
X176632Y608105D01*
X176741Y608174D01*
X176847Y608247D01*
X176952Y608323D01*
X177054Y608402D01*
X177154Y608484D01*
X177251Y608568D01*
X177346Y608656D01*
X177438Y608746D01*
X177176Y614751D02*
X177174Y614840D01*
X177168Y614928D01*
X177159Y615016D01*
X177146Y615104D01*
X177129Y615191D01*
X177109Y615277D01*
X177084Y615362D01*
X177057Y615447D01*
X177025Y615530D01*
X176991Y615611D01*
X176952Y615691D01*
X176911Y615769D01*
X176866Y615846D01*
X176818Y615920D01*
X176767Y615993D01*
X176713Y616063D01*
X176655Y616130D01*
X176595Y616196D01*
X176533Y616258D01*
X176467Y616318D01*
X176400Y616376D01*
X176330Y616430D01*
X176257Y616481D01*
X176183Y616529D01*
X176106Y616574D01*
X176028Y616615D01*
X175948Y616654D01*
X175867Y616688D01*
X175784Y616720D01*
X175699Y616747D01*
X175614Y616772D01*
X175528Y616792D01*
X175441Y616809D01*
X175353Y616822D01*
X175265Y616831D01*
X175177Y616837D01*
X175088Y616839D01*
X174968Y616837D01*
X174848Y616832D01*
X174729Y616822D01*
X174609Y616810D01*
X174490Y616793D01*
X174372Y616773D01*
X174254Y616749D01*
X174138Y616722D01*
X174022Y616691D01*
X173907Y616657D01*
X173793Y616619D01*
X173680Y616577D01*
X173569Y616532D01*
X173459Y616484D01*
X173351Y616433D01*
X173244Y616378D01*
X173139Y616320D01*
X173036Y616258D01*
X172935Y616194D01*
X172835Y616126D01*
X172738Y616056D01*
X176132Y612924D02*
X176210Y612972D01*
X176286Y613024D01*
X176359Y613078D01*
X176430Y613136D01*
X176499Y613197D01*
X176565Y613261D01*
X176628Y613328D01*
X176688Y613397D01*
X176745Y613469D01*
X176799Y613543D01*
X176849Y613620D01*
X176897Y613699D01*
X176940Y613779D01*
X176981Y613862D01*
X177017Y613946D01*
X177050Y614031D01*
X177079Y614118D01*
X177105Y614207D01*
X177127Y614296D01*
X177144Y614386D01*
X177158Y614476D01*
X177168Y614568D01*
X177174Y614659D01*
X177176Y614751D01*
X173260Y611356D02*
X173182Y611308D01*
X173106Y611256D01*
X173033Y611202D01*
X172962Y611144D01*
X172893Y611083D01*
X172827Y611019D01*
X172764Y610952D01*
X172704Y610883D01*
X172647Y610811D01*
X172593Y610737D01*
X172543Y610660D01*
X172495Y610581D01*
X172452Y610501D01*
X172411Y610418D01*
X172375Y610334D01*
X172342Y610249D01*
X172313Y610162D01*
X172287Y610073D01*
X172265Y609984D01*
X172248Y609894D01*
X172234Y609804D01*
X172224Y609712D01*
X172218Y609621D01*
X172216Y609529D01*
X173260Y611357D02*
X176132Y612923D01*
X166535Y607441D02*
X164447Y607441D01*
X166535Y607441D02*
X166624Y607443D01*
X166712Y607449D01*
X166800Y607458D01*
X166888Y607471D01*
X166975Y607488D01*
X167061Y607508D01*
X167146Y607533D01*
X167231Y607560D01*
X167314Y607592D01*
X167395Y607626D01*
X167475Y607665D01*
X167553Y607706D01*
X167630Y607751D01*
X167704Y607799D01*
X167777Y607850D01*
X167847Y607904D01*
X167914Y607962D01*
X167980Y608022D01*
X168042Y608084D01*
X168102Y608150D01*
X168160Y608217D01*
X168214Y608287D01*
X168265Y608360D01*
X168313Y608434D01*
X168358Y608511D01*
X168399Y608589D01*
X168438Y608669D01*
X168472Y608750D01*
X168504Y608833D01*
X168531Y608918D01*
X168556Y609003D01*
X168576Y609089D01*
X168593Y609176D01*
X168606Y609264D01*
X168615Y609352D01*
X168621Y609440D01*
X168623Y609529D01*
X168624Y609529D02*
X168624Y614751D01*
X168623Y614751D02*
X168621Y614840D01*
X168615Y614928D01*
X168606Y615016D01*
X168593Y615104D01*
X168576Y615191D01*
X168556Y615277D01*
X168531Y615362D01*
X168504Y615447D01*
X168472Y615530D01*
X168438Y615611D01*
X168399Y615691D01*
X168358Y615769D01*
X168313Y615846D01*
X168265Y615920D01*
X168214Y615993D01*
X168160Y616063D01*
X168102Y616130D01*
X168042Y616196D01*
X167980Y616258D01*
X167914Y616318D01*
X167847Y616376D01*
X167777Y616430D01*
X167704Y616481D01*
X167630Y616529D01*
X167553Y616574D01*
X167475Y616615D01*
X167395Y616654D01*
X167314Y616688D01*
X167231Y616720D01*
X167146Y616747D01*
X167061Y616772D01*
X166975Y616792D01*
X166888Y616809D01*
X166800Y616822D01*
X166712Y616831D01*
X166624Y616837D01*
X166535Y616839D01*
X164447Y616839D01*
X160542Y616839D02*
X160542Y607441D01*
X160542Y611096D02*
X155321Y616839D01*
X158454Y613184D02*
X155321Y607441D01*
X199314Y576509D02*
X199316Y576420D01*
X199322Y576332D01*
X199331Y576244D01*
X199344Y576156D01*
X199361Y576069D01*
X199381Y575983D01*
X199406Y575898D01*
X199433Y575813D01*
X199465Y575730D01*
X199499Y575649D01*
X199538Y575569D01*
X199579Y575491D01*
X199624Y575414D01*
X199672Y575340D01*
X199723Y575267D01*
X199777Y575197D01*
X199835Y575130D01*
X199895Y575064D01*
X199957Y575002D01*
X200023Y574942D01*
X200090Y574884D01*
X200160Y574830D01*
X200233Y574779D01*
X200307Y574731D01*
X200384Y574686D01*
X200462Y574645D01*
X200542Y574606D01*
X200623Y574572D01*
X200706Y574540D01*
X200791Y574513D01*
X200876Y574488D01*
X200962Y574468D01*
X201049Y574451D01*
X201137Y574438D01*
X201225Y574429D01*
X201313Y574423D01*
X201402Y574421D01*
X201531Y574423D01*
X201660Y574429D01*
X201789Y574438D01*
X201917Y574451D01*
X202045Y574468D01*
X202172Y574489D01*
X202299Y574513D01*
X202425Y574541D01*
X202550Y574573D01*
X202674Y574608D01*
X202797Y574647D01*
X202919Y574690D01*
X203039Y574736D01*
X203158Y574786D01*
X203276Y574839D01*
X203392Y574895D01*
X203506Y574955D01*
X203619Y575018D01*
X203729Y575085D01*
X203838Y575154D01*
X203944Y575227D01*
X204049Y575303D01*
X204151Y575382D01*
X204251Y575464D01*
X204348Y575548D01*
X204443Y575636D01*
X204535Y575726D01*
X204273Y581731D02*
X204271Y581820D01*
X204265Y581908D01*
X204256Y581996D01*
X204243Y582084D01*
X204226Y582171D01*
X204206Y582257D01*
X204181Y582342D01*
X204154Y582427D01*
X204122Y582510D01*
X204088Y582591D01*
X204049Y582671D01*
X204008Y582749D01*
X203963Y582826D01*
X203915Y582900D01*
X203864Y582973D01*
X203810Y583043D01*
X203752Y583110D01*
X203692Y583176D01*
X203630Y583238D01*
X203564Y583298D01*
X203497Y583356D01*
X203427Y583410D01*
X203354Y583461D01*
X203280Y583509D01*
X203203Y583554D01*
X203125Y583595D01*
X203045Y583634D01*
X202964Y583668D01*
X202881Y583700D01*
X202796Y583727D01*
X202711Y583752D01*
X202625Y583772D01*
X202538Y583789D01*
X202450Y583802D01*
X202362Y583811D01*
X202274Y583817D01*
X202185Y583819D01*
X202065Y583817D01*
X201945Y583812D01*
X201826Y583802D01*
X201706Y583790D01*
X201587Y583773D01*
X201469Y583753D01*
X201351Y583729D01*
X201235Y583702D01*
X201119Y583671D01*
X201004Y583637D01*
X200890Y583599D01*
X200777Y583557D01*
X200666Y583512D01*
X200556Y583464D01*
X200448Y583413D01*
X200341Y583358D01*
X200236Y583300D01*
X200133Y583238D01*
X200032Y583174D01*
X199932Y583106D01*
X199835Y583036D01*
X203230Y579904D02*
X203308Y579952D01*
X203384Y580004D01*
X203457Y580058D01*
X203528Y580116D01*
X203597Y580177D01*
X203663Y580241D01*
X203726Y580308D01*
X203786Y580377D01*
X203843Y580449D01*
X203897Y580523D01*
X203947Y580600D01*
X203995Y580679D01*
X204038Y580759D01*
X204079Y580842D01*
X204115Y580926D01*
X204148Y581011D01*
X204177Y581098D01*
X204203Y581187D01*
X204225Y581276D01*
X204242Y581366D01*
X204256Y581456D01*
X204266Y581548D01*
X204272Y581639D01*
X204274Y581731D01*
X200358Y578336D02*
X200280Y578288D01*
X200204Y578236D01*
X200131Y578182D01*
X200060Y578124D01*
X199991Y578063D01*
X199925Y577999D01*
X199862Y577932D01*
X199802Y577863D01*
X199745Y577791D01*
X199691Y577717D01*
X199641Y577640D01*
X199593Y577561D01*
X199550Y577481D01*
X199509Y577398D01*
X199473Y577314D01*
X199440Y577229D01*
X199411Y577142D01*
X199385Y577053D01*
X199363Y576964D01*
X199346Y576874D01*
X199332Y576784D01*
X199322Y576692D01*
X199316Y576601D01*
X199314Y576509D01*
X200358Y578337D02*
X203230Y579903D01*
X195391Y583819D02*
X195391Y574421D01*
X195391Y583819D02*
X192780Y583819D01*
X192680Y583817D01*
X192580Y583811D01*
X192481Y583802D01*
X192381Y583788D01*
X192283Y583771D01*
X192185Y583750D01*
X192088Y583726D01*
X191992Y583697D01*
X191897Y583665D01*
X191804Y583630D01*
X191712Y583591D01*
X191621Y583548D01*
X191533Y583502D01*
X191446Y583452D01*
X191361Y583400D01*
X191278Y583344D01*
X191197Y583285D01*
X191119Y583222D01*
X191043Y583157D01*
X190969Y583089D01*
X190899Y583019D01*
X190831Y582945D01*
X190766Y582869D01*
X190703Y582791D01*
X190644Y582710D01*
X190588Y582627D01*
X190536Y582542D01*
X190486Y582455D01*
X190440Y582367D01*
X190397Y582276D01*
X190358Y582184D01*
X190323Y582091D01*
X190291Y581996D01*
X190262Y581900D01*
X190238Y581803D01*
X190217Y581705D01*
X190200Y581607D01*
X190186Y581507D01*
X190177Y581408D01*
X190171Y581308D01*
X190169Y581208D01*
X190170Y581208D02*
X190170Y577032D01*
X190169Y577032D02*
X190171Y576932D01*
X190177Y576832D01*
X190186Y576733D01*
X190200Y576633D01*
X190217Y576535D01*
X190238Y576437D01*
X190262Y576340D01*
X190291Y576244D01*
X190323Y576149D01*
X190358Y576056D01*
X190397Y575964D01*
X190440Y575873D01*
X190486Y575785D01*
X190536Y575698D01*
X190588Y575613D01*
X190644Y575530D01*
X190703Y575449D01*
X190766Y575371D01*
X190831Y575295D01*
X190899Y575221D01*
X190969Y575151D01*
X191043Y575083D01*
X191119Y575018D01*
X191197Y574955D01*
X191278Y574896D01*
X191361Y574840D01*
X191446Y574788D01*
X191533Y574738D01*
X191621Y574692D01*
X191712Y574649D01*
X191804Y574610D01*
X191897Y574575D01*
X191992Y574543D01*
X192088Y574514D01*
X192185Y574490D01*
X192283Y574469D01*
X192381Y574452D01*
X192481Y574438D01*
X192580Y574429D01*
X192680Y574423D01*
X192780Y574421D01*
X195391Y574421D01*
X185942Y577032D02*
X185942Y581208D01*
X185943Y581208D02*
X185941Y581309D01*
X185935Y581410D01*
X185925Y581511D01*
X185912Y581611D01*
X185894Y581711D01*
X185873Y581810D01*
X185847Y581908D01*
X185818Y582005D01*
X185786Y582101D01*
X185749Y582195D01*
X185709Y582288D01*
X185665Y582380D01*
X185618Y582469D01*
X185567Y582557D01*
X185513Y582643D01*
X185456Y582726D01*
X185396Y582808D01*
X185332Y582886D01*
X185266Y582963D01*
X185196Y583036D01*
X185124Y583107D01*
X185049Y583175D01*
X184971Y583240D01*
X184891Y583302D01*
X184809Y583361D01*
X184724Y583417D01*
X184638Y583469D01*
X184549Y583518D01*
X184458Y583564D01*
X184366Y583605D01*
X184272Y583644D01*
X184177Y583678D01*
X184081Y583709D01*
X183983Y583736D01*
X183885Y583760D01*
X183785Y583779D01*
X183685Y583795D01*
X183585Y583807D01*
X183484Y583815D01*
X183383Y583819D01*
X183281Y583819D01*
X183180Y583815D01*
X183079Y583807D01*
X182979Y583795D01*
X182879Y583779D01*
X182779Y583760D01*
X182681Y583736D01*
X182583Y583709D01*
X182487Y583678D01*
X182392Y583644D01*
X182298Y583605D01*
X182206Y583564D01*
X182115Y583518D01*
X182027Y583469D01*
X181940Y583417D01*
X181855Y583361D01*
X181773Y583302D01*
X181693Y583240D01*
X181615Y583175D01*
X181540Y583107D01*
X181468Y583036D01*
X181398Y582963D01*
X181332Y582886D01*
X181268Y582808D01*
X181208Y582726D01*
X181151Y582643D01*
X181097Y582557D01*
X181046Y582469D01*
X180999Y582380D01*
X180955Y582288D01*
X180915Y582195D01*
X180878Y582101D01*
X180846Y582005D01*
X180817Y581908D01*
X180791Y581810D01*
X180770Y581711D01*
X180752Y581611D01*
X180739Y581511D01*
X180729Y581410D01*
X180723Y581309D01*
X180721Y581208D01*
X180721Y577032D01*
X180723Y576931D01*
X180729Y576830D01*
X180739Y576729D01*
X180752Y576629D01*
X180770Y576529D01*
X180791Y576430D01*
X180817Y576332D01*
X180846Y576235D01*
X180878Y576139D01*
X180915Y576045D01*
X180955Y575952D01*
X180999Y575860D01*
X181046Y575771D01*
X181097Y575683D01*
X181151Y575597D01*
X181208Y575514D01*
X181268Y575432D01*
X181332Y575354D01*
X181398Y575277D01*
X181468Y575204D01*
X181540Y575133D01*
X181615Y575065D01*
X181693Y575000D01*
X181773Y574938D01*
X181855Y574879D01*
X181940Y574823D01*
X182027Y574771D01*
X182115Y574722D01*
X182206Y574676D01*
X182298Y574635D01*
X182392Y574596D01*
X182487Y574562D01*
X182583Y574531D01*
X182681Y574504D01*
X182779Y574480D01*
X182879Y574461D01*
X182979Y574445D01*
X183079Y574433D01*
X183180Y574425D01*
X183281Y574421D01*
X183383Y574421D01*
X183484Y574425D01*
X183585Y574433D01*
X183685Y574445D01*
X183785Y574461D01*
X183885Y574480D01*
X183983Y574504D01*
X184081Y574531D01*
X184177Y574562D01*
X184272Y574596D01*
X184366Y574635D01*
X184458Y574676D01*
X184549Y574722D01*
X184637Y574771D01*
X184724Y574823D01*
X184809Y574879D01*
X184891Y574938D01*
X184971Y575000D01*
X185049Y575065D01*
X185124Y575133D01*
X185196Y575204D01*
X185266Y575277D01*
X185332Y575354D01*
X185396Y575432D01*
X185456Y575514D01*
X185513Y575597D01*
X185567Y575683D01*
X185618Y575771D01*
X185665Y575860D01*
X185709Y575952D01*
X185749Y576045D01*
X185786Y576139D01*
X185818Y576235D01*
X185847Y576332D01*
X185873Y576430D01*
X185894Y576529D01*
X185912Y576629D01*
X185925Y576729D01*
X185935Y576830D01*
X185941Y576931D01*
X185943Y577032D01*
X221319Y609529D02*
X221321Y609440D01*
X221327Y609352D01*
X221336Y609264D01*
X221349Y609176D01*
X221366Y609089D01*
X221386Y609003D01*
X221411Y608918D01*
X221438Y608833D01*
X221470Y608750D01*
X221504Y608669D01*
X221543Y608589D01*
X221584Y608511D01*
X221629Y608434D01*
X221677Y608360D01*
X221728Y608287D01*
X221782Y608217D01*
X221840Y608150D01*
X221900Y608084D01*
X221962Y608022D01*
X222028Y607962D01*
X222095Y607904D01*
X222165Y607850D01*
X222238Y607799D01*
X222312Y607751D01*
X222389Y607706D01*
X222467Y607665D01*
X222547Y607626D01*
X222628Y607592D01*
X222711Y607560D01*
X222796Y607533D01*
X222881Y607508D01*
X222967Y607488D01*
X223054Y607471D01*
X223142Y607458D01*
X223230Y607449D01*
X223318Y607443D01*
X223407Y607441D01*
X223536Y607443D01*
X223665Y607449D01*
X223794Y607458D01*
X223922Y607471D01*
X224050Y607488D01*
X224177Y607509D01*
X224304Y607533D01*
X224430Y607561D01*
X224555Y607593D01*
X224679Y607628D01*
X224802Y607667D01*
X224924Y607710D01*
X225044Y607756D01*
X225163Y607806D01*
X225281Y607859D01*
X225397Y607915D01*
X225511Y607975D01*
X225624Y608038D01*
X225734Y608105D01*
X225843Y608174D01*
X225949Y608247D01*
X226054Y608323D01*
X226156Y608402D01*
X226256Y608484D01*
X226353Y608568D01*
X226448Y608656D01*
X226540Y608746D01*
X226278Y614751D02*
X226276Y614840D01*
X226270Y614928D01*
X226261Y615016D01*
X226248Y615104D01*
X226231Y615191D01*
X226211Y615277D01*
X226186Y615362D01*
X226159Y615447D01*
X226127Y615530D01*
X226093Y615611D01*
X226054Y615691D01*
X226013Y615769D01*
X225968Y615846D01*
X225920Y615920D01*
X225869Y615993D01*
X225815Y616063D01*
X225757Y616130D01*
X225697Y616196D01*
X225635Y616258D01*
X225569Y616318D01*
X225502Y616376D01*
X225432Y616430D01*
X225359Y616481D01*
X225285Y616529D01*
X225208Y616574D01*
X225130Y616615D01*
X225050Y616654D01*
X224969Y616688D01*
X224886Y616720D01*
X224801Y616747D01*
X224716Y616772D01*
X224630Y616792D01*
X224543Y616809D01*
X224455Y616822D01*
X224367Y616831D01*
X224279Y616837D01*
X224190Y616839D01*
X224070Y616837D01*
X223950Y616832D01*
X223831Y616822D01*
X223711Y616810D01*
X223592Y616793D01*
X223474Y616773D01*
X223356Y616749D01*
X223240Y616722D01*
X223124Y616691D01*
X223009Y616657D01*
X222895Y616619D01*
X222782Y616577D01*
X222671Y616532D01*
X222561Y616484D01*
X222453Y616433D01*
X222346Y616378D01*
X222241Y616320D01*
X222138Y616258D01*
X222037Y616194D01*
X221937Y616126D01*
X221840Y616056D01*
X225235Y612924D02*
X225313Y612972D01*
X225389Y613024D01*
X225462Y613078D01*
X225533Y613136D01*
X225602Y613197D01*
X225668Y613261D01*
X225731Y613328D01*
X225791Y613397D01*
X225848Y613469D01*
X225902Y613543D01*
X225952Y613620D01*
X226000Y613699D01*
X226043Y613779D01*
X226084Y613862D01*
X226120Y613946D01*
X226153Y614031D01*
X226182Y614118D01*
X226208Y614207D01*
X226230Y614296D01*
X226247Y614386D01*
X226261Y614476D01*
X226271Y614568D01*
X226277Y614659D01*
X226279Y614751D01*
X222363Y611356D02*
X222285Y611308D01*
X222209Y611256D01*
X222136Y611202D01*
X222065Y611144D01*
X221996Y611083D01*
X221930Y611019D01*
X221867Y610952D01*
X221807Y610883D01*
X221750Y610811D01*
X221696Y610737D01*
X221646Y610660D01*
X221598Y610581D01*
X221555Y610501D01*
X221514Y610418D01*
X221478Y610334D01*
X221445Y610249D01*
X221416Y610162D01*
X221390Y610073D01*
X221368Y609984D01*
X221351Y609894D01*
X221337Y609804D01*
X221327Y609712D01*
X221321Y609621D01*
X221319Y609529D01*
X222363Y611357D02*
X225234Y612923D01*
X217396Y616839D02*
X217396Y607441D01*
X217396Y616839D02*
X214785Y616839D01*
X214685Y616837D01*
X214585Y616831D01*
X214486Y616822D01*
X214386Y616808D01*
X214288Y616791D01*
X214190Y616770D01*
X214093Y616746D01*
X213997Y616717D01*
X213902Y616685D01*
X213809Y616650D01*
X213717Y616611D01*
X213626Y616568D01*
X213538Y616522D01*
X213451Y616472D01*
X213366Y616420D01*
X213283Y616364D01*
X213202Y616305D01*
X213124Y616242D01*
X213048Y616177D01*
X212974Y616109D01*
X212904Y616039D01*
X212836Y615965D01*
X212771Y615889D01*
X212708Y615811D01*
X212649Y615730D01*
X212593Y615647D01*
X212541Y615562D01*
X212491Y615475D01*
X212445Y615387D01*
X212402Y615296D01*
X212363Y615204D01*
X212328Y615111D01*
X212296Y615016D01*
X212267Y614920D01*
X212243Y614823D01*
X212222Y614725D01*
X212205Y614627D01*
X212191Y614527D01*
X212182Y614428D01*
X212176Y614328D01*
X212174Y614228D01*
X212175Y614228D02*
X212175Y610052D01*
X212174Y610052D02*
X212176Y609952D01*
X212182Y609852D01*
X212191Y609753D01*
X212205Y609653D01*
X212222Y609555D01*
X212243Y609457D01*
X212267Y609360D01*
X212296Y609264D01*
X212328Y609169D01*
X212363Y609076D01*
X212402Y608984D01*
X212445Y608893D01*
X212491Y608805D01*
X212541Y608718D01*
X212593Y608633D01*
X212649Y608550D01*
X212708Y608469D01*
X212771Y608391D01*
X212836Y608315D01*
X212904Y608241D01*
X212974Y608171D01*
X213048Y608103D01*
X213124Y608038D01*
X213202Y607975D01*
X213283Y607916D01*
X213366Y607860D01*
X213451Y607808D01*
X213538Y607758D01*
X213626Y607712D01*
X213717Y607669D01*
X213809Y607630D01*
X213902Y607595D01*
X213997Y607563D01*
X214093Y607534D01*
X214190Y607510D01*
X214288Y607489D01*
X214386Y607472D01*
X214486Y607458D01*
X214585Y607449D01*
X214685Y607443D01*
X214785Y607441D01*
X217396Y607441D01*
X207165Y607441D02*
X207165Y616839D01*
X208209Y607441D02*
X206121Y607441D01*
X206121Y616839D02*
X208209Y616839D01*
X237366Y574421D02*
X239455Y574421D01*
X239544Y574423D01*
X239632Y574429D01*
X239720Y574438D01*
X239808Y574451D01*
X239895Y574468D01*
X239981Y574488D01*
X240066Y574513D01*
X240151Y574540D01*
X240234Y574572D01*
X240315Y574606D01*
X240395Y574645D01*
X240473Y574686D01*
X240550Y574731D01*
X240624Y574779D01*
X240697Y574830D01*
X240767Y574884D01*
X240834Y574942D01*
X240900Y575002D01*
X240962Y575064D01*
X241022Y575130D01*
X241080Y575197D01*
X241134Y575267D01*
X241185Y575340D01*
X241233Y575414D01*
X241278Y575491D01*
X241319Y575569D01*
X241358Y575649D01*
X241392Y575730D01*
X241424Y575813D01*
X241451Y575898D01*
X241476Y575983D01*
X241496Y576069D01*
X241513Y576156D01*
X241526Y576244D01*
X241535Y576332D01*
X241541Y576420D01*
X241543Y576509D01*
X241543Y581731D01*
X241541Y581820D01*
X241535Y581908D01*
X241526Y581996D01*
X241513Y582084D01*
X241496Y582171D01*
X241476Y582257D01*
X241451Y582342D01*
X241424Y582427D01*
X241392Y582510D01*
X241358Y582591D01*
X241319Y582671D01*
X241278Y582749D01*
X241233Y582826D01*
X241185Y582900D01*
X241134Y582973D01*
X241080Y583043D01*
X241022Y583110D01*
X240962Y583176D01*
X240900Y583238D01*
X240834Y583298D01*
X240767Y583356D01*
X240697Y583410D01*
X240624Y583461D01*
X240550Y583509D01*
X240473Y583554D01*
X240395Y583595D01*
X240315Y583634D01*
X240234Y583668D01*
X240151Y583700D01*
X240066Y583727D01*
X239981Y583752D01*
X239895Y583772D01*
X239808Y583789D01*
X239720Y583802D01*
X239632Y583811D01*
X239544Y583817D01*
X239455Y583819D01*
X237366Y583819D01*
X228981Y576509D02*
X228983Y576420D01*
X228989Y576332D01*
X228998Y576244D01*
X229011Y576156D01*
X229028Y576069D01*
X229048Y575983D01*
X229073Y575898D01*
X229100Y575813D01*
X229132Y575730D01*
X229166Y575649D01*
X229205Y575569D01*
X229246Y575491D01*
X229291Y575414D01*
X229339Y575340D01*
X229390Y575267D01*
X229444Y575197D01*
X229502Y575130D01*
X229562Y575064D01*
X229624Y575002D01*
X229690Y574942D01*
X229757Y574884D01*
X229827Y574830D01*
X229900Y574779D01*
X229974Y574731D01*
X230051Y574686D01*
X230129Y574645D01*
X230209Y574606D01*
X230290Y574572D01*
X230373Y574540D01*
X230458Y574513D01*
X230543Y574488D01*
X230629Y574468D01*
X230716Y574451D01*
X230804Y574438D01*
X230892Y574429D01*
X230980Y574423D01*
X231069Y574421D01*
X231198Y574423D01*
X231327Y574429D01*
X231456Y574438D01*
X231584Y574451D01*
X231712Y574468D01*
X231839Y574489D01*
X231966Y574513D01*
X232092Y574541D01*
X232217Y574573D01*
X232341Y574608D01*
X232464Y574647D01*
X232586Y574690D01*
X232706Y574736D01*
X232825Y574786D01*
X232943Y574839D01*
X233059Y574895D01*
X233173Y574955D01*
X233286Y575018D01*
X233396Y575085D01*
X233505Y575154D01*
X233611Y575227D01*
X233716Y575303D01*
X233818Y575382D01*
X233918Y575464D01*
X234015Y575548D01*
X234110Y575636D01*
X234202Y575726D01*
X233941Y581731D02*
X233939Y581820D01*
X233933Y581908D01*
X233924Y581996D01*
X233911Y582084D01*
X233894Y582171D01*
X233874Y582257D01*
X233849Y582342D01*
X233822Y582427D01*
X233790Y582510D01*
X233756Y582591D01*
X233717Y582671D01*
X233676Y582749D01*
X233631Y582826D01*
X233583Y582900D01*
X233532Y582973D01*
X233478Y583043D01*
X233420Y583110D01*
X233360Y583176D01*
X233298Y583238D01*
X233232Y583298D01*
X233165Y583356D01*
X233095Y583410D01*
X233022Y583461D01*
X232948Y583509D01*
X232871Y583554D01*
X232793Y583595D01*
X232713Y583634D01*
X232632Y583668D01*
X232549Y583700D01*
X232464Y583727D01*
X232379Y583752D01*
X232293Y583772D01*
X232206Y583789D01*
X232118Y583802D01*
X232030Y583811D01*
X231942Y583817D01*
X231853Y583819D01*
X231733Y583817D01*
X231613Y583812D01*
X231494Y583802D01*
X231374Y583790D01*
X231255Y583773D01*
X231137Y583753D01*
X231019Y583729D01*
X230903Y583702D01*
X230787Y583671D01*
X230672Y583637D01*
X230558Y583599D01*
X230445Y583557D01*
X230334Y583512D01*
X230224Y583464D01*
X230116Y583413D01*
X230009Y583358D01*
X229904Y583300D01*
X229801Y583238D01*
X229700Y583174D01*
X229600Y583106D01*
X229503Y583036D01*
X232897Y579904D02*
X232975Y579952D01*
X233051Y580004D01*
X233124Y580058D01*
X233195Y580116D01*
X233264Y580177D01*
X233330Y580241D01*
X233393Y580308D01*
X233453Y580377D01*
X233510Y580449D01*
X233564Y580523D01*
X233614Y580600D01*
X233662Y580679D01*
X233705Y580759D01*
X233746Y580842D01*
X233782Y580926D01*
X233815Y581011D01*
X233844Y581098D01*
X233870Y581187D01*
X233892Y581276D01*
X233909Y581366D01*
X233923Y581456D01*
X233933Y581548D01*
X233939Y581639D01*
X233941Y581731D01*
X230025Y578336D02*
X229947Y578288D01*
X229871Y578236D01*
X229798Y578182D01*
X229727Y578124D01*
X229658Y578063D01*
X229592Y577999D01*
X229529Y577932D01*
X229469Y577863D01*
X229412Y577791D01*
X229358Y577717D01*
X229308Y577640D01*
X229260Y577561D01*
X229217Y577481D01*
X229176Y577398D01*
X229140Y577314D01*
X229107Y577229D01*
X229078Y577142D01*
X229052Y577053D01*
X229030Y576964D01*
X229013Y576874D01*
X228999Y576784D01*
X228989Y576692D01*
X228983Y576601D01*
X228981Y576509D01*
X230025Y578337D02*
X232897Y579903D01*
D14*
X192885Y438799D02*
X189639Y438799D01*
X189639Y438800D02*
X189526Y438798D01*
X189413Y438792D01*
X189300Y438782D01*
X189187Y438768D01*
X189075Y438751D01*
X188964Y438729D01*
X188854Y438704D01*
X188744Y438674D01*
X188636Y438641D01*
X188529Y438604D01*
X188423Y438564D01*
X188319Y438519D01*
X188216Y438471D01*
X188115Y438420D01*
X188016Y438365D01*
X187919Y438307D01*
X187824Y438245D01*
X187731Y438180D01*
X187641Y438112D01*
X187553Y438041D01*
X187467Y437966D01*
X187384Y437889D01*
X187304Y437809D01*
X187227Y437726D01*
X187152Y437640D01*
X187081Y437552D01*
X187013Y437462D01*
X186948Y437369D01*
X186886Y437274D01*
X186828Y437177D01*
X186773Y437078D01*
X186722Y436977D01*
X186674Y436874D01*
X186629Y436770D01*
X186589Y436664D01*
X186552Y436557D01*
X186519Y436449D01*
X186489Y436339D01*
X186464Y436229D01*
X186442Y436118D01*
X186425Y436006D01*
X186411Y435893D01*
X186401Y435780D01*
X186395Y435667D01*
X186393Y435554D01*
X186395Y435441D01*
X186401Y435328D01*
X186411Y435215D01*
X186425Y435102D01*
X186442Y434990D01*
X186464Y434879D01*
X186489Y434769D01*
X186519Y434659D01*
X186552Y434551D01*
X186589Y434444D01*
X186629Y434338D01*
X186674Y434234D01*
X186722Y434131D01*
X186773Y434030D01*
X186828Y433931D01*
X186886Y433834D01*
X186948Y433739D01*
X187013Y433646D01*
X187081Y433556D01*
X187152Y433468D01*
X187227Y433382D01*
X187304Y433299D01*
X187384Y433219D01*
X187467Y433142D01*
X187553Y433067D01*
X187641Y432996D01*
X187731Y432928D01*
X187824Y432863D01*
X187919Y432801D01*
X188016Y432743D01*
X188115Y432688D01*
X188216Y432637D01*
X188319Y432589D01*
X188423Y432544D01*
X188529Y432504D01*
X188636Y432467D01*
X188744Y432434D01*
X188854Y432404D01*
X188964Y432379D01*
X189075Y432357D01*
X189187Y432340D01*
X189300Y432326D01*
X189413Y432316D01*
X189526Y432310D01*
X189639Y432308D01*
X192885Y432308D01*
X192885Y443992D01*
X189639Y443992D01*
X189538Y443990D01*
X189438Y443984D01*
X189338Y443974D01*
X189238Y443961D01*
X189139Y443943D01*
X189040Y443922D01*
X188943Y443897D01*
X188846Y443868D01*
X188751Y443835D01*
X188657Y443799D01*
X188565Y443759D01*
X188474Y443716D01*
X188385Y443669D01*
X188298Y443619D01*
X188212Y443565D01*
X188129Y443508D01*
X188049Y443448D01*
X187970Y443385D01*
X187894Y443318D01*
X187821Y443249D01*
X187751Y443177D01*
X187683Y443103D01*
X187618Y443026D01*
X187557Y442946D01*
X187498Y442864D01*
X187443Y442780D01*
X187391Y442694D01*
X187342Y442606D01*
X187297Y442516D01*
X187255Y442424D01*
X187217Y442331D01*
X187183Y442236D01*
X187152Y442141D01*
X187125Y442044D01*
X187102Y441946D01*
X187082Y441847D01*
X187067Y441747D01*
X187055Y441647D01*
X187047Y441547D01*
X187043Y441446D01*
X187043Y441346D01*
X187047Y441245D01*
X187055Y441145D01*
X187067Y441045D01*
X187082Y440945D01*
X187102Y440846D01*
X187125Y440748D01*
X187152Y440651D01*
X187183Y440556D01*
X187217Y440461D01*
X187255Y440368D01*
X187297Y440276D01*
X187342Y440186D01*
X187391Y440098D01*
X187443Y440012D01*
X187498Y439928D01*
X187557Y439846D01*
X187618Y439766D01*
X187683Y439689D01*
X187751Y439615D01*
X187821Y439543D01*
X187894Y439474D01*
X187970Y439407D01*
X188049Y439344D01*
X188129Y439284D01*
X188212Y439227D01*
X188298Y439173D01*
X188385Y439123D01*
X188474Y439076D01*
X188565Y439033D01*
X188657Y438993D01*
X188751Y438957D01*
X188846Y438924D01*
X188943Y438895D01*
X189040Y438870D01*
X189139Y438849D01*
X189238Y438831D01*
X189338Y438818D01*
X189438Y438808D01*
X189538Y438802D01*
X189639Y438800D01*
X181511Y443992D02*
X181511Y432308D01*
X177616Y437501D02*
X181511Y443992D01*
X177616Y437501D02*
X173722Y443992D01*
X173722Y432308D01*
X167739Y432308D02*
X167739Y443992D01*
X164493Y443992D01*
X164380Y443990D01*
X164267Y443984D01*
X164154Y443974D01*
X164041Y443960D01*
X163929Y443943D01*
X163818Y443921D01*
X163708Y443896D01*
X163598Y443866D01*
X163490Y443833D01*
X163383Y443796D01*
X163277Y443756D01*
X163173Y443711D01*
X163070Y443663D01*
X162969Y443612D01*
X162870Y443557D01*
X162773Y443499D01*
X162678Y443437D01*
X162585Y443372D01*
X162495Y443304D01*
X162407Y443233D01*
X162321Y443158D01*
X162238Y443081D01*
X162158Y443001D01*
X162081Y442918D01*
X162006Y442832D01*
X161935Y442744D01*
X161867Y442654D01*
X161802Y442561D01*
X161740Y442466D01*
X161682Y442369D01*
X161627Y442270D01*
X161576Y442169D01*
X161528Y442066D01*
X161483Y441962D01*
X161443Y441856D01*
X161406Y441749D01*
X161373Y441641D01*
X161343Y441531D01*
X161318Y441421D01*
X161296Y441310D01*
X161279Y441198D01*
X161265Y441085D01*
X161255Y440972D01*
X161249Y440859D01*
X161247Y440746D01*
X161249Y440633D01*
X161255Y440520D01*
X161265Y440407D01*
X161279Y440294D01*
X161296Y440182D01*
X161318Y440071D01*
X161343Y439961D01*
X161373Y439851D01*
X161406Y439743D01*
X161443Y439636D01*
X161483Y439530D01*
X161528Y439426D01*
X161576Y439323D01*
X161627Y439222D01*
X161682Y439123D01*
X161740Y439026D01*
X161802Y438931D01*
X161867Y438838D01*
X161935Y438748D01*
X162006Y438660D01*
X162081Y438574D01*
X162158Y438491D01*
X162238Y438411D01*
X162321Y438334D01*
X162407Y438259D01*
X162495Y438188D01*
X162585Y438120D01*
X162678Y438055D01*
X162773Y437993D01*
X162870Y437935D01*
X162969Y437880D01*
X163070Y437829D01*
X163173Y437781D01*
X163277Y437736D01*
X163383Y437696D01*
X163490Y437659D01*
X163598Y437626D01*
X163708Y437596D01*
X163818Y437571D01*
X163929Y437549D01*
X164041Y437532D01*
X164154Y437518D01*
X164267Y437508D01*
X164380Y437502D01*
X164493Y437500D01*
X164493Y437501D02*
X167739Y437501D01*
X153289Y443992D02*
X153182Y443990D01*
X153076Y443984D01*
X152970Y443974D01*
X152864Y443961D01*
X152758Y443943D01*
X152654Y443922D01*
X152550Y443897D01*
X152447Y443868D01*
X152346Y443836D01*
X152246Y443799D01*
X152147Y443759D01*
X152049Y443716D01*
X151953Y443669D01*
X151859Y443618D01*
X151767Y443564D01*
X151677Y443507D01*
X151589Y443447D01*
X151504Y443383D01*
X151421Y443316D01*
X151340Y443246D01*
X151262Y443174D01*
X151186Y443098D01*
X151114Y443020D01*
X151044Y442939D01*
X150977Y442856D01*
X150913Y442771D01*
X150853Y442683D01*
X150796Y442593D01*
X150742Y442501D01*
X150691Y442407D01*
X150644Y442311D01*
X150601Y442213D01*
X150561Y442114D01*
X150524Y442014D01*
X150492Y441913D01*
X150463Y441810D01*
X150438Y441706D01*
X150417Y441602D01*
X150399Y441496D01*
X150386Y441390D01*
X150376Y441284D01*
X150370Y441178D01*
X150368Y441071D01*
X153289Y443992D02*
X153410Y443990D01*
X153531Y443984D01*
X153651Y443974D01*
X153772Y443961D01*
X153891Y443943D01*
X154011Y443922D01*
X154129Y443897D01*
X154246Y443868D01*
X154363Y443835D01*
X154478Y443799D01*
X154592Y443758D01*
X154705Y443715D01*
X154817Y443667D01*
X154926Y443616D01*
X155034Y443561D01*
X155141Y443503D01*
X155245Y443442D01*
X155347Y443377D01*
X155447Y443309D01*
X155545Y443238D01*
X155641Y443164D01*
X155734Y443087D01*
X155824Y443006D01*
X155912Y442923D01*
X155997Y442837D01*
X156080Y442748D01*
X156159Y442657D01*
X156236Y442563D01*
X156309Y442467D01*
X156379Y442369D01*
X156446Y442268D01*
X156510Y442165D01*
X156571Y442060D01*
X156628Y441953D01*
X156681Y441845D01*
X156731Y441735D01*
X156777Y441623D01*
X156820Y441510D01*
X156859Y441395D01*
X151342Y438799D02*
X151263Y438877D01*
X151187Y438957D01*
X151114Y439040D01*
X151044Y439126D01*
X150977Y439213D01*
X150913Y439304D01*
X150853Y439396D01*
X150795Y439490D01*
X150741Y439587D01*
X150691Y439685D01*
X150644Y439785D01*
X150600Y439886D01*
X150560Y439989D01*
X150524Y440094D01*
X150492Y440199D01*
X150463Y440306D01*
X150438Y440413D01*
X150416Y440522D01*
X150399Y440631D01*
X150385Y440740D01*
X150376Y440850D01*
X150370Y440961D01*
X150368Y441071D01*
X151342Y438799D02*
X156859Y432308D01*
X150368Y432308D01*
X145430Y435554D02*
X145428Y435667D01*
X145422Y435780D01*
X145412Y435893D01*
X145398Y436006D01*
X145381Y436118D01*
X145359Y436229D01*
X145334Y436339D01*
X145304Y436449D01*
X145271Y436557D01*
X145234Y436664D01*
X145194Y436770D01*
X145149Y436874D01*
X145101Y436977D01*
X145050Y437078D01*
X144995Y437177D01*
X144937Y437274D01*
X144875Y437369D01*
X144810Y437462D01*
X144742Y437552D01*
X144671Y437640D01*
X144596Y437726D01*
X144519Y437809D01*
X144439Y437889D01*
X144356Y437966D01*
X144270Y438041D01*
X144182Y438112D01*
X144092Y438180D01*
X143999Y438245D01*
X143904Y438307D01*
X143807Y438365D01*
X143708Y438420D01*
X143607Y438471D01*
X143504Y438519D01*
X143400Y438564D01*
X143294Y438604D01*
X143187Y438641D01*
X143079Y438674D01*
X142969Y438704D01*
X142859Y438729D01*
X142748Y438751D01*
X142636Y438768D01*
X142523Y438782D01*
X142410Y438792D01*
X142297Y438798D01*
X142184Y438800D01*
X142071Y438798D01*
X141958Y438792D01*
X141845Y438782D01*
X141732Y438768D01*
X141620Y438751D01*
X141509Y438729D01*
X141399Y438704D01*
X141289Y438674D01*
X141181Y438641D01*
X141074Y438604D01*
X140968Y438564D01*
X140864Y438519D01*
X140761Y438471D01*
X140660Y438420D01*
X140561Y438365D01*
X140464Y438307D01*
X140369Y438245D01*
X140276Y438180D01*
X140186Y438112D01*
X140098Y438041D01*
X140012Y437966D01*
X139929Y437889D01*
X139849Y437809D01*
X139772Y437726D01*
X139697Y437640D01*
X139626Y437552D01*
X139558Y437462D01*
X139493Y437369D01*
X139431Y437274D01*
X139373Y437177D01*
X139318Y437078D01*
X139267Y436977D01*
X139219Y436874D01*
X139174Y436770D01*
X139134Y436664D01*
X139097Y436557D01*
X139064Y436449D01*
X139034Y436339D01*
X139009Y436229D01*
X138987Y436118D01*
X138970Y436006D01*
X138956Y435893D01*
X138946Y435780D01*
X138940Y435667D01*
X138938Y435554D01*
X138940Y435441D01*
X138946Y435328D01*
X138956Y435215D01*
X138970Y435102D01*
X138987Y434990D01*
X139009Y434879D01*
X139034Y434769D01*
X139064Y434659D01*
X139097Y434551D01*
X139134Y434444D01*
X139174Y434338D01*
X139219Y434234D01*
X139267Y434131D01*
X139318Y434030D01*
X139373Y433931D01*
X139431Y433834D01*
X139493Y433739D01*
X139558Y433646D01*
X139626Y433556D01*
X139697Y433468D01*
X139772Y433382D01*
X139849Y433299D01*
X139929Y433219D01*
X140012Y433142D01*
X140098Y433067D01*
X140186Y432996D01*
X140276Y432928D01*
X140369Y432863D01*
X140464Y432801D01*
X140561Y432743D01*
X140660Y432688D01*
X140761Y432637D01*
X140864Y432589D01*
X140968Y432544D01*
X141074Y432504D01*
X141181Y432467D01*
X141289Y432434D01*
X141399Y432404D01*
X141509Y432379D01*
X141620Y432357D01*
X141732Y432340D01*
X141845Y432326D01*
X141958Y432316D01*
X142071Y432310D01*
X142184Y432308D01*
X142297Y432310D01*
X142410Y432316D01*
X142523Y432326D01*
X142636Y432340D01*
X142748Y432357D01*
X142859Y432379D01*
X142969Y432404D01*
X143079Y432434D01*
X143187Y432467D01*
X143294Y432504D01*
X143400Y432544D01*
X143504Y432589D01*
X143607Y432637D01*
X143708Y432688D01*
X143807Y432743D01*
X143904Y432801D01*
X143999Y432863D01*
X144092Y432928D01*
X144182Y432996D01*
X144270Y433067D01*
X144356Y433142D01*
X144439Y433219D01*
X144519Y433299D01*
X144596Y433382D01*
X144671Y433468D01*
X144742Y433556D01*
X144810Y433646D01*
X144875Y433739D01*
X144937Y433834D01*
X144995Y433931D01*
X145050Y434030D01*
X145101Y434131D01*
X145149Y434234D01*
X145194Y434338D01*
X145234Y434444D01*
X145271Y434551D01*
X145304Y434659D01*
X145334Y434769D01*
X145359Y434879D01*
X145381Y434990D01*
X145398Y435102D01*
X145412Y435215D01*
X145422Y435328D01*
X145428Y435441D01*
X145430Y435554D01*
X144780Y441396D02*
X144778Y441497D01*
X144772Y441597D01*
X144762Y441697D01*
X144749Y441797D01*
X144731Y441896D01*
X144710Y441995D01*
X144685Y442092D01*
X144656Y442189D01*
X144623Y442284D01*
X144587Y442378D01*
X144547Y442470D01*
X144504Y442561D01*
X144457Y442650D01*
X144407Y442737D01*
X144353Y442823D01*
X144296Y442906D01*
X144236Y442986D01*
X144173Y443065D01*
X144106Y443141D01*
X144037Y443214D01*
X143965Y443284D01*
X143891Y443352D01*
X143814Y443417D01*
X143734Y443478D01*
X143652Y443537D01*
X143568Y443592D01*
X143482Y443644D01*
X143394Y443693D01*
X143304Y443738D01*
X143212Y443780D01*
X143119Y443818D01*
X143024Y443852D01*
X142929Y443883D01*
X142832Y443910D01*
X142734Y443933D01*
X142635Y443953D01*
X142535Y443968D01*
X142435Y443980D01*
X142335Y443988D01*
X142234Y443992D01*
X142134Y443992D01*
X142033Y443988D01*
X141933Y443980D01*
X141833Y443968D01*
X141733Y443953D01*
X141634Y443933D01*
X141536Y443910D01*
X141439Y443883D01*
X141344Y443852D01*
X141249Y443818D01*
X141156Y443780D01*
X141064Y443738D01*
X140974Y443693D01*
X140886Y443644D01*
X140800Y443592D01*
X140716Y443537D01*
X140634Y443478D01*
X140554Y443417D01*
X140477Y443352D01*
X140403Y443284D01*
X140331Y443214D01*
X140262Y443141D01*
X140195Y443065D01*
X140132Y442986D01*
X140072Y442906D01*
X140015Y442823D01*
X139961Y442737D01*
X139911Y442650D01*
X139864Y442561D01*
X139821Y442470D01*
X139781Y442378D01*
X139745Y442284D01*
X139712Y442189D01*
X139683Y442092D01*
X139658Y441995D01*
X139637Y441896D01*
X139619Y441797D01*
X139606Y441697D01*
X139596Y441597D01*
X139590Y441497D01*
X139588Y441396D01*
X139590Y441295D01*
X139596Y441195D01*
X139606Y441095D01*
X139619Y440995D01*
X139637Y440896D01*
X139658Y440797D01*
X139683Y440700D01*
X139712Y440603D01*
X139745Y440508D01*
X139781Y440414D01*
X139821Y440322D01*
X139864Y440231D01*
X139911Y440142D01*
X139961Y440055D01*
X140015Y439969D01*
X140072Y439886D01*
X140132Y439806D01*
X140195Y439727D01*
X140262Y439651D01*
X140331Y439578D01*
X140403Y439508D01*
X140477Y439440D01*
X140554Y439375D01*
X140634Y439314D01*
X140716Y439255D01*
X140800Y439200D01*
X140886Y439148D01*
X140974Y439099D01*
X141064Y439054D01*
X141156Y439012D01*
X141249Y438974D01*
X141344Y438940D01*
X141439Y438909D01*
X141536Y438882D01*
X141634Y438859D01*
X141733Y438839D01*
X141833Y438824D01*
X141933Y438812D01*
X142033Y438804D01*
X142134Y438800D01*
X142234Y438800D01*
X142335Y438804D01*
X142435Y438812D01*
X142535Y438824D01*
X142635Y438839D01*
X142734Y438859D01*
X142832Y438882D01*
X142929Y438909D01*
X143024Y438940D01*
X143119Y438974D01*
X143212Y439012D01*
X143304Y439054D01*
X143394Y439099D01*
X143482Y439148D01*
X143568Y439200D01*
X143652Y439255D01*
X143734Y439314D01*
X143814Y439375D01*
X143891Y439440D01*
X143965Y439508D01*
X144037Y439578D01*
X144106Y439651D01*
X144173Y439727D01*
X144236Y439806D01*
X144296Y439886D01*
X144353Y439969D01*
X144407Y440055D01*
X144457Y440142D01*
X144504Y440231D01*
X144547Y440322D01*
X144587Y440414D01*
X144623Y440508D01*
X144656Y440603D01*
X144685Y440700D01*
X144710Y440797D01*
X144731Y440896D01*
X144749Y440995D01*
X144762Y441095D01*
X144772Y441195D01*
X144778Y441295D01*
X144780Y441396D01*
X134000Y438150D02*
X133997Y438380D01*
X133989Y438610D01*
X133975Y438839D01*
X133956Y439068D01*
X133931Y439297D01*
X133901Y439525D01*
X133866Y439752D01*
X133825Y439978D01*
X133779Y440203D01*
X133727Y440427D01*
X133670Y440650D01*
X133608Y440871D01*
X133540Y441091D01*
X133467Y441309D01*
X133389Y441525D01*
X133306Y441739D01*
X133218Y441952D01*
X133125Y442162D01*
X133026Y442369D01*
X132993Y442459D01*
X132957Y442548D01*
X132917Y442636D01*
X132873Y442721D01*
X132826Y442805D01*
X132776Y442887D01*
X132722Y442967D01*
X132666Y443044D01*
X132606Y443120D01*
X132543Y443193D01*
X132478Y443263D01*
X132409Y443331D01*
X132338Y443395D01*
X132265Y443457D01*
X132189Y443516D01*
X132111Y443572D01*
X132030Y443625D01*
X131948Y443674D01*
X131864Y443720D01*
X131777Y443763D01*
X131690Y443802D01*
X131600Y443838D01*
X131510Y443870D01*
X131418Y443898D01*
X131325Y443923D01*
X131231Y443944D01*
X131137Y443961D01*
X131042Y443975D01*
X130946Y443984D01*
X130850Y443990D01*
X130754Y443992D01*
X130658Y443990D01*
X130562Y443984D01*
X130466Y443975D01*
X130371Y443961D01*
X130277Y443944D01*
X130183Y443923D01*
X130090Y443898D01*
X129998Y443870D01*
X129908Y443838D01*
X129818Y443802D01*
X129731Y443763D01*
X129644Y443720D01*
X129560Y443674D01*
X129478Y443625D01*
X129397Y443572D01*
X129319Y443516D01*
X129243Y443457D01*
X129170Y443395D01*
X129099Y443331D01*
X129030Y443263D01*
X128965Y443193D01*
X128902Y443120D01*
X128842Y443045D01*
X128786Y442967D01*
X128732Y442887D01*
X128682Y442805D01*
X128635Y442721D01*
X128592Y442636D01*
X128551Y442548D01*
X128515Y442459D01*
X128482Y442369D01*
X128383Y442161D01*
X128290Y441951D01*
X128202Y441739D01*
X128119Y441525D01*
X128041Y441308D01*
X127968Y441090D01*
X127900Y440871D01*
X127838Y440649D01*
X127781Y440427D01*
X127729Y440203D01*
X127683Y439978D01*
X127642Y439752D01*
X127607Y439524D01*
X127577Y439297D01*
X127552Y439068D01*
X127533Y438839D01*
X127519Y438610D01*
X127511Y438380D01*
X127508Y438150D01*
X133999Y438150D02*
X133996Y437920D01*
X133988Y437690D01*
X133974Y437461D01*
X133955Y437232D01*
X133930Y437003D01*
X133900Y436775D01*
X133865Y436548D01*
X133824Y436322D01*
X133778Y436097D01*
X133726Y435873D01*
X133669Y435650D01*
X133607Y435429D01*
X133539Y435209D01*
X133466Y434991D01*
X133388Y434775D01*
X133305Y434561D01*
X133217Y434349D01*
X133124Y434138D01*
X133025Y433931D01*
X133026Y433931D02*
X132993Y433841D01*
X132957Y433752D01*
X132916Y433664D01*
X132873Y433579D01*
X132826Y433495D01*
X132776Y433413D01*
X132722Y433333D01*
X132666Y433256D01*
X132606Y433180D01*
X132543Y433107D01*
X132478Y433037D01*
X132409Y432969D01*
X132338Y432905D01*
X132265Y432843D01*
X132189Y432784D01*
X132111Y432728D01*
X132030Y432675D01*
X131948Y432626D01*
X131864Y432580D01*
X131777Y432537D01*
X131690Y432498D01*
X131600Y432462D01*
X131510Y432430D01*
X131418Y432402D01*
X131325Y432377D01*
X131231Y432356D01*
X131137Y432339D01*
X131042Y432325D01*
X130946Y432316D01*
X130850Y432310D01*
X130754Y432308D01*
X128482Y433931D02*
X128383Y434138D01*
X128290Y434349D01*
X128202Y434561D01*
X128119Y434775D01*
X128041Y434991D01*
X127968Y435209D01*
X127900Y435429D01*
X127838Y435650D01*
X127781Y435873D01*
X127729Y436097D01*
X127683Y436322D01*
X127642Y436548D01*
X127607Y436775D01*
X127577Y437003D01*
X127552Y437232D01*
X127533Y437461D01*
X127519Y437690D01*
X127511Y437920D01*
X127508Y438150D01*
X128482Y433931D02*
X128515Y433841D01*
X128551Y433752D01*
X128592Y433664D01*
X128635Y433579D01*
X128682Y433495D01*
X128732Y433413D01*
X128786Y433333D01*
X128842Y433255D01*
X128902Y433180D01*
X128965Y433107D01*
X129030Y433037D01*
X129099Y432969D01*
X129170Y432905D01*
X129243Y432843D01*
X129319Y432784D01*
X129397Y432728D01*
X129478Y432675D01*
X129560Y432626D01*
X129644Y432580D01*
X129731Y432537D01*
X129818Y432498D01*
X129908Y432462D01*
X129998Y432430D01*
X130090Y432402D01*
X130183Y432377D01*
X130277Y432356D01*
X130371Y432339D01*
X130466Y432325D01*
X130562Y432316D01*
X130658Y432310D01*
X130754Y432308D01*
X133350Y434904D02*
X128157Y441396D01*
D15*
X558675Y418465D02*
X558675Y417092D01*
X558674Y417092D02*
X558591Y417087D01*
X558507Y417078D01*
X558425Y417065D01*
X558343Y417049D01*
X558262Y417029D01*
X558181Y417005D01*
X558102Y416977D01*
X558025Y416946D01*
X557949Y416912D01*
X557874Y416874D01*
X557801Y416833D01*
X557730Y416788D01*
X557661Y416741D01*
X557595Y416690D01*
X557531Y416637D01*
X557469Y416580D01*
X557410Y416521D01*
X557353Y416459D01*
X557300Y416395D01*
X557249Y416329D01*
X557202Y416260D01*
X557157Y416189D01*
X557116Y416116D01*
X557078Y416041D01*
X557044Y415965D01*
X557013Y415888D01*
X556985Y415809D01*
X556961Y415728D01*
X556941Y415647D01*
X556925Y415565D01*
X556912Y415483D01*
X556903Y415399D01*
X556898Y415316D01*
X555525Y415315D01*
X555525Y415316D01*
X555529Y415428D01*
X555538Y415539D01*
X555550Y415650D01*
X555566Y415761D01*
X555586Y415870D01*
X555610Y415980D01*
X555637Y416088D01*
X555669Y416195D01*
X555704Y416301D01*
X555742Y416406D01*
X555784Y416510D01*
X555830Y416611D01*
X555879Y416712D01*
X555932Y416810D01*
X555988Y416907D01*
X556047Y417002D01*
X556110Y417094D01*
X556176Y417184D01*
X556245Y417272D01*
X556316Y417358D01*
X556391Y417441D01*
X556469Y417521D01*
X556549Y417599D01*
X556632Y417674D01*
X556718Y417745D01*
X556806Y417814D01*
X556896Y417880D01*
X556988Y417943D01*
X557083Y418002D01*
X557180Y418058D01*
X557278Y418111D01*
X557379Y418160D01*
X557480Y418206D01*
X557584Y418248D01*
X557689Y418286D01*
X557795Y418321D01*
X557902Y418353D01*
X558010Y418380D01*
X558120Y418404D01*
X558229Y418424D01*
X558340Y418440D01*
X558451Y418452D01*
X558562Y418461D01*
X558674Y418465D01*
X558674Y418322D01*
X558565Y418317D01*
X558456Y418309D01*
X558348Y418297D01*
X558240Y418281D01*
X558133Y418261D01*
X558026Y418237D01*
X557921Y418209D01*
X557816Y418178D01*
X557713Y418143D01*
X557611Y418105D01*
X557510Y418063D01*
X557411Y418017D01*
X557314Y417968D01*
X557218Y417915D01*
X557124Y417860D01*
X557033Y417800D01*
X556943Y417738D01*
X556856Y417673D01*
X556771Y417604D01*
X556689Y417533D01*
X556609Y417458D01*
X556532Y417381D01*
X556457Y417301D01*
X556386Y417219D01*
X556317Y417134D01*
X556252Y417047D01*
X556190Y416957D01*
X556130Y416866D01*
X556075Y416772D01*
X556022Y416676D01*
X555973Y416579D01*
X555927Y416480D01*
X555885Y416379D01*
X555847Y416277D01*
X555812Y416174D01*
X555781Y416069D01*
X555753Y415964D01*
X555729Y415857D01*
X555709Y415750D01*
X555693Y415642D01*
X555681Y415534D01*
X555673Y415425D01*
X555668Y415316D01*
X555811Y415316D01*
X555816Y415422D01*
X555824Y415528D01*
X555836Y415634D01*
X555853Y415739D01*
X555873Y415843D01*
X555896Y415947D01*
X555924Y416050D01*
X555955Y416151D01*
X555990Y416252D01*
X556028Y416351D01*
X556070Y416449D01*
X556115Y416545D01*
X556164Y416639D01*
X556217Y416732D01*
X556272Y416823D01*
X556331Y416911D01*
X556393Y416997D01*
X556458Y417082D01*
X556526Y417163D01*
X556597Y417242D01*
X556671Y417319D01*
X556748Y417393D01*
X556827Y417464D01*
X556908Y417532D01*
X556993Y417597D01*
X557079Y417659D01*
X557167Y417718D01*
X557258Y417773D01*
X557351Y417826D01*
X557445Y417875D01*
X557541Y417920D01*
X557639Y417962D01*
X557738Y418000D01*
X557839Y418035D01*
X557940Y418066D01*
X558043Y418094D01*
X558147Y418117D01*
X558251Y418137D01*
X558356Y418154D01*
X558462Y418166D01*
X558568Y418174D01*
X558674Y418179D01*
X558674Y418036D01*
X558571Y418031D01*
X558468Y418023D01*
X558365Y418010D01*
X558263Y417994D01*
X558161Y417974D01*
X558060Y417951D01*
X557961Y417923D01*
X557862Y417892D01*
X557765Y417858D01*
X557668Y417819D01*
X557574Y417778D01*
X557481Y417732D01*
X557389Y417684D01*
X557300Y417632D01*
X557213Y417577D01*
X557127Y417518D01*
X557044Y417457D01*
X556963Y417392D01*
X556885Y417324D01*
X556809Y417254D01*
X556736Y417181D01*
X556666Y417105D01*
X556598Y417027D01*
X556533Y416946D01*
X556472Y416863D01*
X556413Y416777D01*
X556358Y416690D01*
X556306Y416601D01*
X556258Y416509D01*
X556212Y416416D01*
X556171Y416322D01*
X556132Y416225D01*
X556098Y416128D01*
X556067Y416029D01*
X556039Y415930D01*
X556016Y415829D01*
X555996Y415727D01*
X555980Y415625D01*
X555967Y415522D01*
X555959Y415419D01*
X555954Y415316D01*
X556097Y415316D01*
X556102Y415416D01*
X556110Y415516D01*
X556123Y415616D01*
X556139Y415715D01*
X556159Y415814D01*
X556182Y415911D01*
X556209Y416008D01*
X556240Y416103D01*
X556275Y416198D01*
X556313Y416291D01*
X556354Y416382D01*
X556399Y416472D01*
X556448Y416560D01*
X556499Y416646D01*
X556554Y416730D01*
X556612Y416812D01*
X556673Y416892D01*
X556737Y416969D01*
X556804Y417044D01*
X556873Y417117D01*
X556946Y417186D01*
X557021Y417253D01*
X557098Y417317D01*
X557178Y417378D01*
X557260Y417436D01*
X557344Y417491D01*
X557430Y417542D01*
X557518Y417591D01*
X557608Y417636D01*
X557699Y417677D01*
X557792Y417715D01*
X557887Y417750D01*
X557982Y417781D01*
X558079Y417808D01*
X558176Y417831D01*
X558275Y417851D01*
X558374Y417867D01*
X558474Y417880D01*
X558574Y417888D01*
X558674Y417893D01*
X558674Y417750D01*
X558574Y417745D01*
X558475Y417736D01*
X558376Y417723D01*
X558278Y417706D01*
X558180Y417685D01*
X558083Y417661D01*
X557988Y417632D01*
X557893Y417600D01*
X557800Y417564D01*
X557708Y417525D01*
X557619Y417482D01*
X557530Y417435D01*
X557444Y417385D01*
X557360Y417331D01*
X557278Y417274D01*
X557198Y417214D01*
X557121Y417151D01*
X557046Y417085D01*
X556974Y417016D01*
X556905Y416944D01*
X556839Y416869D01*
X556776Y416792D01*
X556716Y416712D01*
X556659Y416630D01*
X556605Y416546D01*
X556555Y416460D01*
X556508Y416371D01*
X556465Y416282D01*
X556426Y416190D01*
X556390Y416097D01*
X556358Y416002D01*
X556329Y415907D01*
X556305Y415810D01*
X556284Y415712D01*
X556267Y415614D01*
X556254Y415515D01*
X556245Y415416D01*
X556240Y415316D01*
X556383Y415316D01*
X556388Y415412D01*
X556397Y415508D01*
X556410Y415604D01*
X556427Y415699D01*
X556447Y415793D01*
X556472Y415886D01*
X556500Y415978D01*
X556532Y416069D01*
X556568Y416159D01*
X556607Y416247D01*
X556650Y416334D01*
X556696Y416418D01*
X556746Y416501D01*
X556799Y416581D01*
X556855Y416660D01*
X556914Y416736D01*
X556976Y416809D01*
X557042Y416880D01*
X557110Y416948D01*
X557181Y417014D01*
X557254Y417076D01*
X557330Y417135D01*
X557409Y417191D01*
X557489Y417244D01*
X557572Y417294D01*
X557656Y417340D01*
X557743Y417383D01*
X557831Y417422D01*
X557921Y417458D01*
X558012Y417490D01*
X558104Y417518D01*
X558197Y417543D01*
X558291Y417563D01*
X558386Y417580D01*
X558482Y417593D01*
X558578Y417602D01*
X558674Y417607D01*
X558674Y417464D01*
X558581Y417459D01*
X558489Y417450D01*
X558397Y417437D01*
X558306Y417420D01*
X558215Y417400D01*
X558125Y417376D01*
X558037Y417348D01*
X557949Y417316D01*
X557864Y417281D01*
X557779Y417242D01*
X557696Y417200D01*
X557616Y417154D01*
X557537Y417105D01*
X557460Y417053D01*
X557385Y416997D01*
X557313Y416939D01*
X557244Y416878D01*
X557177Y416813D01*
X557112Y416746D01*
X557051Y416677D01*
X556993Y416605D01*
X556937Y416530D01*
X556885Y416453D01*
X556836Y416374D01*
X556790Y416294D01*
X556748Y416211D01*
X556709Y416126D01*
X556674Y416041D01*
X556642Y415953D01*
X556614Y415865D01*
X556590Y415775D01*
X556570Y415684D01*
X556553Y415593D01*
X556540Y415501D01*
X556531Y415409D01*
X556526Y415316D01*
X556669Y415316D01*
X556675Y415405D01*
X556683Y415494D01*
X556696Y415582D01*
X556713Y415669D01*
X556733Y415756D01*
X556757Y415842D01*
X556784Y415927D01*
X556816Y416010D01*
X556850Y416092D01*
X556889Y416173D01*
X556930Y416251D01*
X556975Y416328D01*
X557023Y416403D01*
X557075Y416476D01*
X557129Y416547D01*
X557186Y416615D01*
X557247Y416680D01*
X557310Y416743D01*
X557375Y416804D01*
X557443Y416861D01*
X557514Y416915D01*
X557587Y416967D01*
X557662Y417015D01*
X557739Y417060D01*
X557817Y417101D01*
X557898Y417140D01*
X557980Y417174D01*
X558063Y417206D01*
X558148Y417233D01*
X558234Y417257D01*
X558321Y417277D01*
X558408Y417294D01*
X558496Y417307D01*
X558585Y417315D01*
X558674Y417321D01*
X558674Y417178D01*
X558589Y417172D01*
X558504Y417163D01*
X558420Y417151D01*
X558337Y417134D01*
X558254Y417114D01*
X558172Y417091D01*
X558092Y417064D01*
X558012Y417033D01*
X557934Y416999D01*
X557858Y416962D01*
X557783Y416921D01*
X557710Y416877D01*
X557639Y416829D01*
X557571Y416779D01*
X557504Y416726D01*
X557440Y416670D01*
X557379Y416611D01*
X557320Y416550D01*
X557264Y416486D01*
X557211Y416419D01*
X557161Y416351D01*
X557113Y416280D01*
X557069Y416207D01*
X557028Y416132D01*
X556991Y416056D01*
X556957Y415978D01*
X556926Y415898D01*
X556899Y415818D01*
X556876Y415736D01*
X556856Y415653D01*
X556839Y415570D01*
X556827Y415486D01*
X556818Y415401D01*
X556812Y415316D01*
X574675Y415315D02*
X573302Y415315D01*
X573302Y415316D02*
X573297Y415399D01*
X573288Y415483D01*
X573275Y415565D01*
X573259Y415647D01*
X573239Y415728D01*
X573215Y415809D01*
X573187Y415888D01*
X573156Y415965D01*
X573122Y416041D01*
X573084Y416116D01*
X573043Y416189D01*
X572998Y416260D01*
X572951Y416329D01*
X572900Y416395D01*
X572847Y416459D01*
X572790Y416521D01*
X572731Y416580D01*
X572669Y416637D01*
X572605Y416690D01*
X572539Y416741D01*
X572470Y416788D01*
X572399Y416833D01*
X572326Y416874D01*
X572251Y416912D01*
X572175Y416946D01*
X572098Y416977D01*
X572019Y417005D01*
X571938Y417029D01*
X571857Y417049D01*
X571775Y417065D01*
X571693Y417078D01*
X571609Y417087D01*
X571526Y417092D01*
X571525Y418465D01*
X571526Y418465D01*
X571638Y418461D01*
X571749Y418452D01*
X571860Y418440D01*
X571971Y418424D01*
X572080Y418404D01*
X572190Y418380D01*
X572298Y418353D01*
X572405Y418321D01*
X572511Y418286D01*
X572616Y418248D01*
X572720Y418206D01*
X572821Y418160D01*
X572922Y418111D01*
X573020Y418058D01*
X573117Y418002D01*
X573212Y417943D01*
X573304Y417880D01*
X573394Y417814D01*
X573482Y417745D01*
X573568Y417674D01*
X573651Y417599D01*
X573731Y417521D01*
X573809Y417441D01*
X573884Y417358D01*
X573955Y417272D01*
X574024Y417184D01*
X574090Y417094D01*
X574153Y417002D01*
X574212Y416907D01*
X574268Y416810D01*
X574321Y416712D01*
X574370Y416611D01*
X574416Y416510D01*
X574458Y416406D01*
X574496Y416301D01*
X574531Y416195D01*
X574563Y416088D01*
X574590Y415980D01*
X574614Y415870D01*
X574634Y415761D01*
X574650Y415650D01*
X574662Y415539D01*
X574671Y415428D01*
X574675Y415316D01*
X574532Y415316D01*
X574527Y415425D01*
X574519Y415534D01*
X574507Y415642D01*
X574491Y415750D01*
X574471Y415857D01*
X574447Y415964D01*
X574419Y416069D01*
X574388Y416174D01*
X574353Y416277D01*
X574315Y416379D01*
X574273Y416480D01*
X574227Y416579D01*
X574178Y416676D01*
X574125Y416772D01*
X574070Y416866D01*
X574010Y416957D01*
X573948Y417047D01*
X573883Y417134D01*
X573814Y417219D01*
X573743Y417301D01*
X573668Y417381D01*
X573591Y417458D01*
X573511Y417533D01*
X573429Y417604D01*
X573344Y417673D01*
X573257Y417738D01*
X573167Y417800D01*
X573076Y417860D01*
X572982Y417915D01*
X572886Y417968D01*
X572789Y418017D01*
X572690Y418063D01*
X572589Y418105D01*
X572487Y418143D01*
X572384Y418178D01*
X572279Y418209D01*
X572174Y418237D01*
X572067Y418261D01*
X571960Y418281D01*
X571852Y418297D01*
X571744Y418309D01*
X571635Y418317D01*
X571526Y418322D01*
X571526Y418179D01*
X571632Y418174D01*
X571738Y418166D01*
X571844Y418154D01*
X571949Y418137D01*
X572053Y418117D01*
X572157Y418094D01*
X572260Y418066D01*
X572361Y418035D01*
X572462Y418000D01*
X572561Y417962D01*
X572659Y417920D01*
X572755Y417875D01*
X572849Y417826D01*
X572942Y417773D01*
X573033Y417718D01*
X573121Y417659D01*
X573207Y417597D01*
X573292Y417532D01*
X573373Y417464D01*
X573452Y417393D01*
X573529Y417319D01*
X573603Y417242D01*
X573674Y417163D01*
X573742Y417082D01*
X573807Y416997D01*
X573869Y416911D01*
X573928Y416823D01*
X573983Y416732D01*
X574036Y416639D01*
X574085Y416545D01*
X574130Y416449D01*
X574172Y416351D01*
X574210Y416252D01*
X574245Y416151D01*
X574276Y416050D01*
X574304Y415947D01*
X574327Y415843D01*
X574347Y415739D01*
X574364Y415634D01*
X574376Y415528D01*
X574384Y415422D01*
X574389Y415316D01*
X574246Y415316D01*
X574241Y415419D01*
X574233Y415522D01*
X574220Y415625D01*
X574204Y415727D01*
X574184Y415829D01*
X574161Y415930D01*
X574133Y416029D01*
X574102Y416128D01*
X574068Y416225D01*
X574029Y416322D01*
X573988Y416416D01*
X573942Y416509D01*
X573894Y416601D01*
X573842Y416690D01*
X573787Y416777D01*
X573728Y416863D01*
X573667Y416946D01*
X573602Y417027D01*
X573534Y417105D01*
X573464Y417181D01*
X573391Y417254D01*
X573315Y417324D01*
X573237Y417392D01*
X573156Y417457D01*
X573073Y417518D01*
X572987Y417577D01*
X572900Y417632D01*
X572811Y417684D01*
X572719Y417732D01*
X572626Y417778D01*
X572532Y417819D01*
X572435Y417858D01*
X572338Y417892D01*
X572239Y417923D01*
X572140Y417951D01*
X572039Y417974D01*
X571937Y417994D01*
X571835Y418010D01*
X571732Y418023D01*
X571629Y418031D01*
X571526Y418036D01*
X571526Y417893D01*
X571626Y417888D01*
X571726Y417880D01*
X571826Y417867D01*
X571925Y417851D01*
X572024Y417831D01*
X572121Y417808D01*
X572218Y417781D01*
X572313Y417750D01*
X572408Y417715D01*
X572501Y417677D01*
X572592Y417636D01*
X572682Y417591D01*
X572770Y417542D01*
X572856Y417491D01*
X572940Y417436D01*
X573022Y417378D01*
X573102Y417317D01*
X573179Y417253D01*
X573254Y417186D01*
X573327Y417117D01*
X573396Y417044D01*
X573463Y416969D01*
X573527Y416892D01*
X573588Y416812D01*
X573646Y416730D01*
X573701Y416646D01*
X573752Y416560D01*
X573801Y416472D01*
X573846Y416382D01*
X573887Y416291D01*
X573925Y416198D01*
X573960Y416103D01*
X573991Y416008D01*
X574018Y415911D01*
X574041Y415814D01*
X574061Y415715D01*
X574077Y415616D01*
X574090Y415516D01*
X574098Y415416D01*
X574103Y415316D01*
X573960Y415316D01*
X573955Y415416D01*
X573946Y415515D01*
X573933Y415614D01*
X573916Y415712D01*
X573895Y415810D01*
X573871Y415907D01*
X573842Y416002D01*
X573810Y416097D01*
X573774Y416190D01*
X573735Y416282D01*
X573692Y416371D01*
X573645Y416460D01*
X573595Y416546D01*
X573541Y416630D01*
X573484Y416712D01*
X573424Y416792D01*
X573361Y416869D01*
X573295Y416944D01*
X573226Y417016D01*
X573154Y417085D01*
X573079Y417151D01*
X573002Y417214D01*
X572922Y417274D01*
X572840Y417331D01*
X572756Y417385D01*
X572670Y417435D01*
X572581Y417482D01*
X572492Y417525D01*
X572400Y417564D01*
X572307Y417600D01*
X572212Y417632D01*
X572117Y417661D01*
X572020Y417685D01*
X571922Y417706D01*
X571824Y417723D01*
X571725Y417736D01*
X571626Y417745D01*
X571526Y417750D01*
X571526Y417607D01*
X571622Y417602D01*
X571718Y417593D01*
X571814Y417580D01*
X571909Y417563D01*
X572003Y417543D01*
X572096Y417518D01*
X572188Y417490D01*
X572279Y417458D01*
X572369Y417422D01*
X572457Y417383D01*
X572544Y417340D01*
X572628Y417294D01*
X572711Y417244D01*
X572791Y417191D01*
X572870Y417135D01*
X572946Y417076D01*
X573019Y417014D01*
X573090Y416948D01*
X573158Y416880D01*
X573224Y416809D01*
X573286Y416736D01*
X573345Y416660D01*
X573401Y416581D01*
X573454Y416501D01*
X573504Y416418D01*
X573550Y416334D01*
X573593Y416247D01*
X573632Y416159D01*
X573668Y416069D01*
X573700Y415978D01*
X573728Y415886D01*
X573753Y415793D01*
X573773Y415699D01*
X573790Y415604D01*
X573803Y415508D01*
X573812Y415412D01*
X573817Y415316D01*
X573674Y415316D01*
X573669Y415409D01*
X573660Y415501D01*
X573647Y415593D01*
X573630Y415684D01*
X573610Y415775D01*
X573586Y415865D01*
X573558Y415953D01*
X573526Y416041D01*
X573491Y416126D01*
X573452Y416211D01*
X573410Y416294D01*
X573364Y416374D01*
X573315Y416453D01*
X573263Y416530D01*
X573207Y416605D01*
X573149Y416677D01*
X573088Y416746D01*
X573023Y416813D01*
X572956Y416878D01*
X572887Y416939D01*
X572815Y416997D01*
X572740Y417053D01*
X572663Y417105D01*
X572584Y417154D01*
X572504Y417200D01*
X572421Y417242D01*
X572336Y417281D01*
X572251Y417316D01*
X572163Y417348D01*
X572075Y417376D01*
X571985Y417400D01*
X571894Y417420D01*
X571803Y417437D01*
X571711Y417450D01*
X571619Y417459D01*
X571526Y417464D01*
X571526Y417321D01*
X571615Y417315D01*
X571704Y417307D01*
X571792Y417294D01*
X571879Y417277D01*
X571966Y417257D01*
X572052Y417233D01*
X572137Y417206D01*
X572220Y417174D01*
X572302Y417140D01*
X572383Y417101D01*
X572461Y417060D01*
X572538Y417015D01*
X572613Y416967D01*
X572686Y416915D01*
X572757Y416861D01*
X572825Y416804D01*
X572890Y416743D01*
X572953Y416680D01*
X573014Y416615D01*
X573071Y416547D01*
X573125Y416476D01*
X573177Y416403D01*
X573225Y416328D01*
X573270Y416251D01*
X573311Y416173D01*
X573350Y416092D01*
X573384Y416010D01*
X573416Y415927D01*
X573443Y415842D01*
X573467Y415756D01*
X573487Y415669D01*
X573504Y415582D01*
X573517Y415494D01*
X573525Y415405D01*
X573531Y415316D01*
X573388Y415316D01*
X573382Y415401D01*
X573373Y415486D01*
X573361Y415570D01*
X573344Y415653D01*
X573324Y415736D01*
X573301Y415818D01*
X573274Y415898D01*
X573243Y415978D01*
X573209Y416056D01*
X573172Y416132D01*
X573131Y416207D01*
X573087Y416280D01*
X573039Y416351D01*
X572989Y416419D01*
X572936Y416486D01*
X572880Y416550D01*
X572821Y416611D01*
X572760Y416670D01*
X572696Y416726D01*
X572629Y416779D01*
X572561Y416829D01*
X572490Y416877D01*
X572417Y416921D01*
X572342Y416962D01*
X572266Y416999D01*
X572188Y417033D01*
X572108Y417064D01*
X572028Y417091D01*
X571946Y417114D01*
X571863Y417134D01*
X571780Y417151D01*
X571696Y417163D01*
X571611Y417172D01*
X571526Y417178D01*
X571525Y381535D02*
X571525Y382908D01*
X571526Y382908D02*
X571609Y382913D01*
X571693Y382922D01*
X571775Y382935D01*
X571857Y382951D01*
X571938Y382971D01*
X572019Y382995D01*
X572098Y383023D01*
X572175Y383054D01*
X572251Y383088D01*
X572326Y383126D01*
X572399Y383167D01*
X572470Y383212D01*
X572539Y383259D01*
X572605Y383310D01*
X572669Y383363D01*
X572731Y383420D01*
X572790Y383479D01*
X572847Y383541D01*
X572900Y383605D01*
X572951Y383671D01*
X572998Y383740D01*
X573043Y383811D01*
X573084Y383884D01*
X573122Y383959D01*
X573156Y384035D01*
X573187Y384112D01*
X573215Y384191D01*
X573239Y384272D01*
X573259Y384353D01*
X573275Y384435D01*
X573288Y384517D01*
X573297Y384601D01*
X573302Y384684D01*
X574675Y384685D01*
X574675Y384684D01*
X574671Y384572D01*
X574662Y384461D01*
X574650Y384350D01*
X574634Y384239D01*
X574614Y384130D01*
X574590Y384020D01*
X574563Y383912D01*
X574531Y383805D01*
X574496Y383699D01*
X574458Y383594D01*
X574416Y383490D01*
X574370Y383389D01*
X574321Y383288D01*
X574268Y383190D01*
X574212Y383093D01*
X574153Y382998D01*
X574090Y382906D01*
X574024Y382816D01*
X573955Y382728D01*
X573884Y382642D01*
X573809Y382559D01*
X573731Y382479D01*
X573651Y382401D01*
X573568Y382326D01*
X573482Y382255D01*
X573394Y382186D01*
X573304Y382120D01*
X573212Y382057D01*
X573117Y381998D01*
X573020Y381942D01*
X572922Y381889D01*
X572821Y381840D01*
X572720Y381794D01*
X572616Y381752D01*
X572511Y381714D01*
X572405Y381679D01*
X572298Y381647D01*
X572190Y381620D01*
X572080Y381596D01*
X571971Y381576D01*
X571860Y381560D01*
X571749Y381548D01*
X571638Y381539D01*
X571526Y381535D01*
X571526Y381678D01*
X571635Y381683D01*
X571744Y381691D01*
X571852Y381703D01*
X571960Y381719D01*
X572067Y381739D01*
X572174Y381763D01*
X572279Y381791D01*
X572384Y381822D01*
X572487Y381857D01*
X572589Y381895D01*
X572690Y381937D01*
X572789Y381983D01*
X572886Y382032D01*
X572982Y382085D01*
X573076Y382140D01*
X573167Y382200D01*
X573257Y382262D01*
X573344Y382327D01*
X573429Y382396D01*
X573511Y382467D01*
X573591Y382542D01*
X573668Y382619D01*
X573743Y382699D01*
X573814Y382781D01*
X573883Y382866D01*
X573948Y382953D01*
X574010Y383043D01*
X574070Y383134D01*
X574125Y383228D01*
X574178Y383324D01*
X574227Y383421D01*
X574273Y383520D01*
X574315Y383621D01*
X574353Y383723D01*
X574388Y383826D01*
X574419Y383931D01*
X574447Y384036D01*
X574471Y384143D01*
X574491Y384250D01*
X574507Y384358D01*
X574519Y384466D01*
X574527Y384575D01*
X574532Y384684D01*
X574389Y384684D01*
X574384Y384578D01*
X574376Y384472D01*
X574364Y384366D01*
X574347Y384261D01*
X574327Y384157D01*
X574304Y384053D01*
X574276Y383950D01*
X574245Y383849D01*
X574210Y383748D01*
X574172Y383649D01*
X574130Y383551D01*
X574085Y383455D01*
X574036Y383361D01*
X573983Y383268D01*
X573928Y383177D01*
X573869Y383089D01*
X573807Y383003D01*
X573742Y382918D01*
X573674Y382837D01*
X573603Y382758D01*
X573529Y382681D01*
X573452Y382607D01*
X573373Y382536D01*
X573292Y382468D01*
X573207Y382403D01*
X573121Y382341D01*
X573033Y382282D01*
X572942Y382227D01*
X572849Y382174D01*
X572755Y382125D01*
X572659Y382080D01*
X572561Y382038D01*
X572462Y382000D01*
X572361Y381965D01*
X572260Y381934D01*
X572157Y381906D01*
X572053Y381883D01*
X571949Y381863D01*
X571844Y381846D01*
X571738Y381834D01*
X571632Y381826D01*
X571526Y381821D01*
X571526Y381964D01*
X571629Y381969D01*
X571732Y381977D01*
X571835Y381990D01*
X571937Y382006D01*
X572039Y382026D01*
X572140Y382049D01*
X572239Y382077D01*
X572338Y382108D01*
X572435Y382142D01*
X572532Y382181D01*
X572626Y382222D01*
X572719Y382268D01*
X572811Y382316D01*
X572900Y382368D01*
X572987Y382423D01*
X573073Y382482D01*
X573156Y382543D01*
X573237Y382608D01*
X573315Y382676D01*
X573391Y382746D01*
X573464Y382819D01*
X573534Y382895D01*
X573602Y382973D01*
X573667Y383054D01*
X573728Y383137D01*
X573787Y383223D01*
X573842Y383310D01*
X573894Y383399D01*
X573942Y383491D01*
X573988Y383584D01*
X574029Y383678D01*
X574068Y383775D01*
X574102Y383872D01*
X574133Y383971D01*
X574161Y384070D01*
X574184Y384171D01*
X574204Y384273D01*
X574220Y384375D01*
X574233Y384478D01*
X574241Y384581D01*
X574246Y384684D01*
X574103Y384684D01*
X574098Y384584D01*
X574090Y384484D01*
X574077Y384384D01*
X574061Y384285D01*
X574041Y384186D01*
X574018Y384089D01*
X573991Y383992D01*
X573960Y383897D01*
X573925Y383802D01*
X573887Y383709D01*
X573846Y383618D01*
X573801Y383528D01*
X573752Y383440D01*
X573701Y383354D01*
X573646Y383270D01*
X573588Y383188D01*
X573527Y383108D01*
X573463Y383031D01*
X573396Y382956D01*
X573327Y382883D01*
X573254Y382814D01*
X573179Y382747D01*
X573102Y382683D01*
X573022Y382622D01*
X572940Y382564D01*
X572856Y382509D01*
X572770Y382458D01*
X572682Y382409D01*
X572592Y382364D01*
X572501Y382323D01*
X572408Y382285D01*
X572313Y382250D01*
X572218Y382219D01*
X572121Y382192D01*
X572024Y382169D01*
X571925Y382149D01*
X571826Y382133D01*
X571726Y382120D01*
X571626Y382112D01*
X571526Y382107D01*
X571526Y382250D01*
X571626Y382255D01*
X571725Y382264D01*
X571824Y382277D01*
X571922Y382294D01*
X572020Y382315D01*
X572117Y382339D01*
X572212Y382368D01*
X572307Y382400D01*
X572400Y382436D01*
X572492Y382475D01*
X572581Y382518D01*
X572670Y382565D01*
X572756Y382615D01*
X572840Y382669D01*
X572922Y382726D01*
X573002Y382786D01*
X573079Y382849D01*
X573154Y382915D01*
X573226Y382984D01*
X573295Y383056D01*
X573361Y383131D01*
X573424Y383208D01*
X573484Y383288D01*
X573541Y383370D01*
X573595Y383454D01*
X573645Y383540D01*
X573692Y383629D01*
X573735Y383718D01*
X573774Y383810D01*
X573810Y383903D01*
X573842Y383998D01*
X573871Y384093D01*
X573895Y384190D01*
X573916Y384288D01*
X573933Y384386D01*
X573946Y384485D01*
X573955Y384584D01*
X573960Y384684D01*
X573817Y384684D01*
X573812Y384588D01*
X573803Y384492D01*
X573790Y384396D01*
X573773Y384301D01*
X573753Y384207D01*
X573728Y384114D01*
X573700Y384022D01*
X573668Y383931D01*
X573632Y383841D01*
X573593Y383753D01*
X573550Y383666D01*
X573504Y383582D01*
X573454Y383499D01*
X573401Y383419D01*
X573345Y383340D01*
X573286Y383264D01*
X573224Y383191D01*
X573158Y383120D01*
X573090Y383052D01*
X573019Y382986D01*
X572946Y382924D01*
X572870Y382865D01*
X572791Y382809D01*
X572711Y382756D01*
X572628Y382706D01*
X572544Y382660D01*
X572457Y382617D01*
X572369Y382578D01*
X572279Y382542D01*
X572188Y382510D01*
X572096Y382482D01*
X572003Y382457D01*
X571909Y382437D01*
X571814Y382420D01*
X571718Y382407D01*
X571622Y382398D01*
X571526Y382393D01*
X571526Y382536D01*
X571619Y382541D01*
X571711Y382550D01*
X571803Y382563D01*
X571894Y382580D01*
X571985Y382600D01*
X572075Y382624D01*
X572163Y382652D01*
X572251Y382684D01*
X572336Y382719D01*
X572421Y382758D01*
X572504Y382800D01*
X572584Y382846D01*
X572663Y382895D01*
X572740Y382947D01*
X572815Y383003D01*
X572887Y383061D01*
X572956Y383122D01*
X573023Y383187D01*
X573088Y383254D01*
X573149Y383323D01*
X573207Y383395D01*
X573263Y383470D01*
X573315Y383547D01*
X573364Y383626D01*
X573410Y383706D01*
X573452Y383789D01*
X573491Y383874D01*
X573526Y383959D01*
X573558Y384047D01*
X573586Y384135D01*
X573610Y384225D01*
X573630Y384316D01*
X573647Y384407D01*
X573660Y384499D01*
X573669Y384591D01*
X573674Y384684D01*
X573531Y384684D01*
X573525Y384595D01*
X573517Y384506D01*
X573504Y384418D01*
X573487Y384331D01*
X573467Y384244D01*
X573443Y384158D01*
X573416Y384073D01*
X573384Y383990D01*
X573350Y383908D01*
X573311Y383827D01*
X573270Y383749D01*
X573225Y383672D01*
X573177Y383597D01*
X573125Y383524D01*
X573071Y383453D01*
X573014Y383385D01*
X572953Y383320D01*
X572890Y383257D01*
X572825Y383196D01*
X572757Y383139D01*
X572686Y383085D01*
X572613Y383033D01*
X572538Y382985D01*
X572461Y382940D01*
X572383Y382899D01*
X572302Y382860D01*
X572220Y382826D01*
X572137Y382794D01*
X572052Y382767D01*
X571966Y382743D01*
X571879Y382723D01*
X571792Y382706D01*
X571704Y382693D01*
X571615Y382685D01*
X571526Y382679D01*
X571526Y382822D01*
X571611Y382828D01*
X571696Y382837D01*
X571780Y382849D01*
X571863Y382866D01*
X571946Y382886D01*
X572028Y382909D01*
X572108Y382936D01*
X572188Y382967D01*
X572266Y383001D01*
X572342Y383038D01*
X572417Y383079D01*
X572490Y383123D01*
X572561Y383171D01*
X572629Y383221D01*
X572696Y383274D01*
X572760Y383330D01*
X572821Y383389D01*
X572880Y383450D01*
X572936Y383514D01*
X572989Y383581D01*
X573039Y383649D01*
X573087Y383720D01*
X573131Y383793D01*
X573172Y383868D01*
X573209Y383944D01*
X573243Y384022D01*
X573274Y384102D01*
X573301Y384182D01*
X573324Y384264D01*
X573344Y384347D01*
X573361Y384430D01*
X573373Y384514D01*
X573382Y384599D01*
X573388Y384684D01*
X555525Y384685D02*
X556898Y384685D01*
X556898Y384684D02*
X556903Y384601D01*
X556912Y384517D01*
X556925Y384435D01*
X556941Y384353D01*
X556961Y384272D01*
X556985Y384191D01*
X557013Y384112D01*
X557044Y384035D01*
X557078Y383959D01*
X557116Y383884D01*
X557157Y383811D01*
X557202Y383740D01*
X557249Y383671D01*
X557300Y383605D01*
X557353Y383541D01*
X557410Y383479D01*
X557469Y383420D01*
X557531Y383363D01*
X557595Y383310D01*
X557661Y383259D01*
X557730Y383212D01*
X557801Y383167D01*
X557874Y383126D01*
X557949Y383088D01*
X558025Y383054D01*
X558102Y383023D01*
X558181Y382995D01*
X558262Y382971D01*
X558343Y382951D01*
X558425Y382935D01*
X558507Y382922D01*
X558591Y382913D01*
X558674Y382908D01*
X558675Y381535D01*
X558674Y381535D01*
X558562Y381539D01*
X558451Y381548D01*
X558340Y381560D01*
X558229Y381576D01*
X558120Y381596D01*
X558010Y381620D01*
X557902Y381647D01*
X557795Y381679D01*
X557689Y381714D01*
X557584Y381752D01*
X557480Y381794D01*
X557379Y381840D01*
X557278Y381889D01*
X557180Y381942D01*
X557083Y381998D01*
X556988Y382057D01*
X556896Y382120D01*
X556806Y382186D01*
X556718Y382255D01*
X556632Y382326D01*
X556549Y382401D01*
X556469Y382479D01*
X556391Y382559D01*
X556316Y382642D01*
X556245Y382728D01*
X556176Y382816D01*
X556110Y382906D01*
X556047Y382998D01*
X555988Y383093D01*
X555932Y383190D01*
X555879Y383288D01*
X555830Y383389D01*
X555784Y383490D01*
X555742Y383594D01*
X555704Y383699D01*
X555669Y383805D01*
X555637Y383912D01*
X555610Y384020D01*
X555586Y384130D01*
X555566Y384239D01*
X555550Y384350D01*
X555538Y384461D01*
X555529Y384572D01*
X555525Y384684D01*
X555668Y384684D01*
X555673Y384575D01*
X555681Y384466D01*
X555693Y384358D01*
X555709Y384250D01*
X555729Y384143D01*
X555753Y384036D01*
X555781Y383931D01*
X555812Y383826D01*
X555847Y383723D01*
X555885Y383621D01*
X555927Y383520D01*
X555973Y383421D01*
X556022Y383324D01*
X556075Y383228D01*
X556130Y383134D01*
X556190Y383043D01*
X556252Y382953D01*
X556317Y382866D01*
X556386Y382781D01*
X556457Y382699D01*
X556532Y382619D01*
X556609Y382542D01*
X556689Y382467D01*
X556771Y382396D01*
X556856Y382327D01*
X556943Y382262D01*
X557033Y382200D01*
X557124Y382140D01*
X557218Y382085D01*
X557314Y382032D01*
X557411Y381983D01*
X557510Y381937D01*
X557611Y381895D01*
X557713Y381857D01*
X557816Y381822D01*
X557921Y381791D01*
X558026Y381763D01*
X558133Y381739D01*
X558240Y381719D01*
X558348Y381703D01*
X558456Y381691D01*
X558565Y381683D01*
X558674Y381678D01*
X558674Y381821D01*
X558568Y381826D01*
X558462Y381834D01*
X558356Y381846D01*
X558251Y381863D01*
X558147Y381883D01*
X558043Y381906D01*
X557940Y381934D01*
X557839Y381965D01*
X557738Y382000D01*
X557639Y382038D01*
X557541Y382080D01*
X557445Y382125D01*
X557351Y382174D01*
X557258Y382227D01*
X557167Y382282D01*
X557079Y382341D01*
X556993Y382403D01*
X556908Y382468D01*
X556827Y382536D01*
X556748Y382607D01*
X556671Y382681D01*
X556597Y382758D01*
X556526Y382837D01*
X556458Y382918D01*
X556393Y383003D01*
X556331Y383089D01*
X556272Y383177D01*
X556217Y383268D01*
X556164Y383361D01*
X556115Y383455D01*
X556070Y383551D01*
X556028Y383649D01*
X555990Y383748D01*
X555955Y383849D01*
X555924Y383950D01*
X555896Y384053D01*
X555873Y384157D01*
X555853Y384261D01*
X555836Y384366D01*
X555824Y384472D01*
X555816Y384578D01*
X555811Y384684D01*
X555954Y384684D01*
X555959Y384581D01*
X555967Y384478D01*
X555980Y384375D01*
X555996Y384273D01*
X556016Y384171D01*
X556039Y384070D01*
X556067Y383971D01*
X556098Y383872D01*
X556132Y383775D01*
X556171Y383678D01*
X556212Y383584D01*
X556258Y383491D01*
X556306Y383399D01*
X556358Y383310D01*
X556413Y383223D01*
X556472Y383137D01*
X556533Y383054D01*
X556598Y382973D01*
X556666Y382895D01*
X556736Y382819D01*
X556809Y382746D01*
X556885Y382676D01*
X556963Y382608D01*
X557044Y382543D01*
X557127Y382482D01*
X557213Y382423D01*
X557300Y382368D01*
X557389Y382316D01*
X557481Y382268D01*
X557574Y382222D01*
X557668Y382181D01*
X557765Y382142D01*
X557862Y382108D01*
X557961Y382077D01*
X558060Y382049D01*
X558161Y382026D01*
X558263Y382006D01*
X558365Y381990D01*
X558468Y381977D01*
X558571Y381969D01*
X558674Y381964D01*
X558674Y382107D01*
X558574Y382112D01*
X558474Y382120D01*
X558374Y382133D01*
X558275Y382149D01*
X558176Y382169D01*
X558079Y382192D01*
X557982Y382219D01*
X557887Y382250D01*
X557792Y382285D01*
X557699Y382323D01*
X557608Y382364D01*
X557518Y382409D01*
X557430Y382458D01*
X557344Y382509D01*
X557260Y382564D01*
X557178Y382622D01*
X557098Y382683D01*
X557021Y382747D01*
X556946Y382814D01*
X556873Y382883D01*
X556804Y382956D01*
X556737Y383031D01*
X556673Y383108D01*
X556612Y383188D01*
X556554Y383270D01*
X556499Y383354D01*
X556448Y383440D01*
X556399Y383528D01*
X556354Y383618D01*
X556313Y383709D01*
X556275Y383802D01*
X556240Y383897D01*
X556209Y383992D01*
X556182Y384089D01*
X556159Y384186D01*
X556139Y384285D01*
X556123Y384384D01*
X556110Y384484D01*
X556102Y384584D01*
X556097Y384684D01*
X556240Y384684D01*
X556245Y384584D01*
X556254Y384485D01*
X556267Y384386D01*
X556284Y384288D01*
X556305Y384190D01*
X556329Y384093D01*
X556358Y383998D01*
X556390Y383903D01*
X556426Y383810D01*
X556465Y383718D01*
X556508Y383629D01*
X556555Y383540D01*
X556605Y383454D01*
X556659Y383370D01*
X556716Y383288D01*
X556776Y383208D01*
X556839Y383131D01*
X556905Y383056D01*
X556974Y382984D01*
X557046Y382915D01*
X557121Y382849D01*
X557198Y382786D01*
X557278Y382726D01*
X557360Y382669D01*
X557444Y382615D01*
X557530Y382565D01*
X557619Y382518D01*
X557708Y382475D01*
X557800Y382436D01*
X557893Y382400D01*
X557988Y382368D01*
X558083Y382339D01*
X558180Y382315D01*
X558278Y382294D01*
X558376Y382277D01*
X558475Y382264D01*
X558574Y382255D01*
X558674Y382250D01*
X558674Y382393D01*
X558578Y382398D01*
X558482Y382407D01*
X558386Y382420D01*
X558291Y382437D01*
X558197Y382457D01*
X558104Y382482D01*
X558012Y382510D01*
X557921Y382542D01*
X557831Y382578D01*
X557743Y382617D01*
X557656Y382660D01*
X557572Y382706D01*
X557489Y382756D01*
X557409Y382809D01*
X557330Y382865D01*
X557254Y382924D01*
X557181Y382986D01*
X557110Y383052D01*
X557042Y383120D01*
X556976Y383191D01*
X556914Y383264D01*
X556855Y383340D01*
X556799Y383419D01*
X556746Y383499D01*
X556696Y383582D01*
X556650Y383666D01*
X556607Y383753D01*
X556568Y383841D01*
X556532Y383931D01*
X556500Y384022D01*
X556472Y384114D01*
X556447Y384207D01*
X556427Y384301D01*
X556410Y384396D01*
X556397Y384492D01*
X556388Y384588D01*
X556383Y384684D01*
X556526Y384684D01*
X556531Y384591D01*
X556540Y384499D01*
X556553Y384407D01*
X556570Y384316D01*
X556590Y384225D01*
X556614Y384135D01*
X556642Y384047D01*
X556674Y383959D01*
X556709Y383874D01*
X556748Y383789D01*
X556790Y383706D01*
X556836Y383626D01*
X556885Y383547D01*
X556937Y383470D01*
X556993Y383395D01*
X557051Y383323D01*
X557112Y383254D01*
X557177Y383187D01*
X557244Y383122D01*
X557313Y383061D01*
X557385Y383003D01*
X557460Y382947D01*
X557537Y382895D01*
X557616Y382846D01*
X557696Y382800D01*
X557779Y382758D01*
X557864Y382719D01*
X557949Y382684D01*
X558037Y382652D01*
X558125Y382624D01*
X558215Y382600D01*
X558306Y382580D01*
X558397Y382563D01*
X558489Y382550D01*
X558581Y382541D01*
X558674Y382536D01*
X558674Y382679D01*
X558585Y382685D01*
X558496Y382693D01*
X558408Y382706D01*
X558321Y382723D01*
X558234Y382743D01*
X558148Y382767D01*
X558063Y382794D01*
X557980Y382826D01*
X557898Y382860D01*
X557817Y382899D01*
X557739Y382940D01*
X557662Y382985D01*
X557587Y383033D01*
X557514Y383085D01*
X557443Y383139D01*
X557375Y383196D01*
X557310Y383257D01*
X557247Y383320D01*
X557186Y383385D01*
X557129Y383453D01*
X557075Y383524D01*
X557023Y383597D01*
X556975Y383672D01*
X556930Y383749D01*
X556889Y383827D01*
X556850Y383908D01*
X556816Y383990D01*
X556784Y384073D01*
X556757Y384158D01*
X556733Y384244D01*
X556713Y384331D01*
X556696Y384418D01*
X556683Y384506D01*
X556675Y384595D01*
X556669Y384684D01*
X556812Y384684D01*
X556818Y384599D01*
X556827Y384514D01*
X556839Y384430D01*
X556856Y384347D01*
X556876Y384264D01*
X556899Y384182D01*
X556926Y384102D01*
X556957Y384022D01*
X556991Y383944D01*
X557028Y383868D01*
X557069Y383793D01*
X557113Y383720D01*
X557161Y383649D01*
X557211Y383581D01*
X557264Y383514D01*
X557320Y383450D01*
X557379Y383389D01*
X557440Y383330D01*
X557504Y383274D01*
X557571Y383221D01*
X557639Y383171D01*
X557710Y383123D01*
X557783Y383079D01*
X557858Y383038D01*
X557934Y383001D01*
X558012Y382967D01*
X558092Y382936D01*
X558172Y382909D01*
X558254Y382886D01*
X558337Y382866D01*
X558420Y382849D01*
X558504Y382837D01*
X558589Y382828D01*
X558674Y382822D01*
D11*
X556210Y412700D02*
X556210Y415240D01*
X556210Y412700D02*
X557480Y411430D01*
X573990Y412700D02*
X573990Y415240D01*
X573990Y412700D02*
X572720Y411430D01*
X557480Y388570D02*
X556210Y387300D01*
X557480Y388570D02*
X557480Y411430D01*
X572720Y388570D02*
X573990Y387300D01*
X572720Y388570D02*
X572720Y411430D01*
X556210Y387300D02*
X556210Y384760D01*
X573990Y384760D02*
X573990Y387300D01*
D13*
X552781Y366016D02*
X544145Y366016D01*
X552781Y366016D02*
X552781Y368415D01*
X552779Y368512D01*
X552773Y368608D01*
X552764Y368704D01*
X552750Y368800D01*
X552733Y368895D01*
X552711Y368989D01*
X552686Y369082D01*
X552658Y369175D01*
X552625Y369266D01*
X552589Y369355D01*
X552549Y369443D01*
X552506Y369530D01*
X552460Y369615D01*
X552410Y369697D01*
X552356Y369778D01*
X552300Y369856D01*
X552240Y369932D01*
X552178Y370006D01*
X552112Y370077D01*
X552044Y370145D01*
X551973Y370211D01*
X551899Y370273D01*
X551823Y370333D01*
X551745Y370389D01*
X551664Y370443D01*
X551582Y370493D01*
X551497Y370539D01*
X551410Y370582D01*
X551322Y370622D01*
X551233Y370658D01*
X551142Y370691D01*
X551049Y370719D01*
X550956Y370744D01*
X550862Y370766D01*
X550767Y370783D01*
X550671Y370797D01*
X550575Y370806D01*
X550479Y370812D01*
X550382Y370814D01*
X550285Y370812D01*
X550189Y370806D01*
X550093Y370797D01*
X549997Y370783D01*
X549902Y370766D01*
X549808Y370744D01*
X549715Y370719D01*
X549622Y370691D01*
X549531Y370658D01*
X549442Y370622D01*
X549354Y370582D01*
X549267Y370539D01*
X549183Y370493D01*
X549100Y370443D01*
X549019Y370389D01*
X548941Y370333D01*
X548865Y370273D01*
X548791Y370211D01*
X548720Y370145D01*
X548652Y370077D01*
X548586Y370006D01*
X548524Y369932D01*
X548464Y369856D01*
X548408Y369778D01*
X548354Y369697D01*
X548304Y369615D01*
X548258Y369530D01*
X548215Y369443D01*
X548175Y369355D01*
X548139Y369266D01*
X548106Y369175D01*
X548078Y369082D01*
X548053Y368989D01*
X548031Y368895D01*
X548014Y368800D01*
X548000Y368704D01*
X547991Y368608D01*
X547985Y368512D01*
X547983Y368415D01*
X547983Y366016D01*
X547983Y368895D02*
X544145Y370814D01*
X544145Y375177D02*
X544145Y379015D01*
X544145Y375177D02*
X552781Y375177D01*
X552781Y379015D01*
X548943Y378055D02*
X548943Y375177D01*
X552781Y382903D02*
X544145Y382903D01*
X544145Y386741D01*
X544145Y390630D02*
X544145Y394468D01*
X544145Y390630D02*
X552781Y390630D01*
X552781Y394468D01*
X548943Y393508D02*
X548943Y390630D01*
X544145Y397557D02*
X552781Y400435D01*
X544145Y403314D01*
X546304Y402594D02*
X546304Y398276D01*
X544145Y409533D02*
X544147Y409619D01*
X544153Y409705D01*
X544162Y409791D01*
X544176Y409876D01*
X544193Y409960D01*
X544214Y410044D01*
X544239Y410126D01*
X544267Y410207D01*
X544299Y410287D01*
X544335Y410366D01*
X544374Y410442D01*
X544417Y410517D01*
X544462Y410590D01*
X544512Y410661D01*
X544564Y410729D01*
X544619Y410796D01*
X544677Y410859D01*
X544738Y410920D01*
X544801Y410978D01*
X544868Y411033D01*
X544936Y411086D01*
X545007Y411135D01*
X545080Y411180D01*
X545155Y411223D01*
X545231Y411262D01*
X545310Y411298D01*
X545390Y411330D01*
X545471Y411358D01*
X545553Y411383D01*
X545637Y411404D01*
X545721Y411421D01*
X545806Y411435D01*
X545892Y411444D01*
X545978Y411450D01*
X546064Y411452D01*
X544145Y409533D02*
X544147Y409410D01*
X544152Y409287D01*
X544162Y409164D01*
X544175Y409042D01*
X544192Y408920D01*
X544212Y408798D01*
X544236Y408678D01*
X544264Y408558D01*
X544295Y408439D01*
X544330Y408321D01*
X544369Y408204D01*
X544411Y408088D01*
X544457Y407974D01*
X544506Y407861D01*
X544558Y407750D01*
X544614Y407640D01*
X544673Y407532D01*
X544736Y407426D01*
X544801Y407321D01*
X544870Y407219D01*
X544942Y407119D01*
X545017Y407022D01*
X545094Y406926D01*
X545175Y406833D01*
X545258Y406742D01*
X545344Y406654D01*
X550862Y406895D02*
X550948Y406897D01*
X551034Y406903D01*
X551120Y406912D01*
X551205Y406926D01*
X551289Y406943D01*
X551373Y406964D01*
X551455Y406989D01*
X551536Y407017D01*
X551616Y407049D01*
X551695Y407085D01*
X551771Y407124D01*
X551846Y407167D01*
X551919Y407212D01*
X551990Y407261D01*
X552058Y407314D01*
X552125Y407369D01*
X552188Y407427D01*
X552249Y407488D01*
X552307Y407551D01*
X552362Y407618D01*
X552415Y407686D01*
X552464Y407757D01*
X552509Y407830D01*
X552552Y407905D01*
X552591Y407981D01*
X552627Y408060D01*
X552659Y408140D01*
X552687Y408221D01*
X552712Y408303D01*
X552733Y408387D01*
X552750Y408471D01*
X552764Y408556D01*
X552773Y408642D01*
X552779Y408728D01*
X552781Y408814D01*
X552779Y408930D01*
X552774Y409045D01*
X552764Y409161D01*
X552751Y409276D01*
X552735Y409390D01*
X552714Y409504D01*
X552690Y409618D01*
X552662Y409730D01*
X552631Y409841D01*
X552596Y409952D01*
X552558Y410061D01*
X552516Y410169D01*
X552471Y410275D01*
X552422Y410381D01*
X552370Y410484D01*
X552315Y410586D01*
X552256Y410685D01*
X552194Y410783D01*
X552129Y410879D01*
X552061Y410973D01*
X549183Y407854D02*
X549229Y407780D01*
X549279Y407707D01*
X549332Y407637D01*
X549388Y407569D01*
X549447Y407504D01*
X549509Y407441D01*
X549574Y407382D01*
X549641Y407325D01*
X549711Y407271D01*
X549783Y407221D01*
X549857Y407174D01*
X549933Y407130D01*
X550012Y407090D01*
X550092Y407054D01*
X550173Y407021D01*
X550256Y406992D01*
X550341Y406966D01*
X550426Y406944D01*
X550512Y406927D01*
X550599Y406913D01*
X550686Y406903D01*
X550774Y406897D01*
X550862Y406895D01*
X547743Y410493D02*
X547697Y410567D01*
X547647Y410640D01*
X547594Y410710D01*
X547538Y410778D01*
X547479Y410843D01*
X547417Y410906D01*
X547352Y410965D01*
X547285Y411022D01*
X547215Y411076D01*
X547143Y411126D01*
X547069Y411173D01*
X546993Y411217D01*
X546914Y411257D01*
X546834Y411293D01*
X546753Y411326D01*
X546670Y411355D01*
X546585Y411381D01*
X546500Y411403D01*
X546414Y411420D01*
X546327Y411434D01*
X546240Y411444D01*
X546152Y411450D01*
X546064Y411452D01*
X547743Y410493D02*
X549183Y407854D01*
X544145Y415593D02*
X544145Y419431D01*
X544145Y415593D02*
X552781Y415593D01*
X552781Y419431D01*
X548943Y418471D02*
X548943Y415593D01*
D14*
X721935Y393192D02*
X721935Y381508D01*
X721935Y393192D02*
X718690Y393192D01*
X718577Y393190D01*
X718464Y393184D01*
X718351Y393174D01*
X718238Y393160D01*
X718126Y393143D01*
X718015Y393121D01*
X717905Y393096D01*
X717795Y393066D01*
X717687Y393033D01*
X717580Y392996D01*
X717474Y392956D01*
X717370Y392911D01*
X717267Y392863D01*
X717166Y392812D01*
X717067Y392757D01*
X716970Y392699D01*
X716875Y392637D01*
X716782Y392572D01*
X716692Y392504D01*
X716604Y392433D01*
X716518Y392358D01*
X716435Y392281D01*
X716355Y392201D01*
X716278Y392118D01*
X716203Y392032D01*
X716132Y391944D01*
X716064Y391854D01*
X715999Y391761D01*
X715937Y391666D01*
X715879Y391569D01*
X715824Y391470D01*
X715773Y391369D01*
X715725Y391266D01*
X715680Y391162D01*
X715640Y391056D01*
X715603Y390949D01*
X715570Y390841D01*
X715540Y390731D01*
X715515Y390621D01*
X715493Y390510D01*
X715476Y390398D01*
X715462Y390285D01*
X715452Y390172D01*
X715446Y390059D01*
X715444Y389946D01*
X715446Y389833D01*
X715452Y389720D01*
X715462Y389607D01*
X715476Y389494D01*
X715493Y389382D01*
X715515Y389271D01*
X715540Y389161D01*
X715570Y389051D01*
X715603Y388943D01*
X715640Y388836D01*
X715680Y388730D01*
X715725Y388626D01*
X715773Y388523D01*
X715824Y388422D01*
X715879Y388323D01*
X715937Y388226D01*
X715999Y388131D01*
X716064Y388038D01*
X716132Y387948D01*
X716203Y387860D01*
X716278Y387774D01*
X716355Y387691D01*
X716435Y387611D01*
X716518Y387534D01*
X716604Y387459D01*
X716692Y387388D01*
X716782Y387320D01*
X716875Y387255D01*
X716970Y387193D01*
X717067Y387135D01*
X717166Y387080D01*
X717267Y387029D01*
X717370Y386981D01*
X717474Y386936D01*
X717580Y386896D01*
X717687Y386859D01*
X717795Y386826D01*
X717905Y386796D01*
X718015Y386771D01*
X718126Y386749D01*
X718238Y386732D01*
X718351Y386718D01*
X718464Y386708D01*
X718577Y386702D01*
X718690Y386700D01*
X718690Y386701D02*
X721935Y386701D01*
X718041Y386701D02*
X715444Y381508D01*
X711228Y381508D02*
X707334Y393192D01*
X703439Y381508D01*
X704413Y384429D02*
X710255Y384429D01*
X698768Y381508D02*
X698768Y393192D01*
X695523Y393192D01*
X695410Y393190D01*
X695297Y393184D01*
X695184Y393174D01*
X695071Y393160D01*
X694959Y393143D01*
X694848Y393121D01*
X694738Y393096D01*
X694628Y393066D01*
X694520Y393033D01*
X694413Y392996D01*
X694307Y392956D01*
X694203Y392911D01*
X694100Y392863D01*
X693999Y392812D01*
X693900Y392757D01*
X693803Y392699D01*
X693708Y392637D01*
X693615Y392572D01*
X693525Y392504D01*
X693437Y392433D01*
X693351Y392358D01*
X693268Y392281D01*
X693188Y392201D01*
X693111Y392118D01*
X693036Y392032D01*
X692965Y391944D01*
X692897Y391854D01*
X692832Y391761D01*
X692770Y391666D01*
X692712Y391569D01*
X692657Y391470D01*
X692606Y391369D01*
X692558Y391266D01*
X692513Y391162D01*
X692473Y391056D01*
X692436Y390949D01*
X692403Y390841D01*
X692373Y390731D01*
X692348Y390621D01*
X692326Y390510D01*
X692309Y390398D01*
X692295Y390285D01*
X692285Y390172D01*
X692279Y390059D01*
X692277Y389946D01*
X692277Y384754D01*
X692279Y384641D01*
X692285Y384528D01*
X692295Y384415D01*
X692309Y384302D01*
X692326Y384190D01*
X692348Y384079D01*
X692373Y383969D01*
X692403Y383859D01*
X692436Y383751D01*
X692473Y383644D01*
X692513Y383538D01*
X692558Y383434D01*
X692606Y383331D01*
X692657Y383230D01*
X692712Y383131D01*
X692770Y383034D01*
X692832Y382939D01*
X692897Y382846D01*
X692965Y382756D01*
X693036Y382668D01*
X693111Y382582D01*
X693188Y382499D01*
X693268Y382419D01*
X693351Y382342D01*
X693437Y382267D01*
X693525Y382196D01*
X693615Y382128D01*
X693708Y382063D01*
X693803Y382001D01*
X693900Y381943D01*
X693999Y381888D01*
X694100Y381837D01*
X694203Y381789D01*
X694307Y381744D01*
X694413Y381704D01*
X694520Y381667D01*
X694628Y381634D01*
X694738Y381604D01*
X694848Y381579D01*
X694959Y381557D01*
X695071Y381540D01*
X695184Y381526D01*
X695297Y381516D01*
X695410Y381510D01*
X695523Y381508D01*
X698768Y381508D01*
X685998Y381508D02*
X685998Y393192D01*
X687296Y381508D02*
X684699Y381508D01*
X684699Y393192D02*
X687296Y393192D01*
X680099Y389946D02*
X680099Y384754D01*
X680100Y389946D02*
X680098Y390059D01*
X680092Y390172D01*
X680082Y390285D01*
X680068Y390398D01*
X680051Y390510D01*
X680029Y390621D01*
X680004Y390731D01*
X679974Y390841D01*
X679941Y390949D01*
X679904Y391056D01*
X679864Y391162D01*
X679819Y391266D01*
X679771Y391369D01*
X679720Y391470D01*
X679665Y391569D01*
X679607Y391666D01*
X679545Y391761D01*
X679480Y391854D01*
X679412Y391944D01*
X679341Y392032D01*
X679266Y392118D01*
X679189Y392201D01*
X679109Y392281D01*
X679026Y392358D01*
X678940Y392433D01*
X678852Y392504D01*
X678762Y392572D01*
X678669Y392637D01*
X678574Y392699D01*
X678477Y392757D01*
X678378Y392812D01*
X678277Y392863D01*
X678174Y392911D01*
X678070Y392956D01*
X677964Y392996D01*
X677857Y393033D01*
X677749Y393066D01*
X677639Y393096D01*
X677529Y393121D01*
X677418Y393143D01*
X677306Y393160D01*
X677193Y393174D01*
X677080Y393184D01*
X676967Y393190D01*
X676854Y393192D01*
X676741Y393190D01*
X676628Y393184D01*
X676515Y393174D01*
X676402Y393160D01*
X676290Y393143D01*
X676179Y393121D01*
X676069Y393096D01*
X675959Y393066D01*
X675851Y393033D01*
X675744Y392996D01*
X675638Y392956D01*
X675534Y392911D01*
X675431Y392863D01*
X675330Y392812D01*
X675231Y392757D01*
X675134Y392699D01*
X675039Y392637D01*
X674946Y392572D01*
X674856Y392504D01*
X674768Y392433D01*
X674682Y392358D01*
X674599Y392281D01*
X674519Y392201D01*
X674442Y392118D01*
X674367Y392032D01*
X674296Y391944D01*
X674228Y391854D01*
X674163Y391761D01*
X674101Y391666D01*
X674043Y391569D01*
X673988Y391470D01*
X673937Y391369D01*
X673889Y391266D01*
X673844Y391162D01*
X673804Y391056D01*
X673767Y390949D01*
X673734Y390841D01*
X673704Y390731D01*
X673679Y390621D01*
X673657Y390510D01*
X673640Y390398D01*
X673626Y390285D01*
X673616Y390172D01*
X673610Y390059D01*
X673608Y389946D01*
X673608Y384754D01*
X673610Y384641D01*
X673616Y384528D01*
X673626Y384415D01*
X673640Y384302D01*
X673657Y384190D01*
X673679Y384079D01*
X673704Y383969D01*
X673734Y383859D01*
X673767Y383751D01*
X673804Y383644D01*
X673844Y383538D01*
X673889Y383434D01*
X673937Y383331D01*
X673988Y383230D01*
X674043Y383131D01*
X674101Y383034D01*
X674163Y382939D01*
X674228Y382846D01*
X674296Y382756D01*
X674367Y382668D01*
X674442Y382582D01*
X674519Y382499D01*
X674599Y382419D01*
X674682Y382342D01*
X674768Y382267D01*
X674856Y382196D01*
X674946Y382128D01*
X675039Y382063D01*
X675134Y382001D01*
X675231Y381943D01*
X675330Y381888D01*
X675431Y381837D01*
X675534Y381789D01*
X675638Y381744D01*
X675744Y381704D01*
X675851Y381667D01*
X675959Y381634D01*
X676069Y381604D01*
X676179Y381579D01*
X676290Y381557D01*
X676402Y381540D01*
X676515Y381526D01*
X676628Y381516D01*
X676741Y381510D01*
X676854Y381508D01*
X676967Y381510D01*
X677080Y381516D01*
X677193Y381526D01*
X677306Y381540D01*
X677418Y381557D01*
X677529Y381579D01*
X677639Y381604D01*
X677749Y381634D01*
X677857Y381667D01*
X677964Y381704D01*
X678070Y381744D01*
X678174Y381789D01*
X678277Y381837D01*
X678378Y381888D01*
X678477Y381943D01*
X678574Y382001D01*
X678669Y382063D01*
X678762Y382128D01*
X678852Y382196D01*
X678940Y382267D01*
X679026Y382342D01*
X679109Y382419D01*
X679189Y382499D01*
X679266Y382582D01*
X679341Y382668D01*
X679412Y382756D01*
X679480Y382846D01*
X679545Y382939D01*
X679607Y383034D01*
X679665Y383131D01*
X679720Y383230D01*
X679771Y383331D01*
X679819Y383434D01*
X679864Y383538D01*
X679904Y383644D01*
X679941Y383751D01*
X679974Y383859D01*
X680004Y383969D01*
X680029Y384079D01*
X680051Y384190D01*
X680068Y384302D01*
X680082Y384415D01*
X680092Y384528D01*
X680098Y384641D01*
X680100Y384754D01*
X438292Y605208D02*
X426608Y605208D01*
X431801Y609103D02*
X438292Y605208D01*
X431801Y609103D02*
X438292Y612997D01*
X426608Y612997D01*
X426608Y618980D02*
X438292Y618980D01*
X438292Y622226D01*
X438290Y622339D01*
X438284Y622452D01*
X438274Y622565D01*
X438260Y622678D01*
X438243Y622790D01*
X438221Y622901D01*
X438196Y623011D01*
X438166Y623121D01*
X438133Y623229D01*
X438096Y623336D01*
X438056Y623442D01*
X438011Y623546D01*
X437963Y623649D01*
X437912Y623750D01*
X437857Y623849D01*
X437799Y623946D01*
X437737Y624041D01*
X437672Y624134D01*
X437604Y624224D01*
X437533Y624312D01*
X437458Y624398D01*
X437381Y624481D01*
X437301Y624561D01*
X437218Y624638D01*
X437132Y624713D01*
X437044Y624784D01*
X436954Y624852D01*
X436861Y624917D01*
X436766Y624979D01*
X436669Y625037D01*
X436570Y625092D01*
X436469Y625143D01*
X436366Y625191D01*
X436262Y625236D01*
X436156Y625276D01*
X436049Y625313D01*
X435941Y625346D01*
X435831Y625376D01*
X435721Y625401D01*
X435610Y625423D01*
X435498Y625440D01*
X435385Y625454D01*
X435272Y625464D01*
X435159Y625470D01*
X435046Y625472D01*
X434933Y625470D01*
X434820Y625464D01*
X434707Y625454D01*
X434594Y625440D01*
X434482Y625423D01*
X434371Y625401D01*
X434261Y625376D01*
X434151Y625346D01*
X434043Y625313D01*
X433936Y625276D01*
X433830Y625236D01*
X433726Y625191D01*
X433623Y625143D01*
X433522Y625092D01*
X433423Y625037D01*
X433326Y624979D01*
X433231Y624917D01*
X433138Y624852D01*
X433048Y624784D01*
X432960Y624713D01*
X432874Y624638D01*
X432791Y624561D01*
X432711Y624481D01*
X432634Y624398D01*
X432559Y624312D01*
X432488Y624224D01*
X432420Y624134D01*
X432355Y624041D01*
X432293Y623946D01*
X432235Y623849D01*
X432180Y623750D01*
X432129Y623649D01*
X432081Y623546D01*
X432036Y623442D01*
X431996Y623336D01*
X431959Y623229D01*
X431926Y623121D01*
X431896Y623011D01*
X431871Y622901D01*
X431849Y622790D01*
X431832Y622678D01*
X431818Y622565D01*
X431808Y622452D01*
X431802Y622339D01*
X431800Y622226D01*
X431801Y622226D02*
X431801Y618980D01*
X429854Y630241D02*
X438292Y630241D01*
X429854Y630241D02*
X429741Y630243D01*
X429628Y630249D01*
X429515Y630259D01*
X429402Y630273D01*
X429290Y630290D01*
X429179Y630312D01*
X429069Y630337D01*
X428959Y630367D01*
X428851Y630400D01*
X428744Y630437D01*
X428638Y630477D01*
X428534Y630522D01*
X428431Y630570D01*
X428330Y630621D01*
X428231Y630676D01*
X428134Y630734D01*
X428039Y630796D01*
X427946Y630861D01*
X427856Y630929D01*
X427768Y631000D01*
X427682Y631075D01*
X427599Y631152D01*
X427519Y631232D01*
X427442Y631315D01*
X427367Y631401D01*
X427296Y631489D01*
X427228Y631579D01*
X427163Y631672D01*
X427101Y631767D01*
X427043Y631864D01*
X426988Y631963D01*
X426937Y632064D01*
X426889Y632167D01*
X426844Y632271D01*
X426804Y632377D01*
X426767Y632484D01*
X426734Y632592D01*
X426704Y632702D01*
X426679Y632812D01*
X426657Y632923D01*
X426640Y633035D01*
X426626Y633148D01*
X426616Y633261D01*
X426610Y633374D01*
X426608Y633487D01*
X426610Y633600D01*
X426616Y633713D01*
X426626Y633826D01*
X426640Y633939D01*
X426657Y634051D01*
X426679Y634162D01*
X426704Y634272D01*
X426734Y634382D01*
X426767Y634490D01*
X426804Y634597D01*
X426844Y634703D01*
X426889Y634807D01*
X426937Y634910D01*
X426988Y635011D01*
X427043Y635110D01*
X427101Y635207D01*
X427163Y635302D01*
X427228Y635395D01*
X427296Y635485D01*
X427367Y635573D01*
X427442Y635659D01*
X427519Y635742D01*
X427599Y635822D01*
X427682Y635899D01*
X427768Y635974D01*
X427856Y636045D01*
X427946Y636113D01*
X428039Y636178D01*
X428134Y636240D01*
X428231Y636298D01*
X428330Y636353D01*
X428431Y636404D01*
X428534Y636452D01*
X428638Y636497D01*
X428744Y636537D01*
X428851Y636574D01*
X428959Y636607D01*
X429069Y636637D01*
X429179Y636662D01*
X429290Y636684D01*
X429402Y636701D01*
X429515Y636715D01*
X429628Y636725D01*
X429741Y636731D01*
X429854Y636733D01*
X429854Y636732D02*
X438292Y636732D01*
X431801Y644648D02*
X431801Y648543D01*
X431801Y644648D02*
X431803Y644549D01*
X431809Y644449D01*
X431818Y644350D01*
X431831Y644252D01*
X431848Y644154D01*
X431869Y644056D01*
X431894Y643960D01*
X431922Y643865D01*
X431954Y643771D01*
X431989Y643678D01*
X432028Y643586D01*
X432071Y643496D01*
X432116Y643408D01*
X432166Y643321D01*
X432218Y643237D01*
X432274Y643154D01*
X432332Y643074D01*
X432394Y642996D01*
X432459Y642921D01*
X432527Y642848D01*
X432597Y642778D01*
X432670Y642710D01*
X432745Y642645D01*
X432823Y642583D01*
X432903Y642525D01*
X432986Y642469D01*
X433070Y642417D01*
X433157Y642367D01*
X433245Y642322D01*
X433335Y642279D01*
X433427Y642240D01*
X433520Y642205D01*
X433614Y642173D01*
X433709Y642145D01*
X433805Y642120D01*
X433903Y642099D01*
X434001Y642082D01*
X434099Y642069D01*
X434198Y642060D01*
X434298Y642054D01*
X434397Y642052D01*
X435046Y642052D01*
X435159Y642054D01*
X435272Y642060D01*
X435385Y642070D01*
X435498Y642084D01*
X435610Y642101D01*
X435721Y642123D01*
X435831Y642148D01*
X435941Y642178D01*
X436049Y642211D01*
X436156Y642248D01*
X436262Y642288D01*
X436366Y642333D01*
X436469Y642381D01*
X436570Y642432D01*
X436669Y642487D01*
X436766Y642545D01*
X436861Y642607D01*
X436954Y642672D01*
X437044Y642740D01*
X437132Y642811D01*
X437218Y642886D01*
X437301Y642963D01*
X437381Y643043D01*
X437458Y643126D01*
X437533Y643212D01*
X437604Y643300D01*
X437672Y643390D01*
X437737Y643483D01*
X437799Y643578D01*
X437857Y643675D01*
X437912Y643774D01*
X437963Y643875D01*
X438011Y643978D01*
X438056Y644082D01*
X438096Y644188D01*
X438133Y644295D01*
X438166Y644403D01*
X438196Y644513D01*
X438221Y644623D01*
X438243Y644734D01*
X438260Y644846D01*
X438274Y644959D01*
X438284Y645072D01*
X438290Y645185D01*
X438292Y645298D01*
X438290Y645411D01*
X438284Y645524D01*
X438274Y645637D01*
X438260Y645750D01*
X438243Y645862D01*
X438221Y645973D01*
X438196Y646083D01*
X438166Y646193D01*
X438133Y646301D01*
X438096Y646408D01*
X438056Y646514D01*
X438011Y646618D01*
X437963Y646721D01*
X437912Y646822D01*
X437857Y646921D01*
X437799Y647018D01*
X437737Y647113D01*
X437672Y647206D01*
X437604Y647296D01*
X437533Y647384D01*
X437458Y647470D01*
X437381Y647553D01*
X437301Y647633D01*
X437218Y647710D01*
X437132Y647785D01*
X437044Y647856D01*
X436954Y647924D01*
X436861Y647989D01*
X436766Y648051D01*
X436669Y648109D01*
X436570Y648164D01*
X436469Y648215D01*
X436366Y648263D01*
X436262Y648308D01*
X436156Y648348D01*
X436049Y648385D01*
X435941Y648418D01*
X435831Y648448D01*
X435721Y648473D01*
X435610Y648495D01*
X435498Y648512D01*
X435385Y648526D01*
X435272Y648536D01*
X435159Y648542D01*
X435046Y648544D01*
X435046Y648543D02*
X431801Y648543D01*
X431658Y648541D01*
X431515Y648535D01*
X431372Y648525D01*
X431230Y648511D01*
X431088Y648494D01*
X430946Y648472D01*
X430805Y648447D01*
X430665Y648417D01*
X430526Y648384D01*
X430388Y648347D01*
X430251Y648306D01*
X430115Y648262D01*
X429980Y648213D01*
X429847Y648161D01*
X429715Y648106D01*
X429585Y648046D01*
X429456Y647983D01*
X429329Y647917D01*
X429205Y647847D01*
X429082Y647774D01*
X428961Y647697D01*
X428842Y647617D01*
X428726Y647534D01*
X428611Y647448D01*
X428500Y647359D01*
X428390Y647266D01*
X428284Y647171D01*
X428180Y647072D01*
X428079Y646971D01*
X427980Y646867D01*
X427885Y646761D01*
X427792Y646651D01*
X427703Y646540D01*
X427617Y646425D01*
X427534Y646309D01*
X427454Y646190D01*
X427377Y646069D01*
X427304Y645947D01*
X427234Y645822D01*
X427168Y645695D01*
X427105Y645566D01*
X427045Y645436D01*
X426990Y645304D01*
X426938Y645171D01*
X426889Y645036D01*
X426845Y644900D01*
X426804Y644763D01*
X426767Y644625D01*
X426734Y644486D01*
X426704Y644346D01*
X426679Y644205D01*
X426657Y644063D01*
X426640Y643921D01*
X426626Y643779D01*
X426616Y643636D01*
X426610Y643493D01*
X426608Y643350D01*
X438292Y657052D02*
X438290Y657159D01*
X438284Y657265D01*
X438274Y657371D01*
X438261Y657477D01*
X438243Y657583D01*
X438222Y657687D01*
X438197Y657791D01*
X438168Y657894D01*
X438136Y657995D01*
X438099Y658095D01*
X438059Y658194D01*
X438016Y658292D01*
X437969Y658388D01*
X437918Y658482D01*
X437864Y658574D01*
X437807Y658664D01*
X437747Y658752D01*
X437683Y658837D01*
X437616Y658920D01*
X437546Y659001D01*
X437474Y659079D01*
X437398Y659155D01*
X437320Y659227D01*
X437239Y659297D01*
X437156Y659364D01*
X437071Y659428D01*
X436983Y659488D01*
X436893Y659545D01*
X436801Y659599D01*
X436707Y659650D01*
X436611Y659697D01*
X436513Y659740D01*
X436414Y659780D01*
X436314Y659817D01*
X436213Y659849D01*
X436110Y659878D01*
X436006Y659903D01*
X435902Y659924D01*
X435796Y659942D01*
X435690Y659955D01*
X435584Y659965D01*
X435478Y659971D01*
X435371Y659973D01*
X438292Y657052D02*
X438290Y656931D01*
X438284Y656810D01*
X438274Y656690D01*
X438261Y656569D01*
X438243Y656450D01*
X438222Y656330D01*
X438197Y656212D01*
X438168Y656095D01*
X438135Y655978D01*
X438099Y655863D01*
X438058Y655749D01*
X438015Y655636D01*
X437967Y655524D01*
X437916Y655415D01*
X437861Y655307D01*
X437803Y655200D01*
X437742Y655096D01*
X437677Y654994D01*
X437609Y654894D01*
X437538Y654796D01*
X437464Y654700D01*
X437387Y654607D01*
X437306Y654517D01*
X437223Y654429D01*
X437137Y654344D01*
X437048Y654261D01*
X436957Y654182D01*
X436863Y654105D01*
X436767Y654032D01*
X436669Y653962D01*
X436568Y653895D01*
X436465Y653831D01*
X436360Y653771D01*
X436253Y653714D01*
X436145Y653660D01*
X436035Y653610D01*
X435923Y653564D01*
X435810Y653521D01*
X435695Y653482D01*
X433099Y659000D02*
X433176Y659079D01*
X433257Y659155D01*
X433340Y659228D01*
X433425Y659298D01*
X433513Y659365D01*
X433603Y659429D01*
X433695Y659489D01*
X433790Y659546D01*
X433886Y659600D01*
X433984Y659651D01*
X434084Y659698D01*
X434186Y659742D01*
X434289Y659782D01*
X434393Y659818D01*
X434499Y659850D01*
X434605Y659879D01*
X434713Y659904D01*
X434821Y659926D01*
X434931Y659943D01*
X435040Y659957D01*
X435150Y659966D01*
X435261Y659972D01*
X435371Y659974D01*
X433099Y658999D02*
X426608Y653482D01*
X426608Y659973D01*
X426608Y664912D02*
X426608Y668807D01*
X426610Y668906D01*
X426616Y669006D01*
X426625Y669105D01*
X426638Y669203D01*
X426655Y669301D01*
X426676Y669399D01*
X426701Y669495D01*
X426729Y669590D01*
X426761Y669684D01*
X426796Y669777D01*
X426835Y669869D01*
X426878Y669959D01*
X426923Y670047D01*
X426973Y670134D01*
X427025Y670218D01*
X427081Y670301D01*
X427139Y670381D01*
X427201Y670459D01*
X427266Y670534D01*
X427334Y670607D01*
X427404Y670677D01*
X427477Y670745D01*
X427552Y670810D01*
X427630Y670872D01*
X427710Y670930D01*
X427793Y670986D01*
X427877Y671038D01*
X427964Y671088D01*
X428052Y671133D01*
X428142Y671176D01*
X428234Y671215D01*
X428327Y671250D01*
X428421Y671282D01*
X428516Y671310D01*
X428612Y671335D01*
X428710Y671356D01*
X428808Y671373D01*
X428906Y671386D01*
X429005Y671395D01*
X429105Y671401D01*
X429204Y671403D01*
X430503Y671403D01*
X430602Y671401D01*
X430702Y671395D01*
X430801Y671386D01*
X430899Y671373D01*
X430997Y671356D01*
X431095Y671335D01*
X431191Y671310D01*
X431286Y671282D01*
X431380Y671250D01*
X431473Y671215D01*
X431565Y671176D01*
X431655Y671133D01*
X431743Y671088D01*
X431830Y671038D01*
X431914Y670986D01*
X431997Y670930D01*
X432077Y670872D01*
X432155Y670810D01*
X432230Y670745D01*
X432303Y670677D01*
X432373Y670607D01*
X432441Y670534D01*
X432506Y670459D01*
X432568Y670381D01*
X432626Y670301D01*
X432682Y670218D01*
X432734Y670134D01*
X432784Y670047D01*
X432829Y669959D01*
X432872Y669869D01*
X432911Y669777D01*
X432946Y669684D01*
X432978Y669590D01*
X433006Y669495D01*
X433031Y669399D01*
X433052Y669301D01*
X433069Y669203D01*
X433082Y669105D01*
X433091Y669006D01*
X433097Y668906D01*
X433099Y668807D01*
X433099Y664912D01*
X438292Y664912D01*
X438292Y671403D01*
X436669Y677316D02*
X436461Y677217D01*
X436251Y677124D01*
X436039Y677036D01*
X435825Y676953D01*
X435608Y676875D01*
X435390Y676802D01*
X435171Y676734D01*
X434949Y676672D01*
X434727Y676615D01*
X434503Y676563D01*
X434278Y676517D01*
X434052Y676476D01*
X433824Y676441D01*
X433597Y676411D01*
X433368Y676386D01*
X433139Y676367D01*
X432910Y676353D01*
X432680Y676345D01*
X432450Y676342D01*
X436669Y677315D02*
X436759Y677348D01*
X436848Y677384D01*
X436936Y677424D01*
X437021Y677468D01*
X437105Y677515D01*
X437187Y677565D01*
X437267Y677619D01*
X437344Y677675D01*
X437420Y677735D01*
X437493Y677798D01*
X437563Y677863D01*
X437631Y677932D01*
X437695Y678003D01*
X437757Y678076D01*
X437816Y678152D01*
X437872Y678230D01*
X437925Y678311D01*
X437974Y678393D01*
X438020Y678477D01*
X438063Y678564D01*
X438102Y678651D01*
X438138Y678741D01*
X438170Y678831D01*
X438198Y678923D01*
X438223Y679016D01*
X438244Y679110D01*
X438261Y679204D01*
X438275Y679299D01*
X438284Y679395D01*
X438290Y679491D01*
X438292Y679587D01*
X438290Y679683D01*
X438284Y679779D01*
X438275Y679875D01*
X438261Y679970D01*
X438244Y680064D01*
X438223Y680158D01*
X438198Y680251D01*
X438170Y680343D01*
X438138Y680433D01*
X438102Y680523D01*
X438063Y680610D01*
X438020Y680697D01*
X437974Y680781D01*
X437925Y680863D01*
X437872Y680944D01*
X437816Y681022D01*
X437757Y681098D01*
X437695Y681171D01*
X437631Y681242D01*
X437563Y681311D01*
X437493Y681376D01*
X437420Y681439D01*
X437344Y681499D01*
X437267Y681555D01*
X437187Y681609D01*
X437105Y681659D01*
X437021Y681706D01*
X436936Y681750D01*
X436848Y681790D01*
X436759Y681826D01*
X436669Y681859D01*
X436669Y681860D02*
X436462Y681959D01*
X436252Y682052D01*
X436039Y682140D01*
X435825Y682223D01*
X435609Y682301D01*
X435391Y682374D01*
X435171Y682442D01*
X434950Y682504D01*
X434727Y682561D01*
X434503Y682613D01*
X434278Y682659D01*
X434052Y682700D01*
X433825Y682735D01*
X433597Y682765D01*
X433368Y682790D01*
X433139Y682809D01*
X432910Y682823D01*
X432680Y682831D01*
X432450Y682834D01*
X432450Y676342D02*
X432220Y676345D01*
X431990Y676353D01*
X431761Y676367D01*
X431532Y676386D01*
X431303Y676411D01*
X431075Y676441D01*
X430848Y676476D01*
X430622Y676517D01*
X430397Y676563D01*
X430173Y676615D01*
X429950Y676672D01*
X429729Y676734D01*
X429509Y676802D01*
X429291Y676875D01*
X429075Y676953D01*
X428861Y677036D01*
X428649Y677124D01*
X428438Y677217D01*
X428231Y677316D01*
X428231Y677315D02*
X428141Y677348D01*
X428052Y677384D01*
X427964Y677425D01*
X427879Y677468D01*
X427795Y677515D01*
X427713Y677565D01*
X427633Y677619D01*
X427556Y677675D01*
X427480Y677735D01*
X427407Y677798D01*
X427337Y677863D01*
X427269Y677932D01*
X427205Y678003D01*
X427143Y678076D01*
X427084Y678152D01*
X427028Y678230D01*
X426975Y678311D01*
X426926Y678393D01*
X426880Y678477D01*
X426837Y678564D01*
X426798Y678651D01*
X426762Y678741D01*
X426730Y678831D01*
X426702Y678923D01*
X426677Y679016D01*
X426656Y679110D01*
X426639Y679204D01*
X426625Y679299D01*
X426616Y679395D01*
X426610Y679491D01*
X426608Y679587D01*
X428231Y681859D02*
X428438Y681958D01*
X428649Y682051D01*
X428861Y682139D01*
X429075Y682222D01*
X429291Y682300D01*
X429509Y682373D01*
X429729Y682441D01*
X429950Y682503D01*
X430173Y682560D01*
X430397Y682612D01*
X430622Y682658D01*
X430848Y682699D01*
X431075Y682734D01*
X431303Y682764D01*
X431532Y682789D01*
X431761Y682808D01*
X431990Y682822D01*
X432220Y682830D01*
X432450Y682833D01*
X428231Y681859D02*
X428141Y681826D01*
X428052Y681790D01*
X427964Y681750D01*
X427879Y681706D01*
X427795Y681659D01*
X427713Y681609D01*
X427633Y681555D01*
X427556Y681499D01*
X427480Y681439D01*
X427407Y681376D01*
X427337Y681311D01*
X427269Y681242D01*
X427205Y681171D01*
X427143Y681098D01*
X427084Y681022D01*
X427028Y680944D01*
X426975Y680863D01*
X426926Y680781D01*
X426880Y680697D01*
X426837Y680610D01*
X426798Y680523D01*
X426762Y680433D01*
X426730Y680343D01*
X426702Y680251D01*
X426677Y680158D01*
X426656Y680064D01*
X426639Y679970D01*
X426625Y679875D01*
X426616Y679779D01*
X426610Y679683D01*
X426608Y679587D01*
X429204Y676991D02*
X435696Y682184D01*
X243412Y143778D02*
X231728Y143778D01*
X243412Y143778D02*
X243412Y147024D01*
X243410Y147137D01*
X243404Y147250D01*
X243394Y147363D01*
X243380Y147476D01*
X243363Y147588D01*
X243341Y147699D01*
X243316Y147809D01*
X243286Y147919D01*
X243253Y148027D01*
X243216Y148134D01*
X243176Y148240D01*
X243131Y148344D01*
X243083Y148447D01*
X243032Y148548D01*
X242977Y148647D01*
X242919Y148744D01*
X242857Y148839D01*
X242792Y148932D01*
X242724Y149022D01*
X242653Y149110D01*
X242578Y149196D01*
X242501Y149279D01*
X242421Y149359D01*
X242338Y149436D01*
X242252Y149511D01*
X242164Y149582D01*
X242074Y149650D01*
X241981Y149715D01*
X241886Y149777D01*
X241789Y149835D01*
X241690Y149890D01*
X241589Y149941D01*
X241486Y149989D01*
X241382Y150034D01*
X241276Y150074D01*
X241169Y150111D01*
X241061Y150144D01*
X240951Y150174D01*
X240841Y150199D01*
X240730Y150221D01*
X240618Y150238D01*
X240505Y150252D01*
X240392Y150262D01*
X240279Y150268D01*
X240166Y150270D01*
X240053Y150268D01*
X239940Y150262D01*
X239827Y150252D01*
X239714Y150238D01*
X239602Y150221D01*
X239491Y150199D01*
X239381Y150174D01*
X239271Y150144D01*
X239163Y150111D01*
X239056Y150074D01*
X238950Y150034D01*
X238846Y149989D01*
X238743Y149941D01*
X238642Y149890D01*
X238543Y149835D01*
X238446Y149777D01*
X238351Y149715D01*
X238258Y149650D01*
X238168Y149582D01*
X238080Y149511D01*
X237994Y149436D01*
X237911Y149359D01*
X237831Y149279D01*
X237754Y149196D01*
X237679Y149110D01*
X237608Y149022D01*
X237540Y148932D01*
X237475Y148839D01*
X237413Y148744D01*
X237355Y148647D01*
X237300Y148548D01*
X237249Y148447D01*
X237201Y148344D01*
X237156Y148240D01*
X237116Y148134D01*
X237079Y148027D01*
X237046Y147919D01*
X237016Y147809D01*
X236991Y147699D01*
X236969Y147588D01*
X236952Y147476D01*
X236938Y147363D01*
X236928Y147250D01*
X236922Y147137D01*
X236920Y147024D01*
X236921Y147024D02*
X236921Y143778D01*
X236921Y147673D02*
X231728Y150269D01*
X231728Y157618D02*
X243412Y157618D01*
X243412Y160863D02*
X243412Y154372D01*
X231728Y167604D02*
X231728Y170200D01*
X231728Y167604D02*
X231730Y167505D01*
X231736Y167405D01*
X231745Y167306D01*
X231758Y167208D01*
X231775Y167110D01*
X231796Y167012D01*
X231821Y166916D01*
X231849Y166821D01*
X231881Y166727D01*
X231916Y166634D01*
X231955Y166542D01*
X231998Y166452D01*
X232043Y166364D01*
X232093Y166277D01*
X232145Y166193D01*
X232201Y166110D01*
X232259Y166030D01*
X232321Y165952D01*
X232386Y165877D01*
X232454Y165804D01*
X232524Y165734D01*
X232597Y165666D01*
X232672Y165601D01*
X232750Y165539D01*
X232830Y165481D01*
X232913Y165425D01*
X232997Y165373D01*
X233084Y165323D01*
X233172Y165278D01*
X233262Y165235D01*
X233354Y165196D01*
X233447Y165161D01*
X233541Y165129D01*
X233636Y165101D01*
X233732Y165076D01*
X233830Y165055D01*
X233928Y165038D01*
X234026Y165025D01*
X234125Y165016D01*
X234225Y165010D01*
X234324Y165008D01*
X234324Y165007D02*
X240816Y165007D01*
X240816Y165008D02*
X240915Y165010D01*
X241015Y165016D01*
X241114Y165025D01*
X241212Y165038D01*
X241310Y165055D01*
X241408Y165076D01*
X241504Y165101D01*
X241599Y165129D01*
X241693Y165161D01*
X241786Y165196D01*
X241878Y165235D01*
X241968Y165278D01*
X242056Y165323D01*
X242143Y165373D01*
X242227Y165425D01*
X242310Y165481D01*
X242390Y165539D01*
X242468Y165601D01*
X242543Y165666D01*
X242616Y165734D01*
X242686Y165804D01*
X242754Y165877D01*
X242819Y165952D01*
X242881Y166030D01*
X242939Y166110D01*
X242995Y166193D01*
X243047Y166277D01*
X243097Y166364D01*
X243142Y166452D01*
X243185Y166542D01*
X243224Y166634D01*
X243259Y166726D01*
X243291Y166821D01*
X243319Y166916D01*
X243344Y167012D01*
X243365Y167110D01*
X243382Y167208D01*
X243395Y167306D01*
X243404Y167405D01*
X243410Y167505D01*
X243412Y167604D01*
X243412Y170200D01*
X243412Y181042D02*
X231728Y181042D01*
X243412Y181042D02*
X243412Y184288D01*
X243410Y184401D01*
X243404Y184514D01*
X243394Y184627D01*
X243380Y184740D01*
X243363Y184852D01*
X243341Y184963D01*
X243316Y185073D01*
X243286Y185183D01*
X243253Y185291D01*
X243216Y185398D01*
X243176Y185504D01*
X243131Y185608D01*
X243083Y185711D01*
X243032Y185812D01*
X242977Y185911D01*
X242919Y186008D01*
X242857Y186103D01*
X242792Y186196D01*
X242724Y186286D01*
X242653Y186374D01*
X242578Y186460D01*
X242501Y186543D01*
X242421Y186623D01*
X242338Y186700D01*
X242252Y186775D01*
X242164Y186846D01*
X242074Y186914D01*
X241981Y186979D01*
X241886Y187041D01*
X241789Y187099D01*
X241690Y187154D01*
X241589Y187205D01*
X241486Y187253D01*
X241382Y187298D01*
X241276Y187338D01*
X241169Y187375D01*
X241061Y187408D01*
X240951Y187438D01*
X240841Y187463D01*
X240730Y187485D01*
X240618Y187502D01*
X240505Y187516D01*
X240392Y187526D01*
X240279Y187532D01*
X240166Y187534D01*
X240166Y187533D02*
X234974Y187533D01*
X234974Y187534D02*
X234861Y187532D01*
X234748Y187526D01*
X234635Y187516D01*
X234522Y187502D01*
X234410Y187485D01*
X234299Y187463D01*
X234189Y187438D01*
X234079Y187408D01*
X233971Y187375D01*
X233864Y187338D01*
X233758Y187298D01*
X233654Y187253D01*
X233551Y187205D01*
X233450Y187154D01*
X233351Y187099D01*
X233254Y187041D01*
X233159Y186979D01*
X233066Y186914D01*
X232976Y186846D01*
X232888Y186775D01*
X232802Y186700D01*
X232719Y186623D01*
X232639Y186543D01*
X232562Y186460D01*
X232487Y186374D01*
X232416Y186286D01*
X232348Y186196D01*
X232283Y186103D01*
X232221Y186008D01*
X232163Y185911D01*
X232108Y185812D01*
X232057Y185711D01*
X232009Y185608D01*
X231964Y185504D01*
X231924Y185398D01*
X231887Y185291D01*
X231854Y185183D01*
X231824Y185073D01*
X231799Y184963D01*
X231777Y184852D01*
X231760Y184740D01*
X231746Y184627D01*
X231736Y184514D01*
X231730Y184401D01*
X231728Y184288D01*
X231728Y181042D01*
X231728Y196367D02*
X231730Y196466D01*
X231736Y196566D01*
X231745Y196665D01*
X231758Y196763D01*
X231775Y196861D01*
X231796Y196959D01*
X231821Y197055D01*
X231849Y197150D01*
X231881Y197244D01*
X231916Y197337D01*
X231955Y197429D01*
X231998Y197519D01*
X232043Y197607D01*
X232093Y197694D01*
X232145Y197778D01*
X232201Y197861D01*
X232259Y197941D01*
X232321Y198019D01*
X232386Y198094D01*
X232454Y198167D01*
X232524Y198237D01*
X232597Y198305D01*
X232672Y198370D01*
X232750Y198432D01*
X232830Y198490D01*
X232913Y198546D01*
X232997Y198598D01*
X233084Y198648D01*
X233172Y198693D01*
X233262Y198736D01*
X233354Y198775D01*
X233447Y198810D01*
X233541Y198842D01*
X233636Y198870D01*
X233732Y198895D01*
X233830Y198916D01*
X233928Y198933D01*
X234026Y198946D01*
X234125Y198955D01*
X234225Y198961D01*
X234324Y198963D01*
X231728Y196367D02*
X231730Y196223D01*
X231736Y196078D01*
X231745Y195934D01*
X231758Y195791D01*
X231775Y195647D01*
X231796Y195504D01*
X231821Y195362D01*
X231849Y195221D01*
X231881Y195080D01*
X231917Y194940D01*
X231956Y194801D01*
X231999Y194663D01*
X232046Y194527D01*
X232096Y194391D01*
X232150Y194257D01*
X232207Y194125D01*
X232268Y193994D01*
X232332Y193865D01*
X232400Y193737D01*
X232470Y193611D01*
X232545Y193487D01*
X232622Y193366D01*
X232703Y193246D01*
X232786Y193128D01*
X232873Y193013D01*
X232963Y192900D01*
X233056Y192789D01*
X233151Y192681D01*
X233250Y192575D01*
X233351Y192472D01*
X240816Y192797D02*
X240915Y192799D01*
X241015Y192805D01*
X241114Y192814D01*
X241212Y192827D01*
X241310Y192844D01*
X241408Y192865D01*
X241504Y192890D01*
X241599Y192918D01*
X241693Y192950D01*
X241786Y192985D01*
X241878Y193024D01*
X241968Y193067D01*
X242056Y193112D01*
X242143Y193162D01*
X242227Y193214D01*
X242310Y193270D01*
X242390Y193328D01*
X242468Y193390D01*
X242543Y193455D01*
X242616Y193523D01*
X242686Y193593D01*
X242754Y193666D01*
X242819Y193741D01*
X242881Y193819D01*
X242939Y193899D01*
X242995Y193982D01*
X243047Y194066D01*
X243097Y194153D01*
X243142Y194241D01*
X243185Y194331D01*
X243224Y194423D01*
X243259Y194516D01*
X243291Y194610D01*
X243319Y194705D01*
X243344Y194802D01*
X243365Y194899D01*
X243382Y194997D01*
X243395Y195095D01*
X243404Y195194D01*
X243410Y195294D01*
X243412Y195393D01*
X243410Y195529D01*
X243404Y195665D01*
X243395Y195801D01*
X243382Y195937D01*
X243364Y196072D01*
X243344Y196206D01*
X243319Y196340D01*
X243291Y196474D01*
X243258Y196606D01*
X243223Y196737D01*
X243183Y196868D01*
X243140Y196997D01*
X243094Y197125D01*
X243043Y197251D01*
X242990Y197377D01*
X242932Y197500D01*
X242872Y197622D01*
X242808Y197742D01*
X242740Y197861D01*
X242670Y197977D01*
X242596Y198091D01*
X242519Y198204D01*
X242438Y198314D01*
X238544Y194095D02*
X238597Y194009D01*
X238654Y193925D01*
X238713Y193843D01*
X238776Y193763D01*
X238842Y193686D01*
X238910Y193611D01*
X238982Y193539D01*
X239056Y193470D01*
X239133Y193404D01*
X239212Y193341D01*
X239294Y193281D01*
X239378Y193224D01*
X239464Y193170D01*
X239552Y193120D01*
X239642Y193073D01*
X239733Y193029D01*
X239827Y192990D01*
X239921Y192953D01*
X240017Y192921D01*
X240115Y192892D01*
X240213Y192867D01*
X240312Y192846D01*
X240412Y192828D01*
X240512Y192815D01*
X240613Y192805D01*
X240715Y192799D01*
X240816Y192797D01*
X236596Y197665D02*
X236543Y197751D01*
X236486Y197835D01*
X236427Y197917D01*
X236364Y197997D01*
X236298Y198074D01*
X236230Y198149D01*
X236158Y198221D01*
X236084Y198290D01*
X236007Y198356D01*
X235928Y198419D01*
X235846Y198479D01*
X235762Y198536D01*
X235676Y198590D01*
X235588Y198640D01*
X235498Y198687D01*
X235407Y198731D01*
X235313Y198770D01*
X235219Y198807D01*
X235123Y198839D01*
X235025Y198868D01*
X234927Y198893D01*
X234828Y198914D01*
X234728Y198932D01*
X234628Y198945D01*
X234527Y198955D01*
X234425Y198961D01*
X234324Y198963D01*
X236596Y197665D02*
X238544Y194095D01*
X231728Y203521D02*
X231728Y206767D01*
X231730Y206880D01*
X231736Y206993D01*
X231746Y207106D01*
X231760Y207219D01*
X231777Y207331D01*
X231799Y207442D01*
X231824Y207552D01*
X231854Y207662D01*
X231887Y207770D01*
X231924Y207877D01*
X231964Y207983D01*
X232009Y208087D01*
X232057Y208190D01*
X232108Y208291D01*
X232163Y208390D01*
X232221Y208487D01*
X232283Y208582D01*
X232348Y208675D01*
X232416Y208765D01*
X232487Y208853D01*
X232562Y208939D01*
X232639Y209022D01*
X232719Y209102D01*
X232802Y209179D01*
X232888Y209254D01*
X232976Y209325D01*
X233066Y209393D01*
X233159Y209458D01*
X233254Y209520D01*
X233351Y209578D01*
X233450Y209633D01*
X233551Y209684D01*
X233654Y209732D01*
X233758Y209777D01*
X233864Y209817D01*
X233971Y209854D01*
X234079Y209887D01*
X234189Y209917D01*
X234299Y209942D01*
X234410Y209964D01*
X234522Y209981D01*
X234635Y209995D01*
X234748Y210005D01*
X234861Y210011D01*
X234974Y210013D01*
X235087Y210011D01*
X235200Y210005D01*
X235313Y209995D01*
X235426Y209981D01*
X235538Y209964D01*
X235649Y209942D01*
X235759Y209917D01*
X235869Y209887D01*
X235977Y209854D01*
X236084Y209817D01*
X236190Y209777D01*
X236294Y209732D01*
X236397Y209684D01*
X236498Y209633D01*
X236597Y209578D01*
X236694Y209520D01*
X236789Y209458D01*
X236882Y209393D01*
X236972Y209325D01*
X237060Y209254D01*
X237146Y209179D01*
X237229Y209102D01*
X237309Y209022D01*
X237386Y208939D01*
X237461Y208853D01*
X237532Y208765D01*
X237600Y208675D01*
X237665Y208582D01*
X237727Y208487D01*
X237785Y208390D01*
X237840Y208291D01*
X237891Y208190D01*
X237939Y208087D01*
X237984Y207983D01*
X238024Y207877D01*
X238061Y207770D01*
X238094Y207662D01*
X238124Y207552D01*
X238149Y207442D01*
X238171Y207331D01*
X238188Y207219D01*
X238202Y207106D01*
X238212Y206993D01*
X238218Y206880D01*
X238220Y206767D01*
X243412Y207416D02*
X243412Y203521D01*
X243412Y207416D02*
X243410Y207517D01*
X243404Y207617D01*
X243394Y207717D01*
X243381Y207817D01*
X243363Y207916D01*
X243342Y208015D01*
X243317Y208112D01*
X243288Y208209D01*
X243255Y208304D01*
X243219Y208398D01*
X243179Y208490D01*
X243136Y208581D01*
X243089Y208670D01*
X243039Y208757D01*
X242985Y208843D01*
X242928Y208926D01*
X242868Y209006D01*
X242805Y209085D01*
X242738Y209161D01*
X242669Y209234D01*
X242597Y209304D01*
X242523Y209372D01*
X242446Y209437D01*
X242366Y209498D01*
X242284Y209557D01*
X242200Y209612D01*
X242114Y209664D01*
X242026Y209713D01*
X241936Y209758D01*
X241844Y209800D01*
X241751Y209838D01*
X241656Y209872D01*
X241561Y209903D01*
X241464Y209930D01*
X241366Y209953D01*
X241267Y209973D01*
X241167Y209988D01*
X241067Y210000D01*
X240967Y210008D01*
X240866Y210012D01*
X240766Y210012D01*
X240665Y210008D01*
X240565Y210000D01*
X240465Y209988D01*
X240365Y209973D01*
X240266Y209953D01*
X240168Y209930D01*
X240071Y209903D01*
X239976Y209872D01*
X239881Y209838D01*
X239788Y209800D01*
X239696Y209758D01*
X239606Y209713D01*
X239518Y209664D01*
X239432Y209612D01*
X239348Y209557D01*
X239266Y209498D01*
X239186Y209437D01*
X239109Y209372D01*
X239035Y209304D01*
X238963Y209234D01*
X238894Y209161D01*
X238827Y209085D01*
X238764Y209006D01*
X238704Y208926D01*
X238647Y208843D01*
X238593Y208757D01*
X238543Y208670D01*
X238496Y208581D01*
X238453Y208490D01*
X238413Y208398D01*
X238377Y208304D01*
X238344Y208209D01*
X238315Y208112D01*
X238290Y208015D01*
X238269Y207916D01*
X238251Y207817D01*
X238238Y207717D01*
X238228Y207617D01*
X238222Y207517D01*
X238220Y207416D01*
X238219Y207416D02*
X238219Y204819D01*
X243412Y218521D02*
X243410Y218628D01*
X243404Y218734D01*
X243394Y218840D01*
X243381Y218946D01*
X243363Y219052D01*
X243342Y219156D01*
X243317Y219260D01*
X243288Y219363D01*
X243256Y219464D01*
X243219Y219564D01*
X243179Y219663D01*
X243136Y219761D01*
X243089Y219857D01*
X243038Y219951D01*
X242984Y220043D01*
X242927Y220133D01*
X242867Y220221D01*
X242803Y220306D01*
X242736Y220389D01*
X242666Y220470D01*
X242594Y220548D01*
X242518Y220624D01*
X242440Y220696D01*
X242359Y220766D01*
X242276Y220833D01*
X242191Y220897D01*
X242103Y220957D01*
X242013Y221014D01*
X241921Y221068D01*
X241827Y221119D01*
X241731Y221166D01*
X241633Y221209D01*
X241534Y221249D01*
X241434Y221286D01*
X241333Y221318D01*
X241230Y221347D01*
X241126Y221372D01*
X241022Y221393D01*
X240916Y221411D01*
X240810Y221424D01*
X240704Y221434D01*
X240598Y221440D01*
X240491Y221442D01*
X243412Y218521D02*
X243410Y218400D01*
X243404Y218279D01*
X243394Y218159D01*
X243381Y218038D01*
X243363Y217919D01*
X243342Y217799D01*
X243317Y217681D01*
X243288Y217564D01*
X243255Y217447D01*
X243219Y217332D01*
X243178Y217218D01*
X243135Y217105D01*
X243087Y216993D01*
X243036Y216884D01*
X242981Y216776D01*
X242923Y216669D01*
X242862Y216565D01*
X242797Y216463D01*
X242729Y216363D01*
X242658Y216265D01*
X242584Y216169D01*
X242507Y216076D01*
X242426Y215986D01*
X242343Y215898D01*
X242257Y215813D01*
X242168Y215730D01*
X242077Y215651D01*
X241983Y215574D01*
X241887Y215501D01*
X241789Y215431D01*
X241688Y215364D01*
X241585Y215300D01*
X241480Y215240D01*
X241373Y215183D01*
X241265Y215129D01*
X241155Y215079D01*
X241043Y215033D01*
X240930Y214990D01*
X240815Y214951D01*
X238219Y220469D02*
X238296Y220548D01*
X238377Y220624D01*
X238460Y220697D01*
X238545Y220767D01*
X238633Y220834D01*
X238723Y220898D01*
X238815Y220958D01*
X238910Y221015D01*
X239006Y221069D01*
X239104Y221120D01*
X239204Y221167D01*
X239306Y221211D01*
X239409Y221251D01*
X239513Y221287D01*
X239619Y221319D01*
X239725Y221348D01*
X239833Y221373D01*
X239941Y221395D01*
X240051Y221412D01*
X240160Y221426D01*
X240270Y221435D01*
X240381Y221441D01*
X240491Y221443D01*
X238219Y220469D02*
X231728Y214951D01*
X231728Y221442D01*
X231728Y226381D02*
X231728Y229627D01*
X231730Y229740D01*
X231736Y229853D01*
X231746Y229966D01*
X231760Y230079D01*
X231777Y230191D01*
X231799Y230302D01*
X231824Y230412D01*
X231854Y230522D01*
X231887Y230630D01*
X231924Y230737D01*
X231964Y230843D01*
X232009Y230947D01*
X232057Y231050D01*
X232108Y231151D01*
X232163Y231250D01*
X232221Y231347D01*
X232283Y231442D01*
X232348Y231535D01*
X232416Y231625D01*
X232487Y231713D01*
X232562Y231799D01*
X232639Y231882D01*
X232719Y231962D01*
X232802Y232039D01*
X232888Y232114D01*
X232976Y232185D01*
X233066Y232253D01*
X233159Y232318D01*
X233254Y232380D01*
X233351Y232438D01*
X233450Y232493D01*
X233551Y232544D01*
X233654Y232592D01*
X233758Y232637D01*
X233864Y232677D01*
X233971Y232714D01*
X234079Y232747D01*
X234189Y232777D01*
X234299Y232802D01*
X234410Y232824D01*
X234522Y232841D01*
X234635Y232855D01*
X234748Y232865D01*
X234861Y232871D01*
X234974Y232873D01*
X235087Y232871D01*
X235200Y232865D01*
X235313Y232855D01*
X235426Y232841D01*
X235538Y232824D01*
X235649Y232802D01*
X235759Y232777D01*
X235869Y232747D01*
X235977Y232714D01*
X236084Y232677D01*
X236190Y232637D01*
X236294Y232592D01*
X236397Y232544D01*
X236498Y232493D01*
X236597Y232438D01*
X236694Y232380D01*
X236789Y232318D01*
X236882Y232253D01*
X236972Y232185D01*
X237060Y232114D01*
X237146Y232039D01*
X237229Y231962D01*
X237309Y231882D01*
X237386Y231799D01*
X237461Y231713D01*
X237532Y231625D01*
X237600Y231535D01*
X237665Y231442D01*
X237727Y231347D01*
X237785Y231250D01*
X237840Y231151D01*
X237891Y231050D01*
X237939Y230947D01*
X237984Y230843D01*
X238024Y230737D01*
X238061Y230630D01*
X238094Y230522D01*
X238124Y230412D01*
X238149Y230302D01*
X238171Y230191D01*
X238188Y230079D01*
X238202Y229966D01*
X238212Y229853D01*
X238218Y229740D01*
X238220Y229627D01*
X243412Y230276D02*
X243412Y226381D01*
X243412Y230276D02*
X243410Y230377D01*
X243404Y230477D01*
X243394Y230577D01*
X243381Y230677D01*
X243363Y230776D01*
X243342Y230875D01*
X243317Y230972D01*
X243288Y231069D01*
X243255Y231164D01*
X243219Y231258D01*
X243179Y231350D01*
X243136Y231441D01*
X243089Y231530D01*
X243039Y231617D01*
X242985Y231703D01*
X242928Y231786D01*
X242868Y231866D01*
X242805Y231945D01*
X242738Y232021D01*
X242669Y232094D01*
X242597Y232164D01*
X242523Y232232D01*
X242446Y232297D01*
X242366Y232358D01*
X242284Y232417D01*
X242200Y232472D01*
X242114Y232524D01*
X242026Y232573D01*
X241936Y232618D01*
X241844Y232660D01*
X241751Y232698D01*
X241656Y232732D01*
X241561Y232763D01*
X241464Y232790D01*
X241366Y232813D01*
X241267Y232833D01*
X241167Y232848D01*
X241067Y232860D01*
X240967Y232868D01*
X240866Y232872D01*
X240766Y232872D01*
X240665Y232868D01*
X240565Y232860D01*
X240465Y232848D01*
X240365Y232833D01*
X240266Y232813D01*
X240168Y232790D01*
X240071Y232763D01*
X239976Y232732D01*
X239881Y232698D01*
X239788Y232660D01*
X239696Y232618D01*
X239606Y232573D01*
X239518Y232524D01*
X239432Y232472D01*
X239348Y232417D01*
X239266Y232358D01*
X239186Y232297D01*
X239109Y232232D01*
X239035Y232164D01*
X238963Y232094D01*
X238894Y232021D01*
X238827Y231945D01*
X238764Y231866D01*
X238704Y231786D01*
X238647Y231703D01*
X238593Y231617D01*
X238543Y231530D01*
X238496Y231441D01*
X238453Y231350D01*
X238413Y231258D01*
X238377Y231164D01*
X238344Y231069D01*
X238315Y230972D01*
X238290Y230875D01*
X238269Y230776D01*
X238251Y230677D01*
X238238Y230577D01*
X238228Y230477D01*
X238222Y230377D01*
X238220Y230276D01*
X238219Y230276D02*
X238219Y227679D01*
X240816Y237811D02*
X243412Y241057D01*
X231728Y241057D01*
X231728Y244302D02*
X231728Y237811D01*
D13*
X105100Y368300D02*
X105118Y369772D01*
X105172Y371244D01*
X105263Y372714D01*
X105389Y374181D01*
X105551Y375645D01*
X105749Y377104D01*
X105983Y378558D01*
X106253Y380005D01*
X106558Y381446D01*
X106898Y382879D01*
X107273Y384303D01*
X107684Y385717D01*
X108128Y387121D01*
X108607Y388513D01*
X109120Y389894D01*
X109667Y391261D01*
X110247Y392614D01*
X110861Y393953D01*
X111507Y395277D01*
X112185Y396584D01*
X112895Y397874D01*
X113636Y399146D01*
X114409Y400400D01*
X115212Y401634D01*
X116045Y402848D01*
X116908Y404042D01*
X117799Y405214D01*
X118719Y406364D01*
X119667Y407490D01*
X120643Y408594D01*
X121645Y409672D01*
X122674Y410726D01*
X123728Y411755D01*
X124806Y412757D01*
X125910Y413733D01*
X127036Y414681D01*
X128186Y415601D01*
X129358Y416492D01*
X130552Y417355D01*
X131766Y418188D01*
X133000Y418991D01*
X134254Y419764D01*
X135526Y420505D01*
X136816Y421215D01*
X138123Y421893D01*
X139447Y422539D01*
X140786Y423153D01*
X142139Y423733D01*
X143506Y424280D01*
X144887Y424793D01*
X146279Y425272D01*
X147683Y425716D01*
X149097Y426127D01*
X150521Y426502D01*
X151954Y426842D01*
X153395Y427147D01*
X154842Y427417D01*
X156296Y427651D01*
X157755Y427849D01*
X159219Y428011D01*
X160686Y428137D01*
X162156Y428228D01*
X163628Y428282D01*
X165100Y428300D01*
X166572Y428282D01*
X168044Y428228D01*
X169514Y428137D01*
X170981Y428011D01*
X172445Y427849D01*
X173904Y427651D01*
X175358Y427417D01*
X176805Y427147D01*
X178246Y426842D01*
X179679Y426502D01*
X181103Y426127D01*
X182517Y425716D01*
X183921Y425272D01*
X185313Y424793D01*
X186694Y424280D01*
X188061Y423733D01*
X189414Y423153D01*
X190753Y422539D01*
X192077Y421893D01*
X193384Y421215D01*
X194674Y420505D01*
X195946Y419764D01*
X197200Y418991D01*
X198434Y418188D01*
X199648Y417355D01*
X200842Y416492D01*
X202014Y415601D01*
X203164Y414681D01*
X204290Y413733D01*
X205394Y412757D01*
X206472Y411755D01*
X207526Y410726D01*
X208555Y409672D01*
X209557Y408594D01*
X210533Y407490D01*
X211481Y406364D01*
X212401Y405214D01*
X213292Y404042D01*
X214155Y402848D01*
X214988Y401634D01*
X215791Y400400D01*
X216564Y399146D01*
X217305Y397874D01*
X218015Y396584D01*
X218693Y395277D01*
X219339Y393953D01*
X219953Y392614D01*
X220533Y391261D01*
X221080Y389894D01*
X221593Y388513D01*
X222072Y387121D01*
X222516Y385717D01*
X222927Y384303D01*
X223302Y382879D01*
X223642Y381446D01*
X223947Y380005D01*
X224217Y378558D01*
X224451Y377104D01*
X224649Y375645D01*
X224811Y374181D01*
X224937Y372714D01*
X225028Y371244D01*
X225082Y369772D01*
X225100Y368300D01*
X225082Y366828D01*
X225028Y365356D01*
X224937Y363886D01*
X224811Y362419D01*
X224649Y360955D01*
X224451Y359496D01*
X224217Y358042D01*
X223947Y356595D01*
X223642Y355154D01*
X223302Y353721D01*
X222927Y352297D01*
X222516Y350883D01*
X222072Y349479D01*
X221593Y348087D01*
X221080Y346706D01*
X220533Y345339D01*
X219953Y343986D01*
X219339Y342647D01*
X218693Y341323D01*
X218015Y340016D01*
X217305Y338726D01*
X216564Y337454D01*
X215791Y336200D01*
X214988Y334966D01*
X214155Y333752D01*
X213292Y332558D01*
X212401Y331386D01*
X211481Y330236D01*
X210533Y329110D01*
X209557Y328006D01*
X208555Y326928D01*
X207526Y325874D01*
X206472Y324845D01*
X205394Y323843D01*
X204290Y322867D01*
X203164Y321919D01*
X202014Y320999D01*
X200842Y320108D01*
X199648Y319245D01*
X198434Y318412D01*
X197200Y317609D01*
X195946Y316836D01*
X194674Y316095D01*
X193384Y315385D01*
X192077Y314707D01*
X190753Y314061D01*
X189414Y313447D01*
X188061Y312867D01*
X186694Y312320D01*
X185313Y311807D01*
X183921Y311328D01*
X182517Y310884D01*
X181103Y310473D01*
X179679Y310098D01*
X178246Y309758D01*
X176805Y309453D01*
X175358Y309183D01*
X173904Y308949D01*
X172445Y308751D01*
X170981Y308589D01*
X169514Y308463D01*
X168044Y308372D01*
X166572Y308318D01*
X165100Y308300D01*
X163628Y308318D01*
X162156Y308372D01*
X160686Y308463D01*
X159219Y308589D01*
X157755Y308751D01*
X156296Y308949D01*
X154842Y309183D01*
X153395Y309453D01*
X151954Y309758D01*
X150521Y310098D01*
X149097Y310473D01*
X147683Y310884D01*
X146279Y311328D01*
X144887Y311807D01*
X143506Y312320D01*
X142139Y312867D01*
X140786Y313447D01*
X139447Y314061D01*
X138123Y314707D01*
X136816Y315385D01*
X135526Y316095D01*
X134254Y316836D01*
X133000Y317609D01*
X131766Y318412D01*
X130552Y319245D01*
X129358Y320108D01*
X128186Y320999D01*
X127036Y321919D01*
X125910Y322867D01*
X124806Y323843D01*
X123728Y324845D01*
X122674Y325874D01*
X121645Y326928D01*
X120643Y328006D01*
X119667Y329110D01*
X118719Y330236D01*
X117799Y331386D01*
X116908Y332558D01*
X116045Y333752D01*
X115212Y334966D01*
X114409Y336200D01*
X113636Y337454D01*
X112895Y338726D01*
X112185Y340016D01*
X111507Y341323D01*
X110861Y342647D01*
X110247Y343986D01*
X109667Y345339D01*
X109120Y346706D01*
X108607Y348087D01*
X108128Y349479D01*
X107684Y350883D01*
X107273Y352297D01*
X106898Y353721D01*
X106558Y355154D01*
X106253Y356595D01*
X105983Y358042D01*
X105749Y359496D01*
X105551Y360955D01*
X105389Y362419D01*
X105263Y363886D01*
X105172Y365356D01*
X105118Y366828D01*
X105100Y368300D01*
M02*
