G04 EAGLE Gerber RS-274X export*
G75*
%MOMM*%
%FSLAX34Y34*%
%LPD*%
%INSoldermask Bottom*%
%IPPOS*%
%AMOC8*
5,1,8,0,0,1.08239X$1,22.5*%
G01*
%ADD10C,3.203200*%
%ADD11C,1.203200*%
%ADD12P,2.034460X8X292.500000*%
%ADD13C,1.812800*%
%ADD14R,1.812800X1.812800*%
%ADD15C,1.832800*%
%ADD16C,1.879600*%
%ADD17C,1.625600*%
%ADD18R,1.625600X1.625600*%
%ADD19C,1.625600*%
%ADD20P,2.034460X8X22.500000*%
%ADD21C,2.483200*%
%ADD22R,1.412800X1.412800*%
%ADD23C,2.453200*%
%ADD24P,1.420962X8X22.500000*%
%ADD25C,1.312800*%


D10*
X560000Y500000D03*
X240000Y300000D03*
D11*
X565100Y400000D03*
D12*
X482600Y63500D03*
X482600Y38100D03*
D13*
X495300Y127000D03*
X495300Y152400D03*
X495300Y177800D03*
X495300Y203200D03*
X495300Y228600D03*
X495300Y254000D03*
X495300Y279400D03*
X495300Y304800D03*
X495300Y330200D03*
X495300Y355600D03*
X495300Y381000D03*
X495300Y406400D03*
X495300Y431800D03*
X495300Y457200D03*
X495300Y482600D03*
X495300Y508000D03*
X495300Y533400D03*
X495300Y558800D03*
X495300Y584200D03*
X495300Y609600D03*
X495300Y635000D03*
X495300Y660400D03*
X495300Y685800D03*
X495300Y711200D03*
X340700Y127000D03*
X340700Y152400D03*
X340700Y177800D03*
X340700Y203200D03*
X340700Y228600D03*
X340700Y254000D03*
X340700Y279400D03*
X340700Y304800D03*
X340700Y330200D03*
X340700Y355600D03*
X340700Y381000D03*
X340700Y406400D03*
X340700Y431800D03*
X340700Y457200D03*
X340700Y482600D03*
X340700Y508000D03*
X340700Y533400D03*
X340700Y558800D03*
X340700Y584200D03*
X340700Y609600D03*
X340700Y635000D03*
X340700Y660400D03*
X340700Y685800D03*
X340700Y711200D03*
X603300Y711200D03*
X577900Y711200D03*
D14*
X552500Y711200D03*
D13*
X527100Y711200D03*
X774700Y438200D03*
X774700Y412800D03*
D14*
X774700Y387400D03*
D13*
X774700Y362000D03*
D15*
X88900Y596900D03*
X139700Y596900D03*
X165100Y596900D03*
X190500Y596900D03*
X215900Y596900D03*
X241300Y596900D03*
X114300Y596900D03*
D16*
X601980Y304300D03*
X601980Y278900D03*
X601980Y253500D03*
X601980Y228100D03*
X601980Y202700D03*
X601980Y177300D03*
X601980Y151900D03*
X601980Y126500D03*
X601980Y101100D03*
D17*
X275100Y556800D03*
X275100Y536800D03*
X275100Y516800D03*
X275100Y496800D03*
X275100Y476800D03*
X275100Y456800D03*
X275100Y436800D03*
X275100Y416800D03*
X275100Y396800D03*
D18*
X275100Y376800D03*
D17*
X55100Y556800D03*
X55100Y536800D03*
X55100Y516800D03*
X55100Y496800D03*
X55100Y476800D03*
X55100Y456800D03*
X55100Y436800D03*
X55100Y416800D03*
X55100Y396800D03*
X55100Y376800D03*
D19*
X63500Y235712D02*
X63500Y221488D01*
X63500Y297688D02*
X63500Y311912D01*
D20*
X139700Y127000D03*
X190500Y127000D03*
X190500Y101600D03*
X241300Y101600D03*
X152400Y673100D03*
X203200Y673100D03*
X203200Y711200D03*
X254000Y711200D03*
D12*
X565100Y425400D03*
X565100Y374600D03*
D13*
X717300Y531100D03*
X691900Y531100D03*
X666500Y531100D03*
X641100Y531100D03*
X717300Y505700D03*
X691900Y505700D03*
X666500Y505700D03*
X641100Y505700D03*
X307100Y759700D03*
X307100Y734300D03*
X307100Y708900D03*
X307100Y683500D03*
X307100Y658100D03*
X307100Y632700D03*
X307100Y607300D03*
X307100Y581900D03*
X307100Y556500D03*
X307100Y531100D03*
X124220Y143270D03*
X124220Y168670D03*
X124220Y194070D03*
X124220Y219470D03*
X124220Y244870D03*
D21*
X368300Y38100D03*
X393700Y38100D03*
X419100Y38100D03*
D22*
X342900Y38100D03*
X292100Y38100D03*
D23*
X660400Y647700D03*
X660400Y622300D03*
X660400Y596900D03*
D24*
X685800Y215900D03*
D25*
X660400Y215900D03*
D20*
X660400Y152400D03*
X685800Y152400D03*
X495300Y736600D03*
X546100Y736600D03*
X457200Y762000D03*
X508000Y762000D03*
D22*
X266700Y660400D03*
X266700Y685800D03*
X266700Y635000D03*
X196350Y368300D03*
X133850Y368300D03*
M02*
