G04 EAGLE Gerber RS-274X export*
G75*
%MOMM*%
%FSLAX34Y34*%
%LPD*%
%IN*%
%IPPOS*%
%AMOC8*
5,1,8,0,0,1.08239X$1,22.5*%
G01*
%ADD10C,0.254000*%


D10*
X600000Y296318D02*
X600000Y303682D01*
X599819Y311043D01*
X599458Y318398D01*
X598916Y325741D01*
X598195Y333069D01*
X597293Y340377D01*
X596213Y347661D01*
X594954Y354916D01*
X593517Y362138D01*
X591904Y369323D01*
X590115Y376465D01*
X588151Y383562D01*
X586013Y390609D01*
X583704Y397600D01*
X581223Y404533D01*
X578573Y411404D01*
X575755Y418207D01*
X572771Y424938D01*
X569623Y431595D01*
X566312Y438172D01*
X562841Y444666D01*
X559211Y451073D01*
X555426Y457389D01*
X551486Y463610D01*
X547395Y469732D01*
X543155Y475753D01*
X538769Y481667D01*
X534239Y487472D01*
X529567Y493164D01*
X524758Y498740D01*
X519813Y504196D01*
X514735Y509529D01*
X509529Y514735D01*
X504196Y519813D01*
X498740Y524758D01*
X493164Y529567D01*
X487472Y534239D01*
X481667Y538769D01*
X475753Y543155D01*
X469732Y547395D01*
X463610Y551486D01*
X457389Y555426D01*
X451073Y559211D01*
X444666Y562841D01*
X438172Y566312D01*
X431595Y569623D01*
X424938Y572771D01*
X418207Y575755D01*
X411404Y578573D01*
X404533Y581223D01*
X397600Y583704D01*
X390609Y586013D01*
X383562Y588151D01*
X376465Y590115D01*
X369323Y591904D01*
X362138Y593517D01*
X354916Y594954D01*
X347661Y596213D01*
X340377Y597293D01*
X333069Y598195D01*
X325741Y598916D01*
X318398Y599458D01*
X311043Y599819D01*
X303682Y600000D01*
X296318Y600000D01*
X288957Y599819D01*
X281602Y599458D01*
X274259Y598916D01*
X266931Y598195D01*
X259623Y597293D01*
X252339Y596213D01*
X245084Y594954D01*
X237862Y593517D01*
X230677Y591904D01*
X223535Y590115D01*
X216438Y588151D01*
X209391Y586013D01*
X202400Y583704D01*
X195467Y581223D01*
X188596Y578573D01*
X181794Y575755D01*
X175062Y572771D01*
X168405Y569623D01*
X161828Y566312D01*
X155334Y562841D01*
X148927Y559211D01*
X142611Y555426D01*
X136390Y551486D01*
X130268Y547395D01*
X124247Y543155D01*
X118333Y538769D01*
X112528Y534239D01*
X106836Y529567D01*
X101260Y524758D01*
X95804Y519813D01*
X90471Y514735D01*
X85265Y509529D01*
X80187Y504196D01*
X75242Y498740D01*
X70433Y493164D01*
X65761Y487472D01*
X61231Y481667D01*
X56845Y475753D01*
X52605Y469732D01*
X48514Y463610D01*
X44574Y457389D01*
X40789Y451073D01*
X37159Y444666D01*
X33688Y438172D01*
X30377Y431595D01*
X27229Y424938D01*
X24245Y418207D01*
X21427Y411404D01*
X18777Y404533D01*
X16296Y397600D01*
X13987Y390609D01*
X11849Y383562D01*
X9885Y376465D01*
X8096Y369323D01*
X6483Y362138D01*
X5046Y354916D01*
X3787Y347661D01*
X2707Y340377D01*
X1805Y333069D01*
X1084Y325741D01*
X542Y318398D01*
X181Y311043D01*
X0Y303682D01*
X0Y296318D01*
X181Y288957D01*
X542Y281602D01*
X1084Y274259D01*
X1805Y266931D01*
X2707Y259623D01*
X3787Y252339D01*
X5046Y245084D01*
X6483Y237862D01*
X8096Y230677D01*
X9885Y223535D01*
X11849Y216438D01*
X13987Y209391D01*
X16296Y202400D01*
X18777Y195467D01*
X21427Y188596D01*
X24245Y181794D01*
X27229Y175062D01*
X30377Y168405D01*
X33688Y161828D01*
X37159Y155334D01*
X40789Y148927D01*
X44574Y142611D01*
X48514Y136390D01*
X52605Y130268D01*
X56845Y124247D01*
X61231Y118333D01*
X65761Y112528D01*
X70433Y106836D01*
X75242Y101260D01*
X80187Y95804D01*
X85265Y90471D01*
X90471Y85265D01*
X95804Y80187D01*
X101260Y75242D01*
X106836Y70433D01*
X112528Y65761D01*
X118333Y61231D01*
X124247Y56845D01*
X130268Y52605D01*
X136390Y48514D01*
X142611Y44574D01*
X148927Y40789D01*
X155334Y37159D01*
X161828Y33688D01*
X168405Y30377D01*
X175062Y27229D01*
X181794Y24245D01*
X188596Y21427D01*
X195467Y18777D01*
X202400Y16296D01*
X209391Y13987D01*
X216438Y11849D01*
X223535Y9885D01*
X230677Y8096D01*
X237862Y6483D01*
X245084Y5046D01*
X252339Y3787D01*
X259623Y2707D01*
X266931Y1805D01*
X274259Y1084D01*
X281602Y542D01*
X288957Y181D01*
X296318Y0D01*
X303682Y0D01*
X311043Y181D01*
X318398Y542D01*
X325741Y1084D01*
X333069Y1805D01*
X340377Y2707D01*
X347661Y3787D01*
X354916Y5046D01*
X362138Y6483D01*
X369323Y8096D01*
X376465Y9885D01*
X383562Y11849D01*
X390609Y13987D01*
X397600Y16296D01*
X404533Y18777D01*
X411404Y21427D01*
X418207Y24245D01*
X424938Y27229D01*
X431595Y30377D01*
X438172Y33688D01*
X444666Y37159D01*
X451073Y40789D01*
X457389Y44574D01*
X463610Y48514D01*
X469732Y52605D01*
X475753Y56845D01*
X481667Y61231D01*
X487472Y65761D01*
X493164Y70433D01*
X498740Y75242D01*
X504196Y80187D01*
X509529Y85265D01*
X514735Y90471D01*
X519813Y95804D01*
X524758Y101260D01*
X529567Y106836D01*
X534239Y112528D01*
X538769Y118333D01*
X543155Y124247D01*
X547395Y130268D01*
X551486Y136390D01*
X555426Y142611D01*
X559211Y148927D01*
X562841Y155334D01*
X566312Y161828D01*
X569623Y168405D01*
X572771Y175062D01*
X575755Y181794D01*
X578573Y188596D01*
X581223Y195467D01*
X583704Y202400D01*
X586013Y209391D01*
X588151Y216438D01*
X590115Y223535D01*
X591904Y230677D01*
X593517Y237862D01*
X594954Y245084D01*
X596213Y252339D01*
X597293Y259623D01*
X598195Y266931D01*
X598916Y274259D01*
X599458Y281602D01*
X599819Y288957D01*
X600000Y296318D01*
X415000Y459464D02*
X414924Y458396D01*
X414771Y457335D01*
X414543Y456288D01*
X414241Y455260D01*
X413867Y454256D01*
X413422Y453281D01*
X412908Y452341D01*
X412329Y451440D01*
X411687Y450582D01*
X410985Y449772D01*
X410228Y449015D01*
X409418Y448313D01*
X408560Y447671D01*
X407659Y447092D01*
X406719Y446578D01*
X405744Y446133D01*
X404740Y445759D01*
X403712Y445457D01*
X402665Y445229D01*
X401604Y445076D01*
X400536Y445000D01*
X399464Y445000D01*
X398396Y445076D01*
X397335Y445229D01*
X396288Y445457D01*
X395260Y445759D01*
X394256Y446133D01*
X393281Y446578D01*
X392341Y447092D01*
X391440Y447671D01*
X390582Y448313D01*
X389772Y449015D01*
X389015Y449772D01*
X388313Y450582D01*
X387671Y451440D01*
X387092Y452341D01*
X386578Y453281D01*
X386133Y454256D01*
X385759Y455260D01*
X385457Y456288D01*
X385229Y457335D01*
X385076Y458396D01*
X385000Y459464D01*
X385000Y460536D01*
X385076Y461604D01*
X385229Y462665D01*
X385457Y463712D01*
X385759Y464740D01*
X386133Y465744D01*
X386578Y466719D01*
X387092Y467659D01*
X387671Y468560D01*
X388313Y469418D01*
X389015Y470228D01*
X389772Y470985D01*
X390582Y471687D01*
X391440Y472329D01*
X392341Y472908D01*
X393281Y473422D01*
X394256Y473867D01*
X395260Y474241D01*
X396288Y474543D01*
X397335Y474771D01*
X398396Y474924D01*
X399464Y475000D01*
X400536Y475000D01*
X401604Y474924D01*
X402665Y474771D01*
X403712Y474543D01*
X404740Y474241D01*
X405744Y473867D01*
X406719Y473422D01*
X407659Y472908D01*
X408560Y472329D01*
X409418Y471687D01*
X410228Y470985D01*
X410985Y470228D01*
X411687Y469418D01*
X412329Y468560D01*
X412908Y467659D01*
X413422Y466719D01*
X413867Y465744D01*
X414241Y464740D01*
X414543Y463712D01*
X414771Y462665D01*
X414924Y461604D01*
X415000Y460536D01*
X415000Y459464D01*
X215000Y139464D02*
X214924Y138396D01*
X214771Y137335D01*
X214543Y136288D01*
X214241Y135260D01*
X213867Y134256D01*
X213422Y133281D01*
X212908Y132341D01*
X212329Y131440D01*
X211687Y130582D01*
X210985Y129772D01*
X210228Y129015D01*
X209418Y128313D01*
X208560Y127671D01*
X207659Y127092D01*
X206719Y126578D01*
X205744Y126133D01*
X204740Y125759D01*
X203712Y125457D01*
X202665Y125229D01*
X201604Y125076D01*
X200536Y125000D01*
X199464Y125000D01*
X198396Y125076D01*
X197335Y125229D01*
X196288Y125457D01*
X195260Y125759D01*
X194256Y126133D01*
X193281Y126578D01*
X192341Y127092D01*
X191440Y127671D01*
X190582Y128313D01*
X189772Y129015D01*
X189015Y129772D01*
X188313Y130582D01*
X187671Y131440D01*
X187092Y132341D01*
X186578Y133281D01*
X186133Y134256D01*
X185759Y135260D01*
X185457Y136288D01*
X185229Y137335D01*
X185076Y138396D01*
X185000Y139464D01*
X185000Y140536D01*
X185076Y141604D01*
X185229Y142665D01*
X185457Y143712D01*
X185759Y144740D01*
X186133Y145744D01*
X186578Y146719D01*
X187092Y147659D01*
X187671Y148560D01*
X188313Y149418D01*
X189015Y150228D01*
X189772Y150985D01*
X190582Y151687D01*
X191440Y152329D01*
X192341Y152908D01*
X193281Y153422D01*
X194256Y153867D01*
X195260Y154241D01*
X196288Y154543D01*
X197335Y154771D01*
X198396Y154924D01*
X199464Y155000D01*
X200536Y155000D01*
X201604Y154924D01*
X202665Y154771D01*
X203712Y154543D01*
X204740Y154241D01*
X205744Y153867D01*
X206719Y153422D01*
X207659Y152908D01*
X208560Y152329D01*
X209418Y151687D01*
X210228Y150985D01*
X210985Y150228D01*
X211687Y149418D01*
X212329Y148560D01*
X212908Y147659D01*
X213422Y146719D01*
X213867Y145744D01*
X214241Y144740D01*
X214543Y143712D01*
X214771Y142665D01*
X214924Y141604D01*
X215000Y140536D01*
X215000Y139464D01*
X157400Y304519D02*
X157337Y303961D01*
X157212Y303414D01*
X157027Y302884D01*
X156783Y302378D01*
X156484Y301902D01*
X156134Y301463D01*
X155737Y301066D01*
X155298Y300716D01*
X154822Y300417D01*
X154316Y300173D01*
X153786Y299988D01*
X153239Y299863D01*
X152681Y299800D01*
X152119Y299800D01*
X151561Y299863D01*
X151014Y299988D01*
X150484Y300173D01*
X149978Y300417D01*
X149502Y300716D01*
X149063Y301066D01*
X148666Y301463D01*
X148316Y301902D01*
X148017Y302378D01*
X147773Y302884D01*
X147588Y303414D01*
X147463Y303961D01*
X147400Y304519D01*
X147400Y305081D01*
X147463Y305639D01*
X147588Y306186D01*
X147773Y306716D01*
X148017Y307222D01*
X148316Y307698D01*
X148666Y308137D01*
X149063Y308534D01*
X149502Y308884D01*
X149978Y309183D01*
X150484Y309427D01*
X151014Y309612D01*
X151561Y309737D01*
X152119Y309800D01*
X152681Y309800D01*
X153239Y309737D01*
X153786Y309612D01*
X154316Y309427D01*
X154822Y309183D01*
X155298Y308884D01*
X155737Y308534D01*
X156134Y308137D01*
X156484Y307698D01*
X156783Y307222D01*
X157027Y306716D01*
X157212Y306186D01*
X157337Y305639D01*
X157400Y305081D01*
X157400Y304519D01*
M02*
