G04 EAGLE Gerber RS-274X export*
G75*
%MOMM*%
%FSLAX34Y34*%
%LPD*%
%INSilkscreen Top*%
%IPPOS*%
%AMOC8*
5,1,8,0,0,1.08239X$1,22.5*%
G01*
%ADD10C,0.152400*%
%ADD11C,0.127000*%
%ADD12C,0.101600*%
%ADD13C,0.076200*%
%ADD14C,0.015238*%


D10*
X76200Y269240D02*
X76200Y189230D01*
X74930Y187960D01*
X25400Y187960D01*
X25400Y269240D01*
X76200Y269240D01*
X407670Y228600D02*
X596900Y228600D01*
X598170Y227330D01*
X598170Y406400D01*
X596900Y405130D01*
X406400Y405130D01*
X406400Y228600D01*
D11*
X254000Y50800D02*
X170197Y526068D01*
X345296Y556943D01*
X429099Y81675D01*
X254000Y50800D01*
D12*
X212545Y502384D02*
X200363Y504191D01*
X201715Y496520D02*
X212545Y502384D01*
X204423Y497986D02*
X203408Y503739D01*
X202518Y491966D02*
X210189Y493318D01*
X210865Y489483D01*
X209587Y489257D01*
X216228Y481500D02*
X204721Y479471D01*
X204158Y482667D01*
X204144Y482753D01*
X204135Y482840D01*
X204130Y482927D01*
X204128Y483015D01*
X204130Y483102D01*
X204137Y483189D01*
X204147Y483276D01*
X204161Y483362D01*
X204179Y483448D01*
X204201Y483532D01*
X204226Y483616D01*
X204256Y483698D01*
X204289Y483779D01*
X204325Y483859D01*
X204365Y483936D01*
X204409Y484012D01*
X204455Y484086D01*
X204506Y484157D01*
X204559Y484227D01*
X204615Y484293D01*
X204674Y484358D01*
X204737Y484419D01*
X204801Y484478D01*
X204869Y484533D01*
X204938Y484586D01*
X205011Y484635D01*
X205085Y484681D01*
X205161Y484724D01*
X205239Y484763D01*
X205319Y484799D01*
X205400Y484831D01*
X205483Y484860D01*
X205566Y484884D01*
X205651Y484905D01*
X205737Y484922D01*
X205737Y484923D02*
X209573Y485599D01*
X209659Y485613D01*
X209746Y485622D01*
X209833Y485627D01*
X209921Y485629D01*
X210008Y485627D01*
X210095Y485620D01*
X210182Y485610D01*
X210268Y485596D01*
X210354Y485578D01*
X210438Y485556D01*
X210522Y485531D01*
X210604Y485501D01*
X210685Y485468D01*
X210765Y485432D01*
X210842Y485392D01*
X210918Y485348D01*
X210992Y485302D01*
X211063Y485251D01*
X211133Y485198D01*
X211199Y485142D01*
X211264Y485083D01*
X211325Y485020D01*
X211384Y484956D01*
X211439Y484888D01*
X211492Y484819D01*
X211541Y484746D01*
X211587Y484672D01*
X211630Y484596D01*
X211669Y484518D01*
X211705Y484438D01*
X211737Y484357D01*
X211766Y484274D01*
X211790Y484191D01*
X211811Y484106D01*
X211828Y484020D01*
X211829Y484020D02*
X212392Y480824D01*
X213353Y475374D02*
X207600Y474359D01*
X207600Y474358D02*
X207514Y474341D01*
X207429Y474320D01*
X207346Y474296D01*
X207263Y474267D01*
X207182Y474235D01*
X207102Y474199D01*
X207024Y474160D01*
X206948Y474117D01*
X206874Y474071D01*
X206801Y474022D01*
X206732Y473969D01*
X206664Y473914D01*
X206600Y473855D01*
X206537Y473794D01*
X206478Y473729D01*
X206422Y473663D01*
X206369Y473593D01*
X206318Y473522D01*
X206272Y473448D01*
X206228Y473372D01*
X206188Y473295D01*
X206152Y473215D01*
X206119Y473134D01*
X206089Y473052D01*
X206064Y472968D01*
X206042Y472884D01*
X206024Y472798D01*
X206010Y472712D01*
X206000Y472625D01*
X205993Y472538D01*
X205991Y472451D01*
X205993Y472363D01*
X205998Y472276D01*
X206007Y472189D01*
X206021Y472103D01*
X206020Y472103D02*
X206584Y468907D01*
X214255Y470260D01*
X215127Y465312D02*
X207456Y463960D01*
X218267Y466196D02*
X218906Y466308D01*
X219019Y465669D01*
X218380Y465556D01*
X218267Y466196D01*
X215999Y460365D02*
X208329Y459013D01*
X215999Y460365D02*
X216563Y457169D01*
X216562Y457169D02*
X216576Y457083D01*
X216585Y456996D01*
X216590Y456909D01*
X216592Y456821D01*
X216590Y456734D01*
X216583Y456647D01*
X216573Y456560D01*
X216559Y456474D01*
X216541Y456388D01*
X216519Y456304D01*
X216494Y456220D01*
X216464Y456138D01*
X216431Y456057D01*
X216395Y455978D01*
X216355Y455900D01*
X216311Y455824D01*
X216265Y455750D01*
X216214Y455679D01*
X216161Y455610D01*
X216105Y455543D01*
X216046Y455479D01*
X215983Y455417D01*
X215919Y455358D01*
X215851Y455303D01*
X215782Y455250D01*
X215710Y455201D01*
X215635Y455155D01*
X215559Y455112D01*
X215481Y455073D01*
X215401Y455037D01*
X215320Y455005D01*
X215237Y454976D01*
X215154Y454952D01*
X215069Y454931D01*
X214983Y454914D01*
X214983Y454913D02*
X209230Y453899D01*
X212672Y449333D02*
X215229Y449784D01*
X215329Y449799D01*
X215429Y449811D01*
X215529Y449819D01*
X215630Y449823D01*
X215730Y449823D01*
X215831Y449819D01*
X215931Y449811D01*
X216031Y449799D01*
X216131Y449784D01*
X216230Y449764D01*
X216328Y449741D01*
X216425Y449714D01*
X216520Y449683D01*
X216615Y449649D01*
X216708Y449611D01*
X216800Y449569D01*
X216890Y449524D01*
X216978Y449475D01*
X217064Y449423D01*
X217148Y449368D01*
X217230Y449309D01*
X217310Y449248D01*
X217387Y449183D01*
X217461Y449115D01*
X217533Y449045D01*
X217602Y448972D01*
X217669Y448896D01*
X217732Y448817D01*
X217792Y448737D01*
X217849Y448654D01*
X217903Y448568D01*
X217953Y448481D01*
X218000Y448392D01*
X218043Y448301D01*
X218083Y448209D01*
X218119Y448115D01*
X218152Y448020D01*
X218181Y447923D01*
X218206Y447826D01*
X218227Y447727D01*
X218245Y447628D01*
X218258Y447528D01*
X218268Y447428D01*
X218274Y447328D01*
X218276Y447227D01*
X218274Y447126D01*
X218268Y447026D01*
X218258Y446926D01*
X218245Y446826D01*
X218227Y446727D01*
X218206Y446628D01*
X218181Y446531D01*
X218152Y446434D01*
X218119Y446339D01*
X218083Y446245D01*
X218043Y446153D01*
X218000Y446062D01*
X217953Y445973D01*
X217903Y445886D01*
X217849Y445800D01*
X217792Y445717D01*
X217732Y445637D01*
X217669Y445558D01*
X217602Y445482D01*
X217533Y445409D01*
X217461Y445339D01*
X217387Y445271D01*
X217310Y445206D01*
X217230Y445145D01*
X217148Y445086D01*
X217064Y445031D01*
X216978Y444979D01*
X216890Y444930D01*
X216800Y444885D01*
X216708Y444843D01*
X216615Y444805D01*
X216520Y444771D01*
X216425Y444740D01*
X216328Y444713D01*
X216230Y444690D01*
X216131Y444670D01*
X216130Y444670D02*
X213574Y444219D01*
X213474Y444204D01*
X213374Y444192D01*
X213274Y444184D01*
X213173Y444180D01*
X213073Y444180D01*
X212972Y444184D01*
X212872Y444192D01*
X212772Y444204D01*
X212672Y444219D01*
X212573Y444239D01*
X212475Y444262D01*
X212378Y444289D01*
X212283Y444320D01*
X212188Y444354D01*
X212095Y444392D01*
X212003Y444434D01*
X211913Y444479D01*
X211825Y444528D01*
X211739Y444580D01*
X211655Y444635D01*
X211573Y444694D01*
X211493Y444755D01*
X211416Y444820D01*
X211342Y444888D01*
X211270Y444958D01*
X211201Y445031D01*
X211134Y445107D01*
X211071Y445186D01*
X211011Y445266D01*
X210954Y445349D01*
X210900Y445435D01*
X210850Y445522D01*
X210803Y445611D01*
X210760Y445702D01*
X210720Y445794D01*
X210684Y445888D01*
X210651Y445983D01*
X210622Y446080D01*
X210597Y446177D01*
X210576Y446276D01*
X210558Y446375D01*
X210545Y446475D01*
X210535Y446575D01*
X210529Y446675D01*
X210527Y446776D01*
X210529Y446877D01*
X210535Y446977D01*
X210545Y447077D01*
X210558Y447177D01*
X210576Y447276D01*
X210597Y447375D01*
X210622Y447472D01*
X210651Y447569D01*
X210684Y447664D01*
X210720Y447758D01*
X210760Y447850D01*
X210803Y447941D01*
X210850Y448030D01*
X210900Y448117D01*
X210954Y448203D01*
X211011Y448286D01*
X211071Y448366D01*
X211134Y448445D01*
X211201Y448521D01*
X211270Y448594D01*
X211341Y448664D01*
X211416Y448732D01*
X211493Y448797D01*
X211573Y448858D01*
X211655Y448917D01*
X211739Y448972D01*
X211825Y449024D01*
X211913Y449073D01*
X212003Y449118D01*
X212095Y449160D01*
X212188Y449198D01*
X212283Y449232D01*
X212378Y449263D01*
X212475Y449290D01*
X212573Y449313D01*
X212672Y449333D01*
X212999Y432525D02*
X224505Y434554D01*
X218789Y429592D01*
X225858Y426883D01*
X214351Y424854D01*
X215263Y419685D02*
X222934Y421037D01*
X226074Y421920D02*
X226713Y422033D01*
X226826Y421394D01*
X226187Y421281D01*
X226074Y421920D01*
X216410Y413182D02*
X216860Y410625D01*
X216410Y413182D02*
X216396Y413268D01*
X216387Y413355D01*
X216382Y413442D01*
X216380Y413530D01*
X216382Y413617D01*
X216389Y413704D01*
X216399Y413791D01*
X216413Y413877D01*
X216431Y413963D01*
X216453Y414047D01*
X216478Y414131D01*
X216508Y414213D01*
X216541Y414294D01*
X216577Y414374D01*
X216617Y414451D01*
X216661Y414527D01*
X216707Y414601D01*
X216758Y414672D01*
X216811Y414742D01*
X216867Y414808D01*
X216926Y414873D01*
X216989Y414934D01*
X217053Y414993D01*
X217121Y415048D01*
X217190Y415101D01*
X217263Y415150D01*
X217337Y415196D01*
X217413Y415239D01*
X217491Y415278D01*
X217571Y415314D01*
X217652Y415346D01*
X217735Y415375D01*
X217818Y415399D01*
X217903Y415420D01*
X217989Y415437D01*
X217989Y415438D02*
X221825Y416114D01*
X221825Y416113D02*
X221911Y416127D01*
X221998Y416136D01*
X222085Y416141D01*
X222173Y416143D01*
X222260Y416141D01*
X222347Y416134D01*
X222434Y416124D01*
X222520Y416110D01*
X222606Y416092D01*
X222690Y416070D01*
X222774Y416045D01*
X222856Y416015D01*
X222937Y415982D01*
X223017Y415946D01*
X223094Y415906D01*
X223170Y415862D01*
X223244Y415816D01*
X223315Y415765D01*
X223385Y415712D01*
X223451Y415656D01*
X223516Y415597D01*
X223577Y415534D01*
X223636Y415470D01*
X223691Y415402D01*
X223744Y415333D01*
X223793Y415260D01*
X223839Y415186D01*
X223882Y415110D01*
X223921Y415032D01*
X223957Y414952D01*
X223989Y414871D01*
X224018Y414788D01*
X224042Y414705D01*
X224063Y414620D01*
X224080Y414534D01*
X224531Y411977D01*
X225339Y407395D02*
X217668Y406042D01*
X225339Y407395D02*
X226016Y403559D01*
X224737Y403334D01*
X224094Y399505D02*
X221537Y399054D01*
X224094Y399505D02*
X224194Y399520D01*
X224294Y399532D01*
X224394Y399540D01*
X224495Y399544D01*
X224595Y399544D01*
X224696Y399540D01*
X224796Y399532D01*
X224896Y399520D01*
X224996Y399505D01*
X225095Y399485D01*
X225193Y399462D01*
X225290Y399435D01*
X225385Y399404D01*
X225480Y399370D01*
X225573Y399332D01*
X225665Y399290D01*
X225755Y399245D01*
X225843Y399196D01*
X225929Y399144D01*
X226013Y399089D01*
X226095Y399030D01*
X226175Y398969D01*
X226252Y398904D01*
X226326Y398836D01*
X226398Y398766D01*
X226467Y398693D01*
X226534Y398617D01*
X226597Y398538D01*
X226657Y398458D01*
X226714Y398375D01*
X226768Y398289D01*
X226818Y398202D01*
X226865Y398113D01*
X226908Y398022D01*
X226948Y397930D01*
X226984Y397836D01*
X227017Y397741D01*
X227046Y397644D01*
X227071Y397547D01*
X227092Y397448D01*
X227110Y397349D01*
X227123Y397249D01*
X227133Y397149D01*
X227139Y397049D01*
X227141Y396948D01*
X227139Y396847D01*
X227133Y396747D01*
X227123Y396647D01*
X227110Y396547D01*
X227092Y396448D01*
X227071Y396349D01*
X227046Y396252D01*
X227017Y396155D01*
X226984Y396060D01*
X226948Y395966D01*
X226908Y395874D01*
X226865Y395783D01*
X226818Y395694D01*
X226768Y395607D01*
X226714Y395521D01*
X226657Y395438D01*
X226597Y395358D01*
X226534Y395279D01*
X226467Y395203D01*
X226398Y395130D01*
X226326Y395060D01*
X226252Y394992D01*
X226175Y394927D01*
X226095Y394866D01*
X226013Y394807D01*
X225929Y394752D01*
X225843Y394700D01*
X225755Y394651D01*
X225665Y394606D01*
X225573Y394564D01*
X225480Y394526D01*
X225385Y394492D01*
X225290Y394461D01*
X225193Y394434D01*
X225095Y394411D01*
X224996Y394391D01*
X222439Y393940D01*
X222339Y393925D01*
X222239Y393913D01*
X222139Y393905D01*
X222038Y393901D01*
X221938Y393901D01*
X221837Y393905D01*
X221737Y393913D01*
X221637Y393925D01*
X221537Y393940D01*
X221438Y393960D01*
X221340Y393983D01*
X221243Y394010D01*
X221148Y394041D01*
X221053Y394075D01*
X220960Y394113D01*
X220868Y394155D01*
X220778Y394200D01*
X220690Y394249D01*
X220604Y394301D01*
X220520Y394356D01*
X220438Y394415D01*
X220358Y394476D01*
X220281Y394541D01*
X220207Y394609D01*
X220135Y394679D01*
X220066Y394752D01*
X219999Y394828D01*
X219936Y394907D01*
X219876Y394987D01*
X219819Y395070D01*
X219765Y395156D01*
X219715Y395243D01*
X219668Y395332D01*
X219625Y395423D01*
X219585Y395515D01*
X219549Y395609D01*
X219516Y395704D01*
X219487Y395801D01*
X219462Y395898D01*
X219441Y395997D01*
X219423Y396096D01*
X219410Y396196D01*
X219400Y396296D01*
X219394Y396396D01*
X219392Y396497D01*
X219394Y396598D01*
X219400Y396698D01*
X219410Y396798D01*
X219423Y396898D01*
X219441Y396997D01*
X219462Y397096D01*
X219487Y397193D01*
X219516Y397290D01*
X219549Y397385D01*
X219585Y397479D01*
X219625Y397571D01*
X219668Y397662D01*
X219715Y397751D01*
X219765Y397838D01*
X219819Y397924D01*
X219876Y398007D01*
X219936Y398087D01*
X219999Y398166D01*
X220066Y398242D01*
X220135Y398315D01*
X220206Y398385D01*
X220281Y398453D01*
X220358Y398518D01*
X220438Y398579D01*
X220520Y398638D01*
X220604Y398693D01*
X220690Y398745D01*
X220778Y398794D01*
X220868Y398839D01*
X220960Y398881D01*
X221053Y398919D01*
X221148Y398953D01*
X221243Y398984D01*
X221340Y399011D01*
X221438Y399034D01*
X221537Y399054D01*
D11*
X38100Y431800D02*
X38100Y330200D01*
X38100Y431800D02*
X88900Y431800D01*
X88900Y330200D01*
X38100Y330200D01*
D13*
X444881Y385341D02*
X454279Y388473D01*
X444881Y391606D01*
X444881Y395788D02*
X454279Y395788D01*
X454279Y394744D02*
X454279Y396833D01*
X444881Y396833D02*
X444881Y394744D01*
X444881Y400798D02*
X454279Y400798D01*
X454279Y406019D02*
X444881Y400798D01*
X444881Y406019D02*
X454279Y406019D01*
X421259Y358312D02*
X421259Y355702D01*
X421259Y358312D02*
X421257Y358413D01*
X421251Y358514D01*
X421241Y358615D01*
X421228Y358715D01*
X421210Y358815D01*
X421189Y358914D01*
X421163Y359012D01*
X421134Y359109D01*
X421102Y359205D01*
X421065Y359299D01*
X421025Y359392D01*
X420981Y359484D01*
X420934Y359573D01*
X420883Y359661D01*
X420829Y359747D01*
X420772Y359830D01*
X420712Y359912D01*
X420648Y359990D01*
X420582Y360067D01*
X420512Y360140D01*
X420440Y360211D01*
X420365Y360279D01*
X420287Y360344D01*
X420207Y360406D01*
X420125Y360465D01*
X420040Y360521D01*
X419954Y360573D01*
X419865Y360622D01*
X419774Y360668D01*
X419682Y360709D01*
X419588Y360748D01*
X419493Y360782D01*
X419397Y360813D01*
X419299Y360840D01*
X419201Y360864D01*
X419101Y360883D01*
X419001Y360899D01*
X418901Y360911D01*
X418800Y360919D01*
X418699Y360923D01*
X418597Y360923D01*
X418496Y360919D01*
X418395Y360911D01*
X418295Y360899D01*
X418195Y360883D01*
X418095Y360864D01*
X417997Y360840D01*
X417899Y360813D01*
X417803Y360782D01*
X417708Y360748D01*
X417614Y360709D01*
X417522Y360668D01*
X417431Y360622D01*
X417343Y360573D01*
X417256Y360521D01*
X417171Y360465D01*
X417089Y360406D01*
X417009Y360344D01*
X416931Y360279D01*
X416856Y360211D01*
X416784Y360140D01*
X416714Y360067D01*
X416648Y359990D01*
X416584Y359912D01*
X416524Y359830D01*
X416467Y359747D01*
X416413Y359661D01*
X416362Y359573D01*
X416315Y359484D01*
X416271Y359392D01*
X416231Y359299D01*
X416194Y359205D01*
X416162Y359109D01*
X416133Y359012D01*
X416107Y358914D01*
X416086Y358815D01*
X416068Y358715D01*
X416055Y358615D01*
X416045Y358514D01*
X416039Y358413D01*
X416037Y358312D01*
X411861Y358834D02*
X411861Y355702D01*
X411861Y358834D02*
X411863Y358924D01*
X411869Y359013D01*
X411878Y359103D01*
X411892Y359192D01*
X411909Y359280D01*
X411930Y359367D01*
X411955Y359454D01*
X411984Y359539D01*
X412016Y359623D01*
X412051Y359705D01*
X412091Y359786D01*
X412133Y359865D01*
X412179Y359942D01*
X412229Y360017D01*
X412281Y360090D01*
X412337Y360161D01*
X412395Y360229D01*
X412457Y360294D01*
X412521Y360357D01*
X412588Y360417D01*
X412657Y360474D01*
X412729Y360528D01*
X412803Y360579D01*
X412879Y360627D01*
X412957Y360671D01*
X413037Y360712D01*
X413119Y360750D01*
X413202Y360784D01*
X413287Y360814D01*
X413373Y360841D01*
X413459Y360864D01*
X413547Y360883D01*
X413636Y360898D01*
X413725Y360910D01*
X413814Y360918D01*
X413904Y360922D01*
X413994Y360922D01*
X414084Y360918D01*
X414173Y360910D01*
X414262Y360898D01*
X414351Y360883D01*
X414439Y360864D01*
X414525Y360841D01*
X414611Y360814D01*
X414696Y360784D01*
X414779Y360750D01*
X414861Y360712D01*
X414941Y360671D01*
X415019Y360627D01*
X415095Y360579D01*
X415169Y360528D01*
X415241Y360474D01*
X415310Y360417D01*
X415377Y360357D01*
X415441Y360294D01*
X415503Y360229D01*
X415561Y360161D01*
X415617Y360090D01*
X415669Y360017D01*
X415719Y359942D01*
X415765Y359865D01*
X415807Y359786D01*
X415847Y359705D01*
X415882Y359623D01*
X415914Y359539D01*
X415943Y359454D01*
X415968Y359367D01*
X415989Y359280D01*
X416006Y359192D01*
X416020Y359103D01*
X416029Y359013D01*
X416035Y358924D01*
X416037Y358834D01*
X416038Y358834D02*
X416038Y356746D01*
X411861Y364324D02*
X421259Y367456D01*
X411861Y370589D01*
X417082Y373902D02*
X419171Y373902D01*
X417082Y373903D02*
X416992Y373905D01*
X416903Y373911D01*
X416813Y373920D01*
X416724Y373934D01*
X416636Y373951D01*
X416549Y373972D01*
X416462Y373997D01*
X416377Y374026D01*
X416293Y374058D01*
X416211Y374093D01*
X416130Y374133D01*
X416051Y374175D01*
X415974Y374221D01*
X415899Y374271D01*
X415826Y374323D01*
X415755Y374379D01*
X415687Y374437D01*
X415622Y374499D01*
X415559Y374563D01*
X415499Y374630D01*
X415442Y374699D01*
X415388Y374771D01*
X415337Y374845D01*
X415289Y374921D01*
X415245Y374999D01*
X415204Y375079D01*
X415166Y375161D01*
X415132Y375244D01*
X415102Y375329D01*
X415075Y375415D01*
X415052Y375501D01*
X415033Y375589D01*
X415018Y375678D01*
X415006Y375767D01*
X414998Y375856D01*
X414994Y375946D01*
X414994Y376036D01*
X414998Y376126D01*
X415006Y376215D01*
X415018Y376304D01*
X415033Y376393D01*
X415052Y376481D01*
X415075Y376567D01*
X415102Y376653D01*
X415132Y376738D01*
X415166Y376821D01*
X415204Y376903D01*
X415245Y376983D01*
X415289Y377061D01*
X415337Y377137D01*
X415388Y377211D01*
X415442Y377283D01*
X415499Y377352D01*
X415559Y377419D01*
X415622Y377483D01*
X415687Y377545D01*
X415755Y377603D01*
X415826Y377659D01*
X415899Y377711D01*
X415974Y377761D01*
X416051Y377807D01*
X416130Y377849D01*
X416211Y377889D01*
X416293Y377924D01*
X416377Y377956D01*
X416462Y377985D01*
X416549Y378010D01*
X416636Y378031D01*
X416724Y378048D01*
X416813Y378062D01*
X416903Y378071D01*
X416992Y378077D01*
X417082Y378079D01*
X419171Y378079D01*
X419261Y378077D01*
X419350Y378071D01*
X419440Y378062D01*
X419529Y378048D01*
X419617Y378031D01*
X419704Y378010D01*
X419791Y377985D01*
X419876Y377956D01*
X419960Y377924D01*
X420042Y377889D01*
X420123Y377849D01*
X420202Y377807D01*
X420279Y377761D01*
X420354Y377711D01*
X420427Y377659D01*
X420498Y377603D01*
X420566Y377545D01*
X420631Y377483D01*
X420694Y377419D01*
X420754Y377352D01*
X420811Y377283D01*
X420865Y377211D01*
X420916Y377137D01*
X420964Y377061D01*
X421008Y376983D01*
X421049Y376903D01*
X421087Y376821D01*
X421121Y376738D01*
X421151Y376653D01*
X421178Y376567D01*
X421201Y376481D01*
X421220Y376393D01*
X421235Y376304D01*
X421247Y376215D01*
X421255Y376126D01*
X421259Y376036D01*
X421259Y375946D01*
X421255Y375856D01*
X421247Y375767D01*
X421235Y375678D01*
X421220Y375589D01*
X421201Y375501D01*
X421178Y375415D01*
X421151Y375329D01*
X421121Y375244D01*
X421087Y375161D01*
X421049Y375079D01*
X421008Y374999D01*
X420964Y374921D01*
X420916Y374845D01*
X420865Y374771D01*
X420811Y374699D01*
X420754Y374630D01*
X420694Y374563D01*
X420631Y374499D01*
X420566Y374437D01*
X420498Y374379D01*
X420427Y374323D01*
X420354Y374271D01*
X420279Y374221D01*
X420202Y374175D01*
X420123Y374133D01*
X420042Y374093D01*
X419960Y374058D01*
X419876Y374026D01*
X419791Y373997D01*
X419704Y373972D01*
X419617Y373951D01*
X419529Y373934D01*
X419440Y373920D01*
X419350Y373911D01*
X419261Y373905D01*
X419171Y373903D01*
X449058Y333172D02*
X449058Y331605D01*
X449058Y333172D02*
X454279Y333172D01*
X454279Y330039D01*
X454277Y329950D01*
X454271Y329862D01*
X454262Y329774D01*
X454249Y329686D01*
X454232Y329599D01*
X454212Y329513D01*
X454187Y329428D01*
X454160Y329343D01*
X454128Y329260D01*
X454094Y329179D01*
X454055Y329099D01*
X454014Y329021D01*
X453969Y328944D01*
X453921Y328870D01*
X453870Y328797D01*
X453816Y328727D01*
X453758Y328660D01*
X453698Y328594D01*
X453636Y328532D01*
X453570Y328472D01*
X453503Y328414D01*
X453433Y328360D01*
X453360Y328309D01*
X453286Y328261D01*
X453209Y328216D01*
X453131Y328175D01*
X453051Y328136D01*
X452970Y328102D01*
X452887Y328070D01*
X452802Y328043D01*
X452717Y328018D01*
X452631Y327998D01*
X452544Y327981D01*
X452456Y327968D01*
X452368Y327959D01*
X452280Y327953D01*
X452191Y327951D01*
X446969Y327951D01*
X446969Y327950D02*
X446878Y327952D01*
X446787Y327958D01*
X446696Y327968D01*
X446606Y327982D01*
X446517Y328000D01*
X446428Y328021D01*
X446341Y328047D01*
X446255Y328076D01*
X446170Y328109D01*
X446086Y328146D01*
X446004Y328186D01*
X445925Y328230D01*
X445847Y328277D01*
X445771Y328328D01*
X445697Y328382D01*
X445626Y328439D01*
X445558Y328499D01*
X445492Y328562D01*
X445429Y328628D01*
X445369Y328696D01*
X445312Y328767D01*
X445258Y328841D01*
X445207Y328917D01*
X445160Y328994D01*
X445116Y329074D01*
X445076Y329156D01*
X445039Y329240D01*
X445006Y329324D01*
X444977Y329411D01*
X444951Y329498D01*
X444930Y329587D01*
X444912Y329676D01*
X444898Y329766D01*
X444888Y329857D01*
X444882Y329948D01*
X444880Y330039D01*
X444881Y330039D02*
X444881Y333172D01*
X444881Y337704D02*
X454279Y337704D01*
X454279Y342925D02*
X444881Y337704D01*
X444881Y342925D02*
X454279Y342925D01*
X454279Y347458D02*
X444881Y347458D01*
X444881Y350068D01*
X444883Y350168D01*
X444889Y350268D01*
X444898Y350367D01*
X444912Y350467D01*
X444929Y350565D01*
X444950Y350663D01*
X444974Y350760D01*
X445003Y350856D01*
X445035Y350951D01*
X445070Y351044D01*
X445109Y351136D01*
X445152Y351227D01*
X445198Y351315D01*
X445248Y351402D01*
X445300Y351487D01*
X445356Y351570D01*
X445415Y351651D01*
X445478Y351729D01*
X445543Y351805D01*
X445611Y351879D01*
X445681Y351949D01*
X445755Y352017D01*
X445831Y352082D01*
X445909Y352145D01*
X445990Y352204D01*
X446073Y352260D01*
X446158Y352312D01*
X446245Y352362D01*
X446333Y352408D01*
X446424Y352451D01*
X446516Y352490D01*
X446609Y352525D01*
X446704Y352557D01*
X446800Y352586D01*
X446897Y352610D01*
X446995Y352631D01*
X447093Y352648D01*
X447193Y352662D01*
X447292Y352671D01*
X447392Y352677D01*
X447492Y352679D01*
X451668Y352679D01*
X451768Y352677D01*
X451868Y352671D01*
X451967Y352662D01*
X452067Y352648D01*
X452165Y352631D01*
X452263Y352610D01*
X452360Y352586D01*
X452456Y352557D01*
X452551Y352525D01*
X452644Y352490D01*
X452736Y352451D01*
X452827Y352408D01*
X452915Y352362D01*
X453002Y352312D01*
X453087Y352260D01*
X453170Y352204D01*
X453251Y352145D01*
X453329Y352082D01*
X453405Y352017D01*
X453479Y351949D01*
X453549Y351879D01*
X453617Y351805D01*
X453682Y351729D01*
X453745Y351651D01*
X453804Y351570D01*
X453860Y351487D01*
X453912Y351402D01*
X453962Y351315D01*
X454008Y351227D01*
X454051Y351136D01*
X454090Y351044D01*
X454125Y350951D01*
X454157Y350856D01*
X454186Y350760D01*
X454210Y350663D01*
X454231Y350565D01*
X454248Y350467D01*
X454262Y350367D01*
X454271Y350268D01*
X454277Y350168D01*
X454279Y350068D01*
X454279Y347458D01*
X419171Y310383D02*
X419260Y310381D01*
X419348Y310375D01*
X419436Y310366D01*
X419524Y310353D01*
X419611Y310336D01*
X419697Y310316D01*
X419782Y310291D01*
X419867Y310264D01*
X419950Y310232D01*
X420031Y310198D01*
X420111Y310159D01*
X420189Y310118D01*
X420266Y310073D01*
X420340Y310025D01*
X420413Y309974D01*
X420483Y309920D01*
X420550Y309862D01*
X420616Y309802D01*
X420678Y309740D01*
X420738Y309674D01*
X420796Y309607D01*
X420850Y309537D01*
X420901Y309464D01*
X420949Y309390D01*
X420994Y309313D01*
X421035Y309235D01*
X421074Y309155D01*
X421108Y309074D01*
X421140Y308991D01*
X421167Y308906D01*
X421192Y308821D01*
X421212Y308735D01*
X421229Y308648D01*
X421242Y308560D01*
X421251Y308472D01*
X421257Y308384D01*
X421259Y308295D01*
X421257Y308166D01*
X421251Y308037D01*
X421242Y307908D01*
X421229Y307780D01*
X421212Y307652D01*
X421191Y307525D01*
X421167Y307398D01*
X421139Y307272D01*
X421107Y307147D01*
X421072Y307023D01*
X421033Y306900D01*
X420990Y306778D01*
X420944Y306658D01*
X420894Y306539D01*
X420841Y306421D01*
X420785Y306305D01*
X420725Y306191D01*
X420662Y306078D01*
X420595Y305968D01*
X420526Y305859D01*
X420453Y305753D01*
X420377Y305648D01*
X420298Y305546D01*
X420216Y305447D01*
X420132Y305349D01*
X420044Y305254D01*
X419954Y305162D01*
X413949Y305424D02*
X413860Y305426D01*
X413772Y305432D01*
X413684Y305441D01*
X413596Y305454D01*
X413509Y305471D01*
X413423Y305491D01*
X413338Y305516D01*
X413253Y305543D01*
X413170Y305575D01*
X413089Y305609D01*
X413009Y305648D01*
X412931Y305689D01*
X412854Y305734D01*
X412780Y305782D01*
X412707Y305833D01*
X412637Y305887D01*
X412570Y305945D01*
X412504Y306005D01*
X412442Y306067D01*
X412382Y306133D01*
X412324Y306200D01*
X412270Y306270D01*
X412219Y306343D01*
X412171Y306417D01*
X412126Y306494D01*
X412085Y306572D01*
X412046Y306652D01*
X412012Y306733D01*
X411980Y306816D01*
X411953Y306901D01*
X411928Y306986D01*
X411908Y307072D01*
X411891Y307159D01*
X411878Y307247D01*
X411869Y307335D01*
X411863Y307423D01*
X411861Y307512D01*
X411863Y307632D01*
X411868Y307752D01*
X411878Y307871D01*
X411890Y307991D01*
X411907Y308110D01*
X411927Y308228D01*
X411951Y308346D01*
X411978Y308462D01*
X412009Y308578D01*
X412043Y308693D01*
X412081Y308807D01*
X412123Y308920D01*
X412168Y309031D01*
X412216Y309141D01*
X412267Y309249D01*
X412322Y309356D01*
X412380Y309461D01*
X412442Y309564D01*
X412506Y309665D01*
X412574Y309765D01*
X412644Y309862D01*
X415776Y306468D02*
X415728Y306390D01*
X415676Y306314D01*
X415622Y306241D01*
X415564Y306170D01*
X415503Y306101D01*
X415439Y306035D01*
X415372Y305972D01*
X415303Y305912D01*
X415231Y305855D01*
X415157Y305801D01*
X415080Y305751D01*
X415001Y305703D01*
X414921Y305660D01*
X414838Y305619D01*
X414754Y305583D01*
X414669Y305550D01*
X414582Y305521D01*
X414493Y305495D01*
X414404Y305473D01*
X414314Y305456D01*
X414224Y305442D01*
X414132Y305432D01*
X414041Y305426D01*
X413949Y305424D01*
X417344Y309340D02*
X417392Y309418D01*
X417444Y309494D01*
X417498Y309567D01*
X417556Y309638D01*
X417617Y309707D01*
X417681Y309773D01*
X417748Y309836D01*
X417817Y309896D01*
X417889Y309953D01*
X417963Y310007D01*
X418040Y310057D01*
X418119Y310105D01*
X418199Y310148D01*
X418282Y310189D01*
X418366Y310225D01*
X418451Y310258D01*
X418538Y310287D01*
X418627Y310313D01*
X418716Y310335D01*
X418806Y310352D01*
X418896Y310366D01*
X418988Y310376D01*
X419079Y310382D01*
X419171Y310384D01*
X417343Y309340D02*
X415777Y306468D01*
X421259Y316065D02*
X421259Y318153D01*
X421259Y316065D02*
X421257Y315976D01*
X421251Y315888D01*
X421242Y315800D01*
X421229Y315712D01*
X421212Y315625D01*
X421192Y315539D01*
X421167Y315454D01*
X421140Y315369D01*
X421108Y315286D01*
X421074Y315205D01*
X421035Y315125D01*
X420994Y315047D01*
X420949Y314970D01*
X420901Y314896D01*
X420850Y314823D01*
X420796Y314753D01*
X420738Y314686D01*
X420678Y314620D01*
X420616Y314558D01*
X420550Y314498D01*
X420483Y314440D01*
X420413Y314386D01*
X420340Y314335D01*
X420266Y314287D01*
X420189Y314242D01*
X420111Y314201D01*
X420031Y314162D01*
X419950Y314128D01*
X419867Y314096D01*
X419782Y314069D01*
X419697Y314044D01*
X419611Y314024D01*
X419524Y314007D01*
X419436Y313994D01*
X419348Y313985D01*
X419260Y313979D01*
X419171Y313977D01*
X419171Y313976D02*
X413949Y313976D01*
X413858Y313978D01*
X413767Y313984D01*
X413676Y313994D01*
X413586Y314008D01*
X413497Y314026D01*
X413408Y314047D01*
X413321Y314073D01*
X413235Y314102D01*
X413150Y314135D01*
X413066Y314172D01*
X412984Y314212D01*
X412905Y314256D01*
X412827Y314303D01*
X412751Y314354D01*
X412677Y314408D01*
X412606Y314465D01*
X412538Y314525D01*
X412472Y314588D01*
X412409Y314654D01*
X412349Y314722D01*
X412292Y314793D01*
X412238Y314867D01*
X412187Y314943D01*
X412140Y315020D01*
X412096Y315100D01*
X412056Y315182D01*
X412019Y315266D01*
X411986Y315350D01*
X411957Y315437D01*
X411931Y315524D01*
X411910Y315613D01*
X411892Y315702D01*
X411878Y315792D01*
X411868Y315883D01*
X411862Y315974D01*
X411860Y316065D01*
X411861Y316065D02*
X411861Y318153D01*
X411861Y322058D02*
X421259Y322058D01*
X417604Y322058D02*
X411861Y327279D01*
X415516Y324146D02*
X421259Y327279D01*
X452191Y283286D02*
X452280Y283284D01*
X452368Y283278D01*
X452456Y283269D01*
X452544Y283256D01*
X452631Y283239D01*
X452717Y283219D01*
X452802Y283194D01*
X452887Y283167D01*
X452970Y283135D01*
X453051Y283101D01*
X453131Y283062D01*
X453209Y283021D01*
X453286Y282976D01*
X453360Y282928D01*
X453433Y282877D01*
X453503Y282823D01*
X453570Y282765D01*
X453636Y282705D01*
X453698Y282643D01*
X453758Y282577D01*
X453816Y282510D01*
X453870Y282440D01*
X453921Y282367D01*
X453969Y282293D01*
X454014Y282216D01*
X454055Y282138D01*
X454094Y282058D01*
X454128Y281977D01*
X454160Y281894D01*
X454187Y281809D01*
X454212Y281724D01*
X454232Y281638D01*
X454249Y281551D01*
X454262Y281463D01*
X454271Y281375D01*
X454277Y281287D01*
X454279Y281198D01*
X454277Y281069D01*
X454271Y280940D01*
X454262Y280811D01*
X454249Y280683D01*
X454232Y280555D01*
X454211Y280428D01*
X454187Y280301D01*
X454159Y280175D01*
X454127Y280050D01*
X454092Y279926D01*
X454053Y279803D01*
X454010Y279681D01*
X453964Y279561D01*
X453914Y279442D01*
X453861Y279324D01*
X453805Y279208D01*
X453745Y279094D01*
X453682Y278981D01*
X453615Y278871D01*
X453546Y278762D01*
X453473Y278656D01*
X453397Y278551D01*
X453318Y278449D01*
X453236Y278350D01*
X453152Y278252D01*
X453064Y278157D01*
X452974Y278065D01*
X446969Y278327D02*
X446880Y278329D01*
X446792Y278335D01*
X446704Y278344D01*
X446616Y278357D01*
X446529Y278374D01*
X446443Y278394D01*
X446358Y278419D01*
X446273Y278446D01*
X446190Y278478D01*
X446109Y278512D01*
X446029Y278551D01*
X445951Y278592D01*
X445874Y278637D01*
X445800Y278685D01*
X445727Y278736D01*
X445657Y278790D01*
X445590Y278848D01*
X445524Y278908D01*
X445462Y278970D01*
X445402Y279036D01*
X445344Y279103D01*
X445290Y279173D01*
X445239Y279246D01*
X445191Y279320D01*
X445146Y279397D01*
X445105Y279475D01*
X445066Y279555D01*
X445032Y279636D01*
X445000Y279719D01*
X444973Y279804D01*
X444948Y279889D01*
X444928Y279975D01*
X444911Y280062D01*
X444898Y280150D01*
X444889Y280238D01*
X444883Y280326D01*
X444881Y280415D01*
X444883Y280535D01*
X444888Y280655D01*
X444898Y280774D01*
X444910Y280894D01*
X444927Y281013D01*
X444947Y281131D01*
X444971Y281249D01*
X444998Y281365D01*
X445029Y281481D01*
X445063Y281596D01*
X445101Y281710D01*
X445143Y281823D01*
X445188Y281934D01*
X445236Y282044D01*
X445287Y282152D01*
X445342Y282259D01*
X445400Y282364D01*
X445462Y282467D01*
X445526Y282568D01*
X445594Y282668D01*
X445664Y282765D01*
X448796Y279370D02*
X448748Y279292D01*
X448696Y279216D01*
X448642Y279143D01*
X448584Y279072D01*
X448523Y279003D01*
X448459Y278937D01*
X448392Y278874D01*
X448323Y278814D01*
X448251Y278757D01*
X448177Y278703D01*
X448100Y278653D01*
X448021Y278605D01*
X447941Y278562D01*
X447858Y278521D01*
X447774Y278485D01*
X447689Y278452D01*
X447602Y278423D01*
X447513Y278397D01*
X447424Y278375D01*
X447334Y278358D01*
X447244Y278344D01*
X447152Y278334D01*
X447061Y278328D01*
X446969Y278326D01*
X450364Y282242D02*
X450412Y282320D01*
X450464Y282396D01*
X450518Y282469D01*
X450576Y282540D01*
X450637Y282609D01*
X450701Y282675D01*
X450768Y282738D01*
X450837Y282798D01*
X450909Y282855D01*
X450983Y282909D01*
X451060Y282959D01*
X451139Y283007D01*
X451219Y283050D01*
X451302Y283091D01*
X451386Y283127D01*
X451471Y283160D01*
X451558Y283189D01*
X451647Y283215D01*
X451736Y283237D01*
X451826Y283254D01*
X451916Y283268D01*
X452008Y283278D01*
X452099Y283284D01*
X452191Y283286D01*
X450363Y282242D02*
X448797Y279370D01*
X444881Y287209D02*
X454279Y287209D01*
X444881Y287209D02*
X444881Y289820D01*
X444883Y289920D01*
X444889Y290020D01*
X444898Y290119D01*
X444912Y290219D01*
X444929Y290317D01*
X444950Y290415D01*
X444974Y290512D01*
X445003Y290608D01*
X445035Y290703D01*
X445070Y290796D01*
X445109Y290888D01*
X445152Y290979D01*
X445198Y291067D01*
X445248Y291154D01*
X445300Y291239D01*
X445356Y291322D01*
X445415Y291403D01*
X445478Y291481D01*
X445543Y291557D01*
X445611Y291631D01*
X445681Y291701D01*
X445755Y291769D01*
X445831Y291834D01*
X445909Y291897D01*
X445990Y291956D01*
X446073Y292012D01*
X446158Y292064D01*
X446245Y292114D01*
X446333Y292160D01*
X446424Y292203D01*
X446516Y292242D01*
X446609Y292277D01*
X446704Y292309D01*
X446800Y292338D01*
X446897Y292362D01*
X446995Y292383D01*
X447093Y292400D01*
X447193Y292414D01*
X447292Y292423D01*
X447392Y292429D01*
X447492Y292431D01*
X447492Y292430D02*
X451668Y292430D01*
X451668Y292431D02*
X451768Y292429D01*
X451868Y292423D01*
X451967Y292414D01*
X452067Y292400D01*
X452165Y292383D01*
X452263Y292362D01*
X452360Y292338D01*
X452456Y292309D01*
X452551Y292277D01*
X452644Y292242D01*
X452736Y292203D01*
X452827Y292160D01*
X452915Y292114D01*
X453002Y292064D01*
X453087Y292012D01*
X453170Y291956D01*
X453251Y291897D01*
X453329Y291834D01*
X453405Y291769D01*
X453479Y291701D01*
X453549Y291631D01*
X453617Y291557D01*
X453682Y291481D01*
X453745Y291403D01*
X453804Y291322D01*
X453860Y291239D01*
X453912Y291154D01*
X453962Y291067D01*
X454008Y290979D01*
X454051Y290888D01*
X454090Y290796D01*
X454125Y290703D01*
X454157Y290608D01*
X454186Y290512D01*
X454210Y290415D01*
X454231Y290317D01*
X454248Y290219D01*
X454262Y290119D01*
X454271Y290020D01*
X454277Y289920D01*
X454279Y289820D01*
X454279Y287209D01*
X451668Y296658D02*
X447492Y296658D01*
X447492Y296657D02*
X447391Y296659D01*
X447290Y296665D01*
X447189Y296675D01*
X447089Y296688D01*
X446989Y296706D01*
X446890Y296727D01*
X446792Y296753D01*
X446695Y296782D01*
X446599Y296814D01*
X446505Y296851D01*
X446412Y296891D01*
X446320Y296935D01*
X446231Y296982D01*
X446143Y297033D01*
X446057Y297087D01*
X445974Y297144D01*
X445892Y297204D01*
X445814Y297268D01*
X445737Y297334D01*
X445664Y297404D01*
X445593Y297476D01*
X445525Y297551D01*
X445460Y297629D01*
X445398Y297709D01*
X445339Y297791D01*
X445283Y297876D01*
X445231Y297963D01*
X445182Y298051D01*
X445136Y298142D01*
X445095Y298234D01*
X445056Y298328D01*
X445022Y298423D01*
X444991Y298519D01*
X444964Y298617D01*
X444940Y298715D01*
X444921Y298815D01*
X444905Y298915D01*
X444893Y299015D01*
X444885Y299116D01*
X444881Y299217D01*
X444881Y299319D01*
X444885Y299420D01*
X444893Y299521D01*
X444905Y299621D01*
X444921Y299721D01*
X444940Y299821D01*
X444964Y299919D01*
X444991Y300017D01*
X445022Y300113D01*
X445056Y300208D01*
X445095Y300302D01*
X445136Y300394D01*
X445182Y300485D01*
X445231Y300574D01*
X445283Y300660D01*
X445339Y300745D01*
X445398Y300827D01*
X445460Y300907D01*
X445525Y300985D01*
X445593Y301060D01*
X445664Y301132D01*
X445737Y301202D01*
X445814Y301268D01*
X445892Y301332D01*
X445974Y301392D01*
X446057Y301449D01*
X446143Y301503D01*
X446231Y301554D01*
X446320Y301601D01*
X446412Y301645D01*
X446505Y301685D01*
X446599Y301722D01*
X446695Y301754D01*
X446792Y301783D01*
X446890Y301809D01*
X446989Y301830D01*
X447089Y301848D01*
X447189Y301861D01*
X447290Y301871D01*
X447391Y301877D01*
X447492Y301879D01*
X451668Y301879D01*
X451769Y301877D01*
X451870Y301871D01*
X451971Y301861D01*
X452071Y301848D01*
X452171Y301830D01*
X452270Y301809D01*
X452368Y301783D01*
X452465Y301754D01*
X452561Y301722D01*
X452655Y301685D01*
X452748Y301645D01*
X452840Y301601D01*
X452929Y301554D01*
X453017Y301503D01*
X453103Y301449D01*
X453186Y301392D01*
X453268Y301332D01*
X453346Y301268D01*
X453423Y301202D01*
X453496Y301132D01*
X453567Y301060D01*
X453635Y300985D01*
X453700Y300907D01*
X453762Y300827D01*
X453821Y300745D01*
X453877Y300660D01*
X453929Y300573D01*
X453978Y300485D01*
X454024Y300394D01*
X454065Y300302D01*
X454104Y300208D01*
X454138Y300113D01*
X454169Y300017D01*
X454196Y299919D01*
X454220Y299821D01*
X454239Y299721D01*
X454255Y299621D01*
X454267Y299521D01*
X454275Y299420D01*
X454279Y299319D01*
X454279Y299217D01*
X454275Y299116D01*
X454267Y299015D01*
X454255Y298915D01*
X454239Y298815D01*
X454220Y298715D01*
X454196Y298617D01*
X454169Y298519D01*
X454138Y298423D01*
X454104Y298328D01*
X454065Y298234D01*
X454024Y298142D01*
X453978Y298051D01*
X453929Y297963D01*
X453877Y297876D01*
X453821Y297791D01*
X453762Y297709D01*
X453700Y297629D01*
X453635Y297551D01*
X453567Y297476D01*
X453496Y297404D01*
X453423Y297334D01*
X453346Y297268D01*
X453268Y297204D01*
X453186Y297144D01*
X453103Y297087D01*
X453017Y297033D01*
X452929Y296982D01*
X452840Y296935D01*
X452748Y296891D01*
X452655Y296851D01*
X452561Y296814D01*
X452465Y296782D01*
X452368Y296753D01*
X452270Y296727D01*
X452171Y296706D01*
X452071Y296688D01*
X451971Y296675D01*
X451870Y296665D01*
X451769Y296659D01*
X451668Y296657D01*
X419171Y261281D02*
X419260Y261279D01*
X419348Y261273D01*
X419436Y261264D01*
X419524Y261251D01*
X419611Y261234D01*
X419697Y261214D01*
X419782Y261189D01*
X419867Y261162D01*
X419950Y261130D01*
X420031Y261096D01*
X420111Y261057D01*
X420189Y261016D01*
X420266Y260971D01*
X420340Y260923D01*
X420413Y260872D01*
X420483Y260818D01*
X420550Y260760D01*
X420616Y260700D01*
X420678Y260638D01*
X420738Y260572D01*
X420796Y260505D01*
X420850Y260435D01*
X420901Y260362D01*
X420949Y260288D01*
X420994Y260211D01*
X421035Y260133D01*
X421074Y260053D01*
X421108Y259972D01*
X421140Y259889D01*
X421167Y259804D01*
X421192Y259719D01*
X421212Y259633D01*
X421229Y259546D01*
X421242Y259458D01*
X421251Y259370D01*
X421257Y259282D01*
X421259Y259193D01*
X421257Y259064D01*
X421251Y258935D01*
X421242Y258806D01*
X421229Y258678D01*
X421212Y258550D01*
X421191Y258423D01*
X421167Y258296D01*
X421139Y258170D01*
X421107Y258045D01*
X421072Y257921D01*
X421033Y257798D01*
X420990Y257676D01*
X420944Y257556D01*
X420894Y257437D01*
X420841Y257319D01*
X420785Y257203D01*
X420725Y257089D01*
X420662Y256976D01*
X420595Y256866D01*
X420526Y256757D01*
X420453Y256651D01*
X420377Y256546D01*
X420298Y256444D01*
X420216Y256345D01*
X420132Y256247D01*
X420044Y256152D01*
X419954Y256060D01*
X413949Y256322D02*
X413860Y256324D01*
X413772Y256330D01*
X413684Y256339D01*
X413596Y256352D01*
X413509Y256369D01*
X413423Y256389D01*
X413338Y256414D01*
X413253Y256441D01*
X413170Y256473D01*
X413089Y256507D01*
X413009Y256546D01*
X412931Y256587D01*
X412854Y256632D01*
X412780Y256680D01*
X412707Y256731D01*
X412637Y256785D01*
X412570Y256843D01*
X412504Y256903D01*
X412442Y256965D01*
X412382Y257031D01*
X412324Y257098D01*
X412270Y257168D01*
X412219Y257241D01*
X412171Y257315D01*
X412126Y257392D01*
X412085Y257470D01*
X412046Y257550D01*
X412012Y257631D01*
X411980Y257714D01*
X411953Y257799D01*
X411928Y257884D01*
X411908Y257970D01*
X411891Y258057D01*
X411878Y258145D01*
X411869Y258233D01*
X411863Y258321D01*
X411861Y258410D01*
X411863Y258530D01*
X411868Y258650D01*
X411878Y258769D01*
X411890Y258889D01*
X411907Y259008D01*
X411927Y259126D01*
X411951Y259244D01*
X411978Y259360D01*
X412009Y259476D01*
X412043Y259591D01*
X412081Y259705D01*
X412123Y259818D01*
X412168Y259929D01*
X412216Y260039D01*
X412267Y260147D01*
X412322Y260254D01*
X412380Y260359D01*
X412442Y260462D01*
X412506Y260563D01*
X412574Y260663D01*
X412644Y260760D01*
X415776Y257365D02*
X415728Y257287D01*
X415676Y257211D01*
X415622Y257138D01*
X415564Y257067D01*
X415503Y256998D01*
X415439Y256932D01*
X415372Y256869D01*
X415303Y256809D01*
X415231Y256752D01*
X415157Y256698D01*
X415080Y256648D01*
X415001Y256600D01*
X414921Y256557D01*
X414838Y256516D01*
X414754Y256480D01*
X414669Y256447D01*
X414582Y256418D01*
X414493Y256392D01*
X414404Y256370D01*
X414314Y256353D01*
X414224Y256339D01*
X414132Y256329D01*
X414041Y256323D01*
X413949Y256321D01*
X417344Y260237D02*
X417392Y260315D01*
X417444Y260391D01*
X417498Y260464D01*
X417556Y260535D01*
X417617Y260604D01*
X417681Y260670D01*
X417748Y260733D01*
X417817Y260793D01*
X417889Y260850D01*
X417963Y260904D01*
X418040Y260954D01*
X418119Y261002D01*
X418199Y261045D01*
X418282Y261086D01*
X418366Y261122D01*
X418451Y261155D01*
X418538Y261184D01*
X418627Y261210D01*
X418716Y261232D01*
X418806Y261249D01*
X418896Y261263D01*
X418988Y261273D01*
X419079Y261279D01*
X419171Y261281D01*
X417343Y260237D02*
X415777Y257366D01*
X411861Y265204D02*
X421259Y265204D01*
X411861Y265204D02*
X411861Y267815D01*
X411863Y267915D01*
X411869Y268015D01*
X411878Y268114D01*
X411892Y268214D01*
X411909Y268312D01*
X411930Y268410D01*
X411954Y268507D01*
X411983Y268603D01*
X412015Y268698D01*
X412050Y268791D01*
X412089Y268883D01*
X412132Y268974D01*
X412178Y269062D01*
X412228Y269149D01*
X412280Y269234D01*
X412336Y269317D01*
X412395Y269398D01*
X412458Y269476D01*
X412523Y269552D01*
X412591Y269626D01*
X412661Y269696D01*
X412735Y269764D01*
X412811Y269829D01*
X412889Y269892D01*
X412970Y269951D01*
X413053Y270007D01*
X413138Y270059D01*
X413225Y270109D01*
X413313Y270155D01*
X413404Y270198D01*
X413496Y270237D01*
X413589Y270272D01*
X413684Y270304D01*
X413780Y270333D01*
X413877Y270357D01*
X413975Y270378D01*
X414073Y270395D01*
X414173Y270409D01*
X414272Y270418D01*
X414372Y270424D01*
X414472Y270426D01*
X414472Y270425D02*
X418648Y270425D01*
X418648Y270426D02*
X418748Y270424D01*
X418848Y270418D01*
X418947Y270409D01*
X419047Y270395D01*
X419145Y270378D01*
X419243Y270357D01*
X419340Y270333D01*
X419436Y270304D01*
X419531Y270272D01*
X419624Y270237D01*
X419716Y270198D01*
X419807Y270155D01*
X419895Y270109D01*
X419982Y270059D01*
X420067Y270007D01*
X420150Y269951D01*
X420231Y269892D01*
X420309Y269829D01*
X420385Y269764D01*
X420459Y269696D01*
X420529Y269626D01*
X420597Y269552D01*
X420662Y269476D01*
X420725Y269398D01*
X420784Y269317D01*
X420840Y269234D01*
X420892Y269149D01*
X420942Y269062D01*
X420988Y268974D01*
X421031Y268883D01*
X421070Y268791D01*
X421105Y268698D01*
X421137Y268603D01*
X421166Y268507D01*
X421190Y268410D01*
X421211Y268312D01*
X421228Y268214D01*
X421242Y268114D01*
X421251Y268015D01*
X421257Y267915D01*
X421259Y267815D01*
X421259Y265204D01*
X421259Y275435D02*
X411861Y275435D01*
X421259Y274391D02*
X421259Y276479D01*
X411861Y276479D02*
X411861Y274391D01*
X454279Y245234D02*
X454279Y243145D01*
X454277Y243056D01*
X454271Y242968D01*
X454262Y242880D01*
X454249Y242792D01*
X454232Y242705D01*
X454212Y242619D01*
X454187Y242534D01*
X454160Y242449D01*
X454128Y242366D01*
X454094Y242285D01*
X454055Y242205D01*
X454014Y242127D01*
X453969Y242050D01*
X453921Y241976D01*
X453870Y241903D01*
X453816Y241833D01*
X453758Y241766D01*
X453698Y241700D01*
X453636Y241638D01*
X453570Y241578D01*
X453503Y241520D01*
X453433Y241466D01*
X453360Y241415D01*
X453286Y241367D01*
X453209Y241322D01*
X453131Y241281D01*
X453051Y241242D01*
X452970Y241208D01*
X452887Y241176D01*
X452802Y241149D01*
X452717Y241124D01*
X452631Y241104D01*
X452544Y241087D01*
X452456Y241074D01*
X452368Y241065D01*
X452280Y241059D01*
X452191Y241057D01*
X446969Y241057D01*
X446878Y241059D01*
X446787Y241065D01*
X446696Y241075D01*
X446606Y241089D01*
X446517Y241107D01*
X446428Y241128D01*
X446341Y241154D01*
X446255Y241183D01*
X446170Y241216D01*
X446086Y241253D01*
X446004Y241293D01*
X445925Y241337D01*
X445847Y241384D01*
X445771Y241435D01*
X445697Y241489D01*
X445626Y241546D01*
X445558Y241606D01*
X445492Y241669D01*
X445429Y241735D01*
X445369Y241803D01*
X445312Y241874D01*
X445258Y241948D01*
X445207Y242024D01*
X445160Y242101D01*
X445116Y242181D01*
X445076Y242263D01*
X445039Y242347D01*
X445006Y242431D01*
X444977Y242518D01*
X444951Y242605D01*
X444930Y242694D01*
X444912Y242783D01*
X444898Y242873D01*
X444888Y242964D01*
X444882Y243055D01*
X444880Y243146D01*
X444881Y243145D02*
X444881Y245234D01*
X452191Y253619D02*
X452280Y253617D01*
X452368Y253611D01*
X452456Y253602D01*
X452544Y253589D01*
X452631Y253572D01*
X452717Y253552D01*
X452802Y253527D01*
X452887Y253500D01*
X452970Y253468D01*
X453051Y253434D01*
X453131Y253395D01*
X453209Y253354D01*
X453286Y253309D01*
X453360Y253261D01*
X453433Y253210D01*
X453503Y253156D01*
X453570Y253098D01*
X453636Y253038D01*
X453698Y252976D01*
X453758Y252910D01*
X453816Y252843D01*
X453870Y252773D01*
X453921Y252700D01*
X453969Y252626D01*
X454014Y252549D01*
X454055Y252471D01*
X454094Y252391D01*
X454128Y252310D01*
X454160Y252227D01*
X454187Y252142D01*
X454212Y252057D01*
X454232Y251971D01*
X454249Y251884D01*
X454262Y251796D01*
X454271Y251708D01*
X454277Y251620D01*
X454279Y251531D01*
X454277Y251402D01*
X454271Y251273D01*
X454262Y251144D01*
X454249Y251016D01*
X454232Y250888D01*
X454211Y250761D01*
X454187Y250634D01*
X454159Y250508D01*
X454127Y250383D01*
X454092Y250259D01*
X454053Y250136D01*
X454010Y250014D01*
X453964Y249894D01*
X453914Y249775D01*
X453861Y249657D01*
X453805Y249541D01*
X453745Y249427D01*
X453682Y249314D01*
X453615Y249204D01*
X453546Y249095D01*
X453473Y248989D01*
X453397Y248884D01*
X453318Y248782D01*
X453236Y248683D01*
X453152Y248585D01*
X453064Y248490D01*
X452974Y248398D01*
X446969Y248659D02*
X446880Y248661D01*
X446792Y248667D01*
X446704Y248676D01*
X446616Y248689D01*
X446529Y248706D01*
X446443Y248726D01*
X446358Y248751D01*
X446273Y248778D01*
X446190Y248810D01*
X446109Y248844D01*
X446029Y248883D01*
X445951Y248924D01*
X445874Y248969D01*
X445800Y249017D01*
X445727Y249068D01*
X445657Y249122D01*
X445590Y249180D01*
X445524Y249240D01*
X445462Y249302D01*
X445402Y249368D01*
X445344Y249435D01*
X445290Y249505D01*
X445239Y249578D01*
X445191Y249652D01*
X445146Y249729D01*
X445105Y249807D01*
X445066Y249887D01*
X445032Y249968D01*
X445000Y250051D01*
X444973Y250136D01*
X444948Y250221D01*
X444928Y250307D01*
X444911Y250394D01*
X444898Y250482D01*
X444889Y250570D01*
X444883Y250658D01*
X444881Y250747D01*
X444883Y250867D01*
X444888Y250987D01*
X444898Y251106D01*
X444910Y251226D01*
X444927Y251345D01*
X444947Y251463D01*
X444971Y251581D01*
X444998Y251697D01*
X445029Y251813D01*
X445063Y251928D01*
X445101Y252042D01*
X445143Y252155D01*
X445188Y252266D01*
X445236Y252376D01*
X445287Y252484D01*
X445342Y252591D01*
X445400Y252696D01*
X445462Y252799D01*
X445526Y252900D01*
X445594Y253000D01*
X445664Y253097D01*
X448796Y249703D02*
X448748Y249625D01*
X448696Y249549D01*
X448642Y249476D01*
X448584Y249405D01*
X448523Y249336D01*
X448459Y249270D01*
X448392Y249207D01*
X448323Y249147D01*
X448251Y249090D01*
X448177Y249036D01*
X448100Y248986D01*
X448021Y248938D01*
X447941Y248895D01*
X447858Y248854D01*
X447774Y248818D01*
X447689Y248785D01*
X447602Y248756D01*
X447513Y248730D01*
X447424Y248708D01*
X447334Y248691D01*
X447244Y248677D01*
X447152Y248667D01*
X447061Y248661D01*
X446969Y248659D01*
X450364Y252575D02*
X450412Y252653D01*
X450464Y252729D01*
X450518Y252802D01*
X450576Y252873D01*
X450637Y252942D01*
X450701Y253008D01*
X450768Y253071D01*
X450837Y253131D01*
X450909Y253188D01*
X450983Y253242D01*
X451060Y253292D01*
X451139Y253340D01*
X451219Y253383D01*
X451302Y253424D01*
X451386Y253460D01*
X451471Y253493D01*
X451558Y253522D01*
X451647Y253548D01*
X451736Y253570D01*
X451826Y253587D01*
X451916Y253601D01*
X452008Y253611D01*
X452099Y253617D01*
X452191Y253619D01*
X450363Y252575D02*
X448797Y249703D01*
D12*
X589901Y289715D02*
X589901Y292961D01*
X589900Y292961D02*
X589902Y293074D01*
X589908Y293187D01*
X589918Y293300D01*
X589932Y293413D01*
X589949Y293525D01*
X589971Y293636D01*
X589996Y293746D01*
X590026Y293856D01*
X590059Y293964D01*
X590096Y294071D01*
X590136Y294177D01*
X590181Y294281D01*
X590229Y294384D01*
X590280Y294485D01*
X590335Y294584D01*
X590393Y294681D01*
X590455Y294776D01*
X590520Y294869D01*
X590588Y294959D01*
X590659Y295047D01*
X590734Y295133D01*
X590811Y295216D01*
X590891Y295296D01*
X590974Y295373D01*
X591060Y295448D01*
X591148Y295519D01*
X591238Y295587D01*
X591331Y295652D01*
X591426Y295714D01*
X591523Y295772D01*
X591622Y295827D01*
X591723Y295878D01*
X591826Y295926D01*
X591930Y295971D01*
X592036Y296011D01*
X592143Y296048D01*
X592251Y296081D01*
X592361Y296111D01*
X592471Y296136D01*
X592582Y296158D01*
X592694Y296175D01*
X592807Y296189D01*
X592920Y296199D01*
X593033Y296205D01*
X593146Y296207D01*
X593259Y296205D01*
X593372Y296199D01*
X593485Y296189D01*
X593598Y296175D01*
X593710Y296158D01*
X593821Y296136D01*
X593931Y296111D01*
X594041Y296081D01*
X594149Y296048D01*
X594256Y296011D01*
X594362Y295971D01*
X594466Y295926D01*
X594569Y295878D01*
X594670Y295827D01*
X594769Y295772D01*
X594866Y295714D01*
X594961Y295652D01*
X595054Y295587D01*
X595144Y295519D01*
X595232Y295448D01*
X595318Y295373D01*
X595401Y295296D01*
X595481Y295216D01*
X595558Y295133D01*
X595633Y295047D01*
X595704Y294959D01*
X595772Y294869D01*
X595837Y294776D01*
X595899Y294681D01*
X595957Y294584D01*
X596012Y294485D01*
X596063Y294384D01*
X596111Y294281D01*
X596156Y294177D01*
X596196Y294071D01*
X596233Y293964D01*
X596266Y293856D01*
X596296Y293746D01*
X596321Y293636D01*
X596343Y293525D01*
X596360Y293413D01*
X596374Y293300D01*
X596384Y293187D01*
X596390Y293074D01*
X596392Y292961D01*
X596392Y289715D01*
X584708Y289715D01*
X584708Y292961D01*
X584710Y293062D01*
X584716Y293162D01*
X584726Y293262D01*
X584739Y293362D01*
X584757Y293461D01*
X584778Y293560D01*
X584803Y293657D01*
X584832Y293754D01*
X584865Y293849D01*
X584901Y293943D01*
X584941Y294035D01*
X584984Y294126D01*
X585031Y294215D01*
X585081Y294302D01*
X585135Y294388D01*
X585192Y294471D01*
X585252Y294551D01*
X585315Y294630D01*
X585382Y294706D01*
X585451Y294779D01*
X585523Y294849D01*
X585597Y294917D01*
X585674Y294982D01*
X585754Y295043D01*
X585836Y295102D01*
X585920Y295157D01*
X586006Y295209D01*
X586094Y295258D01*
X586184Y295303D01*
X586276Y295345D01*
X586369Y295383D01*
X586464Y295417D01*
X586559Y295448D01*
X586656Y295475D01*
X586754Y295498D01*
X586853Y295518D01*
X586953Y295533D01*
X587053Y295545D01*
X587153Y295553D01*
X587254Y295557D01*
X587354Y295557D01*
X587455Y295553D01*
X587555Y295545D01*
X587655Y295533D01*
X587755Y295518D01*
X587854Y295498D01*
X587952Y295475D01*
X588049Y295448D01*
X588144Y295417D01*
X588239Y295383D01*
X588332Y295345D01*
X588424Y295303D01*
X588514Y295258D01*
X588602Y295209D01*
X588688Y295157D01*
X588772Y295102D01*
X588854Y295043D01*
X588934Y294982D01*
X589011Y294917D01*
X589085Y294849D01*
X589157Y294779D01*
X589226Y294706D01*
X589293Y294630D01*
X589356Y294551D01*
X589416Y294471D01*
X589473Y294388D01*
X589527Y294302D01*
X589577Y294215D01*
X589624Y294126D01*
X589667Y294035D01*
X589707Y293943D01*
X589743Y293849D01*
X589776Y293754D01*
X589805Y293657D01*
X589830Y293560D01*
X589851Y293461D01*
X589869Y293362D01*
X589882Y293262D01*
X589892Y293162D01*
X589898Y293062D01*
X589900Y292961D01*
X584708Y301089D02*
X596392Y301089D01*
X591199Y304984D02*
X584708Y301089D01*
X591199Y304984D02*
X584708Y308878D01*
X596392Y308878D01*
X596392Y314861D02*
X584708Y314861D01*
X584708Y318107D01*
X584710Y318220D01*
X584716Y318333D01*
X584726Y318446D01*
X584740Y318559D01*
X584757Y318671D01*
X584779Y318782D01*
X584804Y318892D01*
X584834Y319002D01*
X584867Y319110D01*
X584904Y319217D01*
X584944Y319323D01*
X584989Y319427D01*
X585037Y319530D01*
X585088Y319631D01*
X585143Y319730D01*
X585201Y319827D01*
X585263Y319922D01*
X585328Y320015D01*
X585396Y320105D01*
X585467Y320193D01*
X585542Y320279D01*
X585619Y320362D01*
X585699Y320442D01*
X585782Y320519D01*
X585868Y320594D01*
X585956Y320665D01*
X586046Y320733D01*
X586139Y320798D01*
X586234Y320860D01*
X586331Y320918D01*
X586430Y320973D01*
X586531Y321024D01*
X586634Y321072D01*
X586738Y321117D01*
X586844Y321157D01*
X586951Y321194D01*
X587059Y321227D01*
X587169Y321257D01*
X587279Y321282D01*
X587390Y321304D01*
X587502Y321321D01*
X587615Y321335D01*
X587728Y321345D01*
X587841Y321351D01*
X587954Y321353D01*
X588067Y321351D01*
X588180Y321345D01*
X588293Y321335D01*
X588406Y321321D01*
X588518Y321304D01*
X588629Y321282D01*
X588739Y321257D01*
X588849Y321227D01*
X588957Y321194D01*
X589064Y321157D01*
X589170Y321117D01*
X589274Y321072D01*
X589377Y321024D01*
X589478Y320973D01*
X589577Y320918D01*
X589674Y320860D01*
X589769Y320798D01*
X589862Y320733D01*
X589952Y320665D01*
X590040Y320594D01*
X590126Y320519D01*
X590209Y320442D01*
X590289Y320362D01*
X590366Y320279D01*
X590441Y320193D01*
X590512Y320105D01*
X590580Y320015D01*
X590645Y319922D01*
X590707Y319827D01*
X590765Y319730D01*
X590820Y319631D01*
X590871Y319530D01*
X590919Y319427D01*
X590964Y319323D01*
X591004Y319217D01*
X591041Y319110D01*
X591074Y319002D01*
X591104Y318892D01*
X591129Y318782D01*
X591151Y318671D01*
X591168Y318559D01*
X591182Y318446D01*
X591192Y318333D01*
X591198Y318220D01*
X591200Y318107D01*
X591199Y318107D02*
X591199Y314861D01*
X584708Y329311D02*
X584710Y329418D01*
X584716Y329524D01*
X584726Y329630D01*
X584739Y329736D01*
X584757Y329842D01*
X584778Y329946D01*
X584803Y330050D01*
X584832Y330153D01*
X584864Y330254D01*
X584901Y330354D01*
X584941Y330453D01*
X584984Y330551D01*
X585031Y330647D01*
X585082Y330741D01*
X585136Y330833D01*
X585193Y330923D01*
X585253Y331011D01*
X585317Y331096D01*
X585384Y331179D01*
X585454Y331260D01*
X585526Y331338D01*
X585602Y331414D01*
X585680Y331486D01*
X585761Y331556D01*
X585844Y331623D01*
X585929Y331687D01*
X586017Y331747D01*
X586107Y331804D01*
X586199Y331858D01*
X586293Y331909D01*
X586389Y331956D01*
X586487Y331999D01*
X586586Y332039D01*
X586686Y332076D01*
X586787Y332108D01*
X586890Y332137D01*
X586994Y332162D01*
X587098Y332183D01*
X587204Y332201D01*
X587310Y332214D01*
X587416Y332224D01*
X587522Y332230D01*
X587629Y332232D01*
X584708Y329311D02*
X584710Y329190D01*
X584716Y329069D01*
X584726Y328949D01*
X584739Y328828D01*
X584757Y328709D01*
X584778Y328589D01*
X584803Y328471D01*
X584832Y328354D01*
X584865Y328237D01*
X584901Y328122D01*
X584942Y328008D01*
X584985Y327895D01*
X585033Y327783D01*
X585084Y327674D01*
X585139Y327566D01*
X585197Y327459D01*
X585258Y327355D01*
X585323Y327253D01*
X585391Y327153D01*
X585462Y327055D01*
X585536Y326959D01*
X585613Y326866D01*
X585694Y326776D01*
X585777Y326688D01*
X585863Y326603D01*
X585952Y326520D01*
X586043Y326441D01*
X586137Y326364D01*
X586233Y326291D01*
X586331Y326221D01*
X586432Y326154D01*
X586535Y326090D01*
X586640Y326030D01*
X586747Y325972D01*
X586855Y325919D01*
X586965Y325869D01*
X587077Y325823D01*
X587190Y325780D01*
X587305Y325741D01*
X589901Y331258D02*
X589823Y331337D01*
X589743Y331413D01*
X589660Y331486D01*
X589574Y331556D01*
X589487Y331623D01*
X589396Y331687D01*
X589304Y331747D01*
X589210Y331805D01*
X589113Y331859D01*
X589015Y331909D01*
X588915Y331956D01*
X588814Y332000D01*
X588711Y332040D01*
X588606Y332076D01*
X588501Y332108D01*
X588394Y332137D01*
X588287Y332162D01*
X588178Y332184D01*
X588069Y332201D01*
X587960Y332215D01*
X587850Y332224D01*
X587739Y332230D01*
X587629Y332232D01*
X589901Y331258D02*
X596392Y325741D01*
X596392Y332232D01*
X593146Y337170D02*
X593033Y337172D01*
X592920Y337178D01*
X592807Y337188D01*
X592694Y337202D01*
X592582Y337219D01*
X592471Y337241D01*
X592361Y337266D01*
X592251Y337296D01*
X592143Y337329D01*
X592036Y337366D01*
X591930Y337406D01*
X591826Y337451D01*
X591723Y337499D01*
X591622Y337550D01*
X591523Y337605D01*
X591426Y337663D01*
X591331Y337725D01*
X591238Y337790D01*
X591148Y337858D01*
X591060Y337929D01*
X590974Y338004D01*
X590891Y338081D01*
X590811Y338161D01*
X590734Y338244D01*
X590659Y338330D01*
X590588Y338418D01*
X590520Y338508D01*
X590455Y338601D01*
X590393Y338696D01*
X590335Y338793D01*
X590280Y338892D01*
X590229Y338993D01*
X590181Y339096D01*
X590136Y339200D01*
X590096Y339306D01*
X590059Y339413D01*
X590026Y339521D01*
X589996Y339631D01*
X589971Y339741D01*
X589949Y339852D01*
X589932Y339964D01*
X589918Y340077D01*
X589908Y340190D01*
X589902Y340303D01*
X589900Y340416D01*
X589902Y340529D01*
X589908Y340642D01*
X589918Y340755D01*
X589932Y340868D01*
X589949Y340980D01*
X589971Y341091D01*
X589996Y341201D01*
X590026Y341311D01*
X590059Y341419D01*
X590096Y341526D01*
X590136Y341632D01*
X590181Y341736D01*
X590229Y341839D01*
X590280Y341940D01*
X590335Y342039D01*
X590393Y342136D01*
X590455Y342231D01*
X590520Y342324D01*
X590588Y342414D01*
X590659Y342502D01*
X590734Y342588D01*
X590811Y342671D01*
X590891Y342751D01*
X590974Y342828D01*
X591060Y342903D01*
X591148Y342974D01*
X591238Y343042D01*
X591331Y343107D01*
X591426Y343169D01*
X591523Y343227D01*
X591622Y343282D01*
X591723Y343333D01*
X591826Y343381D01*
X591930Y343426D01*
X592036Y343466D01*
X592143Y343503D01*
X592251Y343536D01*
X592361Y343566D01*
X592471Y343591D01*
X592582Y343613D01*
X592694Y343630D01*
X592807Y343644D01*
X592920Y343654D01*
X593033Y343660D01*
X593146Y343662D01*
X593259Y343660D01*
X593372Y343654D01*
X593485Y343644D01*
X593598Y343630D01*
X593710Y343613D01*
X593821Y343591D01*
X593931Y343566D01*
X594041Y343536D01*
X594149Y343503D01*
X594256Y343466D01*
X594362Y343426D01*
X594466Y343381D01*
X594569Y343333D01*
X594670Y343282D01*
X594769Y343227D01*
X594866Y343169D01*
X594961Y343107D01*
X595054Y343042D01*
X595144Y342974D01*
X595232Y342903D01*
X595318Y342828D01*
X595401Y342751D01*
X595481Y342671D01*
X595558Y342588D01*
X595633Y342502D01*
X595704Y342414D01*
X595772Y342324D01*
X595837Y342231D01*
X595899Y342136D01*
X595957Y342039D01*
X596012Y341940D01*
X596063Y341839D01*
X596111Y341736D01*
X596156Y341632D01*
X596196Y341526D01*
X596233Y341419D01*
X596266Y341311D01*
X596296Y341201D01*
X596321Y341091D01*
X596343Y340980D01*
X596360Y340868D01*
X596374Y340755D01*
X596384Y340642D01*
X596390Y340529D01*
X596392Y340416D01*
X596390Y340303D01*
X596384Y340190D01*
X596374Y340077D01*
X596360Y339964D01*
X596343Y339852D01*
X596321Y339741D01*
X596296Y339631D01*
X596266Y339521D01*
X596233Y339413D01*
X596196Y339306D01*
X596156Y339200D01*
X596111Y339096D01*
X596063Y338993D01*
X596012Y338892D01*
X595957Y338793D01*
X595899Y338696D01*
X595837Y338601D01*
X595772Y338508D01*
X595704Y338418D01*
X595633Y338330D01*
X595558Y338244D01*
X595481Y338161D01*
X595401Y338081D01*
X595318Y338004D01*
X595232Y337929D01*
X595144Y337858D01*
X595054Y337790D01*
X594961Y337725D01*
X594866Y337663D01*
X594769Y337605D01*
X594670Y337550D01*
X594569Y337499D01*
X594466Y337451D01*
X594362Y337406D01*
X594256Y337366D01*
X594149Y337329D01*
X594041Y337296D01*
X593931Y337266D01*
X593821Y337241D01*
X593710Y337219D01*
X593598Y337202D01*
X593485Y337188D01*
X593372Y337178D01*
X593259Y337172D01*
X593146Y337170D01*
X587304Y337820D02*
X587203Y337822D01*
X587103Y337828D01*
X587003Y337838D01*
X586903Y337851D01*
X586804Y337869D01*
X586705Y337890D01*
X586608Y337915D01*
X586511Y337944D01*
X586416Y337977D01*
X586322Y338013D01*
X586230Y338053D01*
X586139Y338096D01*
X586050Y338143D01*
X585963Y338193D01*
X585877Y338247D01*
X585794Y338304D01*
X585714Y338364D01*
X585635Y338427D01*
X585559Y338494D01*
X585486Y338563D01*
X585416Y338635D01*
X585348Y338709D01*
X585283Y338786D01*
X585222Y338866D01*
X585163Y338948D01*
X585108Y339032D01*
X585056Y339118D01*
X585007Y339206D01*
X584962Y339296D01*
X584920Y339388D01*
X584882Y339481D01*
X584848Y339576D01*
X584817Y339671D01*
X584790Y339768D01*
X584767Y339866D01*
X584747Y339965D01*
X584732Y340065D01*
X584720Y340165D01*
X584712Y340265D01*
X584708Y340366D01*
X584708Y340466D01*
X584712Y340567D01*
X584720Y340667D01*
X584732Y340767D01*
X584747Y340867D01*
X584767Y340966D01*
X584790Y341064D01*
X584817Y341161D01*
X584848Y341256D01*
X584882Y341351D01*
X584920Y341444D01*
X584962Y341536D01*
X585007Y341626D01*
X585056Y341714D01*
X585108Y341800D01*
X585163Y341884D01*
X585222Y341966D01*
X585283Y342046D01*
X585348Y342123D01*
X585416Y342197D01*
X585486Y342269D01*
X585559Y342338D01*
X585635Y342405D01*
X585714Y342468D01*
X585794Y342528D01*
X585877Y342585D01*
X585963Y342639D01*
X586050Y342689D01*
X586139Y342736D01*
X586230Y342779D01*
X586322Y342819D01*
X586416Y342855D01*
X586511Y342888D01*
X586608Y342917D01*
X586705Y342942D01*
X586804Y342963D01*
X586903Y342981D01*
X587003Y342994D01*
X587103Y343004D01*
X587203Y343010D01*
X587304Y343012D01*
X587405Y343010D01*
X587505Y343004D01*
X587605Y342994D01*
X587705Y342981D01*
X587804Y342963D01*
X587903Y342942D01*
X588000Y342917D01*
X588097Y342888D01*
X588192Y342855D01*
X588286Y342819D01*
X588378Y342779D01*
X588469Y342736D01*
X588558Y342689D01*
X588645Y342639D01*
X588731Y342585D01*
X588814Y342528D01*
X588894Y342468D01*
X588973Y342405D01*
X589049Y342338D01*
X589122Y342269D01*
X589192Y342197D01*
X589260Y342123D01*
X589325Y342046D01*
X589386Y341966D01*
X589445Y341884D01*
X589500Y341800D01*
X589552Y341714D01*
X589601Y341626D01*
X589646Y341536D01*
X589688Y341444D01*
X589726Y341351D01*
X589760Y341256D01*
X589791Y341161D01*
X589818Y341064D01*
X589841Y340966D01*
X589861Y340867D01*
X589876Y340767D01*
X589888Y340667D01*
X589896Y340567D01*
X589900Y340466D01*
X589900Y340366D01*
X589896Y340265D01*
X589888Y340165D01*
X589876Y340065D01*
X589861Y339965D01*
X589841Y339866D01*
X589818Y339768D01*
X589791Y339671D01*
X589760Y339576D01*
X589726Y339481D01*
X589688Y339388D01*
X589646Y339296D01*
X589601Y339206D01*
X589552Y339118D01*
X589500Y339032D01*
X589445Y338948D01*
X589386Y338866D01*
X589325Y338786D01*
X589260Y338709D01*
X589192Y338635D01*
X589122Y338563D01*
X589049Y338494D01*
X588973Y338427D01*
X588894Y338364D01*
X588814Y338304D01*
X588731Y338247D01*
X588645Y338193D01*
X588558Y338143D01*
X588469Y338096D01*
X588378Y338053D01*
X588286Y338013D01*
X588192Y337977D01*
X588097Y337944D01*
X588000Y337915D01*
X587903Y337890D01*
X587804Y337869D01*
X587705Y337851D01*
X587605Y337838D01*
X587505Y337828D01*
X587405Y337822D01*
X587304Y337820D01*
X590550Y348601D02*
X590320Y348604D01*
X590090Y348612D01*
X589861Y348626D01*
X589632Y348645D01*
X589403Y348670D01*
X589175Y348700D01*
X588948Y348735D01*
X588722Y348776D01*
X588497Y348822D01*
X588273Y348874D01*
X588050Y348931D01*
X587829Y348993D01*
X587609Y349061D01*
X587391Y349134D01*
X587175Y349212D01*
X586961Y349295D01*
X586749Y349383D01*
X586538Y349476D01*
X586331Y349575D01*
X586331Y349574D02*
X586241Y349607D01*
X586152Y349643D01*
X586064Y349683D01*
X585979Y349727D01*
X585895Y349774D01*
X585813Y349824D01*
X585733Y349878D01*
X585656Y349934D01*
X585580Y349994D01*
X585507Y350057D01*
X585437Y350122D01*
X585369Y350191D01*
X585305Y350262D01*
X585243Y350335D01*
X585184Y350411D01*
X585128Y350489D01*
X585075Y350570D01*
X585026Y350652D01*
X584980Y350736D01*
X584937Y350823D01*
X584898Y350910D01*
X584862Y351000D01*
X584830Y351090D01*
X584802Y351182D01*
X584777Y351275D01*
X584756Y351369D01*
X584739Y351463D01*
X584725Y351558D01*
X584716Y351654D01*
X584710Y351750D01*
X584708Y351846D01*
X584710Y351942D01*
X584716Y352038D01*
X584725Y352134D01*
X584739Y352229D01*
X584756Y352323D01*
X584777Y352417D01*
X584802Y352510D01*
X584830Y352602D01*
X584862Y352692D01*
X584898Y352782D01*
X584937Y352870D01*
X584980Y352956D01*
X585026Y353040D01*
X585075Y353122D01*
X585128Y353203D01*
X585184Y353281D01*
X585243Y353357D01*
X585305Y353430D01*
X585369Y353501D01*
X585437Y353570D01*
X585507Y353635D01*
X585580Y353698D01*
X585656Y353758D01*
X585733Y353814D01*
X585813Y353868D01*
X585895Y353918D01*
X585979Y353965D01*
X586064Y354009D01*
X586152Y354049D01*
X586241Y354085D01*
X586331Y354118D01*
X586538Y354217D01*
X586749Y354310D01*
X586961Y354398D01*
X587175Y354481D01*
X587391Y354559D01*
X587609Y354632D01*
X587829Y354700D01*
X588050Y354762D01*
X588273Y354819D01*
X588497Y354871D01*
X588722Y354917D01*
X588948Y354958D01*
X589175Y354993D01*
X589403Y355023D01*
X589632Y355048D01*
X589861Y355067D01*
X590090Y355081D01*
X590320Y355089D01*
X590550Y355092D01*
X590550Y348601D02*
X590780Y348604D01*
X591010Y348612D01*
X591239Y348626D01*
X591468Y348645D01*
X591697Y348670D01*
X591925Y348700D01*
X592152Y348735D01*
X592378Y348776D01*
X592603Y348822D01*
X592827Y348874D01*
X593050Y348931D01*
X593271Y348993D01*
X593491Y349061D01*
X593709Y349134D01*
X593925Y349212D01*
X594139Y349295D01*
X594351Y349383D01*
X594562Y349476D01*
X594769Y349575D01*
X594769Y349574D02*
X594859Y349607D01*
X594948Y349643D01*
X595036Y349684D01*
X595121Y349727D01*
X595205Y349774D01*
X595287Y349824D01*
X595367Y349878D01*
X595444Y349934D01*
X595520Y349994D01*
X595593Y350057D01*
X595663Y350122D01*
X595731Y350191D01*
X595795Y350262D01*
X595857Y350335D01*
X595916Y350411D01*
X595972Y350489D01*
X596025Y350570D01*
X596074Y350652D01*
X596120Y350736D01*
X596163Y350823D01*
X596202Y350910D01*
X596238Y351000D01*
X596270Y351090D01*
X596298Y351182D01*
X596323Y351275D01*
X596344Y351369D01*
X596361Y351463D01*
X596375Y351558D01*
X596384Y351654D01*
X596390Y351750D01*
X596392Y351846D01*
X594769Y354118D02*
X594562Y354217D01*
X594351Y354310D01*
X594139Y354398D01*
X593925Y354481D01*
X593709Y354559D01*
X593491Y354632D01*
X593271Y354700D01*
X593050Y354762D01*
X592827Y354819D01*
X592603Y354871D01*
X592378Y354917D01*
X592152Y354958D01*
X591925Y354993D01*
X591697Y355023D01*
X591468Y355048D01*
X591239Y355067D01*
X591010Y355081D01*
X590780Y355089D01*
X590550Y355092D01*
X594769Y354118D02*
X594859Y354085D01*
X594948Y354049D01*
X595036Y354009D01*
X595121Y353965D01*
X595205Y353918D01*
X595287Y353868D01*
X595367Y353814D01*
X595444Y353758D01*
X595520Y353698D01*
X595593Y353635D01*
X595663Y353570D01*
X595731Y353501D01*
X595795Y353430D01*
X595857Y353357D01*
X595916Y353281D01*
X595972Y353203D01*
X596025Y353122D01*
X596074Y353040D01*
X596120Y352956D01*
X596163Y352869D01*
X596202Y352782D01*
X596238Y352692D01*
X596270Y352602D01*
X596298Y352510D01*
X596323Y352417D01*
X596344Y352323D01*
X596361Y352229D01*
X596375Y352134D01*
X596384Y352038D01*
X596390Y351942D01*
X596392Y351846D01*
X593796Y349250D02*
X587304Y354443D01*
D14*
X161975Y320115D02*
X160602Y320115D01*
X160602Y320116D02*
X160597Y320199D01*
X160588Y320283D01*
X160575Y320365D01*
X160559Y320447D01*
X160539Y320528D01*
X160515Y320609D01*
X160487Y320688D01*
X160456Y320765D01*
X160422Y320841D01*
X160384Y320916D01*
X160343Y320989D01*
X160298Y321060D01*
X160251Y321129D01*
X160200Y321195D01*
X160147Y321259D01*
X160090Y321321D01*
X160031Y321380D01*
X159969Y321437D01*
X159905Y321490D01*
X159839Y321541D01*
X159770Y321588D01*
X159699Y321633D01*
X159626Y321674D01*
X159551Y321712D01*
X159475Y321746D01*
X159398Y321777D01*
X159319Y321805D01*
X159238Y321829D01*
X159157Y321849D01*
X159075Y321865D01*
X158993Y321878D01*
X158909Y321887D01*
X158826Y321892D01*
X158825Y323265D01*
X158826Y323265D01*
X158938Y323261D01*
X159049Y323252D01*
X159160Y323240D01*
X159271Y323224D01*
X159380Y323204D01*
X159490Y323180D01*
X159598Y323153D01*
X159705Y323121D01*
X159811Y323086D01*
X159916Y323048D01*
X160020Y323006D01*
X160121Y322960D01*
X160222Y322911D01*
X160320Y322858D01*
X160417Y322802D01*
X160512Y322743D01*
X160604Y322680D01*
X160694Y322614D01*
X160782Y322545D01*
X160868Y322474D01*
X160951Y322399D01*
X161031Y322321D01*
X161109Y322241D01*
X161184Y322158D01*
X161255Y322072D01*
X161324Y321984D01*
X161390Y321894D01*
X161453Y321802D01*
X161512Y321707D01*
X161568Y321610D01*
X161621Y321512D01*
X161670Y321411D01*
X161716Y321310D01*
X161758Y321206D01*
X161796Y321101D01*
X161831Y320995D01*
X161863Y320888D01*
X161890Y320780D01*
X161914Y320670D01*
X161934Y320561D01*
X161950Y320450D01*
X161962Y320339D01*
X161971Y320228D01*
X161975Y320116D01*
X161832Y320116D01*
X161827Y320225D01*
X161819Y320334D01*
X161807Y320442D01*
X161791Y320550D01*
X161771Y320657D01*
X161747Y320764D01*
X161719Y320869D01*
X161688Y320974D01*
X161653Y321077D01*
X161615Y321179D01*
X161573Y321280D01*
X161527Y321379D01*
X161478Y321476D01*
X161425Y321572D01*
X161370Y321666D01*
X161310Y321757D01*
X161248Y321847D01*
X161183Y321934D01*
X161114Y322019D01*
X161043Y322101D01*
X160968Y322181D01*
X160891Y322258D01*
X160811Y322333D01*
X160729Y322404D01*
X160644Y322473D01*
X160557Y322538D01*
X160467Y322600D01*
X160376Y322660D01*
X160282Y322715D01*
X160186Y322768D01*
X160089Y322817D01*
X159990Y322863D01*
X159889Y322905D01*
X159787Y322943D01*
X159684Y322978D01*
X159579Y323009D01*
X159474Y323037D01*
X159367Y323061D01*
X159260Y323081D01*
X159152Y323097D01*
X159044Y323109D01*
X158935Y323117D01*
X158826Y323122D01*
X158826Y322979D01*
X158932Y322974D01*
X159038Y322966D01*
X159144Y322954D01*
X159249Y322937D01*
X159353Y322917D01*
X159457Y322894D01*
X159560Y322866D01*
X159661Y322835D01*
X159762Y322800D01*
X159861Y322762D01*
X159959Y322720D01*
X160055Y322675D01*
X160149Y322626D01*
X160242Y322573D01*
X160333Y322518D01*
X160421Y322459D01*
X160507Y322397D01*
X160592Y322332D01*
X160673Y322264D01*
X160752Y322193D01*
X160829Y322119D01*
X160903Y322042D01*
X160974Y321963D01*
X161042Y321882D01*
X161107Y321797D01*
X161169Y321711D01*
X161228Y321623D01*
X161283Y321532D01*
X161336Y321439D01*
X161385Y321345D01*
X161430Y321249D01*
X161472Y321151D01*
X161510Y321052D01*
X161545Y320951D01*
X161576Y320850D01*
X161604Y320747D01*
X161627Y320643D01*
X161647Y320539D01*
X161664Y320434D01*
X161676Y320328D01*
X161684Y320222D01*
X161689Y320116D01*
X161546Y320116D01*
X161541Y320219D01*
X161533Y320322D01*
X161520Y320425D01*
X161504Y320527D01*
X161484Y320629D01*
X161461Y320730D01*
X161433Y320829D01*
X161402Y320928D01*
X161368Y321025D01*
X161329Y321122D01*
X161288Y321216D01*
X161242Y321309D01*
X161194Y321401D01*
X161142Y321490D01*
X161087Y321577D01*
X161028Y321663D01*
X160967Y321746D01*
X160902Y321827D01*
X160834Y321905D01*
X160764Y321981D01*
X160691Y322054D01*
X160615Y322124D01*
X160537Y322192D01*
X160456Y322257D01*
X160373Y322318D01*
X160287Y322377D01*
X160200Y322432D01*
X160111Y322484D01*
X160019Y322532D01*
X159926Y322578D01*
X159832Y322619D01*
X159735Y322658D01*
X159638Y322692D01*
X159539Y322723D01*
X159440Y322751D01*
X159339Y322774D01*
X159237Y322794D01*
X159135Y322810D01*
X159032Y322823D01*
X158929Y322831D01*
X158826Y322836D01*
X158826Y322693D01*
X158926Y322688D01*
X159026Y322680D01*
X159126Y322667D01*
X159225Y322651D01*
X159324Y322631D01*
X159421Y322608D01*
X159518Y322581D01*
X159613Y322550D01*
X159708Y322515D01*
X159801Y322477D01*
X159892Y322436D01*
X159982Y322391D01*
X160070Y322342D01*
X160156Y322291D01*
X160240Y322236D01*
X160322Y322178D01*
X160402Y322117D01*
X160479Y322053D01*
X160554Y321986D01*
X160627Y321917D01*
X160696Y321844D01*
X160763Y321769D01*
X160827Y321692D01*
X160888Y321612D01*
X160946Y321530D01*
X161001Y321446D01*
X161052Y321360D01*
X161101Y321272D01*
X161146Y321182D01*
X161187Y321091D01*
X161225Y320998D01*
X161260Y320903D01*
X161291Y320808D01*
X161318Y320711D01*
X161341Y320614D01*
X161361Y320515D01*
X161377Y320416D01*
X161390Y320316D01*
X161398Y320216D01*
X161403Y320116D01*
X161260Y320116D01*
X161255Y320216D01*
X161246Y320315D01*
X161233Y320414D01*
X161216Y320512D01*
X161195Y320610D01*
X161171Y320707D01*
X161142Y320802D01*
X161110Y320897D01*
X161074Y320990D01*
X161035Y321082D01*
X160992Y321171D01*
X160945Y321260D01*
X160895Y321346D01*
X160841Y321430D01*
X160784Y321512D01*
X160724Y321592D01*
X160661Y321669D01*
X160595Y321744D01*
X160526Y321816D01*
X160454Y321885D01*
X160379Y321951D01*
X160302Y322014D01*
X160222Y322074D01*
X160140Y322131D01*
X160056Y322185D01*
X159970Y322235D01*
X159881Y322282D01*
X159792Y322325D01*
X159700Y322364D01*
X159607Y322400D01*
X159512Y322432D01*
X159417Y322461D01*
X159320Y322485D01*
X159222Y322506D01*
X159124Y322523D01*
X159025Y322536D01*
X158926Y322545D01*
X158826Y322550D01*
X158826Y322407D01*
X158922Y322402D01*
X159018Y322393D01*
X159114Y322380D01*
X159209Y322363D01*
X159303Y322343D01*
X159396Y322318D01*
X159488Y322290D01*
X159579Y322258D01*
X159669Y322222D01*
X159757Y322183D01*
X159844Y322140D01*
X159928Y322094D01*
X160011Y322044D01*
X160091Y321991D01*
X160170Y321935D01*
X160246Y321876D01*
X160319Y321814D01*
X160390Y321748D01*
X160458Y321680D01*
X160524Y321609D01*
X160586Y321536D01*
X160645Y321460D01*
X160701Y321381D01*
X160754Y321301D01*
X160804Y321218D01*
X160850Y321134D01*
X160893Y321047D01*
X160932Y320959D01*
X160968Y320869D01*
X161000Y320778D01*
X161028Y320686D01*
X161053Y320593D01*
X161073Y320499D01*
X161090Y320404D01*
X161103Y320308D01*
X161112Y320212D01*
X161117Y320116D01*
X160974Y320116D01*
X160969Y320209D01*
X160960Y320301D01*
X160947Y320393D01*
X160930Y320484D01*
X160910Y320575D01*
X160886Y320665D01*
X160858Y320753D01*
X160826Y320841D01*
X160791Y320926D01*
X160752Y321011D01*
X160710Y321094D01*
X160664Y321174D01*
X160615Y321253D01*
X160563Y321330D01*
X160507Y321405D01*
X160449Y321477D01*
X160388Y321546D01*
X160323Y321613D01*
X160256Y321678D01*
X160187Y321739D01*
X160115Y321797D01*
X160040Y321853D01*
X159963Y321905D01*
X159884Y321954D01*
X159804Y322000D01*
X159721Y322042D01*
X159636Y322081D01*
X159551Y322116D01*
X159463Y322148D01*
X159375Y322176D01*
X159285Y322200D01*
X159194Y322220D01*
X159103Y322237D01*
X159011Y322250D01*
X158919Y322259D01*
X158826Y322264D01*
X158826Y322121D01*
X158915Y322115D01*
X159004Y322107D01*
X159092Y322094D01*
X159179Y322077D01*
X159266Y322057D01*
X159352Y322033D01*
X159437Y322006D01*
X159520Y321974D01*
X159602Y321940D01*
X159683Y321901D01*
X159761Y321860D01*
X159838Y321815D01*
X159913Y321767D01*
X159986Y321715D01*
X160057Y321661D01*
X160125Y321604D01*
X160190Y321543D01*
X160253Y321480D01*
X160314Y321415D01*
X160371Y321347D01*
X160425Y321276D01*
X160477Y321203D01*
X160525Y321128D01*
X160570Y321051D01*
X160611Y320973D01*
X160650Y320892D01*
X160684Y320810D01*
X160716Y320727D01*
X160743Y320642D01*
X160767Y320556D01*
X160787Y320469D01*
X160804Y320382D01*
X160817Y320294D01*
X160825Y320205D01*
X160831Y320116D01*
X160688Y320116D01*
X160682Y320201D01*
X160673Y320286D01*
X160661Y320370D01*
X160644Y320453D01*
X160624Y320536D01*
X160601Y320618D01*
X160574Y320698D01*
X160543Y320778D01*
X160509Y320856D01*
X160472Y320932D01*
X160431Y321007D01*
X160387Y321080D01*
X160339Y321151D01*
X160289Y321219D01*
X160236Y321286D01*
X160180Y321350D01*
X160121Y321411D01*
X160060Y321470D01*
X159996Y321526D01*
X159929Y321579D01*
X159861Y321629D01*
X159790Y321677D01*
X159717Y321721D01*
X159642Y321762D01*
X159566Y321799D01*
X159488Y321833D01*
X159408Y321864D01*
X159328Y321891D01*
X159246Y321914D01*
X159163Y321934D01*
X159080Y321951D01*
X158996Y321963D01*
X158911Y321972D01*
X158826Y321978D01*
X145975Y323265D02*
X145975Y321892D01*
X145974Y321892D02*
X145891Y321887D01*
X145807Y321878D01*
X145725Y321865D01*
X145643Y321849D01*
X145562Y321829D01*
X145481Y321805D01*
X145402Y321777D01*
X145325Y321746D01*
X145249Y321712D01*
X145174Y321674D01*
X145101Y321633D01*
X145030Y321588D01*
X144961Y321541D01*
X144895Y321490D01*
X144831Y321437D01*
X144769Y321380D01*
X144710Y321321D01*
X144653Y321259D01*
X144600Y321195D01*
X144549Y321129D01*
X144502Y321060D01*
X144457Y320989D01*
X144416Y320916D01*
X144378Y320841D01*
X144344Y320765D01*
X144313Y320688D01*
X144285Y320609D01*
X144261Y320528D01*
X144241Y320447D01*
X144225Y320365D01*
X144212Y320283D01*
X144203Y320199D01*
X144198Y320116D01*
X142825Y320115D01*
X142825Y320116D01*
X142829Y320228D01*
X142838Y320339D01*
X142850Y320450D01*
X142866Y320561D01*
X142886Y320670D01*
X142910Y320780D01*
X142937Y320888D01*
X142969Y320995D01*
X143004Y321101D01*
X143042Y321206D01*
X143084Y321310D01*
X143130Y321411D01*
X143179Y321512D01*
X143232Y321610D01*
X143288Y321707D01*
X143347Y321802D01*
X143410Y321894D01*
X143476Y321984D01*
X143545Y322072D01*
X143616Y322158D01*
X143691Y322241D01*
X143769Y322321D01*
X143849Y322399D01*
X143932Y322474D01*
X144018Y322545D01*
X144106Y322614D01*
X144196Y322680D01*
X144288Y322743D01*
X144383Y322802D01*
X144480Y322858D01*
X144578Y322911D01*
X144679Y322960D01*
X144780Y323006D01*
X144884Y323048D01*
X144989Y323086D01*
X145095Y323121D01*
X145202Y323153D01*
X145310Y323180D01*
X145420Y323204D01*
X145529Y323224D01*
X145640Y323240D01*
X145751Y323252D01*
X145862Y323261D01*
X145974Y323265D01*
X145974Y323122D01*
X145865Y323117D01*
X145756Y323109D01*
X145648Y323097D01*
X145540Y323081D01*
X145433Y323061D01*
X145326Y323037D01*
X145221Y323009D01*
X145116Y322978D01*
X145013Y322943D01*
X144911Y322905D01*
X144810Y322863D01*
X144711Y322817D01*
X144614Y322768D01*
X144518Y322715D01*
X144424Y322660D01*
X144333Y322600D01*
X144243Y322538D01*
X144156Y322473D01*
X144071Y322404D01*
X143989Y322333D01*
X143909Y322258D01*
X143832Y322181D01*
X143757Y322101D01*
X143686Y322019D01*
X143617Y321934D01*
X143552Y321847D01*
X143490Y321757D01*
X143430Y321666D01*
X143375Y321572D01*
X143322Y321476D01*
X143273Y321379D01*
X143227Y321280D01*
X143185Y321179D01*
X143147Y321077D01*
X143112Y320974D01*
X143081Y320869D01*
X143053Y320764D01*
X143029Y320657D01*
X143009Y320550D01*
X142993Y320442D01*
X142981Y320334D01*
X142973Y320225D01*
X142968Y320116D01*
X143111Y320116D01*
X143116Y320222D01*
X143124Y320328D01*
X143136Y320434D01*
X143153Y320539D01*
X143173Y320643D01*
X143196Y320747D01*
X143224Y320850D01*
X143255Y320951D01*
X143290Y321052D01*
X143328Y321151D01*
X143370Y321249D01*
X143415Y321345D01*
X143464Y321439D01*
X143517Y321532D01*
X143572Y321623D01*
X143631Y321711D01*
X143693Y321797D01*
X143758Y321882D01*
X143826Y321963D01*
X143897Y322042D01*
X143971Y322119D01*
X144048Y322193D01*
X144127Y322264D01*
X144208Y322332D01*
X144293Y322397D01*
X144379Y322459D01*
X144467Y322518D01*
X144558Y322573D01*
X144651Y322626D01*
X144745Y322675D01*
X144841Y322720D01*
X144939Y322762D01*
X145038Y322800D01*
X145139Y322835D01*
X145240Y322866D01*
X145343Y322894D01*
X145447Y322917D01*
X145551Y322937D01*
X145656Y322954D01*
X145762Y322966D01*
X145868Y322974D01*
X145974Y322979D01*
X145974Y322836D01*
X145871Y322831D01*
X145768Y322823D01*
X145665Y322810D01*
X145563Y322794D01*
X145461Y322774D01*
X145360Y322751D01*
X145261Y322723D01*
X145162Y322692D01*
X145065Y322658D01*
X144968Y322619D01*
X144874Y322578D01*
X144781Y322532D01*
X144689Y322484D01*
X144600Y322432D01*
X144513Y322377D01*
X144427Y322318D01*
X144344Y322257D01*
X144263Y322192D01*
X144185Y322124D01*
X144109Y322054D01*
X144036Y321981D01*
X143966Y321905D01*
X143898Y321827D01*
X143833Y321746D01*
X143772Y321663D01*
X143713Y321577D01*
X143658Y321490D01*
X143606Y321401D01*
X143558Y321309D01*
X143512Y321216D01*
X143471Y321122D01*
X143432Y321025D01*
X143398Y320928D01*
X143367Y320829D01*
X143339Y320730D01*
X143316Y320629D01*
X143296Y320527D01*
X143280Y320425D01*
X143267Y320322D01*
X143259Y320219D01*
X143254Y320116D01*
X143397Y320116D01*
X143402Y320216D01*
X143410Y320316D01*
X143423Y320416D01*
X143439Y320515D01*
X143459Y320614D01*
X143482Y320711D01*
X143509Y320808D01*
X143540Y320903D01*
X143575Y320998D01*
X143613Y321091D01*
X143654Y321182D01*
X143699Y321272D01*
X143748Y321360D01*
X143799Y321446D01*
X143854Y321530D01*
X143912Y321612D01*
X143973Y321692D01*
X144037Y321769D01*
X144104Y321844D01*
X144173Y321917D01*
X144246Y321986D01*
X144321Y322053D01*
X144398Y322117D01*
X144478Y322178D01*
X144560Y322236D01*
X144644Y322291D01*
X144730Y322342D01*
X144818Y322391D01*
X144908Y322436D01*
X144999Y322477D01*
X145092Y322515D01*
X145187Y322550D01*
X145282Y322581D01*
X145379Y322608D01*
X145476Y322631D01*
X145575Y322651D01*
X145674Y322667D01*
X145774Y322680D01*
X145874Y322688D01*
X145974Y322693D01*
X145974Y322550D01*
X145874Y322545D01*
X145775Y322536D01*
X145676Y322523D01*
X145578Y322506D01*
X145480Y322485D01*
X145383Y322461D01*
X145288Y322432D01*
X145193Y322400D01*
X145100Y322364D01*
X145008Y322325D01*
X144919Y322282D01*
X144830Y322235D01*
X144744Y322185D01*
X144660Y322131D01*
X144578Y322074D01*
X144498Y322014D01*
X144421Y321951D01*
X144346Y321885D01*
X144274Y321816D01*
X144205Y321744D01*
X144139Y321669D01*
X144076Y321592D01*
X144016Y321512D01*
X143959Y321430D01*
X143905Y321346D01*
X143855Y321260D01*
X143808Y321171D01*
X143765Y321082D01*
X143726Y320990D01*
X143690Y320897D01*
X143658Y320802D01*
X143629Y320707D01*
X143605Y320610D01*
X143584Y320512D01*
X143567Y320414D01*
X143554Y320315D01*
X143545Y320216D01*
X143540Y320116D01*
X143683Y320116D01*
X143688Y320212D01*
X143697Y320308D01*
X143710Y320404D01*
X143727Y320499D01*
X143747Y320593D01*
X143772Y320686D01*
X143800Y320778D01*
X143832Y320869D01*
X143868Y320959D01*
X143907Y321047D01*
X143950Y321134D01*
X143996Y321218D01*
X144046Y321301D01*
X144099Y321381D01*
X144155Y321460D01*
X144214Y321536D01*
X144276Y321609D01*
X144342Y321680D01*
X144410Y321748D01*
X144481Y321814D01*
X144554Y321876D01*
X144630Y321935D01*
X144709Y321991D01*
X144789Y322044D01*
X144872Y322094D01*
X144956Y322140D01*
X145043Y322183D01*
X145131Y322222D01*
X145221Y322258D01*
X145312Y322290D01*
X145404Y322318D01*
X145497Y322343D01*
X145591Y322363D01*
X145686Y322380D01*
X145782Y322393D01*
X145878Y322402D01*
X145974Y322407D01*
X145974Y322264D01*
X145881Y322259D01*
X145789Y322250D01*
X145697Y322237D01*
X145606Y322220D01*
X145515Y322200D01*
X145425Y322176D01*
X145337Y322148D01*
X145249Y322116D01*
X145164Y322081D01*
X145079Y322042D01*
X144996Y322000D01*
X144916Y321954D01*
X144837Y321905D01*
X144760Y321853D01*
X144685Y321797D01*
X144613Y321739D01*
X144544Y321678D01*
X144477Y321613D01*
X144412Y321546D01*
X144351Y321477D01*
X144293Y321405D01*
X144237Y321330D01*
X144185Y321253D01*
X144136Y321174D01*
X144090Y321094D01*
X144048Y321011D01*
X144009Y320926D01*
X143974Y320841D01*
X143942Y320753D01*
X143914Y320665D01*
X143890Y320575D01*
X143870Y320484D01*
X143853Y320393D01*
X143840Y320301D01*
X143831Y320209D01*
X143826Y320116D01*
X143969Y320116D01*
X143975Y320205D01*
X143983Y320294D01*
X143996Y320382D01*
X144013Y320469D01*
X144033Y320556D01*
X144057Y320642D01*
X144084Y320727D01*
X144116Y320810D01*
X144150Y320892D01*
X144189Y320973D01*
X144230Y321051D01*
X144275Y321128D01*
X144323Y321203D01*
X144375Y321276D01*
X144429Y321347D01*
X144486Y321415D01*
X144547Y321480D01*
X144610Y321543D01*
X144675Y321604D01*
X144743Y321661D01*
X144814Y321715D01*
X144887Y321767D01*
X144962Y321815D01*
X145039Y321860D01*
X145117Y321901D01*
X145198Y321940D01*
X145280Y321974D01*
X145363Y322006D01*
X145448Y322033D01*
X145534Y322057D01*
X145621Y322077D01*
X145708Y322094D01*
X145796Y322107D01*
X145885Y322115D01*
X145974Y322121D01*
X145974Y321978D01*
X145889Y321972D01*
X145804Y321963D01*
X145720Y321951D01*
X145637Y321934D01*
X145554Y321914D01*
X145472Y321891D01*
X145392Y321864D01*
X145312Y321833D01*
X145234Y321799D01*
X145158Y321762D01*
X145083Y321721D01*
X145010Y321677D01*
X144939Y321629D01*
X144871Y321579D01*
X144804Y321526D01*
X144740Y321470D01*
X144679Y321411D01*
X144620Y321350D01*
X144564Y321286D01*
X144511Y321219D01*
X144461Y321151D01*
X144413Y321080D01*
X144369Y321007D01*
X144328Y320932D01*
X144291Y320856D01*
X144257Y320778D01*
X144226Y320698D01*
X144199Y320618D01*
X144176Y320536D01*
X144156Y320453D01*
X144139Y320370D01*
X144127Y320286D01*
X144118Y320201D01*
X144112Y320116D01*
X142825Y289485D02*
X144198Y289485D01*
X144198Y289484D02*
X144203Y289401D01*
X144212Y289317D01*
X144225Y289235D01*
X144241Y289153D01*
X144261Y289072D01*
X144285Y288991D01*
X144313Y288912D01*
X144344Y288835D01*
X144378Y288759D01*
X144416Y288684D01*
X144457Y288611D01*
X144502Y288540D01*
X144549Y288471D01*
X144600Y288405D01*
X144653Y288341D01*
X144710Y288279D01*
X144769Y288220D01*
X144831Y288163D01*
X144895Y288110D01*
X144961Y288059D01*
X145030Y288012D01*
X145101Y287967D01*
X145174Y287926D01*
X145249Y287888D01*
X145325Y287854D01*
X145402Y287823D01*
X145481Y287795D01*
X145562Y287771D01*
X145643Y287751D01*
X145725Y287735D01*
X145807Y287722D01*
X145891Y287713D01*
X145974Y287708D01*
X145975Y286335D01*
X145974Y286335D01*
X145862Y286339D01*
X145751Y286348D01*
X145640Y286360D01*
X145529Y286376D01*
X145420Y286396D01*
X145310Y286420D01*
X145202Y286447D01*
X145095Y286479D01*
X144989Y286514D01*
X144884Y286552D01*
X144780Y286594D01*
X144679Y286640D01*
X144578Y286689D01*
X144480Y286742D01*
X144383Y286798D01*
X144288Y286857D01*
X144196Y286920D01*
X144106Y286986D01*
X144018Y287055D01*
X143932Y287126D01*
X143849Y287201D01*
X143769Y287279D01*
X143691Y287359D01*
X143616Y287442D01*
X143545Y287528D01*
X143476Y287616D01*
X143410Y287706D01*
X143347Y287798D01*
X143288Y287893D01*
X143232Y287990D01*
X143179Y288088D01*
X143130Y288189D01*
X143084Y288290D01*
X143042Y288394D01*
X143004Y288499D01*
X142969Y288605D01*
X142937Y288712D01*
X142910Y288820D01*
X142886Y288930D01*
X142866Y289039D01*
X142850Y289150D01*
X142838Y289261D01*
X142829Y289372D01*
X142825Y289484D01*
X142968Y289484D01*
X142973Y289375D01*
X142981Y289266D01*
X142993Y289158D01*
X143009Y289050D01*
X143029Y288943D01*
X143053Y288836D01*
X143081Y288731D01*
X143112Y288626D01*
X143147Y288523D01*
X143185Y288421D01*
X143227Y288320D01*
X143273Y288221D01*
X143322Y288124D01*
X143375Y288028D01*
X143430Y287934D01*
X143490Y287843D01*
X143552Y287753D01*
X143617Y287666D01*
X143686Y287581D01*
X143757Y287499D01*
X143832Y287419D01*
X143909Y287342D01*
X143989Y287267D01*
X144071Y287196D01*
X144156Y287127D01*
X144243Y287062D01*
X144333Y287000D01*
X144424Y286940D01*
X144518Y286885D01*
X144614Y286832D01*
X144711Y286783D01*
X144810Y286737D01*
X144911Y286695D01*
X145013Y286657D01*
X145116Y286622D01*
X145221Y286591D01*
X145326Y286563D01*
X145433Y286539D01*
X145540Y286519D01*
X145648Y286503D01*
X145756Y286491D01*
X145865Y286483D01*
X145974Y286478D01*
X145974Y286621D01*
X145868Y286626D01*
X145762Y286634D01*
X145656Y286646D01*
X145551Y286663D01*
X145447Y286683D01*
X145343Y286706D01*
X145240Y286734D01*
X145139Y286765D01*
X145038Y286800D01*
X144939Y286838D01*
X144841Y286880D01*
X144745Y286925D01*
X144651Y286974D01*
X144558Y287027D01*
X144467Y287082D01*
X144379Y287141D01*
X144293Y287203D01*
X144208Y287268D01*
X144127Y287336D01*
X144048Y287407D01*
X143971Y287481D01*
X143897Y287558D01*
X143826Y287637D01*
X143758Y287718D01*
X143693Y287803D01*
X143631Y287889D01*
X143572Y287977D01*
X143517Y288068D01*
X143464Y288161D01*
X143415Y288255D01*
X143370Y288351D01*
X143328Y288449D01*
X143290Y288548D01*
X143255Y288649D01*
X143224Y288750D01*
X143196Y288853D01*
X143173Y288957D01*
X143153Y289061D01*
X143136Y289166D01*
X143124Y289272D01*
X143116Y289378D01*
X143111Y289484D01*
X143254Y289484D01*
X143259Y289381D01*
X143267Y289278D01*
X143280Y289175D01*
X143296Y289073D01*
X143316Y288971D01*
X143339Y288870D01*
X143367Y288771D01*
X143398Y288672D01*
X143432Y288575D01*
X143471Y288478D01*
X143512Y288384D01*
X143558Y288291D01*
X143606Y288199D01*
X143658Y288110D01*
X143713Y288023D01*
X143772Y287937D01*
X143833Y287854D01*
X143898Y287773D01*
X143966Y287695D01*
X144036Y287619D01*
X144109Y287546D01*
X144185Y287476D01*
X144263Y287408D01*
X144344Y287343D01*
X144427Y287282D01*
X144513Y287223D01*
X144600Y287168D01*
X144689Y287116D01*
X144781Y287068D01*
X144874Y287022D01*
X144968Y286981D01*
X145065Y286942D01*
X145162Y286908D01*
X145261Y286877D01*
X145360Y286849D01*
X145461Y286826D01*
X145563Y286806D01*
X145665Y286790D01*
X145768Y286777D01*
X145871Y286769D01*
X145974Y286764D01*
X145974Y286907D01*
X145874Y286912D01*
X145774Y286920D01*
X145674Y286933D01*
X145575Y286949D01*
X145476Y286969D01*
X145379Y286992D01*
X145282Y287019D01*
X145187Y287050D01*
X145092Y287085D01*
X144999Y287123D01*
X144908Y287164D01*
X144818Y287209D01*
X144730Y287258D01*
X144644Y287309D01*
X144560Y287364D01*
X144478Y287422D01*
X144398Y287483D01*
X144321Y287547D01*
X144246Y287614D01*
X144173Y287683D01*
X144104Y287756D01*
X144037Y287831D01*
X143973Y287908D01*
X143912Y287988D01*
X143854Y288070D01*
X143799Y288154D01*
X143748Y288240D01*
X143699Y288328D01*
X143654Y288418D01*
X143613Y288509D01*
X143575Y288602D01*
X143540Y288697D01*
X143509Y288792D01*
X143482Y288889D01*
X143459Y288986D01*
X143439Y289085D01*
X143423Y289184D01*
X143410Y289284D01*
X143402Y289384D01*
X143397Y289484D01*
X143540Y289484D01*
X143545Y289384D01*
X143554Y289285D01*
X143567Y289186D01*
X143584Y289088D01*
X143605Y288990D01*
X143629Y288893D01*
X143658Y288798D01*
X143690Y288703D01*
X143726Y288610D01*
X143765Y288518D01*
X143808Y288429D01*
X143855Y288340D01*
X143905Y288254D01*
X143959Y288170D01*
X144016Y288088D01*
X144076Y288008D01*
X144139Y287931D01*
X144205Y287856D01*
X144274Y287784D01*
X144346Y287715D01*
X144421Y287649D01*
X144498Y287586D01*
X144578Y287526D01*
X144660Y287469D01*
X144744Y287415D01*
X144830Y287365D01*
X144919Y287318D01*
X145008Y287275D01*
X145100Y287236D01*
X145193Y287200D01*
X145288Y287168D01*
X145383Y287139D01*
X145480Y287115D01*
X145578Y287094D01*
X145676Y287077D01*
X145775Y287064D01*
X145874Y287055D01*
X145974Y287050D01*
X145974Y287193D01*
X145878Y287198D01*
X145782Y287207D01*
X145686Y287220D01*
X145591Y287237D01*
X145497Y287257D01*
X145404Y287282D01*
X145312Y287310D01*
X145221Y287342D01*
X145131Y287378D01*
X145043Y287417D01*
X144956Y287460D01*
X144872Y287506D01*
X144789Y287556D01*
X144709Y287609D01*
X144630Y287665D01*
X144554Y287724D01*
X144481Y287786D01*
X144410Y287852D01*
X144342Y287920D01*
X144276Y287991D01*
X144214Y288064D01*
X144155Y288140D01*
X144099Y288219D01*
X144046Y288299D01*
X143996Y288382D01*
X143950Y288466D01*
X143907Y288553D01*
X143868Y288641D01*
X143832Y288731D01*
X143800Y288822D01*
X143772Y288914D01*
X143747Y289007D01*
X143727Y289101D01*
X143710Y289196D01*
X143697Y289292D01*
X143688Y289388D01*
X143683Y289484D01*
X143826Y289484D01*
X143831Y289391D01*
X143840Y289299D01*
X143853Y289207D01*
X143870Y289116D01*
X143890Y289025D01*
X143914Y288935D01*
X143942Y288847D01*
X143974Y288759D01*
X144009Y288674D01*
X144048Y288589D01*
X144090Y288506D01*
X144136Y288426D01*
X144185Y288347D01*
X144237Y288270D01*
X144293Y288195D01*
X144351Y288123D01*
X144412Y288054D01*
X144477Y287987D01*
X144544Y287922D01*
X144613Y287861D01*
X144685Y287803D01*
X144760Y287747D01*
X144837Y287695D01*
X144916Y287646D01*
X144996Y287600D01*
X145079Y287558D01*
X145164Y287519D01*
X145249Y287484D01*
X145337Y287452D01*
X145425Y287424D01*
X145515Y287400D01*
X145606Y287380D01*
X145697Y287363D01*
X145789Y287350D01*
X145881Y287341D01*
X145974Y287336D01*
X145974Y287479D01*
X145885Y287485D01*
X145796Y287493D01*
X145708Y287506D01*
X145621Y287523D01*
X145534Y287543D01*
X145448Y287567D01*
X145363Y287594D01*
X145280Y287626D01*
X145198Y287660D01*
X145117Y287699D01*
X145039Y287740D01*
X144962Y287785D01*
X144887Y287833D01*
X144814Y287885D01*
X144743Y287939D01*
X144675Y287996D01*
X144610Y288057D01*
X144547Y288120D01*
X144486Y288185D01*
X144429Y288253D01*
X144375Y288324D01*
X144323Y288397D01*
X144275Y288472D01*
X144230Y288549D01*
X144189Y288627D01*
X144150Y288708D01*
X144116Y288790D01*
X144084Y288873D01*
X144057Y288958D01*
X144033Y289044D01*
X144013Y289131D01*
X143996Y289218D01*
X143983Y289306D01*
X143975Y289395D01*
X143969Y289484D01*
X144112Y289484D01*
X144118Y289399D01*
X144127Y289314D01*
X144139Y289230D01*
X144156Y289147D01*
X144176Y289064D01*
X144199Y288982D01*
X144226Y288902D01*
X144257Y288822D01*
X144291Y288744D01*
X144328Y288668D01*
X144369Y288593D01*
X144413Y288520D01*
X144461Y288449D01*
X144511Y288381D01*
X144564Y288314D01*
X144620Y288250D01*
X144679Y288189D01*
X144740Y288130D01*
X144804Y288074D01*
X144871Y288021D01*
X144939Y287971D01*
X145010Y287923D01*
X145083Y287879D01*
X145158Y287838D01*
X145234Y287801D01*
X145312Y287767D01*
X145392Y287736D01*
X145472Y287709D01*
X145554Y287686D01*
X145637Y287666D01*
X145720Y287649D01*
X145804Y287637D01*
X145889Y287628D01*
X145974Y287622D01*
X158825Y286335D02*
X158825Y287708D01*
X158826Y287708D02*
X158909Y287713D01*
X158993Y287722D01*
X159075Y287735D01*
X159157Y287751D01*
X159238Y287771D01*
X159319Y287795D01*
X159398Y287823D01*
X159475Y287854D01*
X159551Y287888D01*
X159626Y287926D01*
X159699Y287967D01*
X159770Y288012D01*
X159839Y288059D01*
X159905Y288110D01*
X159969Y288163D01*
X160031Y288220D01*
X160090Y288279D01*
X160147Y288341D01*
X160200Y288405D01*
X160251Y288471D01*
X160298Y288540D01*
X160343Y288611D01*
X160384Y288684D01*
X160422Y288759D01*
X160456Y288835D01*
X160487Y288912D01*
X160515Y288991D01*
X160539Y289072D01*
X160559Y289153D01*
X160575Y289235D01*
X160588Y289317D01*
X160597Y289401D01*
X160602Y289484D01*
X161975Y289485D01*
X161975Y289484D01*
X161971Y289372D01*
X161962Y289261D01*
X161950Y289150D01*
X161934Y289039D01*
X161914Y288930D01*
X161890Y288820D01*
X161863Y288712D01*
X161831Y288605D01*
X161796Y288499D01*
X161758Y288394D01*
X161716Y288290D01*
X161670Y288189D01*
X161621Y288088D01*
X161568Y287990D01*
X161512Y287893D01*
X161453Y287798D01*
X161390Y287706D01*
X161324Y287616D01*
X161255Y287528D01*
X161184Y287442D01*
X161109Y287359D01*
X161031Y287279D01*
X160951Y287201D01*
X160868Y287126D01*
X160782Y287055D01*
X160694Y286986D01*
X160604Y286920D01*
X160512Y286857D01*
X160417Y286798D01*
X160320Y286742D01*
X160222Y286689D01*
X160121Y286640D01*
X160020Y286594D01*
X159916Y286552D01*
X159811Y286514D01*
X159705Y286479D01*
X159598Y286447D01*
X159490Y286420D01*
X159380Y286396D01*
X159271Y286376D01*
X159160Y286360D01*
X159049Y286348D01*
X158938Y286339D01*
X158826Y286335D01*
X158826Y286478D01*
X158935Y286483D01*
X159044Y286491D01*
X159152Y286503D01*
X159260Y286519D01*
X159367Y286539D01*
X159474Y286563D01*
X159579Y286591D01*
X159684Y286622D01*
X159787Y286657D01*
X159889Y286695D01*
X159990Y286737D01*
X160089Y286783D01*
X160186Y286832D01*
X160282Y286885D01*
X160376Y286940D01*
X160467Y287000D01*
X160557Y287062D01*
X160644Y287127D01*
X160729Y287196D01*
X160811Y287267D01*
X160891Y287342D01*
X160968Y287419D01*
X161043Y287499D01*
X161114Y287581D01*
X161183Y287666D01*
X161248Y287753D01*
X161310Y287843D01*
X161370Y287934D01*
X161425Y288028D01*
X161478Y288124D01*
X161527Y288221D01*
X161573Y288320D01*
X161615Y288421D01*
X161653Y288523D01*
X161688Y288626D01*
X161719Y288731D01*
X161747Y288836D01*
X161771Y288943D01*
X161791Y289050D01*
X161807Y289158D01*
X161819Y289266D01*
X161827Y289375D01*
X161832Y289484D01*
X161689Y289484D01*
X161684Y289378D01*
X161676Y289272D01*
X161664Y289166D01*
X161647Y289061D01*
X161627Y288957D01*
X161604Y288853D01*
X161576Y288750D01*
X161545Y288649D01*
X161510Y288548D01*
X161472Y288449D01*
X161430Y288351D01*
X161385Y288255D01*
X161336Y288161D01*
X161283Y288068D01*
X161228Y287977D01*
X161169Y287889D01*
X161107Y287803D01*
X161042Y287718D01*
X160974Y287637D01*
X160903Y287558D01*
X160829Y287481D01*
X160752Y287407D01*
X160673Y287336D01*
X160592Y287268D01*
X160507Y287203D01*
X160421Y287141D01*
X160333Y287082D01*
X160242Y287027D01*
X160149Y286974D01*
X160055Y286925D01*
X159959Y286880D01*
X159861Y286838D01*
X159762Y286800D01*
X159661Y286765D01*
X159560Y286734D01*
X159457Y286706D01*
X159353Y286683D01*
X159249Y286663D01*
X159144Y286646D01*
X159038Y286634D01*
X158932Y286626D01*
X158826Y286621D01*
X158826Y286764D01*
X158929Y286769D01*
X159032Y286777D01*
X159135Y286790D01*
X159237Y286806D01*
X159339Y286826D01*
X159440Y286849D01*
X159539Y286877D01*
X159638Y286908D01*
X159735Y286942D01*
X159832Y286981D01*
X159926Y287022D01*
X160019Y287068D01*
X160111Y287116D01*
X160200Y287168D01*
X160287Y287223D01*
X160373Y287282D01*
X160456Y287343D01*
X160537Y287408D01*
X160615Y287476D01*
X160691Y287546D01*
X160764Y287619D01*
X160834Y287695D01*
X160902Y287773D01*
X160967Y287854D01*
X161028Y287937D01*
X161087Y288023D01*
X161142Y288110D01*
X161194Y288199D01*
X161242Y288291D01*
X161288Y288384D01*
X161329Y288478D01*
X161368Y288575D01*
X161402Y288672D01*
X161433Y288771D01*
X161461Y288870D01*
X161484Y288971D01*
X161504Y289073D01*
X161520Y289175D01*
X161533Y289278D01*
X161541Y289381D01*
X161546Y289484D01*
X161403Y289484D01*
X161398Y289384D01*
X161390Y289284D01*
X161377Y289184D01*
X161361Y289085D01*
X161341Y288986D01*
X161318Y288889D01*
X161291Y288792D01*
X161260Y288697D01*
X161225Y288602D01*
X161187Y288509D01*
X161146Y288418D01*
X161101Y288328D01*
X161052Y288240D01*
X161001Y288154D01*
X160946Y288070D01*
X160888Y287988D01*
X160827Y287908D01*
X160763Y287831D01*
X160696Y287756D01*
X160627Y287683D01*
X160554Y287614D01*
X160479Y287547D01*
X160402Y287483D01*
X160322Y287422D01*
X160240Y287364D01*
X160156Y287309D01*
X160070Y287258D01*
X159982Y287209D01*
X159892Y287164D01*
X159801Y287123D01*
X159708Y287085D01*
X159613Y287050D01*
X159518Y287019D01*
X159421Y286992D01*
X159324Y286969D01*
X159225Y286949D01*
X159126Y286933D01*
X159026Y286920D01*
X158926Y286912D01*
X158826Y286907D01*
X158826Y287050D01*
X158926Y287055D01*
X159025Y287064D01*
X159124Y287077D01*
X159222Y287094D01*
X159320Y287115D01*
X159417Y287139D01*
X159512Y287168D01*
X159607Y287200D01*
X159700Y287236D01*
X159792Y287275D01*
X159881Y287318D01*
X159970Y287365D01*
X160056Y287415D01*
X160140Y287469D01*
X160222Y287526D01*
X160302Y287586D01*
X160379Y287649D01*
X160454Y287715D01*
X160526Y287784D01*
X160595Y287856D01*
X160661Y287931D01*
X160724Y288008D01*
X160784Y288088D01*
X160841Y288170D01*
X160895Y288254D01*
X160945Y288340D01*
X160992Y288429D01*
X161035Y288518D01*
X161074Y288610D01*
X161110Y288703D01*
X161142Y288798D01*
X161171Y288893D01*
X161195Y288990D01*
X161216Y289088D01*
X161233Y289186D01*
X161246Y289285D01*
X161255Y289384D01*
X161260Y289484D01*
X161117Y289484D01*
X161112Y289388D01*
X161103Y289292D01*
X161090Y289196D01*
X161073Y289101D01*
X161053Y289007D01*
X161028Y288914D01*
X161000Y288822D01*
X160968Y288731D01*
X160932Y288641D01*
X160893Y288553D01*
X160850Y288466D01*
X160804Y288382D01*
X160754Y288299D01*
X160701Y288219D01*
X160645Y288140D01*
X160586Y288064D01*
X160524Y287991D01*
X160458Y287920D01*
X160390Y287852D01*
X160319Y287786D01*
X160246Y287724D01*
X160170Y287665D01*
X160091Y287609D01*
X160011Y287556D01*
X159928Y287506D01*
X159844Y287460D01*
X159757Y287417D01*
X159669Y287378D01*
X159579Y287342D01*
X159488Y287310D01*
X159396Y287282D01*
X159303Y287257D01*
X159209Y287237D01*
X159114Y287220D01*
X159018Y287207D01*
X158922Y287198D01*
X158826Y287193D01*
X158826Y287336D01*
X158919Y287341D01*
X159011Y287350D01*
X159103Y287363D01*
X159194Y287380D01*
X159285Y287400D01*
X159375Y287424D01*
X159463Y287452D01*
X159551Y287484D01*
X159636Y287519D01*
X159721Y287558D01*
X159804Y287600D01*
X159884Y287646D01*
X159963Y287695D01*
X160040Y287747D01*
X160115Y287803D01*
X160187Y287861D01*
X160256Y287922D01*
X160323Y287987D01*
X160388Y288054D01*
X160449Y288123D01*
X160507Y288195D01*
X160563Y288270D01*
X160615Y288347D01*
X160664Y288426D01*
X160710Y288506D01*
X160752Y288589D01*
X160791Y288674D01*
X160826Y288759D01*
X160858Y288847D01*
X160886Y288935D01*
X160910Y289025D01*
X160930Y289116D01*
X160947Y289207D01*
X160960Y289299D01*
X160969Y289391D01*
X160974Y289484D01*
X160831Y289484D01*
X160825Y289395D01*
X160817Y289306D01*
X160804Y289218D01*
X160787Y289131D01*
X160767Y289044D01*
X160743Y288958D01*
X160716Y288873D01*
X160684Y288790D01*
X160650Y288708D01*
X160611Y288627D01*
X160570Y288549D01*
X160525Y288472D01*
X160477Y288397D01*
X160425Y288324D01*
X160371Y288253D01*
X160314Y288185D01*
X160253Y288120D01*
X160190Y288057D01*
X160125Y287996D01*
X160057Y287939D01*
X159986Y287885D01*
X159913Y287833D01*
X159838Y287785D01*
X159761Y287740D01*
X159683Y287699D01*
X159602Y287660D01*
X159520Y287626D01*
X159437Y287594D01*
X159352Y287567D01*
X159266Y287543D01*
X159179Y287523D01*
X159092Y287506D01*
X159004Y287493D01*
X158915Y287485D01*
X158826Y287479D01*
X158826Y287622D01*
X158911Y287628D01*
X158996Y287637D01*
X159080Y287649D01*
X159163Y287666D01*
X159246Y287686D01*
X159328Y287709D01*
X159408Y287736D01*
X159488Y287767D01*
X159566Y287801D01*
X159642Y287838D01*
X159717Y287879D01*
X159790Y287923D01*
X159861Y287971D01*
X159929Y288021D01*
X159996Y288074D01*
X160060Y288130D01*
X160121Y288189D01*
X160180Y288250D01*
X160236Y288314D01*
X160289Y288381D01*
X160339Y288449D01*
X160387Y288520D01*
X160431Y288593D01*
X160472Y288668D01*
X160509Y288744D01*
X160543Y288822D01*
X160574Y288902D01*
X160601Y288982D01*
X160624Y289064D01*
X160644Y289147D01*
X160661Y289230D01*
X160673Y289314D01*
X160682Y289399D01*
X160688Y289484D01*
D10*
X161290Y317500D02*
X161290Y320040D01*
X161290Y317500D02*
X160020Y316230D01*
X143510Y317500D02*
X143510Y320040D01*
X143510Y317500D02*
X144780Y316230D01*
X160020Y293370D02*
X161290Y292100D01*
X160020Y293370D02*
X160020Y316230D01*
X144780Y293370D02*
X143510Y292100D01*
X144780Y293370D02*
X144780Y316230D01*
X161290Y292100D02*
X161290Y289560D01*
X143510Y289560D02*
X143510Y292100D01*
D11*
X164719Y270816D02*
X173355Y270816D01*
X164719Y270816D02*
X164719Y273215D01*
X164721Y273312D01*
X164727Y273408D01*
X164736Y273504D01*
X164750Y273600D01*
X164767Y273695D01*
X164789Y273789D01*
X164814Y273882D01*
X164842Y273975D01*
X164875Y274066D01*
X164911Y274155D01*
X164951Y274243D01*
X164994Y274330D01*
X165040Y274415D01*
X165090Y274497D01*
X165144Y274578D01*
X165200Y274656D01*
X165260Y274732D01*
X165322Y274806D01*
X165388Y274877D01*
X165456Y274945D01*
X165527Y275011D01*
X165601Y275073D01*
X165677Y275133D01*
X165755Y275189D01*
X165836Y275243D01*
X165919Y275293D01*
X166003Y275339D01*
X166090Y275382D01*
X166178Y275422D01*
X166267Y275458D01*
X166358Y275491D01*
X166451Y275519D01*
X166544Y275544D01*
X166638Y275566D01*
X166733Y275583D01*
X166829Y275597D01*
X166925Y275606D01*
X167021Y275612D01*
X167118Y275614D01*
X167215Y275612D01*
X167311Y275606D01*
X167407Y275597D01*
X167503Y275583D01*
X167598Y275566D01*
X167692Y275544D01*
X167785Y275519D01*
X167878Y275491D01*
X167969Y275458D01*
X168058Y275422D01*
X168146Y275382D01*
X168233Y275339D01*
X168318Y275293D01*
X168400Y275243D01*
X168481Y275189D01*
X168559Y275133D01*
X168635Y275073D01*
X168709Y275011D01*
X168780Y274945D01*
X168848Y274877D01*
X168914Y274806D01*
X168976Y274732D01*
X169036Y274656D01*
X169092Y274578D01*
X169146Y274497D01*
X169196Y274415D01*
X169242Y274330D01*
X169285Y274243D01*
X169325Y274155D01*
X169361Y274066D01*
X169394Y273975D01*
X169422Y273882D01*
X169447Y273789D01*
X169469Y273695D01*
X169486Y273600D01*
X169500Y273504D01*
X169509Y273408D01*
X169515Y273312D01*
X169517Y273215D01*
X169517Y270816D01*
X169517Y273695D02*
X173355Y275614D01*
X173355Y279977D02*
X173355Y283815D01*
X173355Y279977D02*
X164719Y279977D01*
X164719Y283815D01*
X168557Y282855D02*
X168557Y279977D01*
X164719Y287703D02*
X173355Y287703D01*
X173355Y291541D01*
X173355Y295430D02*
X173355Y299268D01*
X173355Y295430D02*
X164719Y295430D01*
X164719Y299268D01*
X168557Y298308D02*
X168557Y295430D01*
X173355Y302357D02*
X164719Y305235D01*
X173355Y308114D01*
X171196Y307394D02*
X171196Y303076D01*
X173355Y314333D02*
X173353Y314419D01*
X173347Y314505D01*
X173338Y314591D01*
X173324Y314676D01*
X173307Y314760D01*
X173286Y314844D01*
X173261Y314926D01*
X173233Y315007D01*
X173201Y315087D01*
X173165Y315166D01*
X173126Y315242D01*
X173083Y315317D01*
X173038Y315390D01*
X172989Y315461D01*
X172936Y315529D01*
X172881Y315596D01*
X172823Y315659D01*
X172762Y315720D01*
X172699Y315778D01*
X172632Y315833D01*
X172564Y315886D01*
X172493Y315935D01*
X172420Y315980D01*
X172345Y316023D01*
X172269Y316062D01*
X172190Y316098D01*
X172110Y316130D01*
X172029Y316158D01*
X171947Y316183D01*
X171863Y316204D01*
X171779Y316221D01*
X171694Y316235D01*
X171608Y316244D01*
X171522Y316250D01*
X171436Y316252D01*
X173355Y314333D02*
X173353Y314210D01*
X173348Y314087D01*
X173338Y313964D01*
X173325Y313842D01*
X173308Y313720D01*
X173288Y313598D01*
X173264Y313478D01*
X173236Y313358D01*
X173205Y313239D01*
X173169Y313121D01*
X173131Y313004D01*
X173089Y312888D01*
X173043Y312774D01*
X172994Y312661D01*
X172942Y312550D01*
X172886Y312440D01*
X172827Y312332D01*
X172764Y312226D01*
X172699Y312122D01*
X172630Y312019D01*
X172558Y311919D01*
X172483Y311822D01*
X172406Y311726D01*
X172325Y311633D01*
X172242Y311542D01*
X172156Y311454D01*
X166638Y311695D02*
X166552Y311697D01*
X166466Y311703D01*
X166380Y311712D01*
X166295Y311726D01*
X166211Y311743D01*
X166127Y311764D01*
X166045Y311789D01*
X165964Y311817D01*
X165884Y311849D01*
X165805Y311885D01*
X165729Y311924D01*
X165654Y311967D01*
X165581Y312012D01*
X165510Y312061D01*
X165442Y312114D01*
X165375Y312169D01*
X165312Y312227D01*
X165251Y312288D01*
X165193Y312351D01*
X165138Y312418D01*
X165085Y312486D01*
X165036Y312557D01*
X164991Y312630D01*
X164948Y312705D01*
X164909Y312781D01*
X164873Y312860D01*
X164841Y312940D01*
X164813Y313021D01*
X164788Y313103D01*
X164767Y313187D01*
X164750Y313271D01*
X164736Y313356D01*
X164727Y313442D01*
X164721Y313528D01*
X164719Y313614D01*
X164721Y313730D01*
X164726Y313845D01*
X164736Y313961D01*
X164749Y314076D01*
X164765Y314190D01*
X164786Y314304D01*
X164810Y314418D01*
X164838Y314530D01*
X164869Y314641D01*
X164904Y314752D01*
X164942Y314861D01*
X164984Y314969D01*
X165029Y315075D01*
X165078Y315181D01*
X165130Y315284D01*
X165185Y315386D01*
X165244Y315485D01*
X165306Y315583D01*
X165371Y315679D01*
X165439Y315773D01*
X168317Y312654D02*
X168271Y312579D01*
X168221Y312506D01*
X168168Y312436D01*
X168112Y312368D01*
X168053Y312303D01*
X167991Y312240D01*
X167927Y312181D01*
X167859Y312124D01*
X167789Y312070D01*
X167717Y312020D01*
X167643Y311973D01*
X167567Y311929D01*
X167488Y311889D01*
X167408Y311853D01*
X167327Y311820D01*
X167244Y311791D01*
X167159Y311765D01*
X167074Y311743D01*
X166988Y311726D01*
X166901Y311712D01*
X166814Y311702D01*
X166726Y311696D01*
X166638Y311694D01*
X169757Y315293D02*
X169803Y315367D01*
X169853Y315440D01*
X169906Y315510D01*
X169962Y315578D01*
X170021Y315643D01*
X170083Y315706D01*
X170148Y315765D01*
X170215Y315822D01*
X170285Y315876D01*
X170357Y315926D01*
X170431Y315973D01*
X170507Y316017D01*
X170586Y316057D01*
X170666Y316093D01*
X170747Y316126D01*
X170830Y316156D01*
X170915Y316181D01*
X171000Y316203D01*
X171086Y316220D01*
X171173Y316234D01*
X171260Y316244D01*
X171348Y316250D01*
X171436Y316252D01*
X169757Y315293D02*
X168317Y312654D01*
X173355Y320393D02*
X173355Y324231D01*
X173355Y320393D02*
X164719Y320393D01*
X164719Y324231D01*
X168557Y323271D02*
X168557Y320393D01*
M02*
