G04 EAGLE Gerber RS-274X export*
G75*
%MOMM*%
%FSLAX34Y34*%
%LPD*%
%INSilkscreen Bottom*%
%IPPOS*%
%AMOC8*
5,1,8,0,0,1.08239X$1,22.5*%
G01*
%ADD10C,0.152400*%
%ADD11C,0.127000*%
%ADD12C,0.101600*%


D10*
X546100Y152400D02*
X431800Y152400D01*
X431800Y317500D01*
X546100Y317500D01*
X546100Y152400D01*
D11*
X546100Y317500D02*
X431800Y317500D01*
D12*
X543592Y313592D02*
X543592Y301908D01*
X543592Y313592D02*
X540346Y313592D01*
X540233Y313590D01*
X540120Y313584D01*
X540007Y313574D01*
X539894Y313560D01*
X539782Y313543D01*
X539671Y313521D01*
X539561Y313496D01*
X539451Y313466D01*
X539343Y313433D01*
X539236Y313396D01*
X539130Y313356D01*
X539026Y313311D01*
X538923Y313263D01*
X538822Y313212D01*
X538723Y313157D01*
X538626Y313099D01*
X538531Y313037D01*
X538438Y312972D01*
X538348Y312904D01*
X538260Y312833D01*
X538174Y312758D01*
X538091Y312681D01*
X538011Y312601D01*
X537934Y312518D01*
X537859Y312432D01*
X537788Y312344D01*
X537720Y312254D01*
X537655Y312161D01*
X537593Y312066D01*
X537535Y311969D01*
X537480Y311870D01*
X537429Y311769D01*
X537381Y311666D01*
X537336Y311562D01*
X537296Y311456D01*
X537259Y311349D01*
X537226Y311241D01*
X537196Y311131D01*
X537171Y311021D01*
X537149Y310910D01*
X537132Y310798D01*
X537118Y310685D01*
X537108Y310572D01*
X537102Y310459D01*
X537100Y310346D01*
X537102Y310233D01*
X537108Y310120D01*
X537118Y310007D01*
X537132Y309894D01*
X537149Y309782D01*
X537171Y309671D01*
X537196Y309561D01*
X537226Y309451D01*
X537259Y309343D01*
X537296Y309236D01*
X537336Y309130D01*
X537381Y309026D01*
X537429Y308923D01*
X537480Y308822D01*
X537535Y308723D01*
X537593Y308626D01*
X537655Y308531D01*
X537720Y308438D01*
X537788Y308348D01*
X537859Y308260D01*
X537934Y308174D01*
X538011Y308091D01*
X538091Y308011D01*
X538174Y307934D01*
X538260Y307859D01*
X538348Y307788D01*
X538438Y307720D01*
X538531Y307655D01*
X538626Y307593D01*
X538723Y307535D01*
X538822Y307480D01*
X538923Y307429D01*
X539026Y307381D01*
X539130Y307336D01*
X539236Y307296D01*
X539343Y307259D01*
X539451Y307226D01*
X539561Y307196D01*
X539671Y307171D01*
X539782Y307149D01*
X539894Y307132D01*
X540007Y307118D01*
X540120Y307108D01*
X540233Y307102D01*
X540346Y307100D01*
X540346Y307101D02*
X543592Y307101D01*
X539697Y307101D02*
X537101Y301908D01*
X531832Y301908D02*
X526639Y301908D01*
X531832Y301908D02*
X531832Y313592D01*
X526639Y313592D01*
X527937Y308399D02*
X531832Y308399D01*
X517405Y308399D02*
X515458Y308399D01*
X515458Y301908D01*
X519352Y301908D01*
X519451Y301910D01*
X519551Y301916D01*
X519650Y301925D01*
X519748Y301938D01*
X519846Y301955D01*
X519944Y301976D01*
X520040Y302001D01*
X520135Y302029D01*
X520229Y302061D01*
X520322Y302096D01*
X520414Y302135D01*
X520504Y302178D01*
X520592Y302223D01*
X520679Y302273D01*
X520763Y302325D01*
X520846Y302381D01*
X520926Y302439D01*
X521004Y302501D01*
X521079Y302566D01*
X521152Y302634D01*
X521222Y302704D01*
X521290Y302777D01*
X521355Y302852D01*
X521417Y302930D01*
X521475Y303010D01*
X521531Y303093D01*
X521583Y303177D01*
X521633Y303264D01*
X521678Y303352D01*
X521721Y303442D01*
X521760Y303534D01*
X521795Y303627D01*
X521827Y303721D01*
X521855Y303816D01*
X521880Y303912D01*
X521901Y304010D01*
X521918Y304108D01*
X521931Y304206D01*
X521940Y304305D01*
X521946Y304405D01*
X521948Y304504D01*
X521949Y304504D02*
X521949Y310996D01*
X521948Y310996D02*
X521946Y311095D01*
X521940Y311195D01*
X521931Y311294D01*
X521918Y311392D01*
X521901Y311490D01*
X521880Y311588D01*
X521855Y311684D01*
X521827Y311779D01*
X521795Y311873D01*
X521760Y311966D01*
X521721Y312058D01*
X521678Y312148D01*
X521633Y312236D01*
X521583Y312323D01*
X521531Y312407D01*
X521475Y312490D01*
X521417Y312570D01*
X521355Y312648D01*
X521290Y312723D01*
X521222Y312796D01*
X521152Y312866D01*
X521079Y312934D01*
X521004Y312999D01*
X520926Y313061D01*
X520846Y313119D01*
X520763Y313175D01*
X520679Y313227D01*
X520592Y313277D01*
X520504Y313322D01*
X520414Y313365D01*
X520322Y313404D01*
X520229Y313439D01*
X520135Y313471D01*
X520040Y313499D01*
X519944Y313524D01*
X519846Y313545D01*
X519748Y313562D01*
X519650Y313575D01*
X519551Y313584D01*
X519451Y313590D01*
X519352Y313592D01*
X515458Y313592D01*
X509757Y313592D02*
X509757Y305154D01*
X509755Y305041D01*
X509749Y304928D01*
X509739Y304815D01*
X509725Y304702D01*
X509708Y304590D01*
X509686Y304479D01*
X509661Y304369D01*
X509631Y304259D01*
X509598Y304151D01*
X509561Y304044D01*
X509521Y303938D01*
X509476Y303834D01*
X509428Y303731D01*
X509377Y303630D01*
X509322Y303531D01*
X509264Y303434D01*
X509202Y303339D01*
X509137Y303246D01*
X509069Y303156D01*
X508998Y303068D01*
X508923Y302982D01*
X508846Y302899D01*
X508766Y302819D01*
X508683Y302742D01*
X508597Y302667D01*
X508509Y302596D01*
X508419Y302528D01*
X508326Y302463D01*
X508231Y302401D01*
X508134Y302343D01*
X508035Y302288D01*
X507934Y302237D01*
X507831Y302189D01*
X507727Y302144D01*
X507621Y302104D01*
X507514Y302067D01*
X507406Y302034D01*
X507296Y302004D01*
X507186Y301979D01*
X507075Y301957D01*
X506963Y301940D01*
X506850Y301926D01*
X506737Y301916D01*
X506624Y301910D01*
X506511Y301908D01*
X506398Y301910D01*
X506285Y301916D01*
X506172Y301926D01*
X506059Y301940D01*
X505947Y301957D01*
X505836Y301979D01*
X505726Y302004D01*
X505616Y302034D01*
X505508Y302067D01*
X505401Y302104D01*
X505295Y302144D01*
X505191Y302189D01*
X505088Y302237D01*
X504987Y302288D01*
X504888Y302343D01*
X504791Y302401D01*
X504696Y302463D01*
X504603Y302528D01*
X504513Y302596D01*
X504425Y302667D01*
X504339Y302742D01*
X504256Y302819D01*
X504176Y302899D01*
X504099Y302982D01*
X504024Y303068D01*
X503953Y303156D01*
X503885Y303246D01*
X503820Y303339D01*
X503758Y303434D01*
X503700Y303531D01*
X503645Y303630D01*
X503594Y303731D01*
X503546Y303834D01*
X503501Y303938D01*
X503461Y304044D01*
X503424Y304151D01*
X503391Y304259D01*
X503361Y304369D01*
X503336Y304479D01*
X503314Y304590D01*
X503297Y304702D01*
X503283Y304815D01*
X503273Y304928D01*
X503267Y305041D01*
X503265Y305154D01*
X503266Y305154D02*
X503266Y313592D01*
X497542Y313592D02*
X497542Y301908D01*
X492349Y301908D01*
X488689Y301908D02*
X484794Y313592D01*
X480900Y301908D01*
X481873Y304829D02*
X487715Y304829D01*
X474126Y301908D02*
X474126Y313592D01*
X470881Y313592D02*
X477372Y313592D01*
X466704Y310346D02*
X466704Y305154D01*
X466704Y310346D02*
X466702Y310459D01*
X466696Y310572D01*
X466686Y310685D01*
X466672Y310798D01*
X466655Y310910D01*
X466633Y311021D01*
X466608Y311131D01*
X466578Y311241D01*
X466545Y311349D01*
X466508Y311456D01*
X466468Y311562D01*
X466423Y311666D01*
X466375Y311769D01*
X466324Y311870D01*
X466269Y311969D01*
X466211Y312066D01*
X466149Y312161D01*
X466084Y312254D01*
X466016Y312344D01*
X465945Y312432D01*
X465870Y312518D01*
X465793Y312601D01*
X465713Y312681D01*
X465630Y312758D01*
X465544Y312833D01*
X465456Y312904D01*
X465366Y312972D01*
X465273Y313037D01*
X465178Y313099D01*
X465081Y313157D01*
X464982Y313212D01*
X464881Y313263D01*
X464778Y313311D01*
X464674Y313356D01*
X464568Y313396D01*
X464461Y313433D01*
X464353Y313466D01*
X464243Y313496D01*
X464133Y313521D01*
X464022Y313543D01*
X463910Y313560D01*
X463797Y313574D01*
X463684Y313584D01*
X463571Y313590D01*
X463458Y313592D01*
X463345Y313590D01*
X463232Y313584D01*
X463119Y313574D01*
X463006Y313560D01*
X462894Y313543D01*
X462783Y313521D01*
X462673Y313496D01*
X462563Y313466D01*
X462455Y313433D01*
X462348Y313396D01*
X462242Y313356D01*
X462138Y313311D01*
X462035Y313263D01*
X461934Y313212D01*
X461835Y313157D01*
X461738Y313099D01*
X461643Y313037D01*
X461550Y312972D01*
X461460Y312904D01*
X461372Y312833D01*
X461286Y312758D01*
X461203Y312681D01*
X461123Y312601D01*
X461046Y312518D01*
X460971Y312432D01*
X460900Y312344D01*
X460832Y312254D01*
X460767Y312161D01*
X460705Y312066D01*
X460647Y311969D01*
X460592Y311870D01*
X460541Y311769D01*
X460493Y311666D01*
X460448Y311562D01*
X460408Y311456D01*
X460371Y311349D01*
X460338Y311241D01*
X460308Y311131D01*
X460283Y311021D01*
X460261Y310910D01*
X460244Y310798D01*
X460230Y310685D01*
X460220Y310572D01*
X460214Y310459D01*
X460212Y310346D01*
X460213Y310346D02*
X460213Y305154D01*
X460212Y305154D02*
X460214Y305041D01*
X460220Y304928D01*
X460230Y304815D01*
X460244Y304702D01*
X460261Y304590D01*
X460283Y304479D01*
X460308Y304369D01*
X460338Y304259D01*
X460371Y304151D01*
X460408Y304044D01*
X460448Y303938D01*
X460493Y303834D01*
X460541Y303731D01*
X460592Y303630D01*
X460647Y303531D01*
X460705Y303434D01*
X460767Y303339D01*
X460832Y303246D01*
X460900Y303156D01*
X460971Y303068D01*
X461046Y302982D01*
X461123Y302899D01*
X461203Y302819D01*
X461286Y302742D01*
X461372Y302667D01*
X461460Y302596D01*
X461550Y302528D01*
X461643Y302463D01*
X461738Y302401D01*
X461835Y302343D01*
X461934Y302288D01*
X462035Y302237D01*
X462138Y302189D01*
X462242Y302144D01*
X462348Y302104D01*
X462455Y302067D01*
X462563Y302034D01*
X462673Y302004D01*
X462783Y301979D01*
X462894Y301957D01*
X463006Y301940D01*
X463119Y301926D01*
X463232Y301916D01*
X463345Y301910D01*
X463458Y301908D01*
X463571Y301910D01*
X463684Y301916D01*
X463797Y301926D01*
X463910Y301940D01*
X464022Y301957D01*
X464133Y301979D01*
X464243Y302004D01*
X464353Y302034D01*
X464461Y302067D01*
X464568Y302104D01*
X464674Y302144D01*
X464778Y302189D01*
X464881Y302237D01*
X464982Y302288D01*
X465081Y302343D01*
X465178Y302401D01*
X465273Y302463D01*
X465366Y302528D01*
X465456Y302596D01*
X465544Y302667D01*
X465630Y302742D01*
X465713Y302819D01*
X465793Y302899D01*
X465870Y302982D01*
X465945Y303068D01*
X466016Y303156D01*
X466084Y303246D01*
X466149Y303339D01*
X466211Y303434D01*
X466269Y303531D01*
X466324Y303630D01*
X466375Y303731D01*
X466423Y303834D01*
X466468Y303938D01*
X466508Y304044D01*
X466545Y304151D01*
X466578Y304259D01*
X466608Y304369D01*
X466633Y304479D01*
X466655Y304590D01*
X466672Y304702D01*
X466686Y304815D01*
X466696Y304928D01*
X466702Y305041D01*
X466704Y305154D01*
X454819Y301908D02*
X454819Y313592D01*
X451574Y313592D01*
X451461Y313590D01*
X451348Y313584D01*
X451235Y313574D01*
X451122Y313560D01*
X451010Y313543D01*
X450899Y313521D01*
X450789Y313496D01*
X450679Y313466D01*
X450571Y313433D01*
X450464Y313396D01*
X450358Y313356D01*
X450254Y313311D01*
X450151Y313263D01*
X450050Y313212D01*
X449951Y313157D01*
X449854Y313099D01*
X449759Y313037D01*
X449666Y312972D01*
X449576Y312904D01*
X449488Y312833D01*
X449402Y312758D01*
X449319Y312681D01*
X449239Y312601D01*
X449162Y312518D01*
X449087Y312432D01*
X449016Y312344D01*
X448948Y312254D01*
X448883Y312161D01*
X448821Y312066D01*
X448763Y311969D01*
X448708Y311870D01*
X448657Y311769D01*
X448609Y311666D01*
X448564Y311562D01*
X448524Y311456D01*
X448487Y311349D01*
X448454Y311241D01*
X448424Y311131D01*
X448399Y311021D01*
X448377Y310910D01*
X448360Y310798D01*
X448346Y310685D01*
X448336Y310572D01*
X448330Y310459D01*
X448328Y310346D01*
X448330Y310233D01*
X448336Y310120D01*
X448346Y310007D01*
X448360Y309894D01*
X448377Y309782D01*
X448399Y309671D01*
X448424Y309561D01*
X448454Y309451D01*
X448487Y309343D01*
X448524Y309236D01*
X448564Y309130D01*
X448609Y309026D01*
X448657Y308923D01*
X448708Y308822D01*
X448763Y308723D01*
X448821Y308626D01*
X448883Y308531D01*
X448948Y308438D01*
X449016Y308348D01*
X449087Y308260D01*
X449162Y308174D01*
X449239Y308091D01*
X449319Y308011D01*
X449402Y307934D01*
X449488Y307859D01*
X449576Y307788D01*
X449666Y307720D01*
X449759Y307655D01*
X449854Y307593D01*
X449951Y307535D01*
X450050Y307480D01*
X450151Y307429D01*
X450254Y307381D01*
X450358Y307336D01*
X450464Y307296D01*
X450571Y307259D01*
X450679Y307226D01*
X450789Y307196D01*
X450899Y307171D01*
X451010Y307149D01*
X451122Y307132D01*
X451235Y307118D01*
X451348Y307108D01*
X451461Y307102D01*
X451574Y307100D01*
X451574Y307101D02*
X454819Y307101D01*
X450925Y307101D02*
X448328Y301908D01*
M02*
