G04 EAGLE Gerber RS-274X export*
G75*
%MOMM*%
%FSLAX34Y34*%
%LPD*%
%INSoldermask Top*%
%IPPOS*%
%AMOC8*
5,1,8,0,0,1.08239X$1,22.5*%
G01*
%ADD10C,3.203200*%
%ADD11C,1.203200*%
%ADD12C,1.812800*%
%ADD13R,1.812800X1.812800*%
%ADD14C,2.453200*%
%ADD15C,1.832800*%
%ADD16R,1.412800X1.412800*%
%ADD17R,1.812800X1.812800*%
%ADD18C,2.483200*%
%ADD19P,2.034460X8X292.500000*%


D10*
X400000Y460000D03*
X200000Y140000D03*
D11*
X152400Y304800D03*
D12*
X262096Y78019D03*
X257686Y103034D03*
X253275Y128048D03*
X248864Y153062D03*
X244454Y178076D03*
X240043Y203090D03*
X235632Y228104D03*
X231222Y253118D03*
X226811Y278132D03*
X222400Y303147D03*
X217990Y328161D03*
X213579Y353175D03*
X209168Y378189D03*
X204758Y403203D03*
X200347Y428217D03*
X195936Y453231D03*
X191526Y478245D03*
D13*
G36*
X419533Y114983D02*
X422681Y97131D01*
X404829Y93983D01*
X401681Y111835D01*
X419533Y114983D01*
G37*
D12*
X407770Y129498D03*
X403360Y154512D03*
X398949Y179526D03*
X394538Y204540D03*
X390128Y229554D03*
X385717Y254568D03*
X381306Y279582D03*
X376896Y304596D03*
X372485Y329610D03*
X368074Y354625D03*
X363664Y379639D03*
X359253Y404653D03*
X354842Y429667D03*
X350432Y454681D03*
X346021Y479695D03*
X341610Y504709D03*
D14*
X63500Y355600D03*
X63500Y381000D03*
X63500Y406400D03*
D15*
X431800Y393700D03*
X431800Y342900D03*
X431800Y317500D03*
X431800Y292100D03*
X431800Y266700D03*
X431800Y241300D03*
X431800Y368300D03*
D16*
X25400Y292100D03*
X25400Y342900D03*
D12*
X450800Y165100D03*
X476200Y165100D03*
D17*
X501600Y165100D03*
D12*
X527000Y165100D03*
D18*
X50800Y254000D03*
X50800Y228600D03*
X50800Y203200D03*
D19*
X152400Y330200D03*
X152400Y279400D03*
M02*
